<svg xmlns="http://www.w3.org/2000/svg" viewBox="0 0 400 300">
  <!-- PCB base (dark green) -->
  <rect width="400" height="300" fill="#0B1929" rx="12"/>
  <rect x="20" y="20" width="360" height="260" rx="8" fill="#1a3020" stroke="#2a4a30" stroke-width="1.5"/>

  <!-- PCB mounting holes -->
  <circle cx="38"  cy="38"  r="5" fill="#0B1929" stroke="#3a5a40" stroke-width="1"/>
  <circle cx="362" cy="38"  r="5" fill="#0B1929" stroke="#3a5a40" stroke-width="1"/>
  <circle cx="38"  cy="262" r="5" fill="#0B1929" stroke="#3a5a40" stroke-width="1"/>
  <circle cx="362" cy="262" r="5" fill="#0B1929" stroke="#3a5a40" stroke-width="1"/>

  <!-- Copper traces (horizontal) -->
  <line x1="50"  y1="80"  x2="180" y2="80"  stroke="#c49a10" stroke-width="1.5" opacity="0.7"/>
  <line x1="50"  y1="100" x2="130" y2="100" stroke="#c49a10" stroke-width="1.5" opacity="0.7"/>
  <line x1="220" y1="80"  x2="350" y2="80"  stroke="#c49a10" stroke-width="1.5" opacity="0.7"/>
  <line x1="250" y1="100" x2="350" y2="100" stroke="#c49a10" stroke-width="1.5" opacity="0.7"/>
  <line x1="50"  y1="200" x2="160" y2="200" stroke="#c49a10" stroke-width="1.5" opacity="0.7"/>
  <line x1="230" y1="200" x2="350" y2="200" stroke="#c49a10" stroke-width="1.5" opacity="0.7"/>
  <line x1="50"  y1="220" x2="350" y2="220" stroke="#c49a10" stroke-width="1" opacity="0.5"/>

  <!-- Copper traces (vertical) -->
  <line x1="80"  y1="80"  x2="80"  y2="200" stroke="#c49a10" stroke-width="1.5" opacity="0.6"/>
  <line x1="130" y1="100" x2="130" y2="160" stroke="#c49a10" stroke-width="1.5" opacity="0.6"/>
  <line x1="320" y1="80"  x2="320" y2="200" stroke="#c49a10" stroke-width="1.5" opacity="0.6"/>
  <line x1="270" y1="100" x2="270" y2="160" stroke="#c49a10" stroke-width="1.5" opacity="0.6"/>

  <!-- Main MCU chip (center) -->
  <rect x="162" y="118" width="76" height="64" rx="4" fill="#1a1a2a" stroke="#4a6a50" stroke-width="1.5"/>
  <!-- MCU pins (left) -->
  <rect x="152" y="126" width="10" height="4" rx="1" fill="#c49a10"/>
  <rect x="152" y="134" width="10" height="4" rx="1" fill="#c49a10"/>
  <rect x="152" y="142" width="10" height="4" rx="1" fill="#c49a10"/>
  <rect x="152" y="150" width="10" height="4" rx="1" fill="#c49a10"/>
  <rect x="152" y="158" width="10" height="4" rx="1" fill="#c49a10"/>
  <rect x="152" y="166" width="10" height="4" rx="1" fill="#c49a10"/>
  <!-- MCU pins (right) -->
  <rect x="238" y="126" width="10" height="4" rx="1" fill="#c49a10"/>
  <rect x="238" y="134" width="10" height="4" rx="1" fill="#c49a10"/>
  <rect x="238" y="142" width="10" height="4" rx="1" fill="#c49a10"/>
  <rect x="238" y="150" width="10" height="4" rx="1" fill="#c49a10"/>
  <rect x="238" y="158" width="10" height="4" rx="1" fill="#c49a10"/>
  <rect x="238" y="166" width="10" height="4" rx="1" fill="#c49a10"/>
  <!-- MCU pins (top) -->
  <rect x="172" y="108" width="4" height="10" rx="1" fill="#c49a10"/>
  <rect x="182" y="108" width="4" height="10" rx="1" fill="#c49a10"/>
  <rect x="192" y="108" width="4" height="10" rx="1" fill="#c49a10"/>
  <rect x="202" y="108" width="4" height="10" rx="1" fill="#c49a10"/>
  <rect x="212" y="108" width="4" height="10" rx="1" fill="#c49a10"/>
  <rect x="222" y="108" width="4" height="10" rx="1" fill="#c49a10"/>
  <!-- MCU pins (bottom) -->
  <rect x="172" y="182" width="4" height="10" rx="1" fill="#c49a10"/>
  <rect x="182" y="182" width="4" height="10" rx="1" fill="#c49a10"/>
  <rect x="192" y="182" width="4" height="10" rx="1" fill="#c49a10"/>
  <rect x="202" y="182" width="4" height="10" rx="1" fill="#c49a10"/>
  <rect x="212" y="182" width="4" height="10" rx="1" fill="#c49a10"/>
  <rect x="222" y="182" width="4" height="10" rx="1" fill="#c49a10"/>
  <!-- MCU label -->
  <text x="200" y="148" text-anchor="middle" fill="#4a8a50" font-size="8" font-family="monospace">WB-MCU</text>
  <text x="200" y="160" text-anchor="middle" fill="#3a6a40" font-size="7" font-family="monospace">pH/EC</text>

  <!-- pH section (left) -->
  <rect x="50" y="108" width="88" height="84" rx="4" fill="#1a2a1a" stroke="#2a4a30" stroke-width="1" stroke-dasharray="4 2"/>
  <text x="94" y="126" text-anchor="middle" fill="#4a9a50" font-size="9" font-family="monospace" font-weight="bold">pH</text>
  <!-- pH chip -->
  <rect x="62" y="132" width="28" height="20" rx="2" fill="#1a1a2a" stroke="#3a5a40" stroke-width="1"/>
  <text x="76" y="146" text-anchor="middle" fill="#6aaa60" font-size="7" font-family="monospace">AMP</text>
  <!-- pH capacitors -->
  <rect x="100" y="135" width="6" height="12" rx="1" fill="#2a4a60"/>
  <rect x="112" y="135" width="6" height="12" rx="1" fill="#2a4a60"/>
  <!-- pH connector pads -->
  <rect x="58" y="170" width="8" height="8" rx="1" fill="#c49a10"/>
  <rect x="70" y="170" width="8" height="8" rx="1" fill="#c49a10"/>
  <rect x="82" y="170" width="8" height="8" rx="1" fill="#c49a10"/>
  <text x="94" y="186" text-anchor="middle" fill="#556655" font-size="7" font-family="monospace">pH IN</text>

  <!-- EC section (right) -->
  <rect x="262" y="108" width="88" height="84" rx="4" fill="#1a2a1a" stroke="#2a4a30" stroke-width="1" stroke-dasharray="4 2"/>
  <text x="306" y="126" text-anchor="middle" fill="#4a9a50" font-size="9" font-family="monospace" font-weight="bold">EC</text>
  <!-- EC chip -->
  <rect x="310" y="132" width="28" height="20" rx="2" fill="#1a1a2a" stroke="#3a5a40" stroke-width="1"/>
  <text x="324" y="146" text-anchor="middle" fill="#6aaa60" font-size="7" font-family="monospace">OSC</text>
  <!-- EC capacitors -->
  <rect x="272" y="135" width="6" height="12" rx="1" fill="#2a4a60"/>
  <rect x="284" y="135" width="6" height="12" rx="1" fill="#2a4a60"/>
  <!-- EC connector pads -->
  <rect x="290" y="170" width="8" height="8" rx="1" fill="#c49a10"/>
  <rect x="302" y="170" width="8" height="8" rx="1" fill="#c49a10"/>
  <rect x="314" y="170" width="8" height="8" rx="1" fill="#c49a10"/>
  <text x="306" y="186" text-anchor="middle" fill="#556655" font-size="7" font-family="monospace">EC IN</text>

  <!-- RS-485 connector (bottom left) -->
  <rect x="50" y="225" width="60" height="24" rx="3" fill="#1a2a3a" stroke="#2a5070" stroke-width="1.2"/>
  <rect x="55" y="230" width="8" height="14" rx="1" fill="#c49a10"/>
  <rect x="67" y="230" width="8" height="14" rx="1" fill="#c49a10"/>
  <rect x="79" y="230" width="8" height="14" rx="1" fill="#c49a10"/>
  <text x="80" y="257" text-anchor="middle" fill="#445566" font-size="8" font-family="monospace">RS-485</text>

  <!-- Power connector (bottom right) -->
  <rect x="290" y="225" width="60" height="24" rx="3" fill="#1a2a3a" stroke="#2a5070" stroke-width="1.2"/>
  <rect x="295" y="230" width="8" height="14" rx="1" fill="#c49a10"/>
  <rect x="307" y="230" width="8" height="14" rx="1" fill="#c49a10"/>
  <rect x="319" y="230" width="8" height="14" rx="1" fill="#c49a10"/>
  <text x="320" y="257" text-anchor="middle" fill="#445566" font-size="8" font-family="monospace">DC 12/24V</text>

  <!-- Model silkscreen -->
  <text x="200" y="270" text-anchor="middle" fill="#2a4a30" font-size="9" font-family="monospace" letter-spacing="1">WB-PES  pH/EC SENSOR BOARD</text>

  <!-- Status LED -->
  <circle cx="340" cy="55" r="5" fill="#00cc44" opacity="0.8"/>
  <circle cx="340" cy="55" r="8" fill="#00cc44" opacity="0.15"/>
  <text x="328" y="72" text-anchor="middle" fill="#3a6a40" font-size="7" font-family="monospace">PWR</text>

  <!-- DIN rail clip indicator -->
  <rect x="155" y="230" width="90" height="16" rx="3" fill="#1a2a3a" stroke="#2a4060" stroke-width="1"/>
  <text x="200" y="242" text-anchor="middle" fill="#445566" font-size="7" font-family="monospace">DIN Rail Mount</text>
</svg>
