<svg xmlns="http://www.w3.org/2000/svg" viewBox="0 0 300 300">
  <rect width="300" height="300" fill="#0B1929" rx="16"/>
  <ellipse cx="150" cy="118" rx="72" ry="72" fill="#ffe066" opacity="0.04"/>
  <ellipse cx="150" cy="118" rx="52" ry="52" fill="#ffe066" opacity="0.06"/>
  <path d="M 150 52 C 108 52 98 80 98 110 C 98 140 114 162 134 172 L 134 188 L 166 188 L 166 172 C 186 162 202 140 202 110 C 202 80 192 52 150 52 Z" fill="#0f2235" stroke="#2a5070" stroke-width="1.5"/>
  <ellipse cx="150" cy="115" rx="40" ry="46" fill="#ffe066" opacity="0.09"/>
  <path d="M 126 128 Q 134 108 142 122 Q 150 136 158 118 Q 166 102 174 118" fill="none" stroke="#ffe066" stroke-width="2.5" stroke-linecap="round" stroke-linejoin="round"/>
  <line x1="130" y1="128" x2="130" y2="150" stroke="#8898aa" stroke-width="1.5"/>
  <line x1="170" y1="118" x2="170" y2="150" stroke="#8898aa" stroke-width="1.5"/>
  <rect x="128" y="188" width="44" height="13" rx="3" fill="#1e3a5a" stroke="#2a5070" stroke-width="1.2"/>
  <rect x="132" y="201" width="36" height="11" rx="2" fill="#172d47" stroke="#243f62" stroke-width="1"/>
  <rect x="136" y="212" width="28" height="11" rx="2" fill="#172d47" stroke="#243f62" stroke-width="1"/>
  <rect x="140" y="223" width="20" height="9" rx="2" fill="#1a3050" stroke="#243f62" stroke-width="1"/>
  <rect x="118" y="105" width="64" height="20" rx="5" fill="#0a1825" opacity="0.7"/>
  <text x="150" y="119" text-anchor="middle" fill="#ffe066" font-size="11" font-family="monospace" opacity="0.9">580 nm</text>
  <ellipse cx="130" cy="80" rx="10" ry="16" fill="white" opacity="0.04" transform="rotate(-20,130,80)"/>
  <text x="150" y="278" text-anchor="middle" fill="#445566" font-size="9" font-family="monospace" letter-spacing="1">WBTU10-LK</text>
</svg>