  0
SECTION
  2
HEADER
  9
$ACADVER
  1
AC1032
  9
$ACADMAINTVER
 90
4
  9
$DWGCODEPAGE
  3
ANSI_1252
  9
$REQUIREDVERSIONS
160
0
  9
$INSBASE
 10
0.0
 20
0.0
 30
0.0
  9
$EXTMIN
 10
1e+20
 20
1e+20
 30
1e+20
  9
$EXTMAX
 10
-1e+20
 20
-1e+20
 30
-1e+20
  9
$LIMMIN
 10
0.0
 20
0.0
  9
$LIMMAX
 10
420.0
 20
297.0
  9
$ORTHOMODE
 70
0
  9
$REGENMODE
 70
1
  9
$FILLMODE
 70
1
  9
$QTEXTMODE
 70
0
  9
$MIRRTEXT
 70
1
  9
$LTSCALE
 40
1.0
  9
$ATTMODE
 70
1
  9
$TEXTSIZE
 40
2.5
  9
$TRACEWID
 40
1.0
  9
$TEXTSTYLE
  7
Standard
  9
$CLAYER
  8
0
  9
$CELTYPE
  6
ByLayer
  9
$CECOLOR
 62
256
  9
$CELTSCALE
 40
1.0
  9
$DISPSILH
 70
0
  9
$DIMSCALE
 40
1.0
  9
$DIMASZ
 40
2.5
  9
$DIMEXO
 40
0.625
  9
$DIMDLI
 40
3.75
  9
$DIMRND
 40
0.0
  9
$DIMDLE
 40
0.0
  9
$DIMEXE
 40
1.25
  9
$DIMTP
 40
0.0
  9
$DIMTM
 40
0.0
  9
$DIMTXT
 40
2.5
  9
$DIMCEN
 40
2.5
  9
$DIMTSZ
 40
0.0
  9
$DIMTOL
 70
0
  9
$DIMLIM
 70
0
  9
$DIMTIH
 70
0
  9
$DIMTOH
 70
0
  9
$DIMSE1
 70
0
  9
$DIMSE2
 70
0
  9
$DIMTAD
 70
1
  9
$DIMZIN
 70
8
  9
$DIMBLK
  1

  9
$DIMASO
 70
1
  9
$DIMSHO
 70
1
  9
$DIMPOST
  1

  9
$DIMAPOST
  1

  9
$DIMALT
 70
0
  9
$DIMALTD
 70
3
  9
$DIMALTF
 40
0.03937007874
  9
$DIMLFAC
 40
1.0
  9
$DIMTOFL
 70
1
  9
$DIMTVP
 40
0.0
  9
$DIMTIX
 70
0
  9
$DIMSOXD
 70
0
  9
$DIMSAH
 70
0
  9
$DIMBLK1
  1

  9
$DIMBLK2
  1

  9
$DIMSTYLE
  2
ISO-25
  9
$DIMCLRD
 70
0
  9
$DIMCLRE
 70
0
  9
$DIMCLRT
 70
0
  9
$DIMTFAC
 40
1.0
  9
$DIMGAP
 40
0.625
  9
$DIMJUST
 70
0
  9
$DIMSD1
 70
0
  9
$DIMSD2
 70
0
  9
$DIMTOLJ
 70
0
  9
$DIMTZIN
 70
8
  9
$DIMALTZ
 70
0
  9
$DIMALTTZ
 70
0
  9
$DIMUPT
 70
0
  9
$DIMDEC
 70
2
  9
$DIMTDEC
 70
2
  9
$DIMALTU
 70
2
  9
$DIMALTTD
 70
3
  9
$DIMTXSTY
  7
Standard
  9
$DIMAUNIT
 70
0
  9
$DIMADEC
 70
0
  9
$DIMALTRND
 40
0.0
  9
$DIMAZIN
 70
0
  9
$DIMDSEP
 70
44
  9
$DIMATFIT
 70
3
  9
$DIMFRAC
 70
0
  9
$DIMLDRBLK
  1

  9
$DIMLUNIT
 70
2
  9
$DIMLWD
 70
-2
  9
$DIMLWE
 70
-2
  9
$DIMTMOVE
 70
0
  9
$DIMFXL
 40
1.0
  9
$DIMFXLON
 70
0
  9
$DIMJOGANG
 40
0.785398163397
  9
$DIMTFILL
 70
0
  9
$DIMTFILLCLR
 70
0
  9
$DIMARCSYM
 70
0
  9
$DIMLTYPE
  6

  9
$DIMLTEX1
  6

  9
$DIMLTEX2
  6

  9
$DIMTXTDIRECTION
 70
0
  9
$LUNITS
 70
2
  9
$LUPREC
 70
4
  9
$SKETCHINC
 40
1.0
  9
$FILLETRAD
 40
10.0
  9
$AUNITS
 70
0
  9
$AUPREC
 70
2
  9
$MENU
  1
.
  9
$ELEVATION
 40
0.0
  9
$PELEVATION
 40
0.0
  9
$THICKNESS
 40
0.0
  9
$LIMCHECK
 70
0
  9
$CHAMFERA
 40
0.0
  9
$CHAMFERB
 40
0.0
  9
$CHAMFERC
 40
0.0
  9
$CHAMFERD
 40
0.0
  9
$SKPOLY
 70
0
  9
$TDCREATE
 40
2461301.497361111
  9
$TDUCREATE
 40
2458532.153996898
  9
$TDUPDATE
 40
2461301.497361111
  9
$TDUUPDATE
 40
2458532.1544311
  9
$TDINDWG
 40
0.0
  9
$TDUSRTIMER
 40
0.0
  9
$USRTIMER
 70
1
  9
$ANGBASE
 50
0.0
  9
$ANGDIR
 70
0
  9
$PDMODE
 70
0
  9
$PDSIZE
 40
0.0
  9
$PLINEWID
 40
0.0
  9
$SPLFRAME
 70
0
  9
$SPLINETYPE
 70
6
  9
$SPLINESEGS
 70
8
  9
$HANDSEED
  5
1A1
  9
$SURFTAB1
 70
6
  9
$SURFTAB2
 70
6
  9
$SURFTYPE
 70
6
  9
$SURFU
 70
6
  9
$SURFV
 70
6
  9
$UCSBASE
  2

  9
$UCSNAME
  2

  9
$UCSORG
 10
0.0
 20
0.0
 30
0.0
  9
$UCSXDIR
 10
1.0
 20
0.0
 30
0.0
  9
$UCSYDIR
 10
0.0
 20
1.0
 30
0.0
  9
$UCSORTHOREF
  2

  9
$UCSORTHOVIEW
 70
0
  9
$UCSORGTOP
 10
0.0
 20
0.0
 30
0.0
  9
$UCSORGBOTTOM
 10
0.0
 20
0.0
 30
0.0
  9
$UCSORGLEFT
 10
0.0
 20
0.0
 30
0.0
  9
$UCSORGRIGHT
 10
0.0
 20
0.0
 30
0.0
  9
$UCSORGFRONT
 10
0.0
 20
0.0
 30
0.0
  9
$UCSORGBACK
 10
0.0
 20
0.0
 30
0.0
  9
$PUCSBASE
  2

  9
$PUCSNAME
  2

  9
$PUCSORG
 10
0.0
 20
0.0
 30
0.0
  9
$PUCSXDIR
 10
1.0
 20
0.0
 30
0.0
  9
$PUCSYDIR
 10
0.0
 20
1.0
 30
0.0
  9
$PUCSORTHOREF
  2

  9
$PUCSORTHOVIEW
 70
0
  9
$PUCSORGTOP
 10
0.0
 20
0.0
 30
0.0
  9
$PUCSORGBOTTOM
 10
0.0
 20
0.0
 30
0.0
  9
$PUCSORGLEFT
 10
0.0
 20
0.0
 30
0.0
  9
$PUCSORGRIGHT
 10
0.0
 20
0.0
 30
0.0
  9
$PUCSORGFRONT
 10
0.0
 20
0.0
 30
0.0
  9
$PUCSORGBACK
 10
0.0
 20
0.0
 30
0.0
  9
$USERI1
 70
0
  9
$USERI2
 70
0
  9
$USERI3
 70
0
  9
$USERI4
 70
0
  9
$USERI5
 70
0
  9
$USERR1
 40
0.0
  9
$USERR2
 40
0.0
  9
$USERR3
 40
0.0
  9
$USERR4
 40
0.0
  9
$USERR5
 40
0.0
  9
$WORLDVIEW
 70
1
  9
$SHADEDGE
 70
3
  9
$SHADEDIF
 70
70
  9
$TILEMODE
 70
1
  9
$MAXACTVP
 70
64
  9
$PINSBASE
 10
0.0
 20
0.0
 30
0.0
  9
$PLIMCHECK
 70
0
  9
$PEXTMIN
 10
1e+20
 20
1e+20
 30
1e+20
  9
$PEXTMAX
 10
-1e+20
 20
-1e+20
 30
-1e+20
  9
$PLIMMIN
 10
-0.0
 20
-0.0
  9
$PLIMMAX
 10
297.0
 20
210.0
  9
$UNITMODE
 70
0
  9
$VISRETAIN
 70
1
  9
$PLINEGEN
 70
0
  9
$PSLTSCALE
 70
1
  9
$TREEDEPTH
 70
3020
  9
$CMLSTYLE
  2
Standard
  9
$CMLJUST
 70
0
  9
$CMLSCALE
 40
20.0
  9
$PROXYGRAPHICS
 70
1
  9
$MEASUREMENT
 70
1
  9
$CELWEIGHT
370
-1
  9
$ENDCAPS
280
0
  9
$JOINSTYLE
280
0
  9
$LWDISPLAY
290
0
  9
$INSUNITS
 70
4
  9
$HYPERLINKBASE
  1

  9
$STYLESHEET
  1

  9
$XEDIT
290
1
  9
$CEPSNTYPE
380
0
  9
$PSTYLEMODE
290
1
  9
$VERSIONGUID
  2
{DCE76CE7-57F8-4B07-9B7C-D17A70D37B62}
  9
$EXTNAMES
290
1
  9
$PSVPSCALE
 40
0.0
  9
$OLESTARTUP
290
0
  9
$SORTENTS
280
127
  9
$INDEXCTL
280
0
  9
$HIDETEXT
280
1
  9
$XCLIPFRAME
280
1
  9
$HALOGAP
280
0
  9
$OBSCOLOR
 70
257
  9
$OBSLTYPE
280
0
  9
$INTERSECTIONDISPLAY
280
0
  9
$INTERSECTIONCOLOR
 70
257
  9
$DIMASSOC
280
2
  9
$CAMERADISPLAY
290
0
  9
$LENSLENGTH
 40
50.0
  9
$CAMERAHEIGHT
 40
0.0
  9
$STEPSPERSEC
 40
24.0
  9
$STEPSIZE
 40
100.0
  9
$3DDWFPREC
 40
2.0
  9
$PSOLWIDTH
 40
0.005
  9
$PSOLHEIGHT
 40
0.08
  9
$LOFTANG1
 40
1.570796326795
  9
$LOFTANG2
 40
1.570796326795
  9
$LOFTMAG1
 40
0.0
  9
$LOFTMAG2
 40
0.0
  9
$LOFTPARAM
 70
7
  9
$LOFTNORMALS
280
1
  9
$LATITUDE
 40
37.795
  9
$LONGITUDE
 40
-122.394
  9
$NORTHDIRECTION
 40
0.0
  9
$TIMEZONE
 70
-8000
  9
$LIGHTGLYPHDISPLAY
280
1
  9
$TILEMODELIGHTSYNCH
280
1
  9
$CMATERIAL
347
20
  9
$SOLIDHIST
280
0
  9
$SHOWHIST
280
1
  9
$DWFFRAME
280
2
  9
$DGNFRAME
280
2
  9
$REALWORLDSCALE
290
1
  9
$INTERFERECOLOR
 62
256
  9
$CSHADOW
280
0
  9
$SHADOWPLANELOCATION
 40
0.0
  0
ENDSEC
  0
SECTION
  2
CLASSES
  0
CLASS
  1
ACDBDICTIONARYWDFLT
  2
AcDbDictionaryWithDefault
  3
ObjectDBX Classes
 90
0
 91
0
280
0
281
0
  0
CLASS
  1
SUN
  2
AcDbSun
  3
SCENEOE
 90
1153
 91
0
280
0
281
0
  0
CLASS
  1
VISUALSTYLE
  2
AcDbVisualStyle
  3
ObjectDBX Classes
 90
4095
 91
0
280
0
281
0
  0
CLASS
  1
MATERIAL
  2
AcDbMaterial
  3
ObjectDBX Classes
 90
1153
 91
0
280
0
281
0
  0
CLASS
  1
SCALE
  2
AcDbScale
  3
ObjectDBX Classes
 90
1153
 91
0
280
0
281
0
  0
CLASS
  1
TABLESTYLE
  2
AcDbTableStyle
  3
ObjectDBX Classes
 90
4095
 91
0
280
0
281
0
  0
CLASS
  1
MLEADERSTYLE
  2
AcDbMLeaderStyle
  3
ACDB_MLEADERSTYLE_CLASS
 90
4095
 91
0
280
0
281
0
  0
CLASS
  1
DICTIONARYVAR
  2
AcDbDictionaryVar
  3
ObjectDBX Classes
 90
0
 91
0
280
0
281
0
  0
CLASS
  1
CELLSTYLEMAP
  2
AcDbCellStyleMap
  3
ObjectDBX Classes
 90
1152
 91
0
280
0
281
0
  0
CLASS
  1
MENTALRAYRENDERSETTINGS
  2
AcDbMentalRayRenderSettings
  3
SCENEOE
 90
1024
 91
0
280
0
281
0
  0
CLASS
  1
ACDBDETAILVIEWSTYLE
  2
AcDbDetailViewStyle
  3
ObjectDBX Classes
 90
1025
 91
0
280
0
281
0
  0
CLASS
  1
ACDBSECTIONVIEWSTYLE
  2
AcDbSectionViewStyle
  3
ObjectDBX Classes
 90
1025
 91
0
280
0
281
0
  0
CLASS
  1
RASTERVARIABLES
  2
AcDbRasterVariables
  3
ISM
 90
0
 91
0
280
0
281
0
  0
CLASS
  1
LAYOUT
  2
AcDbLayout
  3
ObjectDBX Classes
 90
0
 91
0
280
0
281
0
  0
CLASS
  1
ACDBPLACEHOLDER
  2
AcDbPlaceHolder
  3
ObjectDBX Classes
 90
0
 91
0
280
0
281
0
  0
ENDSEC
  0
SECTION
  2
TABLES
  0
TABLE
  2
VPORT
  5
8
330
0
100
AcDbSymbolTable
 70
1
  0
VPORT
  5
23
330
8
100
AcDbSymbolTableRecord
100
AcDbViewportTableRecord
  2
*Active
 70
0
 10
0.0
 20
0.0
 11
1.0
 21
1.0
 12
0.0
 22
0.0
 13
0.0
 23
0.0
 14
0.5
 24
0.5
 15
0.5
 25
0.5
 16
0.0
 26
0.0
 36
1.0
 17
0.0
 27
0.0
 37
0.0
 40
1000.0
 41
1.34
 42
50.0
 43
0.0
 44
0.0
 50
0.0
 51
0.0
 71
0
 72
1000
 73
1
 74
3
 75
0
 76
0
 77
0
 78
0
281
0
 65
0
146
0.0
  0
ENDTAB
  0
TABLE
  2
LTYPE
  5
2
330
0
100
AcDbSymbolTable
 70
3
  0
LTYPE
  5
24
330
2
100
AcDbSymbolTableRecord
100
AcDbLinetypeTableRecord
  2
ByBlock
 70
0
  3

 72
65
 73
0
 40
0.0
  0
LTYPE
  5
25
330
2
100
AcDbSymbolTableRecord
100
AcDbLinetypeTableRecord
  2
ByLayer
 70
0
  3

 72
65
 73
0
 40
0.0
  0
LTYPE
  5
26
330
2
100
AcDbSymbolTableRecord
100
AcDbLinetypeTableRecord
  2
Continuous
 70
0
  3

 72
65
 73
0
 40
0.0
  0
ENDTAB
  0
TABLE
  2
LAYER
  5
1
330
0
100
AcDbSymbolTable
 70
6
  0
LAYER
  5
27
330
1
100
AcDbSymbolTableRecord
100
AcDbLayerTableRecord
  2
0
 70
0
 62
7
  6
Continuous
370
-3
390
13
347
21
  0
LAYER
  5
28
330
1
100
AcDbSymbolTableRecord
100
AcDbLayerTableRecord
  2
Defpoints
 70
0
 62
7
  6
Continuous
290
0
370
-3
390
13
347
21
  0
LAYER
  5
2F
330
1
100
AcDbSymbolTableRecord
100
AcDbLayerTableRecord
  2
WB_OUTLINE
 70
0
 62
7
  6
Continuous
370
-3
390
13
347
21
  0
LAYER
  5
31
330
1
100
AcDbSymbolTableRecord
100
AcDbLayerTableRecord
  2
WB_DIMENSION
 70
0
 62
7
  6
Continuous
370
-3
390
13
347
21
  0
LAYER
  5
33
330
1
100
AcDbSymbolTableRecord
100
AcDbLayerTableRecord
  2
尺寸线层
 70
0
 62
3
  6
Continuous
370
18
390
13
347
21
1001
AcAecLayerStandard
1000

1000
尺寸线层
1001
AcadStringInfo
1000
MIFCodePage
1070
5
  0
LAYER
  5
38
330
1
100
AcDbSymbolTableRecord
100
AcDbLayerTableRecord
  2
WB_THIN
 70
0
 62
7
  6
Continuous
370
-3
390
13
347
21
  0
ENDTAB
  0
TABLE
  2
STYLE
  5
5
330
0
100
AcDbSymbolTable
 70
2
  0
STYLE
  5
29
330
5
100
AcDbSymbolTableRecord
100
AcDbTextStyleTableRecord
  2
Standard
 70
0
 40
0.0
 41
1.0
 50
0.0
 71
0
 42
2.5
  3
arial.ttf
  4

  0
STYLE
  5
36
330
5
100
AcDbSymbolTableRecord
100
AcDbTextStyleTableRecord
  2
标准
 70
0
 40
0.0
 41
0.667
 50
0.0
 71
0
 42
2.5
  3
arial.ttf
  4

1001
CAXA_DRAFT_TXTSTYLE
1041
0.1
1041
1.918
1001
ACAD
1000
宋体
1071
34306
1001
AcadStringInfo
1000
MIFCodePage
1070
5
  0
ENDTAB
  0
TABLE
  2
VIEW
  5
7
330
0
100
AcDbSymbolTable
 70
0
  0
ENDTAB
  0
TABLE
  2
UCS
  5
6
330
0
100
AcDbSymbolTable
 70
0
  0
ENDTAB
  0
TABLE
  2
APPID
  5
3
330
0
100
AcDbSymbolTable
 70
20
  0
APPID
  5
2A
330
3
100
AcDbSymbolTableRecord
100
AcDbRegAppTableRecord
  2
ACAD
 70
0
  0
APPID
  5
178
330
3
100
AcDbSymbolTableRecord
100
AcDbRegAppTableRecord
  2
CAXA_DRAFT_DS_ISFILLDFM
 70
0
  0
APPID
  5
179
330
3
100
AcDbSymbolTableRecord
100
AcDbRegAppTableRecord
  2
CAXA_DRAFT_TXTSTYLE
 70
0
  0
APPID
  5
17A
330
3
100
AcDbSymbolTableRecord
100
AcDbRegAppTableRecord
  2
CDRAFT_TXTROT_2011R3
 70
0
  0
APPID
  5
17B
330
3
100
AcDbSymbolTableRecord
100
AcDbRegAppTableRecord
  2
ACADSTRINGINFO
 70
0
  0
APPID
  5
17C
330
3
100
AcDbSymbolTableRecord
100
AcDbRegAppTableRecord
  2
CAXA_DRAFT_DMOVMAP_2013
 70
0
  0
APPID
  5
17D
330
3
100
AcDbSymbolTableRecord
100
AcDbRegAppTableRecord
  2
CAXA_DRAFT_DIMARROWREVERSE
 70
0
  0
APPID
  5
17E
330
3
100
AcDbSymbolTableRecord
100
AcDbRegAppTableRecord
  2
CAXA_DRAFT_DIMARCLENSTYLE
 70
0
  0
APPID
  5
17F
330
3
100
AcDbSymbolTableRecord
100
AcDbRegAppTableRecord
  2
CAXA_DRAFT_SDTSTY_2011R3
 70
0
  0
APPID
  5
180
330
3
100
AcDbSymbolTableRecord
100
AcDbRegAppTableRecord
  2
CAXA_DRAFT_DS_DISPZTOOL
 70
0
  0
APPID
  5
181
330
3
100
AcDbSymbolTableRecord
100
AcDbRegAppTableRecord
  2
CAXA_DRAFT_DS_SYMCOLOR
 70
0
  0
APPID
  5
182
330
3
100
AcDbSymbolTableRecord
100
AcDbRegAppTableRecord
  2
CAXA_DRAFT_DDTSTY_2011R3
 70
0
  0
APPID
  5
183
330
3
100
AcDbSymbolTableRecord
100
AcDbRegAppTableRecord
  2
CAXA_DRAFT_DIMLEADER
 70
0
  0
APPID
  5
184
330
3
100
AcDbSymbolTableRecord
100
AcDbRegAppTableRecord
  2
ACAECLAYERSTANDARD
 70
0
  0
APPID
  5
185
330
3
100
AcDbSymbolTableRecord
100
AcDbRegAppTableRecord
  2
CAXA_DRAFT_DIMSTY_AT_VPOS
 70
0
  0
APPID
  5
186
330
3
100
AcDbSymbolTableRecord
100
AcDbRegAppTableRecord
  2
ACAD_DSTYLE_DIMTEXT_FILL
 70
0
  0
APPID
  5
187
330
3
100
AcDbSymbolTableRecord
100
AcDbRegAppTableRecord
  2
CAXA_DRAFT_DMOVMAP_2011R3
 70
0
  0
APPID
  5
188
330
3
100
AcDbSymbolTableRecord
100
AcDbRegAppTableRecord
  2
CAXA_DRAFT_TXTSCALE
 70
0
  0
APPID
  5
19E
330
3
100
AcDbSymbolTableRecord
100
AcDbRegAppTableRecord
  2
HATCHBACKGROUNDCOLOR
 70
0
  0
APPID
  5
19F
330
3
100
AcDbSymbolTableRecord
100
AcDbRegAppTableRecord
  2
EZDXF
 70
0
  0
ENDTAB
  0
TABLE
  2
DIMSTYLE
  5
4
330
0
100
AcDbSymbolTable
 70
2
100
AcDbDimStyleTable
  0
DIMSTYLE
105
2B
330
4
100
AcDbSymbolTableRecord
100
AcDbDimStyleTableRecord
  2
Standard
 70
0
 40
1.0
 41
2.5
 42
0.625
 43
3.75
 44
1.25
 45
0.0
 46
0.0
 47
0.0
 48
0.0
 49
2.5
140
2.5
141
2.5
142
0.0
143
0.03937007874
144
1.0
145
0.0
146
1.0
147
0.625
148
0.0
 69
0
 70
0
 71
0
 72
0
 73
0
 74
0
 75
0
 76
0
 77
1
 78
8
 79
3
170
0
171
3
172
1
173
0
174
0
175
0
176
0
177
0
178
0
179
2
271
2
272
2
273
2
274
3
275
0
276
0
277
2
278
44
279
0
280
0
281
0
282
0
283
0
284
8
285
0
286
0
288
0
289
3
290
0
371
-2
372
-2
  0
DIMSTYLE
105
39
102
{ACAD_REACTORS
330
69
330
73
330
7D
330
8F
330
9D
330
A7
330
10D
330
119
102
}
330
4
100
AcDbSymbolTableRecord
100
AcDbDimStyleTableRecord
  2
标准
 70
0
 40
0.6666666666666666
 41
4.0
 42
0.0
 43
3.75
 44
2.0
 45
0.0
 46
6.0
 47
0.0
 48
0.0
 49
2.5
140
3.5
141
0.0
142
0.0
143
1.0
144
1.0
145
0.0
146
0.7071067811865475
147
0.625
148
0.0
 69
0
 70
0
 71
0
 72
0
 73
0
 74
0
 75
0
 76
0
 77
1
 78
8
 79
2
 90
1
170
0
171
3
172
1
173
0
174
0
175
0
176
0
177
0
178
0
179
2
271
2
272
3
273
2
274
3
275
0
276
2
277
2
278
44
279
2
280
0
281
0
282
0
283
0
284
8
285
0
286
0
288
0
289
3
290
0
340
36
342
3B
345
26
346
26
347
26
371
-2
372
-2
1001
CAXA_DRAFT_DIMSTY_AT_VPOS
1070
1
1001
CAXA_DRAFT_SDTSTY_2011R3
1070
0
1001
CAXA_DRAFT_DS_ISFILLDFM
1070
1
1001
CAXA_DRAFT_DS_DISPZTOOL
1070
0
1001
CAXA_DRAFT_DS_SYMCOLOR
1071
1090519039
1001
AcadStringInfo
1000
MIFCodePage
1070
5
  0
ENDTAB
  0
TABLE
  2
BLOCK_RECORD
  5
9
330
0
100
AcDbSymbolTable
 70
22
  0
BLOCK_RECORD
  5
17
330
9
100
AcDbSymbolTableRecord
100
AcDbBlockTableRecord
  2
*Model_Space
340
1A
 70
0
280
1
281
0
  0
BLOCK_RECORD
  5
1B
330
9
100
AcDbSymbolTableRecord
100
AcDbBlockTableRecord
  2
*Paper_Space
340
1E
 70
0
280
1
281
0
  0
BLOCK_RECORD
  5
6A
330
9
100
AcDbSymbolTableRecord
100
AcDbBlockTableRecord
  2
*D1
340
0
 70
0
280
1
281
0
  0
BLOCK_RECORD
  5
74
330
9
100
AcDbSymbolTableRecord
100
AcDbBlockTableRecord
  2
*D2
340
0
 70
0
280
1
281
0
  0
BLOCK_RECORD
  5
7E
330
9
100
AcDbSymbolTableRecord
100
AcDbBlockTableRecord
  2
*D3
340
0
 70
0
280
1
281
0
  0
BLOCK_RECORD
  5
90
330
9
100
AcDbSymbolTableRecord
100
AcDbBlockTableRecord
  2
*D4
340
0
 70
0
280
1
281
0
  0
BLOCK_RECORD
  5
9E
330
9
100
AcDbSymbolTableRecord
100
AcDbBlockTableRecord
  2
*D5
340
0
 70
0
280
1
281
0
  0
BLOCK_RECORD
  5
A8
330
9
100
AcDbSymbolTableRecord
100
AcDbBlockTableRecord
  2
*D6
340
0
 70
0
280
1
281
0
  0
BLOCK_RECORD
  5
10E
330
9
100
AcDbSymbolTableRecord
100
AcDbBlockTableRecord
  2
*D7
340
0
 70
0
280
1
281
0
  0
BLOCK_RECORD
  5
11A
330
9
100
AcDbSymbolTableRecord
100
AcDbBlockTableRecord
  2
*D8
340
0
 70
0
280
1
281
0
  0
BLOCK_RECORD
  5
32
330
9
100
AcDbSymbolTableRecord
100
AcDbBlockTableRecord
  2
*X9
340
0
 70
0
280
1
281
0
  0
BLOCK_RECORD
  5
37
330
9
100
AcDbSymbolTableRecord
100
AcDbBlockTableRecord
  2
*X10
340
0
 70
0
280
1
281
0
  0
BLOCK_RECORD
  5
3B
330
9
100
AcDbSymbolTableRecord
100
AcDbBlockTableRecord
  2
_CAXARROW
340
0
 70
0
280
1
281
0
  0
BLOCK_RECORD
  5
3C
330
9
100
AcDbSymbolTableRecord
100
AcDbBlockTableRecord
  2
*X11
340
0
 70
0
280
1
281
0
  0
BLOCK_RECORD
  5
3D
330
9
100
AcDbSymbolTableRecord
100
AcDbBlockTableRecord
  2
*X12
340
0
 70
0
280
1
281
0
  0
BLOCK_RECORD
  5
3E
330
9
100
AcDbSymbolTableRecord
100
AcDbBlockTableRecord
  2
*X13
340
0
 70
0
280
1
281
0
  0
BLOCK_RECORD
  5
3F
330
9
100
AcDbSymbolTableRecord
100
AcDbBlockTableRecord
  2
*X14
340
0
 70
0
280
1
281
0
  0
BLOCK_RECORD
  5
40
330
9
100
AcDbSymbolTableRecord
100
AcDbBlockTableRecord
  2
*X15
340
0
 70
0
280
1
281
0
  0
BLOCK_RECORD
  5
41
330
9
100
AcDbSymbolTableRecord
100
AcDbBlockTableRecord
  2
*X16
340
0
 70
0
280
1
281
0
  0
BLOCK_RECORD
  5
42
330
9
100
AcDbSymbolTableRecord
100
AcDbBlockTableRecord
  2
*X17
340
0
 70
0
280
1
281
0
  0
BLOCK_RECORD
  5
43
330
9
100
AcDbSymbolTableRecord
100
AcDbBlockTableRecord
  2
*X18
340
0
 70
0
280
1
281
0
  0
BLOCK_RECORD
  5
44
330
9
100
AcDbSymbolTableRecord
100
AcDbBlockTableRecord
  2
*X19
340
0
 70
0
280
1
281
0
  0
ENDTAB
  0
ENDSEC
  0
SECTION
  2
BLOCKS
  0
BLOCK
  5
18
330
17
100
AcDbEntity
  8
0
100
AcDbBlockBegin
  2
*Model_Space
 70
0
 10
0.0
 20
0.0
 30
0.0
  3
*Model_Space
  1

  0
ENDBLK
  5
19
330
17
100
AcDbEntity
  8
0
100
AcDbBlockEnd
  0
BLOCK
  5
1C
330
1B
100
AcDbEntity
  8
0
100
AcDbBlockBegin
  2
*Paper_Space
 70
0
 10
0.0
 20
0.0
 30
0.0
  3
*Paper_Space
  1

  0
ENDBLK
  5
1D
330
1B
100
AcDbEntity
  8
0
100
AcDbBlockEnd
  0
BLOCK
  5
6B
330
6A
100
AcDbEntity
  8
0
100
AcDbBlockBegin
  2
*D1
 70
1
 10
0.0
 20
0.0
 30
0.0
  3
*D1
  1

  0
LINE
  5
6D
330
6A
100
AcDbEntity
  8
尺寸线层
  6
Continuous
 62
0
440
16777216
100
AcDbLine
 10
151.9406301261191
 20
142.1856869216617
 30
0.0
 11
124.9406301261191
 21
142.1856869216617
 31
0.0
  0
HATCH
  5
6E
330
6A
100
AcDbEntity
  8
尺寸线层
  6
Continuous
 62
0
440
16777216
100
AcDbHatch
 10
0.0
 20
0.0
 30
0.0
210
0.0
220
0.0
230
1.0
  2
SOLID
 70
1
 71
0
 91
1
 92
0
 93
3
 72
1
 10
144.4406301261191
 20
142.1856869216617
 11
149.4406301261191
 21
141.5606869216617
 72
1
 10
149.4406301261191
 20
141.5606869216617
 11
149.4406301261191
 21
142.8106869216617
 72
1
 10
149.4406301261191
 20
142.8106869216617
 11
144.4406301261191
 21
142.1856869216617
 97
0
 75
0
 76
1
 98
1
 10
-281.3638654721633
 20
32.80500483166669
  0
HATCH
  5
6F
330
6A
100
AcDbEntity
  8
尺寸线层
  6
Continuous
 62
0
440
16777216
100
AcDbHatch
 10
0.0
 20
0.0
 30
0.0
210
0.0
220
0.0
230
1.0
  2
SOLID
 70
1
 71
0
 91
1
 92
0
 93
3
 72
1
 10
132.4406301261191
 20
142.1856869216617
 11
127.4406301261191
 21
141.5606869216617
 72
1
 10
127.4406301261191
 20
141.5606869216617
 11
127.4406301261191
 21
142.8106869216617
 72
1
 10
127.4406301261191
 20
142.8106869216617
 11
132.4406301261191
 21
142.1856869216617
 97
0
 75
0
 76
1
 98
1
 10
-281.3638654721633
 20
32.80500483166669
  0
LINE
  5
70
330
6A
100
AcDbEntity
  8
尺寸线层
  6
Continuous
 62
0
440
16777216
100
AcDbLine
 10
144.4406301261191
 20
131.3768830000519
 30
0.0
 11
144.4406301261191
 21
144.6856869216617
 31
0.0
  0
LINE
  5
71
330
6A
100
AcDbEntity
  8
尺寸线层
  6
Continuous
 62
0
440
16777216
100
AcDbLine
 10
132.4406301261191
 20
129.937406709452
 30
0.0
 11
132.4406301261191
 21
144.6856869216617
 31
0.0
  0
MTEXT
  5
72
330
6A
100
AcDbEntity
  8
尺寸线层
 62
0
440
16777216
100
AcDbMText
 10
138.4406296261191
 20
145.1544369216617
 30
0.0
 40
4.375
 41
8.75
 46
8.75
 71
5
  1
\T1.1;12
  7
标准
 44
1.150569886022795
1001
CAXA_DRAFT_TXTSCALE
1041
1.0
  0
ENDBLK
  5
6C
330
6A
100
AcDbEntity
  8
0
100
AcDbBlockEnd
  0
BLOCK
  5
75
330
74
100
AcDbEntity
  8
0
100
AcDbBlockBegin
  2
*D2
 70
1
 10
0.0
 20
0.0
 30
0.0
  3
*D2
  1

  0
LINE
  5
77
330
74
100
AcDbEntity
  8
尺寸线层
  6
Continuous
 62
0
440
16777216
100
AcDbLine
 10
132.4406301261191
 20
156.8133172681942
 30
0.0
 11
64.44063012611917
 21
156.8133172681942
 31
0.0
  0
HATCH
  5
78
330
74
100
AcDbEntity
  8
尺寸线层
  6
Continuous
 62
0
440
16777216
100
AcDbHatch
 10
0.0
 20
0.0
 30
0.0
210
0.0
220
0.0
230
1.0
  2
SOLID
 70
1
 71
0
 91
1
 92
0
 93
3
 72
1
 10
132.4406301261191
 20
156.8133172681942
 11
127.4406301261191
 21
156.1883172681942
 72
1
 10
127.4406301261191
 20
156.1883172681942
 11
127.4406301261191
 21
157.4383172681942
 72
1
 10
127.4406301261191
 20
157.4383172681942
 11
132.4406301261191
 21
156.8133172681942
 97
0
 75
0
 76
1
 98
1
 10
-281.3638654721633
 20
32.80500483166669
  0
HATCH
  5
79
330
74
100
AcDbEntity
  8
尺寸线层
  6
Continuous
 62
0
440
16777216
100
AcDbHatch
 10
0.0
 20
0.0
 30
0.0
210
0.0
220
0.0
230
1.0
  2
SOLID
 70
1
 71
0
 91
1
 92
0
 93
3
 72
1
 10
64.44063012611917
 20
156.8133172681942
 11
69.44063012611917
 21
156.1883172681942
 72
1
 10
69.44063012611917
 20
156.1883172681942
 11
69.44063012611917
 21
157.4383172681942
 72
1
 10
69.44063012611917
 20
157.4383172681942
 11
64.44063012611917
 21
156.8133172681942
 97
0
 75
0
 76
1
 98
1
 10
-281.3638654721633
 20
32.80500483166669
  0
LINE
  5
7A
330
74
100
AcDbEntity
  8
尺寸线层
  6
Continuous
 62
0
440
16777216
100
AcDbLine
 10
132.4406301261191
 20
129.937406709452
 30
0.0
 11
132.4406301261191
 21
159.3133172681942
 31
0.0
  0
LINE
  5
7B
330
74
100
AcDbEntity
  8
尺寸线层
  6
Continuous
 62
0
440
16777216
100
AcDbLine
 10
64.44063012611917
 20
123.9375773304517
 30
0.0
 11
64.44063012611917
 21
159.3133172681942
 31
0.0
  0
MTEXT
  5
7C
330
74
100
AcDbEntity
  8
尺寸线层
 62
0
440
16777216
100
AcDbMText
 10
98.44062962611912
 20
159.7820672681942
 30
0.0
 40
4.375
 41
8.75
 46
8.75
 71
5
  1
\T1.1;68
  7
标准
 44
1.150569886022795
1001
CAXA_DRAFT_TXTSCALE
1041
1.0
  0
ENDBLK
  5
76
330
74
100
AcDbEntity
  8
0
100
AcDbBlockEnd
  0
BLOCK
  5
7F
330
7E
100
AcDbEntity
  8
0
100
AcDbBlockBegin
  2
*D3
 70
1
 10
0.0
 20
0.0
 30
0.0
  3
*D3
  1

  0
LINE
  5
81
330
7E
100
AcDbEntity
  8
尺寸线层
  6
Continuous
 62
0
440
16777216
100
AcDbLine
 10
114.4406301261191
 20
142.1856869216616
 30
0.0
 11
132.4406301261191
 21
142.1856869216617
 31
0.0
  0
HATCH
  5
82
330
7E
100
AcDbEntity
  8
尺寸线层
  6
Continuous
 62
0
440
16777216
100
AcDbHatch
 10
0.0
 20
0.0
 30
0.0
210
0.0
220
0.0
230
1.0
  2
SOLID
 70
1
 71
0
 91
1
 92
0
 93
3
 72
1
 10
114.4406301261191
 20
142.1856869216616
 11
119.4406301261191
 21
142.8106869216617
 72
1
 10
119.4406301261191
 20
142.8106869216617
 11
119.4406301261191
 21
141.5606869216617
 72
1
 10
119.4406301261191
 20
141.5606869216617
 11
114.4406301261191
 21
142.1856869216616
 97
0
 75
0
 76
1
 98
1
 10
-281.3638654721633
 20
32.80500483166669
  0
HATCH
  5
83
330
7E
100
AcDbEntity
  8
尺寸线层
  6
Continuous
 62
0
440
16777216
100
AcDbHatch
 10
0.0
 20
0.0
 30
0.0
210
0.0
220
0.0
230
1.0
  2
SOLID
 70
1
 71
0
 91
1
 92
0
 93
3
 72
1
 10
132.4406301261191
 20
142.1856869216617
 11
127.4406301261191
 21
142.8106869216617
 72
1
 10
127.4406301261191
 20
142.8106869216617
 11
127.4406301261191
 21
141.5606869216617
 72
1
 10
127.4406301261191
 20
141.5606869216617
 11
132.4406301261191
 21
142.1856869216617
 97
0
 75
0
 76
1
 98
1
 10
-281.3638654721633
 20
32.80500483166669
  0
LINE
  5
84
330
7E
100
AcDbEntity
  8
尺寸线层
  6
Continuous
 62
0
440
16777216
100
AcDbLine
 10
114.4406301261191
 20
126.4375773304519
 30
0.0
 11
114.4406301261191
 21
144.6856869216616
 31
0.0
  0
LINE
  5
85
330
7E
100
AcDbEntity
  8
尺寸线层
  6
Continuous
 62
0
440
16777216
100
AcDbLine
 10
132.4406301261191
 20
129.9375773304519
 30
0.0
 11
132.4406301261191
 21
144.6856869216617
 31
0.0
  0
MTEXT
  5
86
330
7E
100
AcDbEntity
  8
尺寸线层
 62
0
440
16777216
100
AcDbMText
 10
123.4406306261191
 20
145.1544369216617
 30
0.0
 40
4.375
 41
8.75
 46
8.75
 71
5
  1
\T1.1;18
  7
标准
 44
1.150569886022795
1001
CAXA_DRAFT_TXTSCALE
1041
1.0
  0
ENDBLK
  5
80
330
7E
100
AcDbEntity
  8
0
100
AcDbBlockEnd
  0
BLOCK
  5
91
330
90
100
AcDbEntity
  8
0
100
AcDbBlockBegin
  2
*D4
 70
1
 10
0.0
 20
0.0
 30
0.0
  3
*D4
  1

  0
LINE
  5
93
330
90
100
AcDbEntity
  8
尺寸线层
  6
Continuous
 62
0
440
16777216
100
AcDbLine
 10
64.44063012611917
 20
142.1856869216616
 30
0.0
 11
81.44063012611971
 21
142.1856869216616
 31
0.0
  0
HATCH
  5
94
330
90
100
AcDbEntity
  8
尺寸线层
  6
Continuous
 62
0
440
16777216
100
AcDbHatch
 10
0.0
 20
0.0
 30
0.0
210
0.0
220
0.0
230
1.0
  2
SOLID
 70
1
 71
0
 91
1
 92
0
 93
3
 72
1
 10
64.44063012611917
 20
142.1856869216616
 11
69.44063012611917
 21
142.8106869216616
 72
1
 10
69.44063012611917
 20
142.8106869216616
 11
69.44063012611917
 21
141.5606869216616
 72
1
 10
69.44063012611917
 20
141.5606869216616
 11
64.44063012611917
 21
142.1856869216616
 97
0
 75
0
 76
1
 98
1
 10
-281.3638654721633
 20
32.80500483166669
  0
HATCH
  5
95
330
90
100
AcDbEntity
  8
尺寸线层
  6
Continuous
 62
0
440
16777216
100
AcDbHatch
 10
0.0
 20
0.0
 30
0.0
210
0.0
220
0.0
230
1.0
  2
SOLID
 70
1
 71
0
 91
1
 92
0
 93
3
 72
1
 10
81.44063012611971
 20
142.1856869216616
 11
76.44063012611971
 21
142.8106869216616
 72
1
 10
76.44063012611971
 20
142.8106869216616
 11
76.44063012611971
 21
141.5606869216616
 72
1
 10
76.44063012611971
 20
141.5606869216616
 11
81.44063012611971
 21
142.1856869216616
 97
0
 75
0
 76
1
 98
1
 10
-281.3638654721633
 20
32.80500483166669
  0
LINE
  5
96
330
90
100
AcDbEntity
  8
尺寸线层
  6
Continuous
 62
0
440
16777216
100
AcDbLine
 10
64.44063012611917
 20
123.9375773304517
 30
0.0
 11
64.44063012611917
 21
144.6856869216616
 31
0.0
  0
LINE
  5
97
330
90
100
AcDbEntity
  8
尺寸线层
  6
Continuous
 62
0
440
16777216
100
AcDbLine
 10
81.44063012611977
 20
115.4375773304525
 30
0.0
 11
81.44063012611971
 21
144.6856869216616
 31
0.0
  0
MTEXT
  5
98
330
90
100
AcDbEntity
  8
尺寸线层
 62
0
440
16777216
100
AcDbMText
 10
72.94063062611943
 20
145.1544369216616
 30
0.0
 40
4.375
 41
8.75
 46
8.75
 71
5
  1
\T1.1;17
  7
标准
 44
1.150569886022795
1001
CAXA_DRAFT_TXTSCALE
1041
1.0
  0
ENDBLK
  5
92
330
90
100
AcDbEntity
  8
0
100
AcDbBlockEnd
  0
BLOCK
  5
9F
330
9E
100
AcDbEntity
  8
0
100
AcDbBlockBegin
  2
*D5
 70
1
 10
0.0
 20
0.0
 30
0.0
  3
*D5
  1

  0
LINE
  5
A1
330
9E
100
AcDbEntity
  8
尺寸线层
  6
Continuous
 62
0
440
16777216
100
AcDbLine
 10
233.4406301263191
 20
156.8133172681944
 30
0.0
 11
132.4406301261191
 21
156.8133172681944
 31
0.0
  0
HATCH
  5
A2
330
9E
100
AcDbEntity
  8
尺寸线层
  6
Continuous
 62
0
440
16777216
100
AcDbHatch
 10
0.0
 20
0.0
 30
0.0
210
0.0
220
0.0
230
1.0
  2
SOLID
 70
1
 71
0
 91
1
 92
0
 93
3
 72
1
 10
233.4406301263191
 20
156.8133172681944
 11
228.4406301263191
 21
156.1883172681944
 72
1
 10
228.4406301263191
 20
156.1883172681944
 11
228.4406301263191
 21
157.4383172681944
 72
1
 10
228.4406301263191
 20
157.4383172681944
 11
233.4406301263191
 21
156.8133172681944
 97
0
 75
0
 76
1
 98
1
 10
-281.3638654721633
 20
32.80500483166669
  0
HATCH
  5
A3
330
9E
100
AcDbEntity
  8
尺寸线层
  6
Continuous
 62
0
440
16777216
100
AcDbHatch
 10
0.0
 20
0.0
 30
0.0
210
0.0
220
0.0
230
1.0
  2
SOLID
 70
1
 71
0
 91
1
 92
0
 93
3
 72
1
 10
132.4406301261191
 20
156.8133172681944
 11
137.4406301261191
 21
156.1883172681944
 72
1
 10
137.4406301261191
 20
156.1883172681944
 11
137.4406301261191
 21
157.4383172681944
 72
1
 10
137.4406301261191
 20
157.4383172681944
 11
132.4406301261191
 21
156.8133172681944
 97
0
 75
0
 76
1
 98
1
 10
-281.3638654721633
 20
32.80500483166669
  0
LINE
  5
A4
330
9E
100
AcDbEntity
  8
尺寸线层
  6
Continuous
 62
0
440
16777216
100
AcDbLine
 10
233.4406301263191
 20
130.9375773304521
 30
0.0
 11
233.4406301263191
 21
159.3133172681944
 31
0.0
  0
LINE
  5
A5
330
9E
100
AcDbEntity
  8
尺寸线层
  6
Continuous
 62
0
440
16777216
100
AcDbLine
 10
132.4406301261191
 20
129.9374067092517
 30
0.0
 11
132.4406301261191
 21
159.3133172681944
 31
0.0
  0
MTEXT
  5
A6
330
9E
100
AcDbEntity
  8
尺寸线层
 62
0
440
16777216
100
AcDbMText
 10
182.9406296262191
 20
159.7820672681944
 30
0.0
 40
4.375
 41
11.4974125
 46
8.75
 71
5
  1
\T1.1;101
  7
标准
 44
1.150569886022795
1001
CAXA_DRAFT_TXTSCALE
1041
1.0
  0
ENDBLK
  5
A0
330
9E
100
AcDbEntity
  8
0
100
AcDbBlockEnd
  0
BLOCK
  5
A9
330
A8
100
AcDbEntity
  8
0
100
AcDbBlockBegin
  2
*D6
 70
1
 10
0.0
 20
0.0
 30
0.0
  3
*D6
  1

  0
LINE
  5
AB
330
A8
100
AcDbEntity
  8
尺寸线层
  6
Continuous
 62
0
440
16777216
100
AcDbLine
 10
49.36489171834107
 20
123.9375773304517
 30
0.0
 11
49.36489171834107
 21
106.9375773304517
 31
0.0
  0
HATCH
  5
AC
330
A8
100
AcDbEntity
  8
尺寸线层
  6
Continuous
 62
0
440
16777216
100
AcDbHatch
 10
0.0
 20
0.0
 30
0.0
210
0.0
220
0.0
230
1.0
  2
SOLID
 70
1
 71
0
 91
1
 92
0
 93
3
 72
1
 10
49.36489171834107
 20
123.9375773304517
 11
49.98989171834107
 21
118.9375773304517
 72
1
 10
49.98989171834107
 20
118.9375773304517
 11
48.73989171834107
 21
118.9375773304517
 72
1
 10
48.73989171834107
 20
118.9375773304517
 11
49.36489171834107
 21
123.9375773304517
 97
0
 75
0
 76
1
 98
1
 10
-281.3638654721633
 20
32.80500483166669
  0
HATCH
  5
AD
330
A8
100
AcDbEntity
  8
尺寸线层
  6
Continuous
 62
0
440
16777216
100
AcDbHatch
 10
0.0
 20
0.0
 30
0.0
210
0.0
220
0.0
230
1.0
  2
SOLID
 70
1
 71
0
 91
1
 92
0
 93
3
 72
1
 10
49.36489171834107
 20
106.9375773304517
 11
49.98989171834107
 21
111.9375773304517
 72
1
 10
49.98989171834107
 20
111.9375773304517
 11
48.73989171834107
 21
111.9375773304517
 72
1
 10
48.73989171834107
 20
111.9375773304517
 11
49.36489171834107
 21
106.9375773304517
 97
0
 75
0
 76
1
 98
1
 10
-281.3638654721633
 20
32.80500483166669
  0
LINE
  5
AE
330
A8
100
AcDbEntity
  8
尺寸线层
  6
Continuous
 62
0
440
16777216
100
AcDbLine
 10
64.44063012611917
 20
123.9375773304517
 30
0.0
 11
46.86489171834107
 21
123.9375773304517
 31
0.0
  0
LINE
  5
AF
330
A8
100
AcDbEntity
  8
尺寸线层
  6
Continuous
 62
0
440
16777216
100
AcDbLine
 10
64.44063012611917
 20
106.9375773304517
 30
0.0
 11
46.86489171834107
 21
106.9375773304517
 31
0.0
  0
MTEXT
  5
B0
330
A8
100
AcDbEntity
  8
尺寸线层
 62
0
440
16777216
100
AcDbMText
 10
46.39614171834107
 20
115.4375768304517
 30
0.0
 40
4.375
 41
12.53496805555557
 46
8.75
 71
5
  1
\T1.1;%%C17
  7
标准
 11
6.123233995736766e-17
 21
1.0
 31
0.0
 44
1.150569886022795
1001
CAXA_DRAFT_TXTSCALE
1041
1.0
  0
ENDBLK
  5
AA
330
A8
100
AcDbEntity
  8
0
100
AcDbBlockEnd
  0
BLOCK
  5
10F
330
10E
100
AcDbEntity
  8
0
100
AcDbBlockBegin
  2
*D7
 70
1
 10
0.0
 20
0.0
 30
0.0
  3
*D7
  1

  0
LINE
  5
111
330
10E
100
AcDbEntity
  8
尺寸线层
  6
Continuous
 62
0
440
16777216
100
AcDbLine
 10
233.4406301263191
 20
156.8133172681945
 30
0.0
 11
248.4406301261191
 21
156.8133172681945
 31
0.0
  0
HATCH
  5
112
330
10E
100
AcDbEntity
  8
尺寸线层
  6
Continuous
 62
0
440
16777216
100
AcDbHatch
 10
0.0
 20
0.0
 30
0.0
210
0.0
220
0.0
230
1.0
  2
SOLID
 70
1
 71
0
 91
1
 92
0
 93
3
 72
1
 10
233.4406301263191
 20
156.8133172681945
 11
238.4406301263191
 21
157.4383172681945
 72
1
 10
238.4406301263191
 20
157.4383172681945
 11
238.4406301263191
 21
156.1883172681945
 72
1
 10
238.4406301263191
 20
156.1883172681945
 11
233.4406301263191
 21
156.8133172681945
 97
0
 75
0
 76
1
 98
1
 10
-281.3638654721633
 20
32.80500483166669
  0
HATCH
  5
113
330
10E
100
AcDbEntity
  8
尺寸线层
  6
Continuous
 62
0
440
16777216
100
AcDbHatch
 10
0.0
 20
0.0
 30
0.0
210
0.0
220
0.0
230
1.0
  2
SOLID
 70
1
 71
0
 91
1
 92
0
 93
3
 72
1
 10
248.4406301261191
 20
156.8133172681945
 11
243.4406301261191
 21
157.4383172681945
 72
1
 10
243.4406301261191
 20
157.4383172681945
 11
243.4406301261191
 21
156.1883172681945
 72
1
 10
243.4406301261191
 20
156.1883172681945
 11
248.4406301261191
 21
156.8133172681945
 97
0
 75
0
 76
1
 98
1
 10
-281.3638654721633
 20
32.80500483166669
  0
LINE
  5
114
330
10E
100
AcDbEntity
  8
尺寸线层
  6
Continuous
 62
0
440
16777216
100
AcDbLine
 10
233.4406301263191
 20
130.9375773304521
 30
0.0
 11
233.4406301263191
 21
159.3133172681945
 31
0.0
  0
LINE
  5
115
330
10E
100
AcDbEntity
  8
尺寸线层
  6
Continuous
 62
0
440
16777216
100
AcDbLine
 10
248.4406301261191
 20
127.2688039048521
 30
0.0
 11
248.4406301261191
 21
159.3133172681945
 31
0.0
  0
MTEXT
  5
116
330
10E
100
AcDbEntity
  8
尺寸线层
 62
0
440
16777216
100
AcDbMText
 10
240.9406306262191
 20
159.7820672681945
 30
0.0
 40
4.375
 41
8.75
 46
8.75
 71
5
  1
\T1.1;15
  7
标准
 44
1.150569886022795
1001
CAXA_DRAFT_TXTSCALE
1041
1.0
  0
ENDBLK
  5
110
330
10E
100
AcDbEntity
  8
0
100
AcDbBlockEnd
  0
BLOCK
  5
11B
330
11A
100
AcDbEntity
  8
0
100
AcDbBlockBegin
  2
*D8
 70
1
 10
0.0
 20
0.0
 30
0.0
  3
*D8
  1

  0
LINE
  5
11D
330
11A
100
AcDbEntity
  8
尺寸线层
  6
Continuous
 62
0
440
16777216
100
AcDbLine
 10
189.1008696549866
 20
131.437577330452
 30
0.0
 11
189.1008696549866
 21
99.437577330452
 31
0.0
  0
HATCH
  5
11E
330
11A
100
AcDbEntity
  8
尺寸线层
  6
Continuous
 62
0
440
16777216
100
AcDbHatch
 10
0.0
 20
0.0
 30
0.0
210
0.0
220
0.0
230
1.0
  2
SOLID
 70
1
 71
0
 91
1
 92
0
 93
3
 72
1
 10
189.1008696549866
 20
131.437577330452
 11
189.4342029883199
 21
128.7709106637853
 72
1
 10
189.4342029883199
 20
128.7709106637853
 11
188.7675363216532
 21
128.7709106637853
 72
1
 10
188.7675363216532
 20
128.7709106637853
 11
189.1008696549866
 21
131.437577330452
 97
0
 75
0
 76
1
 98
1
 10
-17.42191117474695
 20
9.146503366742154
  0
HATCH
  5
11F
330
11A
100
AcDbEntity
  8
尺寸线层
  6
Continuous
 62
0
440
16777216
100
AcDbHatch
 10
0.0
 20
0.0
 30
0.0
210
0.0
220
0.0
230
1.0
  2
SOLID
 70
1
 71
0
 91
1
 92
0
 93
3
 72
1
 10
189.1008696549866
 20
99.437577330452
 11
189.4342029883199
 21
102.1042439971187
 72
1
 10
189.4342029883199
 20
102.1042439971187
 11
188.7675363216532
 21
102.1042439971187
 72
1
 10
188.7675363216532
 20
102.1042439971187
 11
189.1008696549866
 21
99.437577330452
 97
0
 75
0
 76
1
 98
1
 10
-17.42191117474695
 20
9.146503366742154
  0
LINE
  5
120
330
11A
100
AcDbEntity
  8
尺寸线层
  6
Continuous
 62
0
440
16777216
100
AcDbLine
 10
191.27860855183
 20
131.437577330452
 30
0.0
 11
187.7675363216532
 21
131.437577330452
 31
0.0
  0
LINE
  5
121
330
11A
100
AcDbEntity
  8
尺寸线层
  6
Continuous
 62
0
440
16777216
100
AcDbLine
 10
189.971965213724
 20
99.437577330452
 30
0.0
 11
187.7675363216533
 21
99.437577330452
 31
0.0
  0
MTEXT
  5
122
330
11A
100
AcDbEntity
  8
尺寸线层
 62
0
440
16777216
100
AcDbMText
 10
187.5175363216532
 20
115.437576830452
 30
0.0
 40
2.333333333333333
 41
6.66802370370371
 46
4.666666666666666
 71
5
  1
\T1.1;%%C32
  7
标准
 11
6.123233995736766e-17
 21
1.0
 31
0.0
 44
1.150569886022795
1001
CAXA_DRAFT_TXTSCALE
1041
1.0
  0
ENDBLK
  5
11C
330
11A
100
AcDbEntity
  8
0
100
AcDbBlockEnd
  0
BLOCK
  5
123
330
32
100
AcDbEntity
  8
0
100
AcDbBlockBegin
  2
*X9
 70
1
 10
0.0
 20
0.0
 30
0.0
  3
*X9
  1

  0
LINE
  5
125
330
32
100
AcDbEntity
  8
尺寸线层
  6
Continuous
 62
0
100
AcDbLine
 10
-31.11975509366272
 20
27.93979127642667
 30
0.0
 11
-22.15468394230433
 21
12.45928502680124
 31
0.0
  0
HATCH
  5
126
330
32
100
AcDbEntity
  8
尺寸线层
  6
Continuous
 62
0
100
AcDbHatch
 10
0.0
 20
0.0
 30
0.0
210
0.0
220
0.0
230
1.0
  2
SOLID
 70
1
 71
0
 91
1
 92
0
 93
3
 72
1
 10
-31.11975509366272
 20
27.93979127642667
 11
-28.07316331814835
 21
23.92620141778786
 72
1
 10
-28.07316331814835
 20
23.92620141778786
 11
-29.15486518413681
 21
23.29976620715783
 72
1
 10
-29.15486518413681
 20
23.29976620715783
 11
-31.11975509366272
 21
27.93979127642667
 97
0
 75
0
 76
1
 98
1
 10
-281.3638654721633
 20
32.80500483166669
  0
LINE
  5
127
330
32
100
AcDbEntity
  8
尺寸线层
 62
0
100
AcDbLine
 10
-22.15468394230433
 20
12.45928502680124
 30
0.0
 11
-10.63700130341542
 21
12.45928502680124
 31
0.0
  0
MTEXT
  5
128
330
32
100
AcDbEntity
  8
尺寸线层
 62
0
100
AcDbMText
 10
-14.89584262285987
 20
15.42803502680124
 30
0.0
 40
4.375
 41
17.03536527777778
 46
8.75
 71
5
  1
\T1.1;SW29
  7
标准
 44
1.150569886022795
1001
CAXA_DRAFT_TXTSCALE
1041
1.0
  0
ENDBLK
  5
124
330
32
100
AcDbEntity
  8
0
100
AcDbBlockEnd
  0
BLOCK
  5
129
330
37
100
AcDbEntity
  8
0
100
AcDbBlockBegin
  2
*X10
 70
1
 10
0.0
 20
0.0
 30
0.0
  3
*X10
  1

  0
LINE
  5
12B
330
37
100
AcDbEntity
  8
尺寸线层
  6
Continuous
 62
0
100
AcDbLine
 10
-48.97611080254109
 20
28.73036192469457
 30
0.0
 11
-54.93873961512347
 21
12.45928502680125
 31
0.0
  0
HATCH
  5
12C
330
37
100
AcDbEntity
  8
尺寸线层
  6
Continuous
 62
0
100
AcDbHatch
 10
0.0
 20
0.0
 30
0.0
210
0.0
220
0.0
230
1.0
  2
SOLID
 70
1
 71
0
 91
1
 92
0
 93
3
 72
1
 10
-48.97611080254109
 20
28.73036192469457
 11
-50.10967325113549
 21
23.82061028381327
 72
1
 10
-50.10967325113549
 20
23.82061028381327
 11
-51.28334865662646
 21
24.25071032164823
 72
1
 10
-51.28334865662646
 20
24.25071032164823
 11
-48.97611080254109
 21
28.73036192469457
 97
0
 75
0
 76
1
 98
1
 10
-281.3638654721633
 20
32.80500483166669
  0
LINE
  5
12D
330
37
100
AcDbEntity
  8
尺寸线层
 62
0
100
AcDbLine
 10
-54.93873961512347
 20
12.45928502680125
 30
0.0
 11
-74.44081127059479
 21
12.45928502680124
 31
0.0
  0
MTEXT
  5
12E
330
37
100
AcDbEntity
  8
尺寸线层
 62
0
100
AcDbMText
 10
-67.78586509003924
 20
15.8898405823568
 30
0.0
 40
4.375
 41
26.61978472222222
 46
8.75
 71
5
  1
\T1.1;NPT3/4
  7
标准
 44
1.150569886022795
1001
CAXA_DRAFT_TXTSCALE
1041
1.0
  0
ENDBLK
  5
12A
330
37
100
AcDbEntity
  8
0
100
AcDbBlockEnd
  0
BLOCK
  5
12F
330
3B
100
AcDbEntity
  8
0
100
AcDbBlockBegin
  2
_CAXARROW
 70
0
 10
0.0
 20
0.0
 30
0.0
  3
_CAXARROW
  1

  0
HATCH
  5
131
330
3B
100
AcDbEntity
  8
0
 62
0
100
AcDbHatch
 10
0.0
 20
0.0
 30
0.0
210
0.0
220
0.0
230
1.0
  2
SOLID
 70
1
 71
0
 91
1
 92
0
 93
3
 72
1
 10
0.0
 20
0.0
 11
-1.0
 21
0.125
 72
1
 10
-1.0
 20
0.125
 11
-1.0
 21
-0.125
 72
1
 10
-1.0
 20
-0.125
 11
0.0
 21
0.0
 97
0
 75
0
 76
1
 98
1
 10
0.0
 20
0.0
  0
ENDBLK
  5
130
330
3B
100
AcDbEntity
  8
0
100
AcDbBlockEnd
  0
BLOCK
  5
132
330
3C
100
AcDbEntity
  8
0
100
AcDbBlockBegin
  2
*X11
 70
1
 10
0.0
 20
0.0
 30
0.0
  3
*X11
  1

  0
LINE
  5
134
330
3C
100
AcDbEntity
  8
尺寸线层
  6
Continuous
 62
0
440
16777216
100
AcDbLine
 10
151.9406301261191
 20
142.1856869216617
 30
0.0
 11
124.9406301261191
 21
142.1856869216617
 31
0.0
  0
HATCH
  5
135
330
3C
100
AcDbEntity
  8
尺寸线层
  6
Continuous
 62
0
440
16777216
100
AcDbHatch
 10
0.0
 20
0.0
 30
0.0
210
0.0
220
0.0
230
1.0
  2
SOLID
 70
1
 71
0
 91
1
 92
0
 93
3
 72
1
 10
144.4406301261191
 20
142.1856869216617
 11
149.4406301261191
 21
141.5606869216617
 72
1
 10
149.4406301261191
 20
141.5606869216617
 11
149.4406301261191
 21
142.8106869216617
 72
1
 10
149.4406301261191
 20
142.8106869216617
 11
144.4406301261191
 21
142.1856869216617
 97
0
 75
0
 76
1
 98
1
 10
-281.3638654721633
 20
32.80500483166669
  0
HATCH
  5
136
330
3C
100
AcDbEntity
  8
尺寸线层
  6
Continuous
 62
0
440
16777216
100
AcDbHatch
 10
0.0
 20
0.0
 30
0.0
210
0.0
220
0.0
230
1.0
  2
SOLID
 70
1
 71
0
 91
1
 92
0
 93
3
 72
1
 10
132.4406301261191
 20
142.1856869216617
 11
127.4406301261191
 21
141.5606869216617
 72
1
 10
127.4406301261191
 20
141.5606869216617
 11
127.4406301261191
 21
142.8106869216617
 72
1
 10
127.4406301261191
 20
142.8106869216617
 11
132.4406301261191
 21
142.1856869216617
 97
0
 75
0
 76
1
 98
1
 10
-281.3638654721633
 20
32.80500483166669
  0
LINE
  5
137
330
3C
100
AcDbEntity
  8
尺寸线层
  6
Continuous
 62
0
440
16777216
100
AcDbLine
 10
144.4406301261191
 20
131.3768830000519
 30
0.0
 11
144.4406301261191
 21
144.6856869216617
 31
0.0
  0
LINE
  5
138
330
3C
100
AcDbEntity
  8
尺寸线层
  6
Continuous
 62
0
440
16777216
100
AcDbLine
 10
132.4406301261191
 20
129.937406709452
 30
0.0
 11
132.4406301261191
 21
144.6856869216617
 31
0.0
  0
MTEXT
  5
139
330
3C
100
AcDbEntity
  8
尺寸线层
 62
0
440
16777216
100
AcDbMText
 10
138.4406296261191
 20
145.1544369216617
 30
0.0
 40
4.375
 41
8.75
 46
8.75
 71
5
  1
\T1.1;12
  7
标准
 44
1.150569886022795
1001
CAXA_DRAFT_TXTSCALE
1041
1.0
  0
ENDBLK
  5
133
330
3C
100
AcDbEntity
  8
0
100
AcDbBlockEnd
  0
BLOCK
  5
13A
330
3D
100
AcDbEntity
  8
0
100
AcDbBlockBegin
  2
*X12
 70
1
 10
0.0
 20
0.0
 30
0.0
  3
*X12
  1

  0
LINE
  5
13C
330
3D
100
AcDbEntity
  8
尺寸线层
  6
Continuous
 62
0
440
16777216
100
AcDbLine
 10
132.4406301261191
 20
156.8133172681942
 30
0.0
 11
64.44063012611917
 21
156.8133172681942
 31
0.0
  0
HATCH
  5
13D
330
3D
100
AcDbEntity
  8
尺寸线层
  6
Continuous
 62
0
440
16777216
100
AcDbHatch
 10
0.0
 20
0.0
 30
0.0
210
0.0
220
0.0
230
1.0
  2
SOLID
 70
1
 71
0
 91
1
 92
0
 93
3
 72
1
 10
132.4406301261191
 20
156.8133172681942
 11
127.4406301261191
 21
156.1883172681942
 72
1
 10
127.4406301261191
 20
156.1883172681942
 11
127.4406301261191
 21
157.4383172681942
 72
1
 10
127.4406301261191
 20
157.4383172681942
 11
132.4406301261191
 21
156.8133172681942
 97
0
 75
0
 76
1
 98
1
 10
-281.3638654721633
 20
32.80500483166669
  0
HATCH
  5
13E
330
3D
100
AcDbEntity
  8
尺寸线层
  6
Continuous
 62
0
440
16777216
100
AcDbHatch
 10
0.0
 20
0.0
 30
0.0
210
0.0
220
0.0
230
1.0
  2
SOLID
 70
1
 71
0
 91
1
 92
0
 93
3
 72
1
 10
64.44063012611917
 20
156.8133172681942
 11
69.44063012611917
 21
156.1883172681942
 72
1
 10
69.44063012611917
 20
156.1883172681942
 11
69.44063012611917
 21
157.4383172681942
 72
1
 10
69.44063012611917
 20
157.4383172681942
 11
64.44063012611917
 21
156.8133172681942
 97
0
 75
0
 76
1
 98
1
 10
-281.3638654721633
 20
32.80500483166669
  0
LINE
  5
13F
330
3D
100
AcDbEntity
  8
尺寸线层
  6
Continuous
 62
0
440
16777216
100
AcDbLine
 10
132.4406301261191
 20
129.937406709452
 30
0.0
 11
132.4406301261191
 21
159.3133172681942
 31
0.0
  0
LINE
  5
140
330
3D
100
AcDbEntity
  8
尺寸线层
  6
Continuous
 62
0
440
16777216
100
AcDbLine
 10
64.44063012611917
 20
123.9375773304517
 30
0.0
 11
64.44063012611917
 21
159.3133172681942
 31
0.0
  0
MTEXT
  5
141
330
3D
100
AcDbEntity
  8
尺寸线层
 62
0
440
16777216
100
AcDbMText
 10
98.44062962611912
 20
159.7820672681942
 30
0.0
 40
4.375
 41
8.75
 46
8.75
 71
5
  1
\T1.1;68
  7
标准
 44
1.150569886022795
1001
CAXA_DRAFT_TXTSCALE
1041
1.0
  0
ENDBLK
  5
13B
330
3D
100
AcDbEntity
  8
0
100
AcDbBlockEnd
  0
BLOCK
  5
142
330
3E
100
AcDbEntity
  8
0
100
AcDbBlockBegin
  2
*X13
 70
1
 10
0.0
 20
0.0
 30
0.0
  3
*X13
  1

  0
LINE
  5
144
330
3E
100
AcDbEntity
  8
尺寸线层
  6
Continuous
 62
0
440
16777216
100
AcDbLine
 10
114.4406301261191
 20
142.1856869216616
 30
0.0
 11
132.4406301261191
 21
142.1856869216617
 31
0.0
  0
HATCH
  5
145
330
3E
100
AcDbEntity
  8
尺寸线层
  6
Continuous
 62
0
440
16777216
100
AcDbHatch
 10
0.0
 20
0.0
 30
0.0
210
0.0
220
0.0
230
1.0
  2
SOLID
 70
1
 71
0
 91
1
 92
0
 93
3
 72
1
 10
114.4406301261191
 20
142.1856869216616
 11
119.4406301261191
 21
142.8106869216617
 72
1
 10
119.4406301261191
 20
142.8106869216617
 11
119.4406301261191
 21
141.5606869216617
 72
1
 10
119.4406301261191
 20
141.5606869216617
 11
114.4406301261191
 21
142.1856869216616
 97
0
 75
0
 76
1
 98
1
 10
-281.3638654721633
 20
32.80500483166669
  0
HATCH
  5
146
330
3E
100
AcDbEntity
  8
尺寸线层
  6
Continuous
 62
0
440
16777216
100
AcDbHatch
 10
0.0
 20
0.0
 30
0.0
210
0.0
220
0.0
230
1.0
  2
SOLID
 70
1
 71
0
 91
1
 92
0
 93
3
 72
1
 10
132.4406301261191
 20
142.1856869216617
 11
127.4406301261191
 21
142.8106869216617
 72
1
 10
127.4406301261191
 20
142.8106869216617
 11
127.4406301261191
 21
141.5606869216617
 72
1
 10
127.4406301261191
 20
141.5606869216617
 11
132.4406301261191
 21
142.1856869216617
 97
0
 75
0
 76
1
 98
1
 10
-281.3638654721633
 20
32.80500483166669
  0
LINE
  5
147
330
3E
100
AcDbEntity
  8
尺寸线层
  6
Continuous
 62
0
440
16777216
100
AcDbLine
 10
114.4406301261191
 20
126.4375773304519
 30
0.0
 11
114.4406301261191
 21
144.6856869216616
 31
0.0
  0
LINE
  5
148
330
3E
100
AcDbEntity
  8
尺寸线层
  6
Continuous
 62
0
440
16777216
100
AcDbLine
 10
132.4406301261191
 20
129.9375773304519
 30
0.0
 11
132.4406301261191
 21
144.6856869216617
 31
0.0
  0
MTEXT
  5
149
330
3E
100
AcDbEntity
  8
尺寸线层
 62
0
440
16777216
100
AcDbMText
 10
123.4406306261191
 20
145.1544369216617
 30
0.0
 40
4.375
 41
8.75
 46
8.75
 71
5
  1
\T1.1;18
  7
标准
 44
1.150569886022795
1001
CAXA_DRAFT_TXTSCALE
1041
1.0
  0
ENDBLK
  5
143
330
3E
100
AcDbEntity
  8
0
100
AcDbBlockEnd
  0
BLOCK
  5
14A
330
3F
100
AcDbEntity
  8
0
100
AcDbBlockBegin
  2
*X14
 70
1
 10
0.0
 20
0.0
 30
0.0
  3
*X14
  1

  0
LINE
  5
14C
330
3F
100
AcDbEntity
  8
尺寸线层
  6
Continuous
 62
0
440
16777216
100
AcDbLine
 10
64.44063012611917
 20
142.1856869216616
 30
0.0
 11
81.44063012611971
 21
142.1856869216616
 31
0.0
  0
HATCH
  5
14D
330
3F
100
AcDbEntity
  8
尺寸线层
  6
Continuous
 62
0
440
16777216
100
AcDbHatch
 10
0.0
 20
0.0
 30
0.0
210
0.0
220
0.0
230
1.0
  2
SOLID
 70
1
 71
0
 91
1
 92
0
 93
3
 72
1
 10
64.44063012611917
 20
142.1856869216616
 11
69.44063012611917
 21
142.8106869216616
 72
1
 10
69.44063012611917
 20
142.8106869216616
 11
69.44063012611917
 21
141.5606869216616
 72
1
 10
69.44063012611917
 20
141.5606869216616
 11
64.44063012611917
 21
142.1856869216616
 97
0
 75
0
 76
1
 98
1
 10
-281.3638654721633
 20
32.80500483166669
  0
HATCH
  5
14E
330
3F
100
AcDbEntity
  8
尺寸线层
  6
Continuous
 62
0
440
16777216
100
AcDbHatch
 10
0.0
 20
0.0
 30
0.0
210
0.0
220
0.0
230
1.0
  2
SOLID
 70
1
 71
0
 91
1
 92
0
 93
3
 72
1
 10
81.44063012611971
 20
142.1856869216616
 11
76.44063012611971
 21
142.8106869216616
 72
1
 10
76.44063012611971
 20
142.8106869216616
 11
76.44063012611971
 21
141.5606869216616
 72
1
 10
76.44063012611971
 20
141.5606869216616
 11
81.44063012611971
 21
142.1856869216616
 97
0
 75
0
 76
1
 98
1
 10
-281.3638654721633
 20
32.80500483166669
  0
LINE
  5
14F
330
3F
100
AcDbEntity
  8
尺寸线层
  6
Continuous
 62
0
440
16777216
100
AcDbLine
 10
64.44063012611917
 20
123.9375773304517
 30
0.0
 11
64.44063012611917
 21
144.6856869216616
 31
0.0
  0
LINE
  5
150
330
3F
100
AcDbEntity
  8
尺寸线层
  6
Continuous
 62
0
440
16777216
100
AcDbLine
 10
81.44063012611977
 20
115.4375773304525
 30
0.0
 11
81.44063012611971
 21
144.6856869216616
 31
0.0
  0
MTEXT
  5
151
330
3F
100
AcDbEntity
  8
尺寸线层
 62
0
440
16777216
100
AcDbMText
 10
72.94063062611943
 20
145.1544369216616
 30
0.0
 40
4.375
 41
8.75
 46
8.75
 71
5
  1
\T1.1;17
  7
标准
 44
1.150569886022795
1001
CAXA_DRAFT_TXTSCALE
1041
1.0
  0
ENDBLK
  5
14B
330
3F
100
AcDbEntity
  8
0
100
AcDbBlockEnd
  0
BLOCK
  5
152
330
40
100
AcDbEntity
  8
0
100
AcDbBlockBegin
  2
*X15
 70
1
 10
0.0
 20
0.0
 30
0.0
  3
*X15
  1

  0
LINE
  5
154
330
40
100
AcDbEntity
  8
尺寸线层
  6
Continuous
 62
0
440
16777216
100
AcDbLine
 10
233.4406301263191
 20
156.8133172681944
 30
0.0
 11
132.4406301261191
 21
156.8133172681944
 31
0.0
  0
HATCH
  5
155
330
40
100
AcDbEntity
  8
尺寸线层
  6
Continuous
 62
0
440
16777216
100
AcDbHatch
 10
0.0
 20
0.0
 30
0.0
210
0.0
220
0.0
230
1.0
  2
SOLID
 70
1
 71
0
 91
1
 92
0
 93
3
 72
1
 10
233.4406301263191
 20
156.8133172681944
 11
228.4406301263191
 21
156.1883172681944
 72
1
 10
228.4406301263191
 20
156.1883172681944
 11
228.4406301263191
 21
157.4383172681944
 72
1
 10
228.4406301263191
 20
157.4383172681944
 11
233.4406301263191
 21
156.8133172681944
 97
0
 75
0
 76
1
 98
1
 10
-281.3638654721633
 20
32.80500483166669
  0
HATCH
  5
156
330
40
100
AcDbEntity
  8
尺寸线层
  6
Continuous
 62
0
440
16777216
100
AcDbHatch
 10
0.0
 20
0.0
 30
0.0
210
0.0
220
0.0
230
1.0
  2
SOLID
 70
1
 71
0
 91
1
 92
0
 93
3
 72
1
 10
132.4406301261191
 20
156.8133172681944
 11
137.4406301261191
 21
156.1883172681944
 72
1
 10
137.4406301261191
 20
156.1883172681944
 11
137.4406301261191
 21
157.4383172681944
 72
1
 10
137.4406301261191
 20
157.4383172681944
 11
132.4406301261191
 21
156.8133172681944
 97
0
 75
0
 76
1
 98
1
 10
-281.3638654721633
 20
32.80500483166669
  0
LINE
  5
157
330
40
100
AcDbEntity
  8
尺寸线层
  6
Continuous
 62
0
440
16777216
100
AcDbLine
 10
233.4406301263191
 20
130.9375773304521
 30
0.0
 11
233.4406301263191
 21
159.3133172681944
 31
0.0
  0
LINE
  5
158
330
40
100
AcDbEntity
  8
尺寸线层
  6
Continuous
 62
0
440
16777216
100
AcDbLine
 10
132.4406301261191
 20
129.9374067092517
 30
0.0
 11
132.4406301261191
 21
159.3133172681944
 31
0.0
  0
MTEXT
  5
159
330
40
100
AcDbEntity
  8
尺寸线层
 62
0
440
16777216
100
AcDbMText
 10
182.9406296262191
 20
159.7820672681944
 30
0.0
 40
4.375
 41
11.4974125
 46
8.75
 71
5
  1
\T1.1;101
  7
标准
 44
1.150569886022795
1001
CAXA_DRAFT_TXTSCALE
1041
1.0
  0
ENDBLK
  5
153
330
40
100
AcDbEntity
  8
0
100
AcDbBlockEnd
  0
BLOCK
  5
15A
330
41
100
AcDbEntity
  8
0
100
AcDbBlockBegin
  2
*X16
 70
1
 10
0.0
 20
0.0
 30
0.0
  3
*X16
  1

  0
LINE
  5
15C
330
41
100
AcDbEntity
  8
尺寸线层
  6
Continuous
 62
0
440
16777216
100
AcDbLine
 10
49.36489171834107
 20
123.9375773304517
 30
0.0
 11
49.36489171834107
 21
106.9375773304517
 31
0.0
  0
HATCH
  5
15D
330
41
100
AcDbEntity
  8
尺寸线层
  6
Continuous
 62
0
440
16777216
100
AcDbHatch
 10
0.0
 20
0.0
 30
0.0
210
0.0
220
0.0
230
1.0
  2
SOLID
 70
1
 71
0
 91
1
 92
0
 93
3
 72
1
 10
49.36489171834107
 20
123.9375773304517
 11
49.98989171834107
 21
118.9375773304517
 72
1
 10
49.98989171834107
 20
118.9375773304517
 11
48.73989171834107
 21
118.9375773304517
 72
1
 10
48.73989171834107
 20
118.9375773304517
 11
49.36489171834107
 21
123.9375773304517
 97
0
 75
0
 76
1
 98
1
 10
-281.3638654721633
 20
32.80500483166669
  0
HATCH
  5
15E
330
41
100
AcDbEntity
  8
尺寸线层
  6
Continuous
 62
0
440
16777216
100
AcDbHatch
 10
0.0
 20
0.0
 30
0.0
210
0.0
220
0.0
230
1.0
  2
SOLID
 70
1
 71
0
 91
1
 92
0
 93
3
 72
1
 10
49.36489171834107
 20
106.9375773304517
 11
49.98989171834107
 21
111.9375773304517
 72
1
 10
49.98989171834107
 20
111.9375773304517
 11
48.73989171834107
 21
111.9375773304517
 72
1
 10
48.73989171834107
 20
111.9375773304517
 11
49.36489171834107
 21
106.9375773304517
 97
0
 75
0
 76
1
 98
1
 10
-281.3638654721633
 20
32.80500483166669
  0
LINE
  5
15F
330
41
100
AcDbEntity
  8
尺寸线层
  6
Continuous
 62
0
440
16777216
100
AcDbLine
 10
64.44063012611917
 20
123.9375773304517
 30
0.0
 11
46.86489171834107
 21
123.9375773304517
 31
0.0
  0
LINE
  5
160
330
41
100
AcDbEntity
  8
尺寸线层
  6
Continuous
 62
0
440
16777216
100
AcDbLine
 10
64.44063012611917
 20
106.9375773304517
 30
0.0
 11
46.86489171834107
 21
106.9375773304517
 31
0.0
  0
MTEXT
  5
161
330
41
100
AcDbEntity
  8
尺寸线层
 62
0
440
16777216
100
AcDbMText
 10
46.39614171834107
 20
115.4375768304517
 30
0.0
 40
4.375
 41
12.53496805555557
 46
8.75
 71
5
  1
\T1.1;%%C17
  7
标准
 11
6.123233995736766e-17
 21
1.0
 31
0.0
 44
1.150569886022795
1001
CAXA_DRAFT_TXTSCALE
1041
1.0
  0
ENDBLK
  5
15B
330
41
100
AcDbEntity
  8
0
100
AcDbBlockEnd
  0
BLOCK
  5
162
330
42
100
AcDbEntity
  8
0
100
AcDbBlockBegin
  2
*X17
 70
1
 10
0.0
 20
0.0
 30
0.0
  3
*X17
  1

  0
LINE
  5
164
330
42
100
AcDbEntity
  8
尺寸线层
  6
Continuous
 62
0
440
16777216
100
AcDbLine
 10
233.4406301263191
 20
156.8133172681945
 30
0.0
 11
248.4406301261191
 21
156.8133172681945
 31
0.0
  0
HATCH
  5
165
330
42
100
AcDbEntity
  8
尺寸线层
  6
Continuous
 62
0
440
16777216
100
AcDbHatch
 10
0.0
 20
0.0
 30
0.0
210
0.0
220
0.0
230
1.0
  2
SOLID
 70
1
 71
0
 91
1
 92
0
 93
3
 72
1
 10
233.4406301263191
 20
156.8133172681945
 11
238.4406301263191
 21
157.4383172681945
 72
1
 10
238.4406301263191
 20
157.4383172681945
 11
238.4406301263191
 21
156.1883172681945
 72
1
 10
238.4406301263191
 20
156.1883172681945
 11
233.4406301263191
 21
156.8133172681945
 97
0
 75
0
 76
1
 98
1
 10
-281.3638654721633
 20
32.80500483166669
  0
HATCH
  5
166
330
42
100
AcDbEntity
  8
尺寸线层
  6
Continuous
 62
0
440
16777216
100
AcDbHatch
 10
0.0
 20
0.0
 30
0.0
210
0.0
220
0.0
230
1.0
  2
SOLID
 70
1
 71
0
 91
1
 92
0
 93
3
 72
1
 10
248.4406301261191
 20
156.8133172681945
 11
243.4406301261191
 21
157.4383172681945
 72
1
 10
243.4406301261191
 20
157.4383172681945
 11
243.4406301261191
 21
156.1883172681945
 72
1
 10
243.4406301261191
 20
156.1883172681945
 11
248.4406301261191
 21
156.8133172681945
 97
0
 75
0
 76
1
 98
1
 10
-281.3638654721633
 20
32.80500483166669
  0
LINE
  5
167
330
42
100
AcDbEntity
  8
尺寸线层
  6
Continuous
 62
0
440
16777216
100
AcDbLine
 10
233.4406301263191
 20
130.9375773304521
 30
0.0
 11
233.4406301263191
 21
159.3133172681945
 31
0.0
  0
LINE
  5
168
330
42
100
AcDbEntity
  8
尺寸线层
  6
Continuous
 62
0
440
16777216
100
AcDbLine
 10
248.4406301261191
 20
127.2688039048521
 30
0.0
 11
248.4406301261191
 21
159.3133172681945
 31
0.0
  0
MTEXT
  5
169
330
42
100
AcDbEntity
  8
尺寸线层
 62
0
440
16777216
100
AcDbMText
 10
240.9406306262191
 20
159.7820672681945
 30
0.0
 40
4.375
 41
8.75
 46
8.75
 71
5
  1
\T1.1;15
  7
标准
 44
1.150569886022795
1001
CAXA_DRAFT_TXTSCALE
1041
1.0
  0
ENDBLK
  5
163
330
42
100
AcDbEntity
  8
0
100
AcDbBlockEnd
  0
BLOCK
  5
16A
330
43
100
AcDbEntity
  8
0
100
AcDbBlockBegin
  2
*X18
 70
1
 10
0.0
 20
0.0
 30
0.0
  3
*X18
  1

  0
LINE
  5
16C
330
43
100
AcDbEntity
  8
尺寸线层
  6
Continuous
 62
0
100
AcDbLine
 10
71.41198751569956
 20
28.73036192469477
 30
0.0
 11
65.4493587031171
 21
12.45928502680125
 31
0.0
  0
HATCH
  5
16D
330
43
100
AcDbEntity
  8
尺寸线层
  6
Continuous
 62
0
100
AcDbHatch
 10
0.0
 20
0.0
 30
0.0
210
0.0
220
0.0
230
1.0
  2
SOLID
 70
1
 71
0
 91
1
 92
0
 93
3
 72
1
 10
71.41198751569956
 20
28.73036192469477
 11
70.27842506710513
 21
23.82061028381347
 72
1
 10
70.27842506710513
 20
23.82061028381347
 11
69.10474966161419
 21
24.25071032164844
 72
1
 10
69.10474966161419
 20
24.25071032164844
 11
71.41198751569956
 21
28.73036192469477
 97
0
 75
0
 76
1
 98
1
 10
-281.3638654721633
 20
32.80500483166669
  0
LINE
  5
16E
330
43
100
AcDbEntity
  8
尺寸线层
 62
0
100
AcDbLine
 10
65.4493587031171
 20
12.45928502680125
 30
0.0
 11
45.94728704764586
 21
12.45928502680125
 31
0.0
  0
MTEXT
  5
16F
330
43
100
AcDbEntity
  8
尺寸线层
 62
0
100
AcDbMText
 10
52.60223322820141
 20
15.8898405823568
 30
0.0
 40
4.375
 41
26.61978472222222
 46
8.75
 71
5
  1
\T1.1;NPT3/4
  7
标准
 44
1.150569886022795
1001
CAXA_DRAFT_TXTSCALE
1041
1.0
  0
ENDBLK
  5
16B
330
43
100
AcDbEntity
  8
0
100
AcDbBlockEnd
  0
BLOCK
  5
170
330
44
100
AcDbEntity
  8
0
100
AcDbBlockBegin
  2
*X19
 70
1
 10
0.0
 20
0.0
 30
0.0
  3
*X19
  1

  0
LINE
  5
172
330
44
100
AcDbEntity
  8
尺寸线层
  6
Continuous
 62
0
440
16777216
100
AcDbLine
 10
189.1008696549866
 20
131.437577330452
 30
0.0
 11
189.1008696549866
 21
99.437577330452
 31
0.0
  0
HATCH
  5
173
330
44
100
AcDbEntity
  8
尺寸线层
  6
Continuous
 62
0
440
16777216
100
AcDbHatch
 10
0.0
 20
0.0
 30
0.0
210
0.0
220
0.0
230
1.0
  2
SOLID
 70
1
 71
0
 91
1
 92
0
 93
3
 72
1
 10
189.1008696549866
 20
131.437577330452
 11
189.4342029883199
 21
128.7709106637853
 72
1
 10
189.4342029883199
 20
128.7709106637853
 11
188.7675363216532
 21
128.7709106637853
 72
1
 10
188.7675363216532
 20
128.7709106637853
 11
189.1008696549866
 21
131.437577330452
 97
0
 75
0
 76
1
 98
1
 10
-17.42191117474695
 20
9.146503366742154
  0
HATCH
  5
174
330
44
100
AcDbEntity
  8
尺寸线层
  6
Continuous
 62
0
440
16777216
100
AcDbHatch
 10
0.0
 20
0.0
 30
0.0
210
0.0
220
0.0
230
1.0
  2
SOLID
 70
1
 71
0
 91
1
 92
0
 93
3
 72
1
 10
189.1008696549866
 20
99.437577330452
 11
189.4342029883199
 21
102.1042439971187
 72
1
 10
189.4342029883199
 20
102.1042439971187
 11
188.7675363216532
 21
102.1042439971187
 72
1
 10
188.7675363216532
 20
102.1042439971187
 11
189.1008696549866
 21
99.437577330452
 97
0
 75
0
 76
1
 98
1
 10
-17.42191117474695
 20
9.146503366742154
  0
LINE
  5
175
330
44
100
AcDbEntity
  8
尺寸线层
  6
Continuous
 62
0
440
16777216
100
AcDbLine
 10
191.27860855183
 20
131.437577330452
 30
0.0
 11
187.7675363216532
 21
131.437577330452
 31
0.0
  0
LINE
  5
176
330
44
100
AcDbEntity
  8
尺寸线层
  6
Continuous
 62
0
440
16777216
100
AcDbLine
 10
189.971965213724
 20
99.437577330452
 30
0.0
 11
187.7675363216533
 21
99.437577330452
 31
0.0
  0
MTEXT
  5
177
330
44
100
AcDbEntity
  8
尺寸线层
 62
0
440
16777216
100
AcDbMText
 10
187.5175363216532
 20
115.437576830452
 30
0.0
 40
2.333333333333333
 41
6.66802370370371
 46
4.666666666666666
 71
5
  1
\T1.1;%%C32
  7
标准
 11
6.123233995736766e-17
 21
1.0
 31
0.0
 44
1.150569886022795
1001
CAXA_DRAFT_TXTSCALE
1041
1.0
  0
ENDBLK
  5
171
330
44
100
AcDbEntity
  8
0
100
AcDbBlockEnd
  0
ENDSEC
  0
SECTION
  2
ENTITIES
  0
LINE
  5
45
330
17
100
AcDbEntity
  8
WB_OUTLINE
100
AcDbLine
 10
114.4406301261192
 20
104.4375773304518
 30
0.0
 11
114.4406301261191
 21
126.4375773304518
 31
0.0
  0
LINE
  5
46
330
17
100
AcDbEntity
  8
WB_OUTLINE
100
AcDbLine
 10
115.4401465265192
 20
103.4064812646515
 30
0.0
 11
115.4401465265192
 21
127.4686733962517
 31
0.0
  0
LINE
  5
47
330
17
100
AcDbEntity
  8
WB_OUTLINE
100
AcDbLine
 10
114.4406301261191
 20
126.4375773304518
 30
0.0
 11
115.4401465265192
 21
127.4686733962517
 31
0.0
  0
LINE
  5
48
330
17
100
AcDbEntity
  8
WB_OUTLINE
100
AcDbLine
 10
133.3066555299191
 20
131.4375773304519
 30
0.0
 11
132.4406301261191
 21
129.9375773304519
 31
0.0
  0
LINE
  5
49
330
17
100
AcDbEntity
  8
WB_OUTLINE
100
AcDbLine
 10
132.4406301261192
 20
100.9377479514519
 30
0.0
 11
132.4406301261191
 21
129.9374067092517
 31
0.0
  0
LINE
  5
4A
330
17
100
AcDbEntity
  8
WB_OUTLINE
100
AcDbLine
 10
133.3066555299191
 20
131.4375773304519
 30
0.0
 11
133.3066555299191
 21
131.3768829998517
 31
0.0
  0
LINE
  5
4B
330
17
100
AcDbEntity
  8
WB_OUTLINE
100
AcDbLine
 10
133.3066555299191
 20
124.6130083706517
 30
0.0
 11
133.3066555299191
 21
122.2014519596519
 31
0.0
  0
LINE
  5
4C
330
17
100
AcDbEntity
  8
WB_OUTLINE
100
AcDbLine
 10
133.3066555299192
 20
108.6737027010518
 30
0.0
 11
133.3066555299192
 21
106.262146290052
 31
0.0
  0
LINE
  5
4D
330
17
100
AcDbEntity
  8
WB_OUTLINE
100
AcDbLine
 10
133.3066555299192
 20
99.498271660852
 30
0.0
 11
133.3066555299192
 21
99.43757733045189
 31
0.0
  0
LINE
  5
4E
330
17
100
AcDbEntity
  8
WB_OUTLINE
100
AcDbLine
 10
144.4406301261191
 20
131.3768829998517
 30
0.0
 11
144.4406301261191
 21
124.6130083706517
 31
0.0
  0
LINE
  5
4F
330
17
100
AcDbEntity
  8
WB_OUTLINE
100
AcDbLine
 10
144.4406301261191
 20
122.2014519596519
 30
0.0
 11
144.4406301261192
 21
108.6737027010518
 31
0.0
  0
LINE
  5
50
330
17
100
AcDbEntity
  8
WB_OUTLINE
100
AcDbLine
 10
144.4406301261192
 20
106.262146290052
 30
0.0
 11
144.4406301261192
 21
99.498271660852
 31
0.0
  0
LINE
  5
51
330
17
100
AcDbEntity
  8
WB_OUTLINE
100
AcDbLine
 10
132.4406301261191
 20
127.9975773304518
 30
0.0
 11
115.4401465265192
 21
127.4686733962517
 31
0.0
  0
LINE
  5
52
330
17
100
AcDbEntity
  8
WB_OUTLINE
100
AcDbLine
 10
133.3066555299191
 20
131.4375773304519
 30
0.0
 11
146.4406301261191
 21
131.4375773304519
 31
0.0
  0
LINE
  5
53
330
17
100
AcDbEntity
  8
WB_OUTLINE
100
AcDbLine
 10
133.3066555299191
 20
131.3768829998517
 30
0.0
 11
144.4406301261191
 21
131.3768829998517
 31
0.0
  0
LINE
  5
54
330
17
100
AcDbEntity
  8
WB_OUTLINE
100
AcDbLine
 10
133.3066555299191
 20
124.6130083706517
 30
0.0
 11
144.4406301261191
 21
124.6130083706517
 31
0.0
  0
LINE
  5
55
330
17
100
AcDbEntity
  8
WB_OUTLINE
100
AcDbLine
 10
133.3066555299191
 20
122.2014519596519
 30
0.0
 11
144.4406301261191
 21
122.2014519596519
 31
0.0
  0
LINE
  5
56
330
17
100
AcDbEntity
  8
WB_OUTLINE
100
AcDbLine
 10
133.3066555299192
 20
108.6737027010518
 30
0.0
 11
144.4406301261192
 21
108.6737027010518
 31
0.0
  0
LINE
  5
57
330
17
100
AcDbEntity
  8
WB_OUTLINE
100
AcDbLine
 10
133.3066555299192
 20
106.262146290052
 30
0.0
 11
144.4406301261192
 21
106.262146290052
 31
0.0
  0
LINE
  5
58
330
17
100
AcDbEntity
  8
WB_OUTLINE
100
AcDbLine
 10
132.4406301261192
 20
102.877577330452
 30
0.0
 11
115.4401465265192
 21
103.4064812646515
 31
0.0
  0
LINE
  5
59
330
17
100
AcDbEntity
  8
WB_OUTLINE
100
AcDbLine
 10
133.3066555299192
 20
99.498271660852
 30
0.0
 11
144.4406301261192
 21
99.498271660852
 31
0.0
  0
LINE
  5
5A
330
17
100
AcDbEntity
  8
WB_OUTLINE
100
AcDbLine
 10
133.3066555299192
 20
99.43757733045189
 30
0.0
 11
146.4406301261192
 21
99.43757733045192
 31
0.0
  0
LINE
  5
5B
330
17
100
AcDbEntity
  8
WB_OUTLINE
100
AcDbLine
 10
133.3066555299192
 20
99.43757733045189
 30
0.0
 11
132.4406301261192
 21
100.9375773304519
 31
0.0
  0
LINE
  5
5C
330
17
100
AcDbEntity
  8
WB_OUTLINE
100
AcDbLine
 10
114.4406301261192
 20
104.4375773304518
 30
0.0
 11
115.4401465265192
 21
103.4064812646515
 31
0.0
  0
SPLINE
  5
5D
330
17
100
AcDbEntity
  8
WB_OUTLINE
100
AcDbSpline
 70
12
 71
3
 72
10
 73
6
 74
0
 42
1e-09
 43
1e-07
 40
0.0
 40
0.0
 40
0.0
 40
0.0
 40
333.4059309513114
 40
494.4202726859011
 40
653.3619156710461
 40
653.3619156710461
 40
653.3619156710461
 40
653.3619156710461
 41
1.0
 41
1.0
 41
1.0
 41
1.0
 41
1.0
 41
1.0
 10
133.3066555299191
 20
124.6130083706517
 30
0.0
 10
133.0441597319191
 20
125.1507546584517
 30
0.0
 10
132.7142837189191
 20
125.9829854312516
 30
0.0
 10
132.4802325665191
 20
127.1346513478516
 30
0.0
 10
132.4406301261191
 20
127.7096787434516
 30
0.0
 10
132.4406301261191
 20
127.9949456852519
 30
0.0
  0
SPLINE
  5
5E
330
17
100
AcDbEntity
  8
WB_OUTLINE
100
AcDbSpline
 70
12
 71
3
 72
10
 73
6
 74
0
 42
1e-09
 43
1e-07
 40
0.0
 40
0.0
 40
0.0
 40
0.0
 40
163.5148741570472
 40
329.1620845798587
 40
672.161084468793
 40
672.161084468793
 40
672.161084468793
 40
672.161084468793
 41
1.0
 41
1.0
 41
1.0
 41
1.0
 41
1.0
 41
1.0
 10
132.4406301261191
 20
127.9949456852519
 30
0.0
 10
132.4406301261191
 20
128.2802126384518
 30
0.0
 10
132.4802325709192
 20
128.8552400566519
 30
0.0
 10
132.7142837299191
 20
130.0069059722519
 30
0.0
 10
133.0441597417191
 20
130.8391367324516
 30
0.0
 10
133.3066555299191
 20
131.3768829998517
 30
0.0
  0
SPLINE
  5
5F
330
17
100
AcDbEntity
  8
WB_OUTLINE
100
AcDbSpline
 70
12
 71
3
 72
10
 73
6
 74
0
 42
1e-09
 43
1e-07
 40
0.0
 40
0.0
 40
0.0
 40
0.0
 40
278.9527603578656
 40
418.4786999698114
 40
558.0046378519427
 40
558.0046378519427
 40
558.0046378519427
 40
558.0046378519427
 41
1.0
 41
1.0
 41
1.0
 41
1.0
 41
1.0
 41
1.0
 10
133.3066555299192
 20
108.6737027010518
 30
0.0
 10
133.0366568999192
 20
109.7799357304516
 30
0.0
 10
132.7085443547192
 20
111.4609850834518
 30
0.0
 10
132.4796107091192
 20
113.7285013058518
 30
0.0
 10
132.4406301261192
 20
114.8680221592518
 30
0.0
 10
132.4406301261192
 20
115.4375773304519
 30
0.0
  0
SPLINE
  5
60
330
17
100
AcDbEntity
  8
WB_OUTLINE
100
AcDbSpline
 70
12
 71
3
 72
10
 73
6
 74
0
 42
1e-09
 43
1e-07
 40
0.0
 40
0.0
 40
0.0
 40
0.0
 40
148.2274439841832
 40
296.454889509658
 40
592.8044573483533
 40
592.8044573483533
 40
592.8044573483533
 40
592.8044573483533
 41
1.0
 41
1.0
 41
1.0
 41
1.0
 41
1.0
 41
1.0
 10
132.4406301261192
 20
115.4375773304519
 30
0.0
 10
132.4406301261191
 20
116.007132524052
 30
0.0
 10
132.4796107133191
 20
117.1466534220517
 30
0.0
 10
132.7085443655191
 20
119.4141696438519
 30
0.0
 10
133.0366569105192
 20
121.0952189734517
 30
0.0
 10
133.3066555299191
 20
122.2014519596519
 30
0.0
  0
SPLINE
  5
61
330
17
100
AcDbEntity
  8
WB_OUTLINE
100
AcDbSpline
 70
12
 71
3
 72
10
 73
6
 74
0
 42
1e-09
 43
1e-07
 40
0.0
 40
0.0
 40
0.0
 40
0.0
 40
244.7945938644168
 40
363.0151674420995
 40
479.7139161166502
 40
479.7139161166502
 40
479.7139161166502
 40
479.7139161166502
 41
1.0
 41
1.0
 41
1.0
 41
1.0
 41
1.0
 41
1.0
 10
133.3066555299192
 20
99.498271660852
 30
0.0
 10
133.0441597319192
 20
100.036017948652
 30
0.0
 10
132.7142837189192
 20
100.868248721652
 30
0.0
 10
132.4802325665192
 20
102.019914638252
 30
0.0
 10
132.4406301261192
 20
102.594942033652
 30
0.0
 10
132.4406301261192
 20
102.8802089754518
 30
0.0
  0
SPLINE
  5
62
330
17
100
AcDbEntity
  8
WB_OUTLINE
100
AcDbSpline
 70
12
 71
3
 72
10
 73
6
 74
0
 42
1e-09
 43
1e-07
 40
0.0
 40
0.0
 40
0.0
 40
0.0
 40
120.5486236129992
 40
242.6692767018679
 40
495.5395892676453
 40
495.5395892676453
 40
495.5395892676453
 40
495.5395892676453
 41
1.0
 41
1.0
 41
1.0
 41
1.0
 41
1.0
 41
1.0
 10
132.4406301261192
 20
102.8802089754518
 30
0.0
 10
132.4406301261192
 20
103.1654759288517
 30
0.0
 10
132.4802325709192
 20
103.7405033468517
 30
0.0
 10
132.7142837299192
 20
104.8921692624517
 30
0.0
 10
133.0441597417192
 20
105.724400022652
 30
0.0
 10
133.3066555299192
 20
106.262146290052
 30
0.0
  0
INSERT
  5
63
330
17
100
AcDbEntity
  8
WB_DIMENSION
100
AcDbBlockReference
  2
*X9
 10
171.0895577945922
 20
74.92187586034407
 30
0.0
1001
CAXA_DRAFT_DMOVMAP_2011R3
1071
0
1001
CAXA_DRAFT_DMOVMAP_2013
1071
0
1001
CDRAFT_TXTROT_2011R3
1041
0.0
1001
CAXA_DRAFT_DIMLEADER
1000
标准
1041
0.0
1000
SW29
1000

1070
0
1000

1000

1000

1041
1.25
1070
0
1041
14.89584262285987
1041
12.45928502680124
1041
0.0
1041
14.81720011306763
1041
33.57853642519772
1041
0.0
1041
14.81720011306763
1041
33.57853642519772
1041
0.0
1071
0
1041
31.11975509366272
1041
27.93979127642667
1041
0.0
1071
1
1041
22.15468394230433
1041
12.45928502680124
1041
0.0
1070
1
  0
INSERT
  5
65
330
17
100
AcDbEntity
  8
WB_DIMENSION
100
AcDbBlockReference
  2
*X10
 10
171.0895577945922
 20
74.92187586034407
 30
0.0
1001
CAXA_DRAFT_DMOVMAP_2011R3
1071
0
1001
CAXA_DRAFT_DMOVMAP_2013
1071
0
1001
CDRAFT_TXTROT_2011R3
1041
0.0
1001
CAXA_DRAFT_DIMLEADER
1000
标准
1041
0.0
1000
NPT3/4
1000

1070
0
1000

1000

1000

1041
1.25
1070
0
1041
67.78586509003924
1041
12.45928502680124
1041
0.0
1041
14.81720011306763
1041
33.57853642519772
1041
0.0
1041
14.81720011306763
1041
33.57853642519772
1041
0.0
1071
0
1041
48.97611080254109
1041
28.73036192469457
1041
0.0
1071
1
1041
54.93873961512347
1041
12.45928502680125
1041
0.0
1070
1
  0
LINE
  5
67
330
17
100
AcDbEntity
  8
WB_THIN
100
AcDbLine
 10
132.440630128934
 20
126.9975773305291
 30
0.0
 11
114.4406301261191
 21
126.4375773304519
 31
0.0
  0
LINE
  5
68
330
17
100
AcDbEntity
  8
WB_THIN
100
AcDbLine
 10
132.440630128934
 20
103.8775773303747
 30
0.0
 11
114.4406301261192
 21
104.4375773304519
 31
0.0
  0
DIMENSION
  5
69
330
17
100
AcDbEntity
  8
WB_DIMENSION
100
AcDbDimension
280
0
  2
*X11
  3
标准
 10
132.4406301261191
 20
142.1856869216617
 30
0.0
 11
138.4406301261191
 21
142.1856869216617
 31
0.0
 70
32
 71
5
 42
-1.0
 73
0
 74
0
 75
0
100
AcDbAlignedDimension
 13
144.4406301261191
 23
131.3768830000519
 33
0.0
 14
132.4406301261191
 24
129.937406709452
 34
0.0
 50
0.0
100
AcDbRotatedDimension
1001
CAXA_DRAFT_DIMARROWREVERSE
1070
0
1001
ACAD
1000
DSTYLE
1002
{
1070
69
1070
1
1070
284
1070
8
1070
173
1070
1
1002
}
1001
CAXA_DRAFT_DIMARCLENSTYLE
1070
1
1001
CAXA_DRAFT_DDTSTY_2011R3
1070
0
1001
ACAD_DSTYLE_DIMTEXT_FILL
1070
376
1070
1
  0
DIMENSION
  5
73
330
17
100
AcDbEntity
  8
WB_DIMENSION
100
AcDbDimension
280
0
  2
*X12
  3
标准
 10
64.44063012611917
 20
156.8133172681942
 30
0.0
 11
98.44063012611912
 21
156.8133172681942
 31
0.0
 70
32
 71
5
 42
-1.0
 73
0
 74
0
 75
0
  1
68
100
AcDbAlignedDimension
 13
132.4406301261191
 23
129.937406709452
 33
0.0
 14
64.44063012611917
 24
123.9375773304517
 34
0.0
 50
0.0
100
AcDbRotatedDimension
1001
CAXA_DRAFT_DIMARROWREVERSE
1070
0
1001
ACAD
1000
DSTYLE
1002
{
1070
69
1070
1
1070
284
1070
8
1070
173
1070
1
1070
146
1040
1.0
1002
}
1001
CAXA_DRAFT_DIMARCLENSTYLE
1070
1
1001
CAXA_DRAFT_DDTSTY_2011R3
1070
0
1001
ACAD_DSTYLE_DIMTEXT_FILL
1070
376
1070
1
  0
DIMENSION
  5
7D
330
17
100
AcDbEntity
  8
WB_DIMENSION
100
AcDbDimension
280
0
  2
*X13
  3
标准
 10
132.4406301261191
 20
142.1856869216617
 30
0.0
 11
123.4406301261191
 21
142.1856869216616
 31
0.0
 70
32
 71
5
 42
-1.0
 73
0
 74
0
 75
0
100
AcDbAlignedDimension
 13
114.4406301261191
 23
126.4375773304519
 33
0.0
 14
132.4406301261191
 24
129.9375773304519
 34
0.0
 50
2.262e-13
100
AcDbRotatedDimension
1001
CAXA_DRAFT_DIMARROWREVERSE
1070
0
1001
ACAD
1000
DSTYLE
1002
{
1070
69
1070
1
1070
284
1070
8
1070
173
1070
1
1002
}
1001
CAXA_DRAFT_DIMARCLENSTYLE
1070
1
1001
CAXA_DRAFT_DDTSTY_2011R3
1070
0
1001
ACAD_DSTYLE_DIMTEXT_FILL
1070
376
1070
1
  0
LINE
  5
87
330
17
100
AcDbEntity
  8
WB_OUTLINE
100
AcDbLine
 10
114.4406301261192
 20
106.9375773304518
 30
0.0
 11
64.44063012611917
 21
106.9375773304517
 31
0.0
  0
LINE
  5
88
330
17
100
AcDbEntity
  8
WB_OUTLINE
100
AcDbLine
 10
114.4406301261191
 20
123.9375773304518
 30
0.0
 11
64.44063012611917
 21
123.9375773304517
 31
0.0
  0
ARC
  5
89
330
17
100
AcDbEntity
  8
WB_OUTLINE
100
AcDbCircle
 10
79.4406301261192
 20
115.4375773304525
 30
0.0
 40
2.000000000000566
100
AcDbArc
 50
-90.0000214150193
 51
90.00001234954199
  0
LINE
  5
8A
330
17
100
AcDbEntity
  8
WB_OUTLINE
100
AcDbLine
 10
79.44062792546535
 20
117.4375773304518
 30
0.0
 11
64.44063012611917
 21
117.4375773304517
 31
0.0
  0
LINE
  5
8B
330
17
100
AcDbEntity
  8
WB_OUTLINE
100
AcDbLine
 10
79.44062926295177
 20
113.4375773304518
 30
0.0
 11
64.44063012611917
 21
113.4375773304517
 31
0.0
  0
LINE
  5
8C
330
17
100
AcDbEntity
  8
WB_OUTLINE
100
AcDbLine
 10
80.76350578165162
 20
113.9375773304518
 30
0.0
 11
76.48191330246541
 21
113.9375773304518
 31
0.0
  0
LINE
  5
8D
330
17
100
AcDbEntity
  8
WB_OUTLINE
100
AcDbLine
 10
80.76350578165318
 20
116.9375773304518
 30
0.0
 11
76.48191330243569
 21
116.9375773304518
 31
0.0
  0
ARC
  5
8E
330
17
100
AcDbEntity
  8
WB_OUTLINE
100
AcDbCircle
 10
76.63560524198675
 20
115.4375773304533
 30
0.0
 40
1.50785317994751
100
AcDbArc
 50
84.14981570773732
 51
-84.14981570855582
  0
DIMENSION
  5
8F
330
17
100
AcDbEntity
  8
WB_DIMENSION
100
AcDbDimension
280
0
  2
*X14
  3
标准
 10
81.44063012611971
 20
142.1856869216616
 30
0.0
 11
72.94063012611943
 21
142.1856869216616
 31
0.0
 70
32
 71
5
 42
-1.0
 73
0
 74
0
 75
0
100
AcDbAlignedDimension
 13
64.44063012611917
 23
123.9375773304517
 33
0.0
 14
81.44063012611977
 24
115.4375773304525
 34
0.0
 50
1.437e-13
100
AcDbRotatedDimension
1001
CAXA_DRAFT_DIMARROWREVERSE
1070
0
1001
ACAD
1000
DSTYLE
1002
{
1070
69
1070
1
1070
284
1070
8
1070
173
1070
1
1002
}
1001
CAXA_DRAFT_DIMARCLENSTYLE
1070
1
1001
CAXA_DRAFT_DDTSTY_2011R3
1070
0
1001
ACAD_DSTYLE_DIMTEXT_FILL
1070
376
1070
1
  0
LINE
  5
99
330
17
100
AcDbEntity
  8
WB_OUTLINE
100
AcDbLine
 10
64.44063012611917
 20
106.9375773304517
 30
0.0
 11
64.44063012611917
 21
113.4375773304517
 31
0.0
  0
LINE
  5
9A
330
17
100
AcDbEntity
  8
WB_OUTLINE
100
AcDbLine
 10
64.44063012611917
 20
117.4375773304517
 30
0.0
 11
64.44063012611917
 21
123.9375773304517
 31
0.0
  0
LINE
  5
9B
330
17
100
AcDbEntity
  8
WB_OUTLINE
100
AcDbLine
 10
133.3066555299191
 20
131.4375773304519
 30
0.0
 11
151.4406301261191
 21
131.4375773304519
 31
0.0
  0
LINE
  5
9C
330
17
100
AcDbEntity
  8
WB_OUTLINE
100
AcDbLine
 10
133.3066555299192
 20
99.43757733045189
 30
0.0
 11
151.4406301261192
 21
99.43757733045192
 31
0.0
  0
DIMENSION
  5
9D
330
17
100
AcDbEntity
  8
WB_DIMENSION
100
AcDbDimension
280
0
  2
*X15
  3
标准
 10
132.4406301261191
 20
156.8133172681944
 30
0.0
 11
182.9406301262191
 21
156.8133172681944
 31
0.0
 70
32
 71
5
 42
-1.0
 73
0
 74
0
 75
0
100
AcDbAlignedDimension
 13
233.4406301263191
 23
130.9375773304521
 33
0.0
 14
132.4406301261191
 24
129.9374067092517
 34
0.0
 50
0.0
100
AcDbRotatedDimension
1001
CAXA_DRAFT_DIMARROWREVERSE
1070
0
1001
ACAD
1000
DSTYLE
1002
{
1070
69
1070
1
1070
284
1070
8
1070
173
1070
1
1002
}
1001
CAXA_DRAFT_DIMARCLENSTYLE
1070
1
1001
CAXA_DRAFT_DDTSTY_2011R3
1070
0
1001
ACAD_DSTYLE_DIMTEXT_FILL
1070
376
1070
1
  0
DIMENSION
  5
A7
330
17
100
AcDbEntity
  8
WB_DIMENSION
100
AcDbDimension
280
0
  2
*X16
  3
标准
 10
49.36489171834107
 20
106.9375773304518
 30
0.0
 11
49.36489171834107
 21
115.4375773304517
 31
0.0
 70
32
 71
5
 42
-1.0
 73
0
 74
0
 75
0
100
AcDbAlignedDimension
 13
64.44063012611917
 23
123.9375773304517
 33
0.0
 14
64.44063012611917
 24
106.9375773304517
 34
0.0
 50
-90.00000000000001
100
AcDbRotatedDimension
1001
CAXA_DRAFT_DIMARROWREVERSE
1070
0
1001
ACAD
1000
DSTYLE
1002
{
1070
69
1070
1
1070
3
1000
%%C<>
1070
284
1070
8
1070
173
1070
1
1002
}
1001
CAXA_DRAFT_DIMARCLENSTYLE
1070
1
1001
CAXA_DRAFT_DDTSTY_2011R3
1070
0
1001
ACAD_DSTYLE_DIMTEXT_FILL
1070
376
1070
1
  0
LINE
  5
B1
330
17
100
AcDbEntity
  8
WB_OUTLINE
100
AcDbLine
 10
226.4406301261191
 20
131.4375773304521
 30
0.0
 11
226.4406301261192
 21
99.43757733045206
 31
0.0
  0
LINE
  5
B2
330
17
100
AcDbEntity
  8
WB_OUTLINE
100
AcDbLine
 10
254.3736428689191
 20
106.6875773304521
 30
0.0
 11
253.9406287477191
 21
105.9375773390522
 31
0.0
  0
LINE
  5
B3
330
17
100
AcDbEntity
  8
WB_OUTLINE
100
AcDbLine
 10
263.4406301263191
 20
107.9375773306522
 30
0.0
 11
262.9406301263191
 21
107.4375773306522
 31
0.0
  0
LINE
  5
B4
330
17
100
AcDbEntity
  8
WB_OUTLINE
100
AcDbLine
 10
248.4406301261191
 20
103.6063507560522
 30
0.0
 11
247.4411180987192
 21
102.5751144442521
 31
0.0
  0
LINE
  5
B5
330
17
100
AcDbEntity
  8
WB_OUTLINE
100
AcDbLine
 10
249.5076173839192
 20
124.1875773304521
 30
0.0
 11
249.9406315269191
 21
124.9375773220521
 31
0.0
  0
LINE
  5
B6
330
17
100
AcDbEntity
  8
WB_OUTLINE
100
AcDbLine
 10
233.4406301261192
 20
99.93757733045209
 30
0.0
 11
232.9406301263192
 21
99.43757733065218
 31
0.0
  0
LINE
  5
B7
330
17
100
AcDbEntity
  8
WB_OUTLINE
100
AcDbLine
 10
233.4406301261192
 20
102.1375773304521
 30
0.0
 11
247.4411180987192
 21
102.5751144442521
 31
0.0
  0
LINE
  5
B8
330
17
100
AcDbEntity
  8
WB_OUTLINE
100
AcDbLine
 10
249.9406315601191
 20
105.9375773304521
 30
0.0
 11
253.9406287477191
 21
105.9375773304521
 31
0.0
  0
LINE
  5
B9
330
17
100
AcDbEntity
  8
WB_OUTLINE
100
AcDbLine
 10
253.9406301261191
 20
106.0201732296522
 30
0.0
 11
249.9406301261191
 21
106.0201732296522
 31
0.0
  0
LINE
  5
BA
330
17
100
AcDbEntity
  8
WB_OUTLINE
100
AcDbLine
 10
248.8406301261191
 20
106.6875773304521
 30
0.0
 11
249.5076174289192
 21
106.6875773304521
 31
0.0
  0
LINE
  5
BB
330
17
100
AcDbEntity
  8
WB_OUTLINE
100
AcDbLine
 10
254.3736428689191
 20
106.6875773304521
 30
0.0
 11
255.0406301261192
 21
106.6875773304521
 31
0.0
  0
LINE
  5
BC
330
17
100
AcDbEntity
  8
WB_OUTLINE
100
AcDbLine
 10
254.3736427861192
 20
106.9232308926521
 30
0.0
 11
249.5076176647191
 21
106.9232308926521
 31
0.0
  0
LINE
  5
BD
330
17
100
AcDbEntity
  8
WB_OUTLINE
100
AcDbLine
 10
255.4406301261191
 20
107.4375773304521
 30
0.0
 11
262.9406301261191
 21
107.4375773304521
 31
0.0
  0
LINE
  5
BE
330
17
100
AcDbEntity
  8
WB_OUTLINE
100
AcDbLine
 10
255.4406301261191
 20
107.4375773304521
 30
0.0
 11
262.9406301261191
 21
107.4375773304521
 31
0.0
  0
LINE
  5
BF
330
17
100
AcDbEntity
  8
WB_OUTLINE
100
AcDbLine
 10
249.9406301261191
 20
107.8945835530522
 30
0.0
 11
253.9406301261191
 21
107.8945835530522
 31
0.0
  0
LINE
  5
C0
330
17
100
AcDbEntity
  8
WB_OUTLINE
100
AcDbLine
 10
253.9406301261191
 20
109.6623505060521
 30
0.0
 11
249.9406301261191
 21
109.6623505060521
 31
0.0
  0
LINE
  5
C1
330
17
100
AcDbEntity
  8
WB_OUTLINE
100
AcDbLine
 10
254.3736278427191
 20
110.8432798912521
 30
0.0
 11
249.5076172799191
 21
110.8432798912521
 31
0.0
  0
LINE
  5
C2
330
17
100
AcDbEntity
  8
WB_OUTLINE
100
AcDbLine
 10
249.5076178271191
 20
113.4205486406521
 30
0.0
 11
254.3736430639191
 21
113.4205486406521
 31
0.0
  0
LINE
  5
C3
330
17
100
AcDbEntity
  8
WB_OUTLINE
100
AcDbLine
 10
249.9406301261191
 20
114.1875773304521
 30
0.0
 11
253.9406301261191
 21
114.1875773304521
 31
0.0
  0
LINE
  5
C4
330
17
100
AcDbEntity
  8
WB_OUTLINE
100
AcDbLine
 10
253.9406301261191
 20
116.6875773304521
 30
0.0
 11
249.9406301261191
 21
116.6875773304521
 31
0.0
  0
LINE
  5
C5
330
17
100
AcDbEntity
  8
WB_OUTLINE
100
AcDbLine
 10
254.3736423813191
 20
117.4546060204522
 30
0.0
 11
249.5076171879191
 21
117.4546060204522
 31
0.0
  0
LINE
  5
C6
330
17
100
AcDbEntity
  8
WB_OUTLINE
100
AcDbLine
 10
249.5076330231192
 20
120.0318747696522
 30
0.0
 11
254.3736429809191
 21
120.0318747696522
 31
0.0
  0
LINE
  5
C7
330
17
100
AcDbEntity
  8
WB_OUTLINE
100
AcDbLine
 10
249.9406301261191
 20
121.2128041548522
 30
0.0
 11
253.9406301261191
 21
121.2128041548522
 31
0.0
  0
LINE
  5
C8
330
17
100
AcDbEntity
  8
WB_OUTLINE
100
AcDbLine
 10
253.9406301261191
 20
122.9805711078522
 30
0.0
 11
249.9406301261191
 21
122.9805711078522
 31
0.0
  0
LINE
  5
C9
330
17
100
AcDbEntity
  8
WB_OUTLINE
100
AcDbLine
 10
255.4406301261191
 20
123.4375773304521
 30
0.0
 11
262.9406301261191
 21
123.4375773304521
 31
0.0
  0
LINE
  5
CA
330
17
100
AcDbEntity
  8
WB_OUTLINE
100
AcDbLine
 10
255.4406301261191
 20
123.4375773304521
 30
0.0
 11
262.9406301261191
 21
123.4375773304521
 31
0.0
  0
LINE
  5
CB
330
17
100
AcDbEntity
  8
WB_OUTLINE
100
AcDbLine
 10
249.5076174669191
 20
123.9519237684522
 30
0.0
 11
254.3736426001192
 21
123.9519237684522
 31
0.0
  0
LINE
  5
CC
330
17
100
AcDbEntity
  8
WB_OUTLINE
100
AcDbLine
 10
248.8406301261191
 20
124.1875773304521
 30
0.0
 11
249.5076173839192
 21
124.1875773304521
 31
0.0
  0
LINE
  5
CD
330
17
100
AcDbEntity
  8
WB_OUTLINE
100
AcDbLine
 10
254.3736428245191
 20
124.1875773304521
 30
0.0
 11
255.0406301261191
 21
124.1875773304521
 31
0.0
  0
LINE
  5
CE
330
17
100
AcDbEntity
  8
WB_OUTLINE
100
AcDbLine
 10
249.9406301261191
 20
124.8549814314522
 30
0.0
 11
253.9406301261191
 21
124.8549814314522
 31
0.0
  0
LINE
  5
CF
330
17
100
AcDbEntity
  8
WB_OUTLINE
100
AcDbLine
 10
249.9406315269191
 20
124.9375773304521
 30
0.0
 11
253.9406286719191
 21
124.9375773304521
 31
0.0
  0
LINE
  5
D0
330
17
100
AcDbEntity
  8
WB_OUTLINE
100
AcDbLine
 10
233.4406301261191
 20
128.7375773304522
 30
0.0
 11
247.4411180987191
 21
128.3000402166522
 31
0.0
  0
LINE
  5
D1
330
17
100
AcDbEntity
  8
WB_OUTLINE
100
AcDbLine
 10
233.4406301263191
 20
130.9375773304521
 30
0.0
 11
232.9406301263191
 21
131.4375773304521
 31
0.0
  0
LINE
  5
D2
330
17
100
AcDbEntity
  8
WB_OUTLINE
100
AcDbLine
 10
226.4406301261191
 20
131.4375773304521
 30
0.0
 11
226.4406301261192
 21
99.43757733045206
 31
0.0
  0
LINE
  5
D3
330
17
100
AcDbEntity
  8
WB_OUTLINE
100
AcDbLine
 10
232.9406301261191
 20
131.4375773304521
 30
0.0
 11
232.9406301261192
 21
99.43757733045209
 31
0.0
  0
LINE
  5
D4
330
17
100
AcDbEntity
  8
WB_OUTLINE
100
AcDbLine
 10
233.4406301261191
 20
130.9375773304521
 30
0.0
 11
233.4406301261192
 21
99.93757733045209
 31
0.0
  0
LINE
  5
D5
330
17
100
AcDbEntity
  8
WB_OUTLINE
100
AcDbLine
 10
249.5076174289192
 20
106.6875773304521
 30
0.0
 11
249.9406315601191
 21
105.9375773218522
 31
0.0
  0
LINE
  5
D6
330
17
100
AcDbEntity
  8
WB_OUTLINE
100
AcDbLine
 10
248.4406301261191
 20
127.2688039048521
 30
0.0
 11
247.4411180987191
 21
128.3000402166522
 31
0.0
  0
LINE
  5
D7
330
17
100
AcDbEntity
  8
WB_OUTLINE
100
AcDbLine
 10
263.4406301261191
 20
122.9375773304521
 30
0.0
 11
262.9406301261191
 21
123.4375773304521
 31
0.0
  0
LINE
  5
D8
330
17
100
AcDbEntity
  8
WB_OUTLINE
100
AcDbLine
 10
247.4411180987192
 20
102.5751144442521
 30
0.0
 11
247.4411180987191
 21
128.3000402166522
 31
0.0
  0
LINE
  5
D9
330
17
100
AcDbEntity
  8
WB_OUTLINE
100
AcDbLine
 10
248.4406301261191
 20
103.6064893924521
 30
0.0
 11
248.4406301261191
 21
127.2686652684521
 31
0.0
  0
LINE
  5
DA
330
17
100
AcDbEntity
  8
WB_OUTLINE
100
AcDbLine
 10
248.8406301261191
 20
106.6875773304521
 30
0.0
 11
248.8406301261191
 21
124.1875773304521
 31
0.0
  0
LINE
  5
DB
330
17
100
AcDbEntity
  8
WB_OUTLINE
100
AcDbLine
 10
249.5076173839192
 20
124.1875773304521
 30
0.0
 11
249.5076174669191
 21
123.9519237684522
 31
0.0
  0
LINE
  5
DC
330
17
100
AcDbEntity
  8
WB_OUTLINE
100
AcDbLine
 10
249.5076178271191
 20
113.4205486406521
 30
0.0
 11
249.5076171879191
 21
117.4546060204522
 31
0.0
  0
LINE
  5
DD
330
17
100
AcDbEntity
  8
WB_OUTLINE
100
AcDbLine
 10
249.5076176647191
 20
106.9232308926521
 30
0.0
 11
249.5076174289192
 21
106.6875773304521
 31
0.0
  0
LINE
  5
DE
330
17
100
AcDbEntity
  8
WB_OUTLINE
100
AcDbLine
 10
249.5076172799191
 20
110.8432798912521
 30
0.0
 11
249.5076023963192
 21
107.9907705624521
 31
0.0
  0
LINE
  5
DF
330
17
100
AcDbEntity
  8
WB_OUTLINE
100
AcDbLine
 10
249.5076176405192
 20
122.8843840984522
 30
0.0
 11
249.5076330231192
 21
120.0318747696522
 31
0.0
  0
LINE
  5
E0
330
17
100
AcDbEntity
  8
WB_OUTLINE
100
AcDbLine
 10
249.9406229805191
 20
114.1875773304521
 30
0.0
 11
249.9406226157191
 21
116.6875773304521
 31
0.0
  0
LINE
  5
E1
330
17
100
AcDbEntity
  8
WB_OUTLINE
100
AcDbLine
 10
249.9406316123192
 20
124.8549814314522
 30
0.0
 11
249.9406315317191
 21
124.9375773304521
 31
0.0
  0
LINE
  5
E2
330
17
100
AcDbEntity
  8
WB_OUTLINE
100
AcDbLine
 10
249.9406315551192
 20
105.9375773304521
 30
0.0
 11
249.9406316549191
 21
106.0201732296522
 31
0.0
  0
LINE
  5
E3
330
17
100
AcDbEntity
  8
WB_OUTLINE
100
AcDbLine
 10
249.9406236113191
 20
107.8945835530522
 30
0.0
 11
249.9406321069191
 21
109.6623505060521
 31
0.0
  0
LINE
  5
E4
330
17
100
AcDbEntity
  8
WB_OUTLINE
100
AcDbLine
 10
249.9406386687191
 20
121.2128041548522
 30
0.0
 11
249.9406298883191
 21
122.9805711078522
 31
0.0
  0
LINE
  5
E5
330
17
100
AcDbEntity
  8
WB_OUTLINE
100
AcDbLine
 10
254.3736428245191
 20
124.1875773304521
 30
0.0
 11
253.9406286719191
 21
124.9375773388522
 31
0.0
  0
LINE
  5
E6
330
17
100
AcDbEntity
  8
WB_OUTLINE
100
AcDbLine
 10
253.9406218361192
 20
109.6623505060521
 30
0.0
 11
253.9406302695192
 21
107.8945835530522
 31
0.0
  0
LINE
  5
E7
330
17
100
AcDbEntity
  8
WB_OUTLINE
100
AcDbLine
 10
253.9406369891192
 20
122.9805711078522
 30
0.0
 11
253.9406281535192
 21
121.2128041548522
 31
0.0
  0
LINE
  5
E8
330
17
100
AcDbEntity
  8
WB_OUTLINE
100
AcDbLine
 10
253.9406286767191
 20
124.9375773304521
 30
0.0
 11
253.9406285823191
 21
124.8549814314522
 31
0.0
  0
LINE
  5
E9
330
17
100
AcDbEntity
  8
WB_OUTLINE
100
AcDbLine
 10
253.9406286611192
 20
106.0201732296522
 30
0.0
 11
253.9406287427192
 21
105.9375773304521
 31
0.0
  0
LINE
  5
EA
330
17
100
AcDbEntity
  8
WB_OUTLINE
100
AcDbLine
 10
253.9406372501191
 20
116.6875773304521
 30
0.0
 11
253.9406376397191
 21
114.1875773304521
 31
0.0
  0
LINE
  5
EB
330
17
100
AcDbEntity
  8
WB_OUTLINE
100
AcDbLine
 10
254.3736426177192
 20
107.9907705624521
 30
0.0
 11
254.3736278427191
 21
110.8432798912521
 31
0.0
  0
LINE
  5
EC
330
17
100
AcDbEntity
  8
WB_OUTLINE
100
AcDbLine
 10
254.3736429809191
 20
120.0318747696522
 30
0.0
 11
254.3736584601191
 21
122.8843840984522
 31
0.0
  0
LINE
  5
ED
330
17
100
AcDbEntity
  8
WB_OUTLINE
100
AcDbLine
 10
254.3736426001192
 20
123.9519237684522
 30
0.0
 11
254.3736428245191
 21
124.1875773304521
 31
0.0
  0
LINE
  5
EE
330
17
100
AcDbEntity
  8
WB_OUTLINE
100
AcDbLine
 10
254.3736428689191
 20
106.6875773304521
 30
0.0
 11
254.3736427861192
 21
106.9232308926521
 31
0.0
  0
LINE
  5
EF
330
17
100
AcDbEntity
  8
WB_OUTLINE
100
AcDbLine
 10
254.3736430639191
 20
113.4205486406521
 30
0.0
 11
254.3736423813191
 21
117.4546060204522
 31
0.0
  0
LINE
  5
F0
330
17
100
AcDbEntity
  8
WB_OUTLINE
100
AcDbLine
 10
255.0406301261191
 20
124.1875773304521
 30
0.0
 11
255.0406301261192
 21
106.6875773304521
 31
0.0
  0
LINE
  5
F1
330
17
100
AcDbEntity
  8
WB_OUTLINE
100
AcDbLine
 10
255.4406301261191
 20
123.7874790504522
 30
0.0
 11
255.4406301261191
 21
107.0876756110522
 31
0.0
  0
LINE
  5
F2
330
17
100
AcDbEntity
  8
WB_OUTLINE
100
AcDbLine
 10
262.9406301261191
 20
107.4375773304521
 30
0.0
 11
262.9406301261191
 21
123.4375773304521
 31
0.0
  0
LINE
  5
F3
330
17
100
AcDbEntity
  8
WB_OUTLINE
100
AcDbLine
 10
263.4406301261191
 20
107.9375773304521
 30
0.0
 11
263.4406301261191
 21
122.9375773304521
 31
0.0
  0
ARC
  5
F4
330
17
100
AcDbEntity
  8
WB_OUTLINE
100
AcDbCircle
 10
224.5020672905191
 20
109.7486781226521
 30
0.0
 40
31.59201113439997
100
AcDbArc
 50
18.99586437150017
 51
21.27720553470011
  0
ARC
  5
F5
330
17
100
AcDbEntity
  8
WB_OUTLINE
100
AcDbCircle
 10
279.3791288609191
 20
121.1264528172522
 30
0.0
 40
31.59194279499997
100
AcDbArc
 50
-161.0041384609002
 51
-158.7227923674002
  0
ARC
  5
F6
330
17
100
AcDbEntity
  8
WB_OUTLINE
100
AcDbCircle
 10
224.5058605871191
 20
121.1247027696521
 30
0.0
 40
31.5878327402
100
AcDbArc
 50
-21.27670428029975
 51
-18.99507075929978
  0
ARC
  5
F7
330
17
100
AcDbEntity
  8
WB_OUTLINE
100
AcDbCircle
 10
279.3753121187191
 20
109.7504995076522
 30
0.0
 40
31.58773388260003
100
AcDbArc
 50
158.7233185792001
 51
161.0049588586
  0
ARC
  5
F8
330
17
100
AcDbEntity
  8
WB_OUTLINE
100
AcDbCircle
 10
255.0406301261192
 20
107.0875773304522
 30
0.0
 40
0.3999999999999773
100
AcDbArc
 50
-90.00000000000001
 51
0.0
  0
ARC
  5
F9
330
17
100
AcDbEntity
  8
WB_OUTLINE
100
AcDbCircle
 10
255.0406301261191
 20
123.7875773304521
 30
0.0
 40
0.3999999999999773
100
AcDbArc
 50
0.0
 51
90.0
  0
ARC
  5
FA
330
17
100
AcDbEntity
  8
WB_OUTLINE
100
AcDbCircle
 10
248.8406301261191
 20
107.0875773304522
 30
0.0
 40
0.3999999999999773
100
AcDbArc
 50
-179.999999999999
 51
-90.00000000000001
  0
ARC
  5
FB
330
17
100
AcDbEntity
  8
WB_OUTLINE
100
AcDbCircle
 10
248.8406301261191
 20
123.7875773304521
 30
0.0
 40
0.3999999999999773
100
AcDbArc
 50
90.0
 51
-179.999999999999
  0
SPLINE
  5
FC
330
17
100
AcDbEntity
  8
WB_OUTLINE
100
AcDbSpline
 70
12
 71
3
 72
9
 73
5
 74
0
 42
1e-09
 43
1e-07
 40
0.0
 40
0.0
 40
0.0
 40
0.0
 40
110.4928675281917
 40
425.9589715832524
 40
425.9589715832524
 40
425.9589715832524
 40
425.9589715832524
 41
1.0
 41
1.0
 41
1.0
 41
1.0
 41
1.0
 10
249.9406301261191
 20
107.8945835530522
 30
0.0
 10
249.9030916593191
 20
107.9024571444521
 30
0.0
 10
249.7584559867192
 20
107.9331778580521
 30
0.0
 10
249.6141500323191
 20
107.9654822270521
 30
0.0
 10
249.5076023963192
 20
107.9907705624521
 30
0.0
  0
SPLINE
  5
FD
330
17
100
AcDbEntity
  8
WB_OUTLINE
100
AcDbSpline
 70
12
 71
3
 72
9
 73
5
 74
0
 42
1e-09
 43
1e-07
 40
0.0
 40
0.0
 40
0.0
 40
0.0
 40
108.3358078435837
 40
451.1645398357913
 40
451.1645398357913
 40
451.1645398357913
 40
451.1645398357913
 41
1.0
 41
1.0
 41
1.0
 41
1.0
 41
1.0
 10
254.3736426177192
 20
107.9907705624521
 30
0.0
 10
254.3390978945191
 20
107.9825713670522
 30
0.0
 10
254.1950905377192
 20
107.9490401886522
 30
0.0
 10
254.0505910913191
 20
107.9176478556522
 30
0.0
 10
253.9406301261191
 20
107.8945835530522
 30
0.0
  0
SPLINE
  5
FE
330
17
100
AcDbEntity
  8
WB_OUTLINE
100
AcDbSpline
 70
12
 71
3
 72
9
 73
5
 74
0
 42
1e-09
 43
1e-07
 40
0.0
 40
0.0
 40
0.0
 40
0.0
 40
116.488349249276
 40
449.0718539149029
 40
449.0718539149029
 40
449.0718539149029
 40
449.0718539149029
 41
1.0
 41
1.0
 41
1.0
 41
1.0
 41
1.0
 10
253.9406301261191
 20
122.9805711078522
 30
0.0
 10
253.9781686591191
 20
122.9726975058522
 30
0.0
 10
254.1228045399191
 20
122.9419768262522
 30
0.0
 10
254.2671106933192
 20
122.9096724440522
 30
0.0
 10
254.3736584601191
 20
122.8843840984522
 30
0.0
  0
SPLINE
  5
FF
330
17
100
AcDbEntity
  8
WB_OUTLINE
100
AcDbSpline
 70
12
 71
3
 72
9
 73
5
 74
0
 42
1e-09
 43
1e-07
 40
0.0
 40
0.0
 40
0.0
 40
0.0
 40
102.5194272900241
 40
426.9423923654375
 40
426.9423923654375
 40
426.9423923654375
 40
426.9423923654375
 41
1.0
 41
1.0
 41
1.0
 41
1.0
 41
1.0
 10
249.5076176405192
 20
122.8843840984522
 30
0.0
 10
249.5421623485192
 20
122.8925832934522
 30
0.0
 10
249.6861696967191
 20
122.9261145008522
 30
0.0
 10
249.8306691487191
 20
122.9575068000521
 30
0.0
 10
249.9406301261191
 20
122.9805711078522
 30
0.0
  0
SPLINE
  5
100
330
17
100
AcDbEntity
  8
WB_OUTLINE
100
AcDbSpline
 70
12
 71
3
 72
9
 73
5
 74
0
 42
1e-09
 43
1e-07
 40
0.0
 40
0.0
 40
0.0
 40
0.0
 40
107.3649345213394
 40
428.105126986337
 40
428.105126986337
 40
428.105126986337
 40
428.105126986337
 41
1.0
 41
1.0
 41
1.0
 41
1.0
 41
1.0
 10
249.9406301261191
 20
124.8549814314522
 30
0.0
 10
249.9027206015191
 20
124.7803282010522
 30
0.0
 10
249.7530910985191
 20
124.4818863068522
 30
0.0
 10
249.6100247469192
 20
124.1801239274521
 30
0.0
 10
249.5076174669191
 20
123.9519237684522
 30
0.0
  0
SPLINE
  5
101
330
17
100
AcDbEntity
  8
WB_OUTLINE
100
AcDbSpline
 70
12
 71
3
 72
9
 73
5
 74
0
 42
1e-09
 43
1e-07
 40
0.0
 40
0.0
 40
0.0
 40
0.0
 40
112.3265316193632
 40
450.7546029548085
 40
450.7546029548085
 40
450.7546029548085
 40
450.7546029548085
 41
1.0
 41
1.0
 41
1.0
 41
1.0
 41
1.0
 10
254.3736426001192
 20
123.9519237684522
 30
0.0
 10
254.3395804383191
 20
124.0278265210522
 30
0.0
 10
254.2007639959191
 20
124.3314601276522
 30
0.0
 10
254.0541220057191
 20
124.6314878168521
 30
0.0
 10
253.9406301261191
 20
124.8549814314522
 30
0.0
  0
SPLINE
  5
102
330
17
100
AcDbEntity
  8
WB_OUTLINE
100
AcDbSpline
 70
12
 71
3
 72
9
 73
5
 74
0
 42
1e-09
 43
1e-07
 40
0.0
 40
0.0
 40
0.0
 40
0.0
 40
113.3107716803973
 40
451.8133982239337
 40
451.8133982239337
 40
451.8133982239337
 40
451.8133982239337
 41
1.0
 41
1.0
 41
1.0
 41
1.0
 41
1.0
 10
253.9406301261191
 20
106.0201732296522
 30
0.0
 10
253.9785396543191
 20
106.0948264706522
 30
0.0
 10
254.1281692065192
 20
106.3932683404521
 30
0.0
 10
254.2712355143191
 20
106.6950307416521
 30
0.0
 10
254.3736427861192
 20
106.9232308926521
 30
0.0
  0
SPLINE
  5
103
330
17
100
AcDbEntity
  8
WB_OUTLINE
100
AcDbSpline
 70
12
 71
3
 72
9
 73
5
 74
0
 42
1e-09
 43
1e-07
 40
0.0
 40
0.0
 40
0.0
 40
0.0
 40
105.9501520342563
 40
425.1668454004374
 40
425.1668454004374
 40
425.1668454004374
 40
425.1668454004374
 41
1.0
 41
1.0
 41
1.0
 41
1.0
 41
1.0
 10
249.5076176647191
 20
106.9232308926521
 30
0.0
 10
249.5416798257192
 20
106.8473281368522
 30
0.0
 10
249.6804962345192
 20
106.5436945166522
 30
0.0
 10
249.8271382541192
 20
106.2436668432522
 30
0.0
 10
249.9406301261191
 20
106.0201732296522
 30
0.0
  0
SPLINE
  5
104
330
17
100
AcDbEntity
  8
WB_OUTLINE
100
AcDbSpline
 70
12
 71
3
 72
9
 73
5
 74
0
 42
1e-09
 43
1e-07
 40
0.0
 40
0.0
 40
0.0
 40
0.0
 40
106.4112371768191
 40
423.253074308541
 40
423.253074308541
 40
423.253074308541
 40
423.253074308541
 41
1.0
 41
1.0
 41
1.0
 41
1.0
 41
1.0
 10
249.9406301261191
 20
114.1875773304521
 30
0.0
 10
249.9027498681191
 20
114.1242168406522
 30
0.0
 10
249.7534881745191
 20
113.8713644324521
 30
0.0
 10
249.6102971363191
 20
113.6148935820521
 30
0.0
 10
249.5076178271191
 20
113.4205486406521
 30
0.0
  0
SPLINE
  5
105
330
17
100
AcDbEntity
  8
WB_OUTLINE
100
AcDbSpline
 70
12
 71
3
 72
9
 73
5
 74
0
 42
1e-09
 43
1e-07
 40
0.0
 40
0.0
 40
0.0
 40
0.0
 40
111.436088753758
 40
448.3355699806993
 40
448.3355699806993
 40
448.3355699806993
 40
448.3355699806993
 41
1.0
 41
1.0
 41
1.0
 41
1.0
 41
1.0
 10
254.3736430639191
 20
113.4205486406521
 30
0.0
 10
254.3395499587191
 20
113.4850778814522
 30
0.0
 10
254.2003793479192
 20
113.7436349158521
 30
0.0
 10
254.0538508669191
 20
113.9981985308522
 30
0.0
 10
253.9406301261191
 20
114.1875773304521
 30
0.0
  0
SPLINE
  5
106
330
17
100
AcDbEntity
  8
WB_OUTLINE
100
AcDbSpline
 70
12
 71
3
 72
9
 73
5
 74
0
 42
1e-09
 43
1e-07
 40
0.0
 40
0.0
 40
0.0
 40
0.0
 40
112.4520892661958
 40
447.2805684654986
 40
447.2805684654986
 40
447.2805684654986
 40
447.2805684654986
 41
1.0
 41
1.0
 41
1.0
 41
1.0
 41
1.0
 10
253.9406301261191
 20
116.6875773304521
 30
0.0
 10
253.9785103931191
 20
116.7509378378521
 30
0.0
 10
254.1277720735191
 20
117.0037902456521
 30
0.0
 10
254.2709630903192
 20
117.2602610996521
 30
0.0
 10
254.3736423813191
 20
117.4546060204522
 30
0.0
  0
SPLINE
  5
107
330
17
100
AcDbEntity
  8
WB_OUTLINE
100
AcDbSpline
 70
12
 71
3
 72
9
 73
5
 74
0
 42
1e-09
 43
1e-07
 40
0.0
 40
0.0
 40
0.0
 40
0.0
 40
105.1228955395397
 40
422.935991473197
 40
422.935991473197
 40
422.935991473197
 40
422.935991473197
 41
1.0
 41
1.0
 41
1.0
 41
1.0
 41
1.0
 10
249.5076171879191
 20
117.4546060204522
 30
0.0
 10
249.5417102941192
 20
117.3900767788522
 30
0.0
 10
249.6808808977191
 20
117.1315197404522
 30
0.0
 10
249.8274093857191
 20
116.8769561292521
 30
0.0
 10
249.9406301261191
 20
116.6875773304521
 30
0.0
  0
LINE
  5
108
330
17
100
AcDbEntity
  8
WB_THIN
100
AcDbLine
 10
233.4406301255817
 20
127.7375773304697
 30
0.0
 11
248.4406301261191
 21
127.268803904852
 31
0.0
  0
LINE
  5
109
330
17
100
AcDbEntity
  8
WB_THIN
100
AcDbLine
 10
233.4406301255817
 20
103.1375773304345
 30
0.0
 11
248.4406301261191
 21
103.6063507560522
 31
0.0
  0
LINE
  5
10A
330
17
100
AcDbEntity
  8
WB_OUTLINE
 62
7
100
AcDbLine
 10
232.9406301261191
 20
131.4375773304521
 30
0.0
 11
146.4406301260205
 21
131.4375773304519
 31
0.0
  0
LINE
  5
10B
330
17
100
AcDbEntity
  8
WB_OUTLINE
 62
7
100
AcDbLine
 10
146.4406301261191
 20
131.4375773304519
 30
0.0
 11
146.4406301261192
 21
99.43757733045192
 31
0.0
  0
LINE
  5
10C
330
17
100
AcDbEntity
  8
WB_OUTLINE
 62
7
100
AcDbLine
 10
232.9406301261192
 20
99.43757733045209
 30
0.0
 11
146.4406301261192
 21
99.43757733045192
 31
0.0
  0
DIMENSION
  5
10D
330
17
100
AcDbEntity
  8
WB_DIMENSION
100
AcDbDimension
280
0
  2
*X17
  3
标准
 10
248.4406301261191
 20
156.8133172681945
 30
0.0
 11
240.9406301262191
 21
156.8133172681945
 31
0.0
 70
32
 71
5
 42
-1.0
 73
0
 74
0
 75
0
100
AcDbAlignedDimension
 13
233.4406301263191
 23
130.9375773304521
 33
0.0
 14
248.4406301261191
 24
127.2688039048521
 34
0.0
 50
1.628e-13
100
AcDbRotatedDimension
1001
CAXA_DRAFT_DIMARROWREVERSE
1070
0
1001
ACAD
1000
DSTYLE
1002
{
1070
69
1070
1
1070
284
1070
8
1070
173
1070
1
1002
}
1001
CAXA_DRAFT_DIMARCLENSTYLE
1070
1
1001
CAXA_DRAFT_DDTSTY_2011R3
1070
0
1001
ACAD_DSTYLE_DIMTEXT_FILL
1070
376
1070
1
  0
INSERT
  5
117
330
17
100
AcDbEntity
  8
WB_DIMENSION
100
AcDbBlockReference
  2
*X18
 10
171.0895577945922
 20
74.92187586034407
 30
0.0
1001
CAXA_DRAFT_DMOVMAP_2011R3
1071
0
1001
CAXA_DRAFT_DMOVMAP_2013
1071
0
1001
CDRAFT_TXTROT_2011R3
1041
0.0
1001
CAXA_DRAFT_DIMLEADER
1000
标准
1041
0.0
1000
NPT3/4
1000

1070
0
1000

1000

1000

1041
1.25
1070
0
1041
52.60223322820141
1041
12.45928502680125
1041
0.0
1041
105.5708982051731
1041
33.57853642519795
1041
0.0
1041
105.5708982051731
1041
33.57853642519795
1041
0.0
1071
0
1041
71.41198751569956
1041
28.73036192469477
1041
0.0
1071
1
1041
65.4493587031171
1041
12.45928502680125
1041
0.0
1070
1
  0
DIMENSION
  5
119
330
17
100
AcDbEntity
  8
WB_DIMENSION
100
AcDbDimension
280
0
  2
*X19
  3
标准
 10
189.1008696549866
 20
99.437577330452
 30
0.0
 11
189.1008696549866
 21
115.437577330452
 31
0.0
 70
32
 71
5
 42
-1.0
 73
0
 74
0
 75
0
100
AcDbAlignedDimension
 13
191.27860855183
 23
131.437577330452
 33
0.0
 14
189.971965213724
 24
99.437577330452
 34
0.0
 50
-90.00000000000001
100
AcDbRotatedDimension
1001
CAXA_DRAFT_DIMARROWREVERSE
1070
0
1001
ACAD
1000
DSTYLE
1002
{
1070
69
1070
1
1070
3
1000
%%C<>
1070
284
1070
8
1070
173
1070
1
1002
}
1001
CAXA_DRAFT_DIMARCLENSTYLE
1070
1
1001
CAXA_DRAFT_DDTSTY_2011R3
1070
0
1001
ACAD_DSTYLE_DIMTEXT_FILL
1070
376
1070
1
  0
VIEWPORT
  5
18B
330
1B
100
AcDbEntity
 67
1
  8
VIEWPORTS
100
AcDbViewport
 10
148.5
 20
105.0
 30
0.0
 40
326.70000000000005
 41
231.00000000000003
 68
1
 69
1
 12
148.5
 22
105.0
 13
0.0
 23
0.0
 14
10.0
 24
10.0
 15
10.0
 25
10.0
 16
0.0
 26
0.0
 36
1.0
 17
0.0
 27
0.0
 37
0.0
 42
50.0
 43
0.0
 44
0.0
 45
231.00000000000003
 50
0.0
 51
0.0
 72
100
 90
557088
  1

281
0
 71
0
 74
0
110
0.0
120
0.0
130
0.0
111
1.0
121
0.0
131
0.0
112
0.0
122
1.0
132
0.0
 79
0
146
0.0
282
0
  0
LWPOLYLINE
  5
18C
330
1B
100
AcDbEntity
 67
1
  8
0
100
AcDbPolyline
 90
4
 70
1
 10
10.0
 20
10.0
 10
287.0
 20
10.0
 10
287.0
 20
200.0
 10
10.0
 20
200.0
  0
LINE
  5
18D
330
1B
100
AcDbEntity
 67
1
  8
0
100
AcDbLine
 10
10.0
 20
25.0
 30
0.0
 11
287.0
 21
25.0
 31
0.0
  0
LINE
  5
18E
330
1B
100
AcDbEntity
 67
1
  8
0
100
AcDbLine
 10
10.0
 20
40.0
 30
0.0
 11
287.0
 21
40.0
 31
0.0
  0
LINE
  5
18F
330
1B
100
AcDbEntity
 67
1
  8
0
100
AcDbLine
 10
68.0
 20
10.0
 30
0.0
 11
68.0
 21
40.0
 31
0.0
  0
LINE
  5
190
330
1B
100
AcDbEntity
 67
1
  8
0
100
AcDbLine
 10
206.0
 20
10.0
 30
0.0
 11
206.0
 21
40.0
 31
0.0
  0
LINE
  5
191
330
1B
100
AcDbEntity
 67
1
  8
0
100
AcDbLine
 10
247.0
 20
10.0
 30
0.0
 11
247.0
 21
40.0
 31
0.0
  0
TEXT
  5
192
330
1B
100
AcDbEntity
 67
1
  8
0
100
AcDbText
 10
14.0
 20
32.0
 30
0.0
 40
4.0
  1
WATERBEE
100
AcDbText
  0
TEXT
  5
193
330
1B
100
AcDbEntity
 67
1
  8
0
100
AcDbText
 10
14.0
 20
16.0
 30
0.0
 40
2.4
  1
waterbee.co.kr
100
AcDbText
  0
TEXT
  5
194
330
1B
100
AcDbEntity
 67
1
  8
0
100
AcDbText
 10
72.0
 20
33.0
 30
0.0
 40
3.0
  1
CONDUCTIVITY SENSOR
100
AcDbText
  0
TEXT
  5
195
330
1B
100
AcDbEntity
 67
1
  8
0
100
AcDbText
 10
72.0
 20
28.0
 30
0.0
 40
2.4
  1
External dimensions
100
AcDbText
  0
TEXT
  5
196
330
1B
100
AcDbEntity
 67
1
  8
0
100
AcDbText
 10
72.0
 20
16.0
 30
0.0
 40
3.0
  1
WBEC10-OUTLINE
100
AcDbText
  0
TEXT
  5
197
330
1B
100
AcDbEntity
 67
1
  8
0
100
AcDbText
 10
210.0
 20
33.0
 30
0.0
 40
2.4
  1
UNITS: mm
100
AcDbText
  0
TEXT
  5
198
330
1B
100
AcDbEntity
 67
1
  8
0
100
AcDbText
 10
210.0
 20
28.0
 30
0.0
 40
2.4
  1
MODEL: 1:1
100
AcDbText
  0
TEXT
  5
199
330
1B
100
AcDbEntity
 67
1
  8
0
100
AcDbText
 10
210.0
 20
16.0
 30
0.0
 40
2.4
  1
REV: R2
100
AcDbText
  0
TEXT
  5
19A
330
1B
100
AcDbEntity
 67
1
  8
0
100
AcDbText
 10
251.0
 20
33.0
 30
0.0
 40
2.4
  1
2026-09-17
100
AcDbText
  0
TEXT
  5
19B
330
1B
100
AcDbEntity
 67
1
  8
0
100
AcDbText
 10
251.0
 20
16.0
 30
0.0
 40
2.4
  1
SHEET 1/1
100
AcDbText
  0
TEXT
  5
19C
330
1B
100
AcDbEntity
 67
1
  8
0
100
AcDbText
 10
14.0
 20
45.0
 30
0.0
 40
2.2
  1
Installation reference. Confirm the supplied configuration before fabrication. Do not scale the PDF.
100
AcDbText
  0
VIEWPORT
  5
19D
330
1B
100
AcDbEntity
 67
1
  8
VIEWPORTS
100
AcDbViewport
 10
148.5
 20
124.0
 30
0.0
 40
267.0
 41
140.0
 68
2
 69
3
 12
153.520982272944
 22
124.97901772705599
 13
0.0
 23
0.0
 14
10.0
 24
10.0
 15
10.0
 25
10.0
 16
0.0
 26
0.0
 36
1.0
 17
0.0
 27
0.0
 37
0.0
 42
50.0
 43
0.0
 44
0.0
 45
119.88240245281959
 50
0.0
 51
0.0
 72
100
 90
16384
  1

281
0
 71
0
 74
0
110
0.0
120
0.0
130
0.0
111
1.0
121
0.0
131
0.0
112
0.0
122
1.0
132
0.0
 79
0
146
0.0
282
0
  0
ENDSEC
  0
SECTION
  2
OBJECTS
  0
DICTIONARY
  5
A
330
0
100
AcDbDictionary
281
1
  3
ACAD_COLOR
350
B
  3
ACAD_GROUP
350
C
  3
ACAD_LAYOUT
350
D
  3
ACAD_MATERIAL
350
E
  3
ACAD_MLEADERSTYLE
350
F
  3
ACAD_MLINESTYLE
350
10
  3
ACAD_PLOTSETTINGS
350
11
  3
ACAD_PLOTSTYLENAME
350
12
  3
ACAD_SCALELIST
350
14
  3
ACAD_TABLESTYLE
350
15
  3
ACAD_VISUALSTYLE
350
16
  3
EZDXF_META
350
2D
  0
DICTIONARY
  5
B
330
A
100
AcDbDictionary
281
1
  0
DICTIONARY
  5
C
330
A
100
AcDbDictionary
281
1
  0
DICTIONARY
  5
D
330
A
100
AcDbDictionary
281
1
  3
Model
350
1A
  3
SHEET-1
350
1E
  0
DICTIONARY
  5
E
330
A
100
AcDbDictionary
281
1
  3
ByBlock
350
1F
  3
ByLayer
350
20
  3
Global
350
21
  0
DICTIONARY
  5
F
330
A
100
AcDbDictionary
281
1
  3
Standard
350
2C
  0
DICTIONARY
  5
10
330
A
100
AcDbDictionary
281
1
  3
Standard
350
22
  0
DICTIONARY
  5
11
330
A
100
AcDbDictionary
281
1
  0
ACDBDICTIONARYWDFLT
  5
12
330
A
100
AcDbDictionary
281
1
  3
Normal
350
13
100
AcDbDictionaryWithDefault
340
13
  0
ACDBPLACEHOLDER
  5
13
330
12
  0
DICTIONARY
  5
14
330
A
100
AcDbDictionary
281
1
  0
DICTIONARY
  5
15
330
A
100
AcDbDictionary
281
1
  0
DICTIONARY
  5
16
330
A
100
AcDbDictionary
281
1
  0
LAYOUT
  5
1A
330
D
100
AcDbPlotSettings
  1

  4
A3
  6

 40
7.5
 41
20.0
 42
7.5
 43
20.0
 44
420.0
 45
297.0
 46
0.0
 47
0.0
 48
0.0
 49
0.0
140
0.0
141
0.0
142
1.0
143
1.0
 70
1024
 72
1
 73
0
 74
5
  7

 75
16
 76
0
 77
2
 78
300
147
1.0
148
0.0
149
0.0
100
AcDbLayout
  1
Model
 70
1
 71
0
 10
0.0
 20
0.0
 11
420.0
 21
297.0
 12
0.0
 22
0.0
 32
0.0
 14
1e+20
 24
1e+20
 34
1e+20
 15
-1e+20
 25
-1e+20
 35
-1e+20
146
0.0
 13
0.0
 23
0.0
 33
0.0
 16
1.0
 26
0.0
 36
0.0
 17
0.0
 27
1.0
 37
0.0
 76
1
330
17
  0
LAYOUT
  5
1E
330
D
100
AcDbPlotSettings
  1

  2
DWG to PDF.pc3
  4
ezdxf_(297.00_x_210.00_MM)
  6

 40
0.0
 41
0.0
 42
0.0
 43
0.0
 44
297.0
 45
210.0
 46
0.0
 47
0.0
 48
0.0
 49
0.0
140
0.0
141
0.0
142
1.0
143
1.0
 70
672
 72
1
 73
0
 74
5
  7

 75
16
 76
0
 77
2
 78
300
147
1.0
148
0.0
149
0.0
100
AcDbLayout
  1
SHEET-1
 70
1
 71
1
 10
-0.0
 20
-0.0
 11
297.0
 21
210.0
 12
0.0
 22
0.0
 32
0.0
 14
1e+20
 24
1e+20
 34
1e+20
 15
-1e+20
 25
-1e+20
 35
-1e+20
146
0.0
 13
0.0
 23
0.0
 33
0.0
 16
1.0
 26
0.0
 36
0.0
 17
0.0
 27
1.0
 37
0.0
 76
1
330
1B
331
18B
  0
MATERIAL
  5
1F
102
{ACAD_REACTORS
330
E
102
}
330
E
100
AcDbMaterial
  1
ByBlock
  2

 70
0
 40
1.0
 71
1
 41
1.0
 91
-1023410177
 42
1.0
 72
1
  3

 73
1
 74
1
 75
1
 44
0.5
 73
0
 45
1.0
 46
1.0
 77
1
  4

 78
1
 79
1
170
1
 48
1.0
171
1
  6

172
1
173
1
174
1
140
1.0
141
1.0
175
1
  7

176
1
177
1
178
1
143
1.0
179
1
  8

270
1
271
1
272
1
145
1.0
146
1.0
273
1
  9

274
1
275
1
276
1
 42
1.0
 72
1
  3

 73
1
 74
1
 75
1
 94
63
  0
MATERIAL
  5
20
102
{ACAD_REACTORS
330
E
102
}
330
E
100
AcDbMaterial
  1
ByLayer
  2

 70
0
 40
1.0
 71
1
 41
1.0
 91
-1023410177
 42
1.0
 72
1
  3

 73
1
 74
1
 75
1
 44
0.5
 73
0
 45
1.0
 46
1.0
 77
1
  4

 78
1
 79
1
170
1
 48
1.0
171
1
  6

172
1
173
1
174
1
140
1.0
141
1.0
175
1
  7

176
1
177
1
178
1
143
1.0
179
1
  8

270
1
271
1
272
1
145
1.0
146
1.0
273
1
  9

274
1
275
1
276
1
 42
1.0
 72
1
  3

 73
1
 74
1
 75
1
 94
63
  0
MATERIAL
  5
21
102
{ACAD_REACTORS
330
E
102
}
330
E
100
AcDbMaterial
  1
Global
  2

 70
0
 40
1.0
 71
1
 41
1.0
 91
-1023410177
 42
1.0
 72
1
  3

 73
1
 74
1
 75
1
 44
0.5
 73
0
 45
1.0
 46
1.0
 77
1
  4

 78
1
 79
1
170
1
 48
1.0
171
1
  6

172
1
173
1
174
1
140
1.0
141
1.0
175
1
  7

176
1
177
1
178
1
143
1.0
179
1
  8

270
1
271
1
272
1
145
1.0
146
1.0
273
1
  9

274
1
275
1
276
1
 42
1.0
 72
1
  3

 73
1
 74
1
 75
1
 94
63
  0
MLINESTYLE
  5
22
102
{ACAD_REACTORS
330
10
102
}
330
10
100
AcDbMlineStyle
  2
Standard
 70
0
  3

 62
256
 51
90.0
 52
90.0
 71
2
 49
0.5
 62
256
  6
BYLAYER
 49
-0.5
 62
256
  6
BYLAYER
  0
MLEADERSTYLE
  5
2C
102
{ACAD_REACTORS
330
F
102
}
330
F
100
AcDbMLeaderStyle
179
2
170
2
171
1
172
0
 90
2
 40
0.0
 41
0.0
173
1
 91
-1056964608
 92
-2
290
1
 42
2.0
291
1
 43
8.0
  3
Standard
 44
4.0
300

342
29
174
1
175
1
176
0
178
1
 93
-1056964608
 45
4.0
292
0
297
0
 46
4.0
 94
-1056964608
 47
1.0
 49
1.0
140
1.0
294
1
141
0.0
177
0
142
1.0
295
0
296
0
143
3.75
271
0
272
9
273
9
  0
DICTIONARY
  5
2D
330
A
100
AcDbDictionary
280
1
281
1
  3
CREATED_BY_EZDXF
350
2E
  3
AUTHOR
350
189
  3
TITLE
350
18A
  3
WRITTEN_BY_EZDXF
350
1A0
  0
DICTIONARYVAR
  5
2E
330
2D
100
DictionaryVariables
280
0
  1
1.4.4 @ 2026-09-17T02:56:12.054632+00:00
  0
DICTIONARYVAR
  5
189
330
2D
100
DictionaryVariables
280
0
  1
WATERBEE
  0
DICTIONARYVAR
  5
18A
330
2D
100
DictionaryVariables
280
0
  1
WBEC10 outline and mounting dimensions
  0
DICTIONARYVAR
  5
1A0
330
2D
100
DictionaryVariables
280
0
  1
1.4.4 @ 2026-09-17T02:56:12.082638+00:00
  0
ENDSEC
  0
EOF
