  0
SECTION
  2
HEADER
  9
$ACADVER
  1
AC1032
  9
$ACADMAINTVER
 90
4
  9
$DWGCODEPAGE
  3
ANSI_1252
  9
$REQUIREDVERSIONS
160
0
  9
$INSBASE
 10
0.0
 20
0.0
 30
0.0
  9
$EXTMIN
 10
1e+20
 20
1e+20
 30
1e+20
  9
$EXTMAX
 10
-1e+20
 20
-1e+20
 30
-1e+20
  9
$LIMMIN
 10
0.0
 20
0.0
  9
$LIMMAX
 10
420.0
 20
297.0
  9
$ORTHOMODE
 70
0
  9
$REGENMODE
 70
1
  9
$FILLMODE
 70
1
  9
$QTEXTMODE
 70
0
  9
$MIRRTEXT
 70
1
  9
$LTSCALE
 40
1.0
  9
$ATTMODE
 70
1
  9
$TEXTSIZE
 40
2.5
  9
$TRACEWID
 40
1.0
  9
$TEXTSTYLE
  7
Standard
  9
$CLAYER
  8
0
  9
$CELTYPE
  6
ByLayer
  9
$CECOLOR
 62
256
  9
$CELTSCALE
 40
1.0
  9
$DISPSILH
 70
0
  9
$DIMSCALE
 40
1.0
  9
$DIMASZ
 40
2.5
  9
$DIMEXO
 40
0.625
  9
$DIMDLI
 40
3.75
  9
$DIMRND
 40
0.0
  9
$DIMDLE
 40
0.0
  9
$DIMEXE
 40
1.25
  9
$DIMTP
 40
0.0
  9
$DIMTM
 40
0.0
  9
$DIMTXT
 40
2.5
  9
$DIMCEN
 40
2.5
  9
$DIMTSZ
 40
0.0
  9
$DIMTOL
 70
0
  9
$DIMLIM
 70
0
  9
$DIMTIH
 70
0
  9
$DIMTOH
 70
0
  9
$DIMSE1
 70
0
  9
$DIMSE2
 70
0
  9
$DIMTAD
 70
1
  9
$DIMZIN
 70
8
  9
$DIMBLK
  1

  9
$DIMASO
 70
1
  9
$DIMSHO
 70
1
  9
$DIMPOST
  1

  9
$DIMAPOST
  1

  9
$DIMALT
 70
0
  9
$DIMALTD
 70
3
  9
$DIMALTF
 40
0.03937007874
  9
$DIMLFAC
 40
1.0
  9
$DIMTOFL
 70
1
  9
$DIMTVP
 40
0.0
  9
$DIMTIX
 70
0
  9
$DIMSOXD
 70
0
  9
$DIMSAH
 70
0
  9
$DIMBLK1
  1

  9
$DIMBLK2
  1

  9
$DIMSTYLE
  2
ISO-25
  9
$DIMCLRD
 70
0
  9
$DIMCLRE
 70
0
  9
$DIMCLRT
 70
0
  9
$DIMTFAC
 40
1.0
  9
$DIMGAP
 40
0.625
  9
$DIMJUST
 70
0
  9
$DIMSD1
 70
0
  9
$DIMSD2
 70
0
  9
$DIMTOLJ
 70
0
  9
$DIMTZIN
 70
8
  9
$DIMALTZ
 70
0
  9
$DIMALTTZ
 70
0
  9
$DIMUPT
 70
0
  9
$DIMDEC
 70
2
  9
$DIMTDEC
 70
2
  9
$DIMALTU
 70
2
  9
$DIMALTTD
 70
3
  9
$DIMTXSTY
  7
Standard
  9
$DIMAUNIT
 70
0
  9
$DIMADEC
 70
0
  9
$DIMALTRND
 40
0.0
  9
$DIMAZIN
 70
0
  9
$DIMDSEP
 70
44
  9
$DIMATFIT
 70
3
  9
$DIMFRAC
 70
0
  9
$DIMLDRBLK
  1

  9
$DIMLUNIT
 70
2
  9
$DIMLWD
 70
-2
  9
$DIMLWE
 70
-2
  9
$DIMTMOVE
 70
0
  9
$DIMFXL
 40
1.0
  9
$DIMFXLON
 70
0
  9
$DIMJOGANG
 40
0.785398163397
  9
$DIMTFILL
 70
0
  9
$DIMTFILLCLR
 70
0
  9
$DIMARCSYM
 70
0
  9
$DIMLTYPE
  6

  9
$DIMLTEX1
  6

  9
$DIMLTEX2
  6

  9
$DIMTXTDIRECTION
 70
0
  9
$LUNITS
 70
2
  9
$LUPREC
 70
4
  9
$SKETCHINC
 40
1.0
  9
$FILLETRAD
 40
10.0
  9
$AUNITS
 70
0
  9
$AUPREC
 70
2
  9
$MENU
  1
.
  9
$ELEVATION
 40
0.0
  9
$PELEVATION
 40
0.0
  9
$THICKNESS
 40
0.0
  9
$LIMCHECK
 70
0
  9
$CHAMFERA
 40
0.0
  9
$CHAMFERB
 40
0.0
  9
$CHAMFERC
 40
0.0
  9
$CHAMFERD
 40
0.0
  9
$SKPOLY
 70
0
  9
$TDCREATE
 40
2461301.497361111
  9
$TDUCREATE
 40
2458532.153996898
  9
$TDUPDATE
 40
2461301.497361111
  9
$TDUUPDATE
 40
2458532.1544311
  9
$TDINDWG
 40
0.0
  9
$TDUSRTIMER
 40
0.0
  9
$USRTIMER
 70
1
  9
$ANGBASE
 50
0.0
  9
$ANGDIR
 70
0
  9
$PDMODE
 70
0
  9
$PDSIZE
 40
0.0
  9
$PLINEWID
 40
0.0
  9
$SPLFRAME
 70
0
  9
$SPLINETYPE
 70
6
  9
$SPLINESEGS
 70
8
  9
$HANDSEED
  5
1EB
  9
$SURFTAB1
 70
6
  9
$SURFTAB2
 70
6
  9
$SURFTYPE
 70
6
  9
$SURFU
 70
6
  9
$SURFV
 70
6
  9
$UCSBASE
  2

  9
$UCSNAME
  2

  9
$UCSORG
 10
0.0
 20
0.0
 30
0.0
  9
$UCSXDIR
 10
1.0
 20
0.0
 30
0.0
  9
$UCSYDIR
 10
0.0
 20
1.0
 30
0.0
  9
$UCSORTHOREF
  2

  9
$UCSORTHOVIEW
 70
0
  9
$UCSORGTOP
 10
0.0
 20
0.0
 30
0.0
  9
$UCSORGBOTTOM
 10
0.0
 20
0.0
 30
0.0
  9
$UCSORGLEFT
 10
0.0
 20
0.0
 30
0.0
  9
$UCSORGRIGHT
 10
0.0
 20
0.0
 30
0.0
  9
$UCSORGFRONT
 10
0.0
 20
0.0
 30
0.0
  9
$UCSORGBACK
 10
0.0
 20
0.0
 30
0.0
  9
$PUCSBASE
  2

  9
$PUCSNAME
  2

  9
$PUCSORG
 10
0.0
 20
0.0
 30
0.0
  9
$PUCSXDIR
 10
1.0
 20
0.0
 30
0.0
  9
$PUCSYDIR
 10
0.0
 20
1.0
 30
0.0
  9
$PUCSORTHOREF
  2

  9
$PUCSORTHOVIEW
 70
0
  9
$PUCSORGTOP
 10
0.0
 20
0.0
 30
0.0
  9
$PUCSORGBOTTOM
 10
0.0
 20
0.0
 30
0.0
  9
$PUCSORGLEFT
 10
0.0
 20
0.0
 30
0.0
  9
$PUCSORGRIGHT
 10
0.0
 20
0.0
 30
0.0
  9
$PUCSORGFRONT
 10
0.0
 20
0.0
 30
0.0
  9
$PUCSORGBACK
 10
0.0
 20
0.0
 30
0.0
  9
$USERI1
 70
0
  9
$USERI2
 70
0
  9
$USERI3
 70
0
  9
$USERI4
 70
0
  9
$USERI5
 70
0
  9
$USERR1
 40
0.0
  9
$USERR2
 40
0.0
  9
$USERR3
 40
0.0
  9
$USERR4
 40
0.0
  9
$USERR5
 40
0.0
  9
$WORLDVIEW
 70
1
  9
$SHADEDGE
 70
3
  9
$SHADEDIF
 70
70
  9
$TILEMODE
 70
1
  9
$MAXACTVP
 70
64
  9
$PINSBASE
 10
0.0
 20
0.0
 30
0.0
  9
$PLIMCHECK
 70
0
  9
$PEXTMIN
 10
1e+20
 20
1e+20
 30
1e+20
  9
$PEXTMAX
 10
-1e+20
 20
-1e+20
 30
-1e+20
  9
$PLIMMIN
 10
-0.0
 20
-0.0
  9
$PLIMMAX
 10
297.0
 20
210.0
  9
$UNITMODE
 70
0
  9
$VISRETAIN
 70
1
  9
$PLINEGEN
 70
0
  9
$PSLTSCALE
 70
1
  9
$TREEDEPTH
 70
3020
  9
$CMLSTYLE
  2
Standard
  9
$CMLJUST
 70
0
  9
$CMLSCALE
 40
20.0
  9
$PROXYGRAPHICS
 70
1
  9
$MEASUREMENT
 70
1
  9
$CELWEIGHT
370
-1
  9
$ENDCAPS
280
0
  9
$JOINSTYLE
280
0
  9
$LWDISPLAY
290
0
  9
$INSUNITS
 70
4
  9
$HYPERLINKBASE
  1

  9
$STYLESHEET
  1

  9
$XEDIT
290
1
  9
$CEPSNTYPE
380
0
  9
$PSTYLEMODE
290
1
  9
$VERSIONGUID
  2
{9F812C4F-E236-47B5-8D86-5FF5A26BEEF8}
  9
$EXTNAMES
290
1
  9
$PSVPSCALE
 40
0.0
  9
$OLESTARTUP
290
0
  9
$SORTENTS
280
127
  9
$INDEXCTL
280
0
  9
$HIDETEXT
280
1
  9
$XCLIPFRAME
280
1
  9
$HALOGAP
280
0
  9
$OBSCOLOR
 70
257
  9
$OBSLTYPE
280
0
  9
$INTERSECTIONDISPLAY
280
0
  9
$INTERSECTIONCOLOR
 70
257
  9
$DIMASSOC
280
2
  9
$CAMERADISPLAY
290
0
  9
$LENSLENGTH
 40
50.0
  9
$CAMERAHEIGHT
 40
0.0
  9
$STEPSPERSEC
 40
24.0
  9
$STEPSIZE
 40
100.0
  9
$3DDWFPREC
 40
2.0
  9
$PSOLWIDTH
 40
0.005
  9
$PSOLHEIGHT
 40
0.08
  9
$LOFTANG1
 40
1.570796326795
  9
$LOFTANG2
 40
1.570796326795
  9
$LOFTMAG1
 40
0.0
  9
$LOFTMAG2
 40
0.0
  9
$LOFTPARAM
 70
7
  9
$LOFTNORMALS
280
1
  9
$LATITUDE
 40
37.795
  9
$LONGITUDE
 40
-122.394
  9
$NORTHDIRECTION
 40
0.0
  9
$TIMEZONE
 70
-8000
  9
$LIGHTGLYPHDISPLAY
280
1
  9
$TILEMODELIGHTSYNCH
280
1
  9
$CMATERIAL
347
20
  9
$SOLIDHIST
280
0
  9
$SHOWHIST
280
1
  9
$DWFFRAME
280
2
  9
$DGNFRAME
280
2
  9
$REALWORLDSCALE
290
1
  9
$INTERFERECOLOR
 62
256
  9
$CSHADOW
280
0
  9
$SHADOWPLANELOCATION
 40
0.0
  0
ENDSEC
  0
SECTION
  2
CLASSES
  0
CLASS
  1
ACDBDICTIONARYWDFLT
  2
AcDbDictionaryWithDefault
  3
ObjectDBX Classes
 90
0
 91
0
280
0
281
0
  0
CLASS
  1
SUN
  2
AcDbSun
  3
SCENEOE
 90
1153
 91
0
280
0
281
0
  0
CLASS
  1
VISUALSTYLE
  2
AcDbVisualStyle
  3
ObjectDBX Classes
 90
4095
 91
0
280
0
281
0
  0
CLASS
  1
MATERIAL
  2
AcDbMaterial
  3
ObjectDBX Classes
 90
1153
 91
0
280
0
281
0
  0
CLASS
  1
SCALE
  2
AcDbScale
  3
ObjectDBX Classes
 90
1153
 91
0
280
0
281
0
  0
CLASS
  1
TABLESTYLE
  2
AcDbTableStyle
  3
ObjectDBX Classes
 90
4095
 91
0
280
0
281
0
  0
CLASS
  1
MLEADERSTYLE
  2
AcDbMLeaderStyle
  3
ACDB_MLEADERSTYLE_CLASS
 90
4095
 91
0
280
0
281
0
  0
CLASS
  1
DICTIONARYVAR
  2
AcDbDictionaryVar
  3
ObjectDBX Classes
 90
0
 91
0
280
0
281
0
  0
CLASS
  1
CELLSTYLEMAP
  2
AcDbCellStyleMap
  3
ObjectDBX Classes
 90
1152
 91
0
280
0
281
0
  0
CLASS
  1
MENTALRAYRENDERSETTINGS
  2
AcDbMentalRayRenderSettings
  3
SCENEOE
 90
1024
 91
0
280
0
281
0
  0
CLASS
  1
ACDBDETAILVIEWSTYLE
  2
AcDbDetailViewStyle
  3
ObjectDBX Classes
 90
1025
 91
0
280
0
281
0
  0
CLASS
  1
ACDBSECTIONVIEWSTYLE
  2
AcDbSectionViewStyle
  3
ObjectDBX Classes
 90
1025
 91
0
280
0
281
0
  0
CLASS
  1
RASTERVARIABLES
  2
AcDbRasterVariables
  3
ISM
 90
0
 91
0
280
0
281
0
  0
CLASS
  1
LAYOUT
  2
AcDbLayout
  3
ObjectDBX Classes
 90
0
 91
0
280
0
281
0
  0
CLASS
  1
ACDBPLACEHOLDER
  2
AcDbPlaceHolder
  3
ObjectDBX Classes
 90
0
 91
0
280
0
281
0
  0
ENDSEC
  0
SECTION
  2
TABLES
  0
TABLE
  2
VPORT
  5
8
330
0
100
AcDbSymbolTable
 70
1
  0
VPORT
  5
23
330
8
100
AcDbSymbolTableRecord
100
AcDbViewportTableRecord
  2
*Active
 70
0
 10
0.0
 20
0.0
 11
1.0
 21
1.0
 12
0.0
 22
0.0
 13
0.0
 23
0.0
 14
0.5
 24
0.5
 15
0.5
 25
0.5
 16
0.0
 26
0.0
 36
1.0
 17
0.0
 27
0.0
 37
0.0
 40
1000.0
 41
1.34
 42
50.0
 43
0.0
 44
0.0
 50
0.0
 51
0.0
 71
0
 72
1000
 73
1
 74
3
 75
0
 76
0
 77
0
 78
0
281
0
 65
0
146
0.0
  0
ENDTAB
  0
TABLE
  2
LTYPE
  5
2
330
0
100
AcDbSymbolTable
 70
3
  0
LTYPE
  5
24
330
2
100
AcDbSymbolTableRecord
100
AcDbLinetypeTableRecord
  2
ByBlock
 70
0
  3

 72
65
 73
0
 40
0.0
  0
LTYPE
  5
25
330
2
100
AcDbSymbolTableRecord
100
AcDbLinetypeTableRecord
  2
ByLayer
 70
0
  3

 72
65
 73
0
 40
0.0
  0
LTYPE
  5
26
330
2
100
AcDbSymbolTableRecord
100
AcDbLinetypeTableRecord
  2
Continuous
 70
0
  3

 72
65
 73
0
 40
0.0
  0
ENDTAB
  0
TABLE
  2
LAYER
  5
1
330
0
100
AcDbSymbolTable
 70
5
  0
LAYER
  5
27
330
1
100
AcDbSymbolTableRecord
100
AcDbLayerTableRecord
  2
0
 70
0
 62
7
  6
Continuous
370
-3
390
13
347
21
  0
LAYER
  5
28
330
1
100
AcDbSymbolTableRecord
100
AcDbLayerTableRecord
  2
Defpoints
 70
0
 62
7
  6
Continuous
290
0
370
-3
390
13
347
21
  0
LAYER
  5
2F
330
1
100
AcDbSymbolTableRecord
100
AcDbLayerTableRecord
  2
WB_OUTLINE
 70
0
 62
7
  6
Continuous
370
-3
390
13
347
21
  0
LAYER
  5
31
330
1
100
AcDbSymbolTableRecord
100
AcDbLayerTableRecord
  2
WB_DIMENSION
 70
0
 62
7
  6
Continuous
370
-3
390
13
347
21
  0
LAYER
  5
37
330
1
100
AcDbSymbolTableRecord
100
AcDbLayerTableRecord
  2
尺寸线层
 70
0
 62
3
  6
Continuous
370
18
390
13
347
21
1001
AcAecLayerStandard
1000

1000
尺寸线层
1001
AcadStringInfo
1000
MIFCodePage
1070
5
  0
ENDTAB
  0
TABLE
  2
STYLE
  5
5
330
0
100
AcDbSymbolTable
 70
2
  0
STYLE
  5
29
330
5
100
AcDbSymbolTableRecord
100
AcDbTextStyleTableRecord
  2
Standard
 70
0
 40
0.0
 41
1.0
 50
0.0
 71
0
 42
2.5
  3
arial.ttf
  4

  0
STYLE
  5
33
330
5
100
AcDbSymbolTableRecord
100
AcDbTextStyleTableRecord
  2
标准
 70
0
 40
0.0
 41
0.667
 50
0.0
 71
0
 42
2.5
  3
arial.ttf
  4

1001
CAXA_DRAFT_TXTSTYLE
1041
0.1
1041
1.918
1001
ACAD
1000
宋体
1071
34306
1001
AcadStringInfo
1000
MIFCodePage
1070
5
  0
ENDTAB
  0
TABLE
  2
VIEW
  5
7
330
0
100
AcDbSymbolTable
 70
0
  0
ENDTAB
  0
TABLE
  2
UCS
  5
6
330
0
100
AcDbSymbolTable
 70
0
  0
ENDTAB
  0
TABLE
  2
APPID
  5
3
330
0
100
AcDbSymbolTable
 70
16
  0
APPID
  5
2A
330
3
100
AcDbSymbolTableRecord
100
AcDbRegAppTableRecord
  2
ACAD
 70
0
  0
APPID
  5
1C6
330
3
100
AcDbSymbolTableRecord
100
AcDbRegAppTableRecord
  2
CAXA_DRAFT_DS_ISFILLDFM
 70
0
  0
APPID
  5
1C7
330
3
100
AcDbSymbolTableRecord
100
AcDbRegAppTableRecord
  2
CAXA_DRAFT_DS_SYMCOLOR
 70
0
  0
APPID
  5
1C8
330
3
100
AcDbSymbolTableRecord
100
AcDbRegAppTableRecord
  2
CAXA_DRAFT_DIMARROWREVERSE
 70
0
  0
APPID
  5
1C9
330
3
100
AcDbSymbolTableRecord
100
AcDbRegAppTableRecord
  2
CAXA_DRAFT_DIMARCLENSTYLE
 70
0
  0
APPID
  5
1CA
330
3
100
AcDbSymbolTableRecord
100
AcDbRegAppTableRecord
  2
ACADSTRINGINFO
 70
0
  0
APPID
  5
1CB
330
3
100
AcDbSymbolTableRecord
100
AcDbRegAppTableRecord
  2
CAXA_DRAFT_TXTSCALE
 70
0
  0
APPID
  5
1CC
330
3
100
AcDbSymbolTableRecord
100
AcDbRegAppTableRecord
  2
CAXA_DRAFT_DS_DISPZTOOL
 70
0
  0
APPID
  5
1CD
330
3
100
AcDbSymbolTableRecord
100
AcDbRegAppTableRecord
  2
CAXA_DRAFT_DDTSTY_2011R3
 70
0
  0
APPID
  5
1CE
330
3
100
AcDbSymbolTableRecord
100
AcDbRegAppTableRecord
  2
ACAECLAYERSTANDARD
 70
0
  0
APPID
  5
1CF
330
3
100
AcDbSymbolTableRecord
100
AcDbRegAppTableRecord
  2
CAXA_DRAFT_DIMSTY_AT_VPOS
 70
0
  0
APPID
  5
1D0
330
3
100
AcDbSymbolTableRecord
100
AcDbRegAppTableRecord
  2
ACAD_DSTYLE_DIMTEXT_FILL
 70
0
  0
APPID
  5
1D1
330
3
100
AcDbSymbolTableRecord
100
AcDbRegAppTableRecord
  2
CAXA_DRAFT_SDTSTY_2011R3
 70
0
  0
APPID
  5
1D2
330
3
100
AcDbSymbolTableRecord
100
AcDbRegAppTableRecord
  2
CAXA_DRAFT_TXTSTYLE
 70
0
  0
APPID
  5
1E8
330
3
100
AcDbSymbolTableRecord
100
AcDbRegAppTableRecord
  2
HATCHBACKGROUNDCOLOR
 70
0
  0
APPID
  5
1E9
330
3
100
AcDbSymbolTableRecord
100
AcDbRegAppTableRecord
  2
EZDXF
 70
0
  0
ENDTAB
  0
TABLE
  2
DIMSTYLE
  5
4
330
0
100
AcDbSymbolTable
 70
2
100
AcDbDimStyleTable
  0
DIMSTYLE
105
2B
330
4
100
AcDbSymbolTableRecord
100
AcDbDimStyleTableRecord
  2
Standard
 70
0
 40
1.0
 41
2.5
 42
0.625
 43
3.75
 44
1.25
 45
0.0
 46
0.0
 47
0.0
 48
0.0
 49
2.5
140
2.5
141
2.5
142
0.0
143
0.03937007874
144
1.0
145
0.0
146
1.0
147
0.625
148
0.0
 69
0
 70
0
 71
0
 72
0
 73
0
 74
0
 75
0
 76
0
 77
1
 78
8
 79
3
170
0
171
3
172
1
173
0
174
0
175
0
176
0
177
0
178
0
179
2
271
2
272
2
273
2
274
3
275
0
276
0
277
2
278
44
279
0
280
0
281
0
282
0
283
0
284
8
285
0
286
0
288
0
289
3
290
0
371
-2
372
-2
  0
DIMSTYLE
105
32
102
{ACAD_REACTORS
330
121
330
12B
330
135
330
13F
330
149
330
153
330
15D
330
167
330
171
102
}
330
4
100
AcDbSymbolTableRecord
100
AcDbDimStyleTableRecord
  2
标准
 70
0
 40
0.6666666666666666
 41
4.0
 42
0.0
 43
3.75
 44
2.0
 45
0.0
 46
4.0
 47
0.0
 48
0.0
 49
2.5
140
3.0
141
0.0
142
0.0
143
1.0
144
1.0
145
0.0
146
0.707107
147
0.625
148
0.0
 69
0
 70
0
 71
0
 72
0
 73
0
 74
0
 75
0
 76
0
 77
1
 78
8
 79
2
 90
1
170
0
171
3
172
1
173
0
174
0
175
0
176
0
177
0
178
0
179
2
271
2
272
3
273
2
274
3
275
0
276
2
277
2
278
44
279
2
280
0
281
0
282
0
283
0
284
8
285
0
286
0
288
0
289
3
290
0
340
33
342
35
345
26
346
26
347
26
371
-2
372
-2
1001
CAXA_DRAFT_DIMSTY_AT_VPOS
1070
1
1001
CAXA_DRAFT_SDTSTY_2011R3
1070
0
1001
CAXA_DRAFT_DS_ISFILLDFM
1070
1
1001
CAXA_DRAFT_DS_DISPZTOOL
1070
0
1001
CAXA_DRAFT_DS_SYMCOLOR
1071
1090519039
1001
AcadStringInfo
1000
MIFCodePage
1070
5
  0
ENDTAB
  0
TABLE
  2
BLOCK_RECORD
  5
9
330
0
100
AcDbSymbolTable
 70
21
  0
BLOCK_RECORD
  5
17
330
9
100
AcDbSymbolTableRecord
100
AcDbBlockTableRecord
  2
*Model_Space
340
1A
 70
0
280
1
281
0
  0
BLOCK_RECORD
  5
1B
330
9
100
AcDbSymbolTableRecord
100
AcDbBlockTableRecord
  2
*Paper_Space
340
1E
 70
0
280
1
281
0
  0
BLOCK_RECORD
  5
122
330
9
100
AcDbSymbolTableRecord
100
AcDbBlockTableRecord
  2
*D1
340
0
 70
0
280
1
281
0
  0
BLOCK_RECORD
  5
12C
330
9
100
AcDbSymbolTableRecord
100
AcDbBlockTableRecord
  2
*D2
340
0
 70
0
280
1
281
0
  0
BLOCK_RECORD
  5
136
330
9
100
AcDbSymbolTableRecord
100
AcDbBlockTableRecord
  2
*D3
340
0
 70
0
280
1
281
0
  0
BLOCK_RECORD
  5
140
330
9
100
AcDbSymbolTableRecord
100
AcDbBlockTableRecord
  2
*D4
340
0
 70
0
280
1
281
0
  0
BLOCK_RECORD
  5
14A
330
9
100
AcDbSymbolTableRecord
100
AcDbBlockTableRecord
  2
*D5
340
0
 70
0
280
1
281
0
  0
BLOCK_RECORD
  5
154
330
9
100
AcDbSymbolTableRecord
100
AcDbBlockTableRecord
  2
*D6
340
0
 70
0
280
1
281
0
  0
BLOCK_RECORD
  5
15E
330
9
100
AcDbSymbolTableRecord
100
AcDbBlockTableRecord
  2
*D7
340
0
 70
0
280
1
281
0
  0
BLOCK_RECORD
  5
168
330
9
100
AcDbSymbolTableRecord
100
AcDbBlockTableRecord
  2
*D8
340
0
 70
0
280
1
281
0
  0
BLOCK_RECORD
  5
172
330
9
100
AcDbSymbolTableRecord
100
AcDbBlockTableRecord
  2
*D9
340
0
 70
0
280
1
281
0
  0
BLOCK_RECORD
  5
35
330
9
100
AcDbSymbolTableRecord
100
AcDbBlockTableRecord
  2
_CAXARROW
340
0
 70
0
280
1
281
0
  0
BLOCK_RECORD
  5
36
330
9
100
AcDbSymbolTableRecord
100
AcDbBlockTableRecord
  2
*X10
340
0
 70
0
280
1
281
0
  0
BLOCK_RECORD
  5
3A
330
9
100
AcDbSymbolTableRecord
100
AcDbBlockTableRecord
  2
*X11
340
0
 70
0
280
1
281
0
  0
BLOCK_RECORD
  5
3B
330
9
100
AcDbSymbolTableRecord
100
AcDbBlockTableRecord
  2
*X12
340
0
 70
0
280
1
281
0
  0
BLOCK_RECORD
  5
3C
330
9
100
AcDbSymbolTableRecord
100
AcDbBlockTableRecord
  2
*X13
340
0
 70
0
280
1
281
0
  0
BLOCK_RECORD
  5
3D
330
9
100
AcDbSymbolTableRecord
100
AcDbBlockTableRecord
  2
*X14
340
0
 70
0
280
1
281
0
  0
BLOCK_RECORD
  5
3E
330
9
100
AcDbSymbolTableRecord
100
AcDbBlockTableRecord
  2
*X15
340
0
 70
0
280
1
281
0
  0
BLOCK_RECORD
  5
3F
330
9
100
AcDbSymbolTableRecord
100
AcDbBlockTableRecord
  2
*X16
340
0
 70
0
280
1
281
0
  0
BLOCK_RECORD
  5
40
330
9
100
AcDbSymbolTableRecord
100
AcDbBlockTableRecord
  2
*X17
340
0
 70
0
280
1
281
0
  0
BLOCK_RECORD
  5
41
330
9
100
AcDbSymbolTableRecord
100
AcDbBlockTableRecord
  2
*X18
340
0
 70
0
280
1
281
0
  0
ENDTAB
  0
ENDSEC
  0
SECTION
  2
BLOCKS
  0
BLOCK
  5
18
330
17
100
AcDbEntity
  8
0
100
AcDbBlockBegin
  2
*Model_Space
 70
0
 10
0.0
 20
0.0
 30
0.0
  3
*Model_Space
  1

  0
ENDBLK
  5
19
330
17
100
AcDbEntity
  8
0
100
AcDbBlockEnd
  0
BLOCK
  5
1C
330
1B
100
AcDbEntity
  8
0
100
AcDbBlockBegin
  2
*Paper_Space
 70
0
 10
0.0
 20
0.0
 30
0.0
  3
*Paper_Space
  1

  0
ENDBLK
  5
1D
330
1B
100
AcDbEntity
  8
0
100
AcDbBlockEnd
  0
BLOCK
  5
123
330
122
100
AcDbEntity
  8
0
100
AcDbBlockBegin
  2
*D1
 70
1
 10
0.0
 20
0.0
 30
0.0
  3
*D1
  1

  0
LINE
  5
125
330
122
100
AcDbEntity
  8
尺寸线层
  6
Continuous
 62
0
440
16777216
100
AcDbLine
 10
207.7979927953355
 20
86.59271516735058
 30
0.0
 11
97.79799279533543
 21
86.59271516735058
 31
0.0
  0
HATCH
  5
126
330
122
100
AcDbEntity
  8
尺寸线层
  6
Continuous
 62
0
440
16777216
100
AcDbHatch
 10
0.0
 20
0.0
 30
0.0
210
0.0
220
0.0
230
1.0
  2
SOLID
 70
1
 71
0
 91
1
 92
0
 93
3
 72
1
 10
207.7979927953355
 20
86.59271516735058
 11
201.7979927953355
 21
85.84271516735058
 72
1
 10
201.7979927953355
 20
85.84271516735058
 11
201.7979927953355
 21
87.34271516735058
 72
1
 10
201.7979927953355
 20
87.34271516735058
 11
207.7979927953355
 21
86.59271516735058
 97
0
 75
0
 76
1
 98
1
 10
0.0
 20
0.0
  0
HATCH
  5
127
330
122
100
AcDbEntity
  8
尺寸线层
  6
Continuous
 62
0
440
16777216
100
AcDbHatch
 10
0.0
 20
0.0
 30
0.0
210
0.0
220
0.0
230
1.0
  2
SOLID
 70
1
 71
0
 91
1
 92
0
 93
3
 72
1
 10
97.79799279533543
 20
86.59271516735058
 11
103.7979927953354
 21
85.84271516735058
 72
1
 10
103.7979927953354
 20
85.84271516735058
 11
103.7979927953354
 21
87.34271516735058
 72
1
 10
103.7979927953354
 20
87.34271516735058
 11
97.79799279533543
 21
86.59271516735058
 97
0
 75
0
 76
1
 98
1
 10
0.0
 20
0.0
  0
LINE
  5
128
330
122
100
AcDbEntity
  8
尺寸线层
  6
Continuous
 62
0
440
16777216
100
AcDbLine
 10
207.7979927953355
 20
104.6974521577507
 30
0.0
 11
207.7979927953355
 21
83.59271516735058
 31
0.0
  0
LINE
  5
129
330
122
100
AcDbEntity
  8
尺寸线层
  6
Continuous
 62
0
440
16777216
100
AcDbLine
 10
97.79799279533543
 20
104.6974521577502
 30
0.0
 11
97.79799279533543
 21
83.59271516735058
 31
0.0
  0
MTEXT
  5
12A
330
122
100
AcDbEntity
  8
尺寸线层
 62
0
440
16777216
100
AcDbMText
 10
152.7979922953355
 20
89.78021516735058
 30
0.0
 40
4.5
 41
12.25946
 46
9.0
 71
5
  1
\T1.1;110
  7
标准
 44
1.150569886022795
1001
CAXA_DRAFT_TXTSCALE
1041
1.0
  0
ENDBLK
  5
124
330
122
100
AcDbEntity
  8
0
100
AcDbBlockEnd
  0
BLOCK
  5
12D
330
12C
100
AcDbEntity
  8
0
100
AcDbBlockBegin
  2
*D2
 70
1
 10
0.0
 20
0.0
 30
0.0
  3
*D2
  1

  0
LINE
  5
12F
330
12C
100
AcDbEntity
  8
尺寸线层
  6
Continuous
 62
0
440
16777216
100
AcDbLine
 10
77.79799279533542
 20
86.59271516735141
 30
0.0
 11
97.79799279533543
 21
86.5927151673514
 31
0.0
  0
HATCH
  5
130
330
12C
100
AcDbEntity
  8
尺寸线层
  6
Continuous
 62
0
440
16777216
100
AcDbHatch
 10
0.0
 20
0.0
 30
0.0
210
0.0
220
0.0
230
1.0
  2
SOLID
 70
1
 71
0
 91
1
 92
0
 93
3
 72
1
 10
77.79799279533542
 20
86.59271516735141
 11
83.79799279533542
 21
87.3427151673514
 72
1
 10
83.79799279533542
 20
87.3427151673514
 11
83.79799279533542
 21
85.8427151673514
 72
1
 10
83.79799279533542
 20
85.8427151673514
 11
77.79799279533542
 21
86.59271516735141
 97
0
 75
0
 76
1
 98
1
 10
0.0
 20
0.0
  0
HATCH
  5
131
330
12C
100
AcDbEntity
  8
尺寸线层
  6
Continuous
 62
0
440
16777216
100
AcDbHatch
 10
0.0
 20
0.0
 30
0.0
210
0.0
220
0.0
230
1.0
  2
SOLID
 70
1
 71
0
 91
1
 92
0
 93
3
 72
1
 10
97.79799279533543
 20
86.5927151673514
 11
91.79799279533543
 21
87.3427151673514
 72
1
 10
91.79799279533543
 20
87.3427151673514
 11
91.79799279533543
 21
85.8427151673514
 72
1
 10
91.79799279533543
 20
85.8427151673514
 11
97.79799279533543
 21
86.5927151673514
 97
0
 75
0
 76
1
 98
1
 10
0.0
 20
0.0
  0
LINE
  5
132
330
12C
100
AcDbEntity
  8
尺寸线层
  6
Continuous
 62
0
440
16777216
100
AcDbLine
 10
77.79799279533542
 20
110.3156071070889
 30
0.0
 11
77.79799279533542
 21
83.59271516735141
 31
0.0
  0
LINE
  5
133
330
12C
100
AcDbEntity
  8
尺寸线层
  6
Continuous
 62
0
440
16777216
100
AcDbLine
 10
97.79799279533543
 20
104.6853571070099
 30
0.0
 11
97.79799279533543
 21
83.5927151673514
 31
0.0
  0
MTEXT
  5
134
330
12C
100
AcDbEntity
  8
尺寸线层
 62
0
440
16777216
100
AcDbMText
 10
87.79799329533542
 20
89.7802151673514
 30
0.0
 40
4.5
 41
9.0
 46
9.0
 71
5
  1
\T1.1;20
  7
标准
 44
1.150569886022795
1001
CAXA_DRAFT_TXTSCALE
1041
1.0
  0
ENDBLK
  5
12E
330
12C
100
AcDbEntity
  8
0
100
AcDbBlockEnd
  0
BLOCK
  5
137
330
136
100
AcDbEntity
  8
0
100
AcDbBlockBegin
  2
*D3
 70
1
 10
0.0
 20
0.0
 30
0.0
  3
*D3
  1

  0
LINE
  5
139
330
136
100
AcDbEntity
  8
尺寸线层
  6
Continuous
 62
0
440
16777216
100
AcDbLine
 10
77.79799279533542
 20
86.59271516735114
 30
0.0
 11
60.7979927953354
 21
86.59271516735114
 31
0.0
  0
HATCH
  5
13A
330
136
100
AcDbEntity
  8
尺寸线层
  6
Continuous
 62
0
440
16777216
100
AcDbHatch
 10
0.0
 20
0.0
 30
0.0
210
0.0
220
0.0
230
1.0
  2
SOLID
 70
1
 71
0
 91
1
 92
0
 93
3
 72
1
 10
77.79799279533542
 20
86.59271516735114
 11
71.79799279533542
 21
85.84271516735114
 72
1
 10
71.79799279533542
 20
85.84271516735114
 11
71.79799279533542
 21
87.34271516735114
 72
1
 10
71.79799279533542
 20
87.34271516735114
 11
77.79799279533542
 21
86.59271516735114
 97
0
 75
0
 76
1
 98
1
 10
0.0
 20
0.0
  0
HATCH
  5
13B
330
136
100
AcDbEntity
  8
尺寸线层
  6
Continuous
 62
0
440
16777216
100
AcDbHatch
 10
0.0
 20
0.0
 30
0.0
210
0.0
220
0.0
230
1.0
  2
SOLID
 70
1
 71
0
 91
1
 92
0
 93
3
 72
1
 10
60.7979927953354
 20
86.59271516735114
 11
66.79799279533542
 21
85.84271516735114
 72
1
 10
66.79799279533542
 20
85.84271516735114
 11
66.79799279533542
 21
87.34271516735114
 72
1
 10
66.79799279533542
 20
87.34271516735114
 11
60.7979927953354
 21
86.59271516735114
 97
0
 75
0
 76
1
 98
1
 10
0.0
 20
0.0
  0
LINE
  5
13C
330
136
100
AcDbEntity
  8
尺寸线层
  6
Continuous
 62
0
440
16777216
100
AcDbLine
 10
77.79799279533542
 20
110.3156071070889
 30
0.0
 11
77.79799279533542
 21
83.59271516735114
 31
0.0
  0
LINE
  5
13D
330
136
100
AcDbEntity
  8
尺寸线层
  6
Continuous
 62
0
440
16777216
100
AcDbLine
 10
60.7979927953354
 20
112.4656071067578
 30
0.0
 11
60.7979927953354
 21
83.59271516735114
 31
0.0
  0
MTEXT
  5
13E
330
136
100
AcDbEntity
  8
尺寸线层
 62
0
440
16777216
100
AcDbMText
 10
69.29799229533542
 20
89.78021516735114
 30
0.0
 40
4.5
 41
9.0
 46
9.0
 71
5
  1
\T1.1;17
  7
标准
 44
1.150569886022795
1001
CAXA_DRAFT_TXTSCALE
1041
1.0
  0
ENDBLK
  5
138
330
136
100
AcDbEntity
  8
0
100
AcDbBlockEnd
  0
BLOCK
  5
141
330
140
100
AcDbEntity
  8
0
100
AcDbBlockBegin
  2
*D4
 70
1
 10
0.0
 20
0.0
 30
0.0
  3
*D4
  1

  0
LINE
  5
143
330
140
100
AcDbEntity
  8
尺寸线层
  6
Continuous
 62
0
440
16777216
100
AcDbLine
 10
66.79799279533542
 20
86.5927151673512
 30
0.0
 11
39.79799279513531
 21
86.5927151673512
 31
0.0
  0
HATCH
  5
144
330
140
100
AcDbEntity
  8
尺寸线层
  6
Continuous
 62
0
440
16777216
100
AcDbHatch
 10
0.0
 20
0.0
 30
0.0
210
0.0
220
0.0
230
1.0
  2
SOLID
 70
1
 71
0
 91
1
 92
0
 93
3
 72
1
 10
60.7979927953354
 20
86.5927151673512
 11
66.79799279533542
 21
85.8427151673512
 72
1
 10
66.79799279533542
 20
85.8427151673512
 11
66.79799279533542
 21
87.3427151673512
 72
1
 10
66.79799279533542
 20
87.3427151673512
 11
60.7979927953354
 21
86.5927151673512
 97
0
 75
0
 76
1
 98
1
 10
0.0
 20
0.0
  0
HATCH
  5
145
330
140
100
AcDbEntity
  8
尺寸线层
  6
Continuous
 62
0
440
16777216
100
AcDbHatch
 10
0.0
 20
0.0
 30
0.0
210
0.0
220
0.0
230
1.0
  2
SOLID
 70
1
 71
0
 91
1
 92
0
 93
3
 72
1
 10
45.79799279513531
 20
86.5927151673512
 11
39.79799279513531
 21
85.84271516735123
 72
1
 10
39.79799279513531
 20
85.84271516735123
 11
39.79799279513531
 21
87.34271516735123
 72
1
 10
39.79799279513531
 20
87.34271516735123
 11
45.79799279513531
 21
86.5927151673512
 97
0
 75
0
 76
1
 98
1
 10
0.0
 20
0.0
  0
LINE
  5
146
330
140
100
AcDbEntity
  8
尺寸线层
  6
Continuous
 62
0
440
16777216
100
AcDbLine
 10
60.7979927953354
 20
112.4656071067578
 30
0.0
 11
60.7979927953354
 21
83.5927151673512
 31
0.0
  0
LINE
  5
147
330
140
100
AcDbEntity
  8
尺寸线层
  6
Continuous
 62
0
440
16777216
100
AcDbLine
 10
45.79799279513531
 20
113.3156071067577
 30
0.0
 11
45.79799279513531
 21
83.5927151673512
 31
0.0
  0
MTEXT
  5
148
330
140
100
AcDbEntity
  8
尺寸线层
 62
0
440
16777216
100
AcDbMText
 10
53.2979922952353
 20
89.7802151673512
 30
0.0
 40
4.5
 41
9.0
 46
9.0
 71
5
  1
\T1.1;15
  7
标准
 44
1.150569886022795
1001
CAXA_DRAFT_TXTSCALE
1041
1.0
  0
ENDBLK
  5
142
330
140
100
AcDbEntity
  8
0
100
AcDbBlockEnd
  0
BLOCK
  5
14B
330
14A
100
AcDbEntity
  8
0
100
AcDbBlockBegin
  2
*D5
 70
1
 10
0.0
 20
0.0
 30
0.0
  3
*D5
  1

  0
LINE
  5
14D
330
14A
100
AcDbEntity
  8
尺寸线层
  6
Continuous
 62
0
440
16777216
100
AcDbLine
 10
84.16658603087592
 20
102.0656071070099
 30
0.0
 11
84.16658603087592
 21
159.5621973326491
 31
0.0
  0
HATCH
  5
14E
330
14A
100
AcDbEntity
  8
尺寸线层
  6
Continuous
 62
0
440
16777216
100
AcDbHatch
 10
0.0
 20
0.0
 30
0.0
210
0.0
220
0.0
230
1.0
  2
SOLID
 70
1
 71
0
 91
1
 92
0
 93
3
 72
1
 10
84.16658603087592
 20
108.0656071070099
 11
83.41658603087592
 21
102.0656071070099
 72
1
 10
83.41658603087592
 20
102.0656071070099
 11
84.91658603087592
 21
102.0656071070099
 72
1
 10
84.91658603087592
 20
102.0656071070099
 11
84.16658603087592
 21
108.0656071070099
 97
0
 75
0
 76
1
 98
1
 10
0.0
 20
0.0
  0
HATCH
  5
14F
330
14A
100
AcDbEntity
  8
尺寸线层
  6
Continuous
 62
0
440
16777216
100
AcDbHatch
 10
0.0
 20
0.0
 30
0.0
210
0.0
220
0.0
230
1.0
  2
SOLID
 70
1
 71
0
 91
1
 92
0
 93
3
 72
1
 10
84.16658603087592
 20
133.5656071070098
 11
83.41658603087592
 21
139.5656071070098
 72
1
 10
83.41658603087592
 20
139.5656071070098
 11
84.91658603087592
 21
139.5656071070098
 72
1
 10
84.91658603087592
 20
139.5656071070098
 11
84.16658603087592
 21
133.5656071070098
 97
0
 75
0
 76
1
 98
1
 10
0.0
 20
0.0
  0
LINE
  5
150
330
14A
100
AcDbEntity
  8
尺寸线层
  6
Continuous
 62
0
440
16777216
100
AcDbLine
 10
83.48441548824032
 20
108.0656071070099
 30
0.0
 11
87.16658603087592
 21
108.0656071070099
 31
0.0
  0
LINE
  5
151
330
14A
100
AcDbEntity
  8
尺寸线层
  6
Continuous
 62
0
440
16777216
100
AcDbLine
 10
84.62136639263302
 20
133.5656071070098
 30
0.0
 11
81.16658603087592
 21
133.5656071070098
 31
0.0
  0
MTEXT
  5
152
330
14A
100
AcDbEntity
  8
尺寸线层
 62
0
440
16777216
100
AcDbMText
 10
80.50408603087591
 20
152.7171098326491
 30
0.0
 40
4.5
 41
27.38034999999999
 46
9.0
 71
5
  1
\T1.1;NPT3/4
  7
标准
 11
6.123233995736766e-17
 21
1.0
 31
0.0
 44
1.150569886022795
1001
CAXA_DRAFT_TXTSCALE
1041
1.0
  0
ENDBLK
  5
14C
330
14A
100
AcDbEntity
  8
0
100
AcDbBlockEnd
  0
BLOCK
  5
155
330
154
100
AcDbEntity
  8
0
100
AcDbBlockBegin
  2
*D6
 70
1
 10
0.0
 20
0.0
 30
0.0
  3
*D6
  1

  0
LINE
  5
157
330
154
100
AcDbEntity
  8
尺寸线层
  6
Continuous
 62
0
440
16777216
100
AcDbLine
 10
225.7979927953355
 20
86.59271516735132
 30
0.0
 11
207.7979927953355
 21
86.59271516735132
 31
0.0
  0
HATCH
  5
158
330
154
100
AcDbEntity
  8
尺寸线层
  6
Continuous
 62
0
440
16777216
100
AcDbHatch
 10
0.0
 20
0.0
 30
0.0
210
0.0
220
0.0
230
1.0
  2
SOLID
 70
1
 71
0
 91
1
 92
0
 93
3
 72
1
 10
225.7979927953355
 20
86.59271516735132
 11
219.7979927953355
 21
85.84271516735132
 72
1
 10
219.7979927953355
 20
85.84271516735132
 11
219.7979927953355
 21
87.34271516735132
 72
1
 10
219.7979927953355
 20
87.34271516735132
 11
225.7979927953355
 21
86.59271516735132
 97
0
 75
0
 76
1
 98
1
 10
0.0
 20
0.0
  0
HATCH
  5
159
330
154
100
AcDbEntity
  8
尺寸线层
  6
Continuous
 62
0
440
16777216
100
AcDbHatch
 10
0.0
 20
0.0
 30
0.0
210
0.0
220
0.0
230
1.0
  2
SOLID
 70
1
 71
0
 91
1
 92
0
 93
3
 72
1
 10
207.7979927953355
 20
86.59271516735132
 11
213.7979927953355
 21
85.84271516735132
 72
1
 10
213.7979927953355
 20
85.84271516735132
 11
213.7979927953355
 21
87.34271516735132
 72
1
 10
213.7979927953355
 20
87.34271516735132
 11
207.7979927953355
 21
86.59271516735132
 97
0
 75
0
 76
1
 98
1
 10
0.0
 20
0.0
  0
LINE
  5
15A
330
154
100
AcDbEntity
  8
尺寸线层
  6
Continuous
 62
0
440
16777216
100
AcDbLine
 10
225.7979927953355
 20
109.0656071070099
 30
0.0
 11
225.7979927953355
 21
83.59271516735132
 31
0.0
  0
LINE
  5
15B
330
154
100
AcDbEntity
  8
尺寸线层
  6
Continuous
 62
0
440
16777216
100
AcDbLine
 10
207.7979927953355
 20
104.6974521577507
 30
0.0
 11
207.7979927953355
 21
83.59271516735132
 31
0.0
  0
MTEXT
  5
15C
330
154
100
AcDbEntity
  8
尺寸线层
 62
0
440
16777216
100
AcDbMText
 10
216.7979922953355
 20
89.78021516735132
 30
0.0
 40
4.5
 41
9.0
 46
9.0
 71
5
  1
\T1.1;18
  7
标准
 44
1.150569886022795
1001
CAXA_DRAFT_TXTSCALE
1041
1.0
  0
ENDBLK
  5
156
330
154
100
AcDbEntity
  8
0
100
AcDbBlockEnd
  0
BLOCK
  5
15F
330
15E
100
AcDbEntity
  8
0
100
AcDbBlockBegin
  2
*D7
 70
1
 10
0.0
 20
0.0
 30
0.0
  3
*D7
  1

  0
LINE
  5
161
330
15E
100
AcDbEntity
  8
尺寸线层
  6
Continuous
 62
0
440
16777216
100
AcDbLine
 10
216.7979927953355
 20
102.0656071070099
 30
0.0
 11
216.7979927953355
 21
159.5621973326493
 31
0.0
  0
HATCH
  5
162
330
15E
100
AcDbEntity
  8
尺寸线层
  6
Continuous
 62
0
440
16777216
100
AcDbHatch
 10
0.0
 20
0.0
 30
0.0
210
0.0
220
0.0
230
1.0
  2
SOLID
 70
1
 71
0
 91
1
 92
0
 93
3
 72
1
 10
216.7979927953355
 20
108.0656071070099
 11
216.0479927953355
 21
102.0656071070099
 72
1
 10
216.0479927953355
 20
102.0656071070099
 11
217.5479927953355
 21
102.0656071070099
 72
1
 10
217.5479927953355
 20
102.0656071070099
 11
216.7979927953355
 21
108.0656071070099
 97
0
 75
0
 76
1
 98
1
 10
0.0
 20
0.0
  0
HATCH
  5
163
330
15E
100
AcDbEntity
  8
尺寸线层
  6
Continuous
 62
0
440
16777216
100
AcDbHatch
 10
0.0
 20
0.0
 30
0.0
210
0.0
220
0.0
230
1.0
  2
SOLID
 70
1
 71
0
 91
1
 92
0
 93
3
 72
1
 10
216.7979927953355
 20
133.5656071070099
 11
216.0479927953355
 21
139.5656071070099
 72
1
 10
216.0479927953355
 20
139.5656071070099
 11
217.5479927953355
 21
139.5656071070099
 72
1
 10
217.5479927953355
 20
139.5656071070099
 11
216.7979927953355
 21
133.5656071070099
 97
0
 75
0
 76
1
 98
1
 10
0.0
 20
0.0
  0
LINE
  5
164
330
15E
100
AcDbEntity
  8
尺寸线层
  6
Continuous
 62
0
440
16777216
100
AcDbLine
 10
215.9369401317462
 20
108.0656071070099
 30
0.0
 11
219.7979927953355
 21
108.0656071070099
 31
0.0
  0
LINE
  5
165
330
15E
100
AcDbEntity
  8
尺寸线层
  6
Continuous
 62
0
440
16777216
100
AcDbLine
 10
217.1496877630986
 20
133.5656071070099
 30
0.0
 11
213.7979927953355
 21
133.5656071070099
 31
0.0
  0
MTEXT
  5
166
330
15E
100
AcDbEntity
  8
尺寸线层
 62
0
440
16777216
100
AcDbMText
 10
213.1354927953355
 20
152.7171098326494
 30
0.0
 40
4.5
 41
27.38034999999999
 46
9.0
 71
5
  1
\T1.1;NPT3/4
  7
标准
 11
6.123233995736766e-17
 21
1.0
 31
0.0
 44
1.150569886022795
1001
CAXA_DRAFT_TXTSCALE
1041
1.0
  0
ENDBLK
  5
160
330
15E
100
AcDbEntity
  8
0
100
AcDbBlockEnd
  0
BLOCK
  5
169
330
168
100
AcDbEntity
  8
0
100
AcDbBlockBegin
  2
*D8
 70
1
 10
0.0
 20
0.0
 30
0.0
  3
*D8
  1

  0
LINE
  5
16B
330
168
100
AcDbEntity
  8
尺寸线层
  6
Continuous
 62
0
440
16777216
100
AcDbLine
 10
248.7979927953355
 20
86.59271516735123
 30
0.0
 11
225.7979927953355
 21
86.59271516735123
 31
0.0
  0
HATCH
  5
16C
330
168
100
AcDbEntity
  8
尺寸线层
  6
Continuous
 62
0
440
16777216
100
AcDbHatch
 10
0.0
 20
0.0
 30
0.0
210
0.0
220
0.0
230
1.0
  2
SOLID
 70
1
 71
0
 91
1
 92
0
 93
3
 72
1
 10
248.7979927953355
 20
86.59271516735123
 11
242.7979927953355
 21
85.84271516735123
 72
1
 10
242.7979927953355
 20
85.84271516735123
 11
242.7979927953355
 21
87.34271516735123
 72
1
 10
242.7979927953355
 20
87.34271516735123
 11
248.7979927953355
 21
86.59271516735123
 97
0
 75
0
 76
1
 98
1
 10
0.0
 20
0.0
  0
HATCH
  5
16D
330
168
100
AcDbEntity
  8
尺寸线层
  6
Continuous
 62
0
440
16777216
100
AcDbHatch
 10
0.0
 20
0.0
 30
0.0
210
0.0
220
0.0
230
1.0
  2
SOLID
 70
1
 71
0
 91
1
 92
0
 93
3
 72
1
 10
225.7979927953355
 20
86.59271516735123
 11
231.7979927953355
 21
85.84271516735123
 72
1
 10
231.7979927953355
 20
85.84271516735123
 11
231.7979927953355
 21
87.34271516735123
 72
1
 10
231.7979927953355
 20
87.34271516735123
 11
225.7979927953355
 21
86.59271516735123
 97
0
 75
0
 76
1
 98
1
 10
0.0
 20
0.0
  0
LINE
  5
16E
330
168
100
AcDbEntity
  8
尺寸线层
  6
Continuous
 62
0
440
16777216
100
AcDbLine
 10
248.7979927953355
 20
110.8156071070099
 30
0.0
 11
248.7979927953355
 21
83.59271516735123
 31
0.0
  0
LINE
  5
16F
330
168
100
AcDbEntity
  8
尺寸线层
  6
Continuous
 62
0
440
16777216
100
AcDbLine
 10
225.7979927953355
 20
110.8156071070099
 30
0.0
 11
225.7979927953355
 21
83.59271516735123
 31
0.0
  0
MTEXT
  5
170
330
168
100
AcDbEntity
  8
尺寸线层
 62
0
440
16777216
100
AcDbMText
 10
237.2979922953355
 20
89.78021516735123
 30
0.0
 40
4.5
 41
9.0
 46
9.0
 71
5
  1
\T1.1;23
  7
标准
 44
1.150569886022795
1001
CAXA_DRAFT_TXTSCALE
1041
1.0
  0
ENDBLK
  5
16A
330
168
100
AcDbEntity
  8
0
100
AcDbBlockEnd
  0
BLOCK
  5
173
330
172
100
AcDbEntity
  8
0
100
AcDbBlockBegin
  2
*D9
 70
1
 10
0.0
 20
0.0
 30
0.0
  3
*D9
  1

  0
LINE
  5
175
330
172
100
AcDbEntity
  8
尺寸线层
  6
Continuous
 62
0
440
16777216
100
AcDbLine
 10
264.2020072048647
 20
104.8156071070099
 30
0.0
 11
264.2020072048647
 21
144.2126470231342
 31
0.0
  0
HATCH
  5
176
330
172
100
AcDbEntity
  8
尺寸线层
  6
Continuous
 62
0
440
16777216
100
AcDbHatch
 10
0.0
 20
0.0
 30
0.0
210
0.0
220
0.0
230
1.0
  2
SOLID
 70
1
 71
0
 91
1
 92
0
 93
3
 72
1
 10
264.2020072048647
 20
110.8156071070099
 11
263.4520072048647
 21
104.8156071070099
 72
1
 10
263.4520072048647
 20
104.8156071070099
 11
264.9520072048647
 21
104.8156071070099
 72
1
 10
264.9520072048647
 20
104.8156071070099
 11
264.2020072048647
 21
110.8156071070099
 97
0
 75
0
 76
1
 98
1
 10
0.0
 20
0.0
  0
HATCH
  5
177
330
172
100
AcDbEntity
  8
尺寸线层
  6
Continuous
 62
0
440
16777216
100
AcDbHatch
 10
0.0
 20
0.0
 30
0.0
210
0.0
220
0.0
230
1.0
  2
SOLID
 70
1
 71
0
 91
1
 92
0
 93
3
 72
1
 10
264.2020072048647
 20
130.8156071070099
 11
263.4520072048647
 21
136.8156071070099
 72
1
 10
263.4520072048647
 20
136.8156071070099
 11
264.9520072048647
 21
136.8156071070099
 72
1
 10
264.9520072048647
 20
136.8156071070099
 11
264.2020072048647
 21
130.8156071070099
 97
0
 75
0
 76
1
 98
1
 10
0.0
 20
0.0
  0
LINE
  5
178
330
172
100
AcDbEntity
  8
尺寸线层
  6
Continuous
 62
0
440
16777216
100
AcDbLine
 10
248.7979927953355
 20
110.8156071070099
 30
0.0
 11
267.2020072048647
 21
110.8156071070099
 31
0.0
  0
LINE
  5
179
330
172
100
AcDbEntity
  8
尺寸线层
  6
Continuous
 62
0
440
16777216
100
AcDbLine
 10
248.7979927953355
 20
130.8156071070099
 30
0.0
 11
267.2020072048647
 21
130.8156071070099
 31
0.0
  0
MTEXT
  5
17A
330
172
100
AcDbEntity
  8
尺寸线层
 62
0
440
16777216
100
AcDbMText
 10
261.0145072048647
 20
140.9726945231342
 30
0.0
 40
4.5
 41
12.95981
 46
9.0
 71
5
  1
\T1.1;%%C20
  7
标准
 11
6.123233995736766e-17
 21
1.0
 31
0.0
 44
1.150569886022795
1001
CAXA_DRAFT_TXTSCALE
1041
1.0
  0
ENDBLK
  5
174
330
172
100
AcDbEntity
  8
0
100
AcDbBlockEnd
  0
BLOCK
  5
17B
330
35
100
AcDbEntity
  8
0
100
AcDbBlockBegin
  2
_CAXARROW
 70
0
 10
0.0
 20
0.0
 30
0.0
  3
_CAXARROW
  1

  0
HATCH
  5
17D
330
35
100
AcDbEntity
  8
0
 62
0
100
AcDbHatch
 10
0.0
 20
0.0
 30
0.0
210
0.0
220
0.0
230
1.0
  2
SOLID
 70
1
 71
0
 91
1
 92
0
 93
3
 72
1
 10
0.0
 20
0.0
 11
-1.0
 21
0.125
 72
1
 10
-1.0
 20
0.125
 11
-1.0
 21
-0.125
 72
1
 10
-1.0
 20
-0.125
 11
0.0
 21
0.0
 97
0
 75
0
 76
1
 98
1
 10
0.0
 20
0.0
  0
ENDBLK
  5
17C
330
35
100
AcDbEntity
  8
0
100
AcDbBlockEnd
  0
BLOCK
  5
17E
330
36
100
AcDbEntity
  8
0
100
AcDbBlockBegin
  2
*X10
 70
1
 10
0.0
 20
0.0
 30
0.0
  3
*X10
  1

  0
LINE
  5
180
330
36
100
AcDbEntity
  8
尺寸线层
  6
Continuous
 62
0
440
16777216
100
AcDbLine
 10
207.7979927953355
 20
86.59271516735058
 30
0.0
 11
97.79799279533543
 21
86.59271516735058
 31
0.0
  0
HATCH
  5
181
330
36
100
AcDbEntity
  8
尺寸线层
  6
Continuous
 62
0
440
16777216
100
AcDbHatch
 10
0.0
 20
0.0
 30
0.0
210
0.0
220
0.0
230
1.0
  2
SOLID
 70
1
 71
0
 91
1
 92
0
 93
3
 72
1
 10
207.7979927953355
 20
86.59271516735058
 11
201.7979927953355
 21
85.84271516735058
 72
1
 10
201.7979927953355
 20
85.84271516735058
 11
201.7979927953355
 21
87.34271516735058
 72
1
 10
201.7979927953355
 20
87.34271516735058
 11
207.7979927953355
 21
86.59271516735058
 97
0
 75
0
 76
1
 98
1
 10
0.0
 20
0.0
  0
HATCH
  5
182
330
36
100
AcDbEntity
  8
尺寸线层
  6
Continuous
 62
0
440
16777216
100
AcDbHatch
 10
0.0
 20
0.0
 30
0.0
210
0.0
220
0.0
230
1.0
  2
SOLID
 70
1
 71
0
 91
1
 92
0
 93
3
 72
1
 10
97.79799279533543
 20
86.59271516735058
 11
103.7979927953354
 21
85.84271516735058
 72
1
 10
103.7979927953354
 20
85.84271516735058
 11
103.7979927953354
 21
87.34271516735058
 72
1
 10
103.7979927953354
 20
87.34271516735058
 11
97.79799279533543
 21
86.59271516735058
 97
0
 75
0
 76
1
 98
1
 10
0.0
 20
0.0
  0
LINE
  5
183
330
36
100
AcDbEntity
  8
尺寸线层
  6
Continuous
 62
0
440
16777216
100
AcDbLine
 10
207.7979927953355
 20
104.6974521577507
 30
0.0
 11
207.7979927953355
 21
83.59271516735058
 31
0.0
  0
LINE
  5
184
330
36
100
AcDbEntity
  8
尺寸线层
  6
Continuous
 62
0
440
16777216
100
AcDbLine
 10
97.79799279533543
 20
104.6974521577502
 30
0.0
 11
97.79799279533543
 21
83.59271516735058
 31
0.0
  0
MTEXT
  5
185
330
36
100
AcDbEntity
  8
尺寸线层
 62
0
440
16777216
100
AcDbMText
 10
152.7979922953355
 20
89.78021516735058
 30
0.0
 40
4.5
 41
0.0
 46
9.0
 71
5
  1
110 (REF)
 44
1.150569886022795
1001
CAXA_DRAFT_TXTSCALE
1041
1.0
  0
ENDBLK
  5
17F
330
36
100
AcDbEntity
  8
0
100
AcDbBlockEnd
  0
BLOCK
  5
186
330
3A
100
AcDbEntity
  8
0
100
AcDbBlockBegin
  2
*X11
 70
1
 10
0.0
 20
0.0
 30
0.0
  3
*X11
  1

  0
LINE
  5
188
330
3A
100
AcDbEntity
  8
尺寸线层
  6
Continuous
 62
0
440
16777216
100
AcDbLine
 10
77.79799279533542
 20
86.59271516735141
 30
0.0
 11
97.79799279533543
 21
86.5927151673514
 31
0.0
  0
HATCH
  5
189
330
3A
100
AcDbEntity
  8
尺寸线层
  6
Continuous
 62
0
440
16777216
100
AcDbHatch
 10
0.0
 20
0.0
 30
0.0
210
0.0
220
0.0
230
1.0
  2
SOLID
 70
1
 71
0
 91
1
 92
0
 93
3
 72
1
 10
77.79799279533542
 20
86.59271516735141
 11
83.79799279533542
 21
87.3427151673514
 72
1
 10
83.79799279533542
 20
87.3427151673514
 11
83.79799279533542
 21
85.8427151673514
 72
1
 10
83.79799279533542
 20
85.8427151673514
 11
77.79799279533542
 21
86.59271516735141
 97
0
 75
0
 76
1
 98
1
 10
0.0
 20
0.0
  0
HATCH
  5
18A
330
3A
100
AcDbEntity
  8
尺寸线层
  6
Continuous
 62
0
440
16777216
100
AcDbHatch
 10
0.0
 20
0.0
 30
0.0
210
0.0
220
0.0
230
1.0
  2
SOLID
 70
1
 71
0
 91
1
 92
0
 93
3
 72
1
 10
97.79799279533543
 20
86.5927151673514
 11
91.79799279533543
 21
87.3427151673514
 72
1
 10
91.79799279533543
 20
87.3427151673514
 11
91.79799279533543
 21
85.8427151673514
 72
1
 10
91.79799279533543
 20
85.8427151673514
 11
97.79799279533543
 21
86.5927151673514
 97
0
 75
0
 76
1
 98
1
 10
0.0
 20
0.0
  0
LINE
  5
18B
330
3A
100
AcDbEntity
  8
尺寸线层
  6
Continuous
 62
0
440
16777216
100
AcDbLine
 10
77.79799279533542
 20
110.3156071070889
 30
0.0
 11
77.79799279533542
 21
83.59271516735141
 31
0.0
  0
LINE
  5
18C
330
3A
100
AcDbEntity
  8
尺寸线层
  6
Continuous
 62
0
440
16777216
100
AcDbLine
 10
97.79799279533543
 20
104.6853571070099
 30
0.0
 11
97.79799279533543
 21
83.5927151673514
 31
0.0
  0
MTEXT
  5
18D
330
3A
100
AcDbEntity
  8
尺寸线层
 62
0
440
16777216
100
AcDbMText
 10
87.79799329533542
 20
89.7802151673514
 30
0.0
 40
4.5
 41
9.0
 46
9.0
 71
5
  1
\T1.1;20
  7
标准
 44
1.150569886022795
1001
CAXA_DRAFT_TXTSCALE
1041
1.0
  0
ENDBLK
  5
187
330
3A
100
AcDbEntity
  8
0
100
AcDbBlockEnd
  0
BLOCK
  5
18E
330
3B
100
AcDbEntity
  8
0
100
AcDbBlockBegin
  2
*X12
 70
1
 10
0.0
 20
0.0
 30
0.0
  3
*X12
  1

  0
LINE
  5
190
330
3B
100
AcDbEntity
  8
尺寸线层
  6
Continuous
 62
0
440
16777216
100
AcDbLine
 10
77.79799279533542
 20
86.59271516735114
 30
0.0
 11
60.7979927953354
 21
86.59271516735114
 31
0.0
  0
HATCH
  5
191
330
3B
100
AcDbEntity
  8
尺寸线层
  6
Continuous
 62
0
440
16777216
100
AcDbHatch
 10
0.0
 20
0.0
 30
0.0
210
0.0
220
0.0
230
1.0
  2
SOLID
 70
1
 71
0
 91
1
 92
0
 93
3
 72
1
 10
77.79799279533542
 20
86.59271516735114
 11
71.79799279533542
 21
85.84271516735114
 72
1
 10
71.79799279533542
 20
85.84271516735114
 11
71.79799279533542
 21
87.34271516735114
 72
1
 10
71.79799279533542
 20
87.34271516735114
 11
77.79799279533542
 21
86.59271516735114
 97
0
 75
0
 76
1
 98
1
 10
0.0
 20
0.0
  0
HATCH
  5
192
330
3B
100
AcDbEntity
  8
尺寸线层
  6
Continuous
 62
0
440
16777216
100
AcDbHatch
 10
0.0
 20
0.0
 30
0.0
210
0.0
220
0.0
230
1.0
  2
SOLID
 70
1
 71
0
 91
1
 92
0
 93
3
 72
1
 10
60.7979927953354
 20
86.59271516735114
 11
66.79799279533542
 21
85.84271516735114
 72
1
 10
66.79799279533542
 20
85.84271516735114
 11
66.79799279533542
 21
87.34271516735114
 72
1
 10
66.79799279533542
 20
87.34271516735114
 11
60.7979927953354
 21
86.59271516735114
 97
0
 75
0
 76
1
 98
1
 10
0.0
 20
0.0
  0
LINE
  5
193
330
3B
100
AcDbEntity
  8
尺寸线层
  6
Continuous
 62
0
440
16777216
100
AcDbLine
 10
77.79799279533542
 20
110.3156071070889
 30
0.0
 11
77.79799279533542
 21
83.59271516735114
 31
0.0
  0
LINE
  5
194
330
3B
100
AcDbEntity
  8
尺寸线层
  6
Continuous
 62
0
440
16777216
100
AcDbLine
 10
60.7979927953354
 20
112.4656071067578
 30
0.0
 11
60.7979927953354
 21
83.59271516735114
 31
0.0
  0
MTEXT
  5
195
330
3B
100
AcDbEntity
  8
尺寸线层
 62
0
440
16777216
100
AcDbMText
 10
69.29799229533542
 20
89.78021516735114
 30
0.0
 40
4.5
 41
9.0
 46
9.0
 71
5
  1
\T1.1;17
  7
标准
 44
1.150569886022795
1001
CAXA_DRAFT_TXTSCALE
1041
1.0
  0
ENDBLK
  5
18F
330
3B
100
AcDbEntity
  8
0
100
AcDbBlockEnd
  0
BLOCK
  5
196
330
3C
100
AcDbEntity
  8
0
100
AcDbBlockBegin
  2
*X13
 70
1
 10
0.0
 20
0.0
 30
0.0
  3
*X13
  1

  0
LINE
  5
198
330
3C
100
AcDbEntity
  8
尺寸线层
  6
Continuous
 62
0
440
16777216
100
AcDbLine
 10
66.79799279533542
 20
86.5927151673512
 30
0.0
 11
39.79799279513531
 21
86.5927151673512
 31
0.0
  0
HATCH
  5
199
330
3C
100
AcDbEntity
  8
尺寸线层
  6
Continuous
 62
0
440
16777216
100
AcDbHatch
 10
0.0
 20
0.0
 30
0.0
210
0.0
220
0.0
230
1.0
  2
SOLID
 70
1
 71
0
 91
1
 92
0
 93
3
 72
1
 10
60.7979927953354
 20
86.5927151673512
 11
66.79799279533542
 21
85.8427151673512
 72
1
 10
66.79799279533542
 20
85.8427151673512
 11
66.79799279533542
 21
87.3427151673512
 72
1
 10
66.79799279533542
 20
87.3427151673512
 11
60.7979927953354
 21
86.5927151673512
 97
0
 75
0
 76
1
 98
1
 10
0.0
 20
0.0
  0
HATCH
  5
19A
330
3C
100
AcDbEntity
  8
尺寸线层
  6
Continuous
 62
0
440
16777216
100
AcDbHatch
 10
0.0
 20
0.0
 30
0.0
210
0.0
220
0.0
230
1.0
  2
SOLID
 70
1
 71
0
 91
1
 92
0
 93
3
 72
1
 10
45.79799279513531
 20
86.5927151673512
 11
39.79799279513531
 21
85.84271516735123
 72
1
 10
39.79799279513531
 20
85.84271516735123
 11
39.79799279513531
 21
87.34271516735123
 72
1
 10
39.79799279513531
 20
87.34271516735123
 11
45.79799279513531
 21
86.5927151673512
 97
0
 75
0
 76
1
 98
1
 10
0.0
 20
0.0
  0
LINE
  5
19B
330
3C
100
AcDbEntity
  8
尺寸线层
  6
Continuous
 62
0
440
16777216
100
AcDbLine
 10
60.7979927953354
 20
112.4656071067578
 30
0.0
 11
60.7979927953354
 21
83.5927151673512
 31
0.0
  0
LINE
  5
19C
330
3C
100
AcDbEntity
  8
尺寸线层
  6
Continuous
 62
0
440
16777216
100
AcDbLine
 10
45.79799279513531
 20
113.3156071067577
 30
0.0
 11
45.79799279513531
 21
83.5927151673512
 31
0.0
  0
MTEXT
  5
19D
330
3C
100
AcDbEntity
  8
尺寸线层
 62
0
440
16777216
100
AcDbMText
 10
53.2979922952353
 20
89.7802151673512
 30
0.0
 40
4.5
 41
9.0
 46
9.0
 71
5
  1
\T1.1;15
  7
标准
 44
1.150569886022795
1001
CAXA_DRAFT_TXTSCALE
1041
1.0
  0
ENDBLK
  5
197
330
3C
100
AcDbEntity
  8
0
100
AcDbBlockEnd
  0
BLOCK
  5
19E
330
3D
100
AcDbEntity
  8
0
100
AcDbBlockBegin
  2
*X14
 70
1
 10
0.0
 20
0.0
 30
0.0
  3
*X14
  1

  0
LINE
  5
1A0
330
3D
100
AcDbEntity
  8
尺寸线层
  6
Continuous
 62
0
440
16777216
100
AcDbLine
 10
84.16658603087592
 20
102.0656071070099
 30
0.0
 11
84.16658603087592
 21
159.5621973326491
 31
0.0
  0
HATCH
  5
1A1
330
3D
100
AcDbEntity
  8
尺寸线层
  6
Continuous
 62
0
440
16777216
100
AcDbHatch
 10
0.0
 20
0.0
 30
0.0
210
0.0
220
0.0
230
1.0
  2
SOLID
 70
1
 71
0
 91
1
 92
0
 93
3
 72
1
 10
84.16658603087592
 20
108.0656071070099
 11
83.41658603087592
 21
102.0656071070099
 72
1
 10
83.41658603087592
 20
102.0656071070099
 11
84.91658603087592
 21
102.0656071070099
 72
1
 10
84.91658603087592
 20
102.0656071070099
 11
84.16658603087592
 21
108.0656071070099
 97
0
 75
0
 76
1
 98
1
 10
0.0
 20
0.0
  0
HATCH
  5
1A2
330
3D
100
AcDbEntity
  8
尺寸线层
  6
Continuous
 62
0
440
16777216
100
AcDbHatch
 10
0.0
 20
0.0
 30
0.0
210
0.0
220
0.0
230
1.0
  2
SOLID
 70
1
 71
0
 91
1
 92
0
 93
3
 72
1
 10
84.16658603087592
 20
133.5656071070098
 11
83.41658603087592
 21
139.5656071070098
 72
1
 10
83.41658603087592
 20
139.5656071070098
 11
84.91658603087592
 21
139.5656071070098
 72
1
 10
84.91658603087592
 20
139.5656071070098
 11
84.16658603087592
 21
133.5656071070098
 97
0
 75
0
 76
1
 98
1
 10
0.0
 20
0.0
  0
LINE
  5
1A3
330
3D
100
AcDbEntity
  8
尺寸线层
  6
Continuous
 62
0
440
16777216
100
AcDbLine
 10
83.48441548824032
 20
108.0656071070099
 30
0.0
 11
87.16658603087592
 21
108.0656071070099
 31
0.0
  0
LINE
  5
1A4
330
3D
100
AcDbEntity
  8
尺寸线层
  6
Continuous
 62
0
440
16777216
100
AcDbLine
 10
84.62136639263302
 20
133.5656071070098
 30
0.0
 11
81.16658603087592
 21
133.5656071070098
 31
0.0
  0
MTEXT
  5
1A5
330
3D
100
AcDbEntity
  8
尺寸线层
 62
0
440
16777216
100
AcDbMText
 10
80.50408603087591
 20
152.7171098326491
 30
0.0
 40
4.5
 41
27.38034999999999
 46
9.0
 71
5
  1
\T1.1;NPT3/4
  7
标准
 11
6.123233995736766e-17
 21
1.0
 31
0.0
 44
1.150569886022795
1001
CAXA_DRAFT_TXTSCALE
1041
1.0
  0
ENDBLK
  5
19F
330
3D
100
AcDbEntity
  8
0
100
AcDbBlockEnd
  0
BLOCK
  5
1A6
330
3E
100
AcDbEntity
  8
0
100
AcDbBlockBegin
  2
*X15
 70
1
 10
0.0
 20
0.0
 30
0.0
  3
*X15
  1

  0
LINE
  5
1A8
330
3E
100
AcDbEntity
  8
尺寸线层
  6
Continuous
 62
0
440
16777216
100
AcDbLine
 10
225.7979927953355
 20
86.59271516735132
 30
0.0
 11
207.7979927953355
 21
86.59271516735132
 31
0.0
  0
HATCH
  5
1A9
330
3E
100
AcDbEntity
  8
尺寸线层
  6
Continuous
 62
0
440
16777216
100
AcDbHatch
 10
0.0
 20
0.0
 30
0.0
210
0.0
220
0.0
230
1.0
  2
SOLID
 70
1
 71
0
 91
1
 92
0
 93
3
 72
1
 10
225.7979927953355
 20
86.59271516735132
 11
219.7979927953355
 21
85.84271516735132
 72
1
 10
219.7979927953355
 20
85.84271516735132
 11
219.7979927953355
 21
87.34271516735132
 72
1
 10
219.7979927953355
 20
87.34271516735132
 11
225.7979927953355
 21
86.59271516735132
 97
0
 75
0
 76
1
 98
1
 10
0.0
 20
0.0
  0
HATCH
  5
1AA
330
3E
100
AcDbEntity
  8
尺寸线层
  6
Continuous
 62
0
440
16777216
100
AcDbHatch
 10
0.0
 20
0.0
 30
0.0
210
0.0
220
0.0
230
1.0
  2
SOLID
 70
1
 71
0
 91
1
 92
0
 93
3
 72
1
 10
207.7979927953355
 20
86.59271516735132
 11
213.7979927953355
 21
85.84271516735132
 72
1
 10
213.7979927953355
 20
85.84271516735132
 11
213.7979927953355
 21
87.34271516735132
 72
1
 10
213.7979927953355
 20
87.34271516735132
 11
207.7979927953355
 21
86.59271516735132
 97
0
 75
0
 76
1
 98
1
 10
0.0
 20
0.0
  0
LINE
  5
1AB
330
3E
100
AcDbEntity
  8
尺寸线层
  6
Continuous
 62
0
440
16777216
100
AcDbLine
 10
225.7979927953355
 20
109.0656071070099
 30
0.0
 11
225.7979927953355
 21
83.59271516735132
 31
0.0
  0
LINE
  5
1AC
330
3E
100
AcDbEntity
  8
尺寸线层
  6
Continuous
 62
0
440
16777216
100
AcDbLine
 10
207.7979927953355
 20
104.6974521577507
 30
0.0
 11
207.7979927953355
 21
83.59271516735132
 31
0.0
  0
MTEXT
  5
1AD
330
3E
100
AcDbEntity
  8
尺寸线层
 62
0
440
16777216
100
AcDbMText
 10
216.7979922953355
 20
89.78021516735132
 30
0.0
 40
4.5
 41
9.0
 46
9.0
 71
5
  1
\T1.1;18
  7
标准
 44
1.150569886022795
1001
CAXA_DRAFT_TXTSCALE
1041
1.0
  0
ENDBLK
  5
1A7
330
3E
100
AcDbEntity
  8
0
100
AcDbBlockEnd
  0
BLOCK
  5
1AE
330
3F
100
AcDbEntity
  8
0
100
AcDbBlockBegin
  2
*X16
 70
1
 10
0.0
 20
0.0
 30
0.0
  3
*X16
  1

  0
LINE
  5
1B0
330
3F
100
AcDbEntity
  8
尺寸线层
  6
Continuous
 62
0
440
16777216
100
AcDbLine
 10
216.7979927953355
 20
102.0656071070099
 30
0.0
 11
216.7979927953355
 21
159.5621973326493
 31
0.0
  0
HATCH
  5
1B1
330
3F
100
AcDbEntity
  8
尺寸线层
  6
Continuous
 62
0
440
16777216
100
AcDbHatch
 10
0.0
 20
0.0
 30
0.0
210
0.0
220
0.0
230
1.0
  2
SOLID
 70
1
 71
0
 91
1
 92
0
 93
3
 72
1
 10
216.7979927953355
 20
108.0656071070099
 11
216.0479927953355
 21
102.0656071070099
 72
1
 10
216.0479927953355
 20
102.0656071070099
 11
217.5479927953355
 21
102.0656071070099
 72
1
 10
217.5479927953355
 20
102.0656071070099
 11
216.7979927953355
 21
108.0656071070099
 97
0
 75
0
 76
1
 98
1
 10
0.0
 20
0.0
  0
HATCH
  5
1B2
330
3F
100
AcDbEntity
  8
尺寸线层
  6
Continuous
 62
0
440
16777216
100
AcDbHatch
 10
0.0
 20
0.0
 30
0.0
210
0.0
220
0.0
230
1.0
  2
SOLID
 70
1
 71
0
 91
1
 92
0
 93
3
 72
1
 10
216.7979927953355
 20
133.5656071070099
 11
216.0479927953355
 21
139.5656071070099
 72
1
 10
216.0479927953355
 20
139.5656071070099
 11
217.5479927953355
 21
139.5656071070099
 72
1
 10
217.5479927953355
 20
139.5656071070099
 11
216.7979927953355
 21
133.5656071070099
 97
0
 75
0
 76
1
 98
1
 10
0.0
 20
0.0
  0
LINE
  5
1B3
330
3F
100
AcDbEntity
  8
尺寸线层
  6
Continuous
 62
0
440
16777216
100
AcDbLine
 10
215.9369401317462
 20
108.0656071070099
 30
0.0
 11
219.7979927953355
 21
108.0656071070099
 31
0.0
  0
LINE
  5
1B4
330
3F
100
AcDbEntity
  8
尺寸线层
  6
Continuous
 62
0
440
16777216
100
AcDbLine
 10
217.1496877630986
 20
133.5656071070099
 30
0.0
 11
213.7979927953355
 21
133.5656071070099
 31
0.0
  0
MTEXT
  5
1B5
330
3F
100
AcDbEntity
  8
尺寸线层
 62
0
440
16777216
100
AcDbMText
 10
213.1354927953355
 20
152.7171098326494
 30
0.0
 40
4.5
 41
27.38034999999999
 46
9.0
 71
5
  1
\T1.1;NPT3/4
  7
标准
 11
6.123233995736766e-17
 21
1.0
 31
0.0
 44
1.150569886022795
1001
CAXA_DRAFT_TXTSCALE
1041
1.0
  0
ENDBLK
  5
1AF
330
3F
100
AcDbEntity
  8
0
100
AcDbBlockEnd
  0
BLOCK
  5
1B6
330
40
100
AcDbEntity
  8
0
100
AcDbBlockBegin
  2
*X17
 70
1
 10
0.0
 20
0.0
 30
0.0
  3
*X17
  1

  0
LINE
  5
1B8
330
40
100
AcDbEntity
  8
尺寸线层
  6
Continuous
 62
0
440
16777216
100
AcDbLine
 10
248.7979927953355
 20
86.59271516735123
 30
0.0
 11
225.7979927953355
 21
86.59271516735123
 31
0.0
  0
HATCH
  5
1B9
330
40
100
AcDbEntity
  8
尺寸线层
  6
Continuous
 62
0
440
16777216
100
AcDbHatch
 10
0.0
 20
0.0
 30
0.0
210
0.0
220
0.0
230
1.0
  2
SOLID
 70
1
 71
0
 91
1
 92
0
 93
3
 72
1
 10
248.7979927953355
 20
86.59271516735123
 11
242.7979927953355
 21
85.84271516735123
 72
1
 10
242.7979927953355
 20
85.84271516735123
 11
242.7979927953355
 21
87.34271516735123
 72
1
 10
242.7979927953355
 20
87.34271516735123
 11
248.7979927953355
 21
86.59271516735123
 97
0
 75
0
 76
1
 98
1
 10
0.0
 20
0.0
  0
HATCH
  5
1BA
330
40
100
AcDbEntity
  8
尺寸线层
  6
Continuous
 62
0
440
16777216
100
AcDbHatch
 10
0.0
 20
0.0
 30
0.0
210
0.0
220
0.0
230
1.0
  2
SOLID
 70
1
 71
0
 91
1
 92
0
 93
3
 72
1
 10
225.7979927953355
 20
86.59271516735123
 11
231.7979927953355
 21
85.84271516735123
 72
1
 10
231.7979927953355
 20
85.84271516735123
 11
231.7979927953355
 21
87.34271516735123
 72
1
 10
231.7979927953355
 20
87.34271516735123
 11
225.7979927953355
 21
86.59271516735123
 97
0
 75
0
 76
1
 98
1
 10
0.0
 20
0.0
  0
LINE
  5
1BB
330
40
100
AcDbEntity
  8
尺寸线层
  6
Continuous
 62
0
440
16777216
100
AcDbLine
 10
248.7979927953355
 20
110.8156071070099
 30
0.0
 11
248.7979927953355
 21
83.59271516735123
 31
0.0
  0
LINE
  5
1BC
330
40
100
AcDbEntity
  8
尺寸线层
  6
Continuous
 62
0
440
16777216
100
AcDbLine
 10
225.7979927953355
 20
110.8156071070099
 30
0.0
 11
225.7979927953355
 21
83.59271516735123
 31
0.0
  0
MTEXT
  5
1BD
330
40
100
AcDbEntity
  8
尺寸线层
 62
0
440
16777216
100
AcDbMText
 10
237.2979922953355
 20
89.78021516735123
 30
0.0
 40
4.5
 41
9.0
 46
9.0
 71
5
  1
\T1.1;23
  7
标准
 44
1.150569886022795
1001
CAXA_DRAFT_TXTSCALE
1041
1.0
  0
ENDBLK
  5
1B7
330
40
100
AcDbEntity
  8
0
100
AcDbBlockEnd
  0
BLOCK
  5
1BE
330
41
100
AcDbEntity
  8
0
100
AcDbBlockBegin
  2
*X18
 70
1
 10
0.0
 20
0.0
 30
0.0
  3
*X18
  1

  0
LINE
  5
1C0
330
41
100
AcDbEntity
  8
尺寸线层
  6
Continuous
 62
0
440
16777216
100
AcDbLine
 10
264.2020072048647
 20
104.8156071070099
 30
0.0
 11
264.2020072048647
 21
144.2126470231342
 31
0.0
  0
HATCH
  5
1C1
330
41
100
AcDbEntity
  8
尺寸线层
  6
Continuous
 62
0
440
16777216
100
AcDbHatch
 10
0.0
 20
0.0
 30
0.0
210
0.0
220
0.0
230
1.0
  2
SOLID
 70
1
 71
0
 91
1
 92
0
 93
3
 72
1
 10
264.2020072048647
 20
110.8156071070099
 11
263.4520072048647
 21
104.8156071070099
 72
1
 10
263.4520072048647
 20
104.8156071070099
 11
264.9520072048647
 21
104.8156071070099
 72
1
 10
264.9520072048647
 20
104.8156071070099
 11
264.2020072048647
 21
110.8156071070099
 97
0
 75
0
 76
1
 98
1
 10
0.0
 20
0.0
  0
HATCH
  5
1C2
330
41
100
AcDbEntity
  8
尺寸线层
  6
Continuous
 62
0
440
16777216
100
AcDbHatch
 10
0.0
 20
0.0
 30
0.0
210
0.0
220
0.0
230
1.0
  2
SOLID
 70
1
 71
0
 91
1
 92
0
 93
3
 72
1
 10
264.2020072048647
 20
130.8156071070099
 11
263.4520072048647
 21
136.8156071070099
 72
1
 10
263.4520072048647
 20
136.8156071070099
 11
264.9520072048647
 21
136.8156071070099
 72
1
 10
264.9520072048647
 20
136.8156071070099
 11
264.2020072048647
 21
130.8156071070099
 97
0
 75
0
 76
1
 98
1
 10
0.0
 20
0.0
  0
LINE
  5
1C3
330
41
100
AcDbEntity
  8
尺寸线层
  6
Continuous
 62
0
440
16777216
100
AcDbLine
 10
248.7979927953355
 20
110.8156071070099
 30
0.0
 11
267.2020072048647
 21
110.8156071070099
 31
0.0
  0
LINE
  5
1C4
330
41
100
AcDbEntity
  8
尺寸线层
  6
Continuous
 62
0
440
16777216
100
AcDbLine
 10
248.7979927953355
 20
130.8156071070099
 30
0.0
 11
267.2020072048647
 21
130.8156071070099
 31
0.0
  0
MTEXT
  5
1C5
330
41
100
AcDbEntity
  8
尺寸线层
 62
0
440
16777216
100
AcDbMText
 10
261.0145072048647
 20
140.9726945231342
 30
0.0
 40
4.5
 41
12.95981
 46
9.0
 71
5
  1
\T1.1;%%C20
  7
标准
 11
6.123233995736766e-17
 21
1.0
 31
0.0
 44
1.150569886022795
1001
CAXA_DRAFT_TXTSCALE
1041
1.0
  0
ENDBLK
  5
1BF
330
41
100
AcDbEntity
  8
0
100
AcDbBlockEnd
  0
ENDSEC
  0
SECTION
  2
ENTITIES
  0
LINE
  5
42
330
17
100
AcDbEntity
  8
WB_OUTLINE
100
AcDbLine
 10
97.79799279533543
 20
104.6853571070099
 30
0.0
 11
207.7979927953355
 21
104.68535710701
 31
0.0
  0
LINE
  5
43
330
17
100
AcDbEntity
  8
WB_OUTLINE
100
AcDbLine
 10
207.7979927953355
 20
136.9458571070098
 30
0.0
 11
97.79799279533543
 21
136.9458571070098
 31
0.0
  0
LINE
  5
44
330
17
100
AcDbEntity
  8
WB_OUTLINE
100
AcDbLine
 10
97.79799279533543
 20
112.2156649814536
 30
0.0
 11
97.79799279533543
 21
104.6974521577502
 31
0.0
  0
LINE
  5
45
330
17
100
AcDbEntity
  8
WB_OUTLINE
100
AcDbLine
 10
207.7979927953355
 20
112.2156649814541
 30
0.0
 11
207.7979927953355
 21
113.2973942833067
 31
0.0
  0
LINE
  5
46
330
17
100
AcDbEntity
  8
WB_OUTLINE
100
AcDbLine
 10
118.2999927953361
 20
108.1809299399955
 30
0.0
 11
118.2999927953361
 21
106.5212736827028
 31
0.0
  0
LINE
  5
47
330
17
100
AcDbEntity
  8
WB_OUTLINE
100
AcDbLine
 10
188.2284927953361
 20
110.7271564652727
 30
0.0
 11
188.2284927953361
 21
108.5379957567287
 31
0.0
  0
LINE
  5
48
330
17
100
AcDbEntity
  8
WB_OUTLINE
100
AcDbLine
 10
207.7979927953355
 20
104.6974521577507
 30
0.0
 11
207.7979927953355
 21
112.2156649814541
 31
0.0
  0
LINE
  5
49
330
17
100
AcDbEntity
  8
WB_OUTLINE
100
AcDbLine
 10
97.79799279533589
 20
112.2156649814536
 30
0.0
 11
207.7979927953355
 21
112.2156649814541
 31
0.0
  0
LINE
  5
4A
330
17
100
AcDbEntity
  8
WB_OUTLINE
100
AcDbLine
 10
118.2999927953361
 20
105.1970265993075
 30
0.0
 11
187.725992795336
 21
105.1970265993072
 31
0.0
  0
LINE
  5
4B
330
17
100
AcDbEntity
  8
WB_OUTLINE
100
AcDbLine
 10
207.7979927953355
 20
136.9458571070098
 30
0.0
 11
207.7979927953355
 21
136.9337620562695
 31
0.0
  0
LINE
  5
4C
330
17
100
AcDbEntity
  8
WB_OUTLINE
100
AcDbLine
 10
117.797492795336
 20
110.7271564652727
 30
0.0
 11
117.797492795336
 21
108.5379957567287
 31
0.0
  0
LINE
  5
4D
330
17
100
AcDbEntity
  8
WB_OUTLINE
100
AcDbLine
 10
188.2284927953361
 20
130.9040577487466
 30
0.0
 11
188.2284927953361
 21
133.0932184572915
 31
0.0
  0
LINE
  5
4E
330
17
100
AcDbEntity
  8
WB_OUTLINE
100
AcDbLine
 10
118.2999927953361
 20
133.4502842740247
 30
0.0
 11
187.725992795336
 21
133.4502842740247
 31
0.0
  0
LINE
  5
4F
330
17
100
AcDbEntity
  8
WB_OUTLINE
100
AcDbLine
 10
97.79799279533543
 20
128.3338199307134
 30
0.0
 11
97.79799279533543
 21
113.2973942833062
 31
0.0
  0
LINE
  5
50
330
17
100
AcDbEntity
  8
WB_OUTLINE
100
AcDbLine
 10
97.79799279533543
 20
113.2973942833062
 30
0.0
 11
207.797992795335
 21
113.2973942833067
 31
0.0
  0
LINE
  5
51
330
17
100
AcDbEntity
  8
WB_OUTLINE
100
AcDbLine
 10
118.2999927953361
 20
133.4502842740247
 30
0.0
 11
118.2999927953361
 21
135.1099405313169
 31
0.0
  0
LINE
  5
52
330
17
100
AcDbEntity
  8
WB_OUTLINE
100
AcDbLine
 10
117.797492795336
 20
106.1859606739316
 30
0.0
 11
117.797492795336
 21
107.0060053653818
 31
0.0
  0
LINE
  5
53
330
17
100
AcDbEntity
  8
WB_OUTLINE
100
AcDbLine
 10
207.7979927953355
 20
113.2973942833067
 30
0.0
 11
207.7979927953355
 21
128.3338199307135
 31
0.0
  0
LINE
  5
54
330
17
100
AcDbEntity
  8
WB_OUTLINE
100
AcDbLine
 10
97.79799279533543
 20
113.2973942833062
 30
0.0
 11
97.79799279533543
 21
112.2156649814536
 31
0.0
  0
LINE
  5
55
330
17
100
AcDbEntity
  8
WB_OUTLINE
100
AcDbLine
 10
188.2284927953361
 20
106.1859606739316
 30
0.0
 11
188.2284927953361
 21
107.0060053653818
 31
0.0
  0
LINE
  5
56
330
17
100
AcDbEntity
  8
WB_OUTLINE
100
AcDbLine
 10
118.2999927953361
 20
135.1099405313169
 30
0.0
 11
187.725992795336
 21
135.1099405313174
 31
0.0
  0
LINE
  5
57
330
17
100
AcDbEntity
  8
WB_OUTLINE
100
AcDbLine
 10
118.2999927953361
 20
106.5212736827028
 30
0.0
 11
187.725992795336
 21
106.5212736827028
 31
0.0
  0
LINE
  5
58
330
17
100
AcDbEntity
  8
WB_OUTLINE
100
AcDbLine
 10
187.725992795336
 20
133.4502842740247
 30
0.0
 11
187.725992795336
 21
135.1099405313174
 31
0.0
  0
LINE
  5
59
330
17
100
AcDbEntity
  8
WB_OUTLINE
100
AcDbLine
 10
187.725992795336
 20
136.4341876147131
 30
0.0
 11
187.725992795336
 21
135.1099405313174
 31
0.0
  0
LINE
  5
5A
330
17
100
AcDbEntity
  8
WB_OUTLINE
100
AcDbLine
 10
118.2999927953361
 20
108.1809299399955
 30
0.0
 11
187.725992795336
 21
108.1809299399955
 31
0.0
  0
LINE
  5
5B
330
17
100
AcDbEntity
  8
WB_OUTLINE
100
AcDbLine
 10
118.2999927953361
 20
129.9151236741225
 30
0.0
 11
187.725992795336
 21
129.9151236741226
 31
0.0
  0
LINE
  5
5C
330
17
100
AcDbEntity
  8
WB_OUTLINE
100
AcDbLine
 10
118.2999927953361
 20
105.1970265993071
 30
0.0
 11
118.2999927953361
 21
106.5212736827023
 31
0.0
  0
LINE
  5
5D
330
17
100
AcDbEntity
  8
WB_OUTLINE
100
AcDbLine
 10
118.2999927953361
 20
133.4502842740247
 30
0.0
 11
118.2999927953361
 21
129.9151236741225
 31
0.0
  0
LINE
  5
5E
330
17
100
AcDbEntity
  8
WB_OUTLINE
100
AcDbLine
 10
187.725992795336
 20
108.1809299399955
 30
0.0
 11
187.725992795336
 21
106.5212736827028
 31
0.0
  0
LINE
  5
5F
330
17
100
AcDbEntity
  8
WB_OUTLINE
100
AcDbLine
 10
117.797492795336
 20
130.9040577487465
 30
0.0
 11
117.797492795336
 21
133.093218457291
 31
0.0
  0
LINE
  5
60
330
17
100
AcDbEntity
  8
WB_OUTLINE
100
AcDbLine
 10
118.2999927953361
 20
129.9151236741221
 30
0.0
 11
118.2999927953361
 21
133.4502842740247
 31
0.0
  0
LINE
  5
61
330
17
100
AcDbEntity
  8
WB_OUTLINE
100
AcDbLine
 10
187.725992795336
 20
133.4502842740247
 30
0.0
 11
118.2999927953361
 21
133.4502842740247
 31
0.0
  0
LINE
  5
62
330
17
100
AcDbEntity
  8
WB_OUTLINE
100
AcDbLine
 10
117.797492795336
 20
134.6252088486379
 30
0.0
 11
117.797492795336
 21
133.093218457291
 31
0.0
  0
LINE
  5
63
330
17
100
AcDbEntity
  8
WB_OUTLINE
100
AcDbLine
 10
118.2999927953361
 20
106.5212736827028
 30
0.0
 11
118.2999927953361
 21
108.1809299399955
 31
0.0
  0
LINE
  5
64
330
17
100
AcDbEntity
  8
WB_OUTLINE
100
AcDbLine
 10
187.725992795336
 20
136.4341876147131
 30
0.0
 11
187.725992795336
 21
135.1099405313174
 31
0.0
  0
LINE
  5
65
330
17
100
AcDbEntity
  8
WB_OUTLINE
100
AcDbLine
 10
187.725992795336
 20
105.1970265993072
 30
0.0
 11
187.725992795336
 21
106.5212736827028
 31
0.0
  0
LINE
  5
66
330
17
100
AcDbEntity
  8
WB_OUTLINE
100
AcDbLine
 10
187.725992795336
 20
111.7160905398972
 30
0.0
 11
118.2999927953361
 21
111.7160905398967
 31
0.0
  0
LINE
  5
67
330
17
100
AcDbEntity
  8
WB_OUTLINE
100
AcDbLine
 10
187.725992795336
 20
135.1099405313174
 30
0.0
 11
118.2999927953361
 21
135.1099405313169
 31
0.0
  0
LINE
  5
68
330
17
100
AcDbEntity
  8
WB_OUTLINE
100
AcDbLine
 10
187.725992795336
 20
136.4341876147131
 30
0.0
 11
118.2999927953361
 21
136.4341876147126
 31
0.0
  0
LINE
  5
69
330
17
100
AcDbEntity
  8
WB_OUTLINE
100
AcDbLine
 10
188.2284927953361
 20
107.0060053653818
 30
0.0
 11
188.2284927953361
 21
108.5379957567287
 31
0.0
  0
LINE
  5
6A
330
17
100
AcDbEntity
  8
WB_OUTLINE
100
AcDbLine
 10
97.79799279533589
 20
136.933762056269
 30
0.0
 11
207.7979927953355
 21
136.9337620562695
 31
0.0
  0
LINE
  5
6B
330
17
100
AcDbEntity
  8
WB_OUTLINE
100
AcDbLine
 10
187.725992795336
 20
108.1809299399955
 30
0.0
 11
118.2999927953361
 21
108.1809299399955
 31
0.0
  0
LINE
  5
6C
330
17
100
AcDbEntity
  8
WB_OUTLINE
100
AcDbLine
 10
118.2999927953361
 20
111.7160905398967
 30
0.0
 11
118.2999927953361
 21
108.1809299399955
 31
0.0
  0
LINE
  5
6D
330
17
100
AcDbEntity
  8
WB_OUTLINE
100
AcDbLine
 10
187.725992795336
 20
129.9151236741226
 30
0.0
 11
187.725992795336
 21
133.4502842740247
 31
0.0
  0
LINE
  5
6E
330
17
100
AcDbEntity
  8
WB_OUTLINE
100
AcDbLine
 10
187.725992795336
 20
105.1970265993072
 30
0.0
 11
187.725992795336
 21
106.5212736827028
 31
0.0
  0
LINE
  5
6F
330
17
100
AcDbEntity
  8
WB_OUTLINE
100
AcDbLine
 10
97.79799279533543
 20
129.4155492325656
 30
0.0
 11
207.797992795335
 21
129.4155492325661
 31
0.0
  0
LINE
  5
70
330
17
100
AcDbEntity
  8
WB_OUTLINE
100
AcDbLine
 10
118.2999927953361
 20
108.1809299399955
 30
0.0
 11
118.2999927953361
 21
111.7160905398967
 31
0.0
  0
LINE
  5
71
330
17
100
AcDbEntity
  8
WB_OUTLINE
100
AcDbLine
 10
97.79799279533589
 20
128.3338199307134
 30
0.0
 11
207.7979927953355
 21
128.3338199307135
 31
0.0
  0
LINE
  5
72
330
17
100
AcDbEntity
  8
WB_OUTLINE
100
AcDbLine
 10
97.79799279533543
 20
104.6853571070099
 30
0.0
 11
97.79799279533543
 21
104.6974521577502
 31
0.0
  0
LINE
  5
73
330
17
100
AcDbEntity
  8
WB_OUTLINE
100
AcDbLine
 10
207.7979927953355
 20
104.6974521577507
 30
0.0
 11
207.7979927953355
 21
104.68535710701
 31
0.0
  0
LINE
  5
74
330
17
100
AcDbEntity
  8
WB_OUTLINE
100
AcDbLine
 10
97.79799279533543
 20
136.9337620562695
 30
0.0
 11
97.79799279533543
 21
136.9458571070098
 31
0.0
  0
LINE
  5
75
330
17
100
AcDbEntity
  8
WB_OUTLINE
100
AcDbLine
 10
117.797492795336
 20
108.5379957567287
 30
0.0
 11
117.797492795336
 21
107.0060053653818
 31
0.0
  0
LINE
  5
76
330
17
100
AcDbEntity
  8
WB_OUTLINE
100
AcDbLine
 10
187.725992795336
 20
111.7160905398968
 30
0.0
 11
187.725992795336
 21
108.1809299399955
 31
0.0
  0
LINE
  5
77
330
17
100
AcDbEntity
  8
WB_OUTLINE
100
AcDbLine
 10
187.725992795336
 20
106.5212736827028
 30
0.0
 11
187.725992795336
 21
108.1809299399955
 31
0.0
  0
LINE
  5
78
330
17
100
AcDbEntity
  8
WB_OUTLINE
100
AcDbLine
 10
118.2999927953361
 20
135.1099405313169
 30
0.0
 11
118.2999927953361
 21
133.4502842740247
 31
0.0
  0
LINE
  5
79
330
17
100
AcDbEntity
  8
WB_OUTLINE
100
AcDbLine
 10
188.2284927953361
 20
133.0932184572915
 30
0.0
 11
188.2284927953361
 21
134.6252088486384
 31
0.0
  0
LINE
  5
7A
330
17
100
AcDbEntity
  8
WB_OUTLINE
100
AcDbLine
 10
97.79799279533543
 20
129.4155492325656
 30
0.0
 11
97.79799279533543
 21
128.3338199307134
 31
0.0
  0
LINE
  5
7B
330
17
100
AcDbEntity
  8
WB_OUTLINE
100
AcDbLine
 10
187.725992795336
 20
129.9151236741221
 30
0.0
 11
187.725992795336
 21
133.4502842740247
 31
0.0
  0
LINE
  5
7C
330
17
100
AcDbEntity
  8
WB_OUTLINE
100
AcDbLine
 10
97.79799279533543
 20
136.9337620562695
 30
0.0
 11
97.79799279533543
 21
129.4155492325656
 31
0.0
  0
LINE
  5
7D
330
17
100
AcDbEntity
  8
WB_OUTLINE
100
AcDbLine
 10
118.2999927953361
 20
136.4341876147126
 30
0.0
 11
118.2999927953361
 21
135.1099405313169
 31
0.0
  0
LINE
  5
7E
330
17
100
AcDbEntity
  8
WB_OUTLINE
100
AcDbLine
 10
97.79799279533543
 20
104.6974521577502
 30
0.0
 11
207.797992795335
 21
104.6974521577507
 31
0.0
  0
LINE
  5
7F
330
17
100
AcDbEntity
  8
WB_OUTLINE
100
AcDbLine
 10
188.2284927953361
 20
135.4452535400886
 30
0.0
 11
188.2284927953361
 21
134.6252088486384
 31
0.0
  0
LINE
  5
80
330
17
100
AcDbEntity
  8
WB_OUTLINE
100
AcDbLine
 10
117.797492795336
 20
135.4452535400886
 30
0.0
 11
117.797492795336
 21
134.6252088486379
 31
0.0
  0
LINE
  5
81
330
17
100
AcDbEntity
  8
WB_OUTLINE
100
AcDbLine
 10
187.725992795336
 20
106.5212736827028
 30
0.0
 11
118.2999927953361
 21
106.5212736827028
 31
0.0
  0
LINE
  5
82
330
17
100
AcDbEntity
  8
WB_OUTLINE
100
AcDbLine
 10
187.725992795336
 20
135.1099405313174
 30
0.0
 11
187.725992795336
 21
133.4502842740247
 31
0.0
  0
LINE
  5
83
330
17
100
AcDbEntity
  8
WB_OUTLINE
100
AcDbLine
 10
118.2999927953361
 20
106.5212736827028
 30
0.0
 11
118.2999927953361
 21
105.1970265993075
 31
0.0
  0
LINE
  5
84
330
17
100
AcDbEntity
  8
WB_OUTLINE
100
AcDbLine
 10
187.725992795336
 20
111.7160905398968
 30
0.0
 11
187.725992795336
 21
108.1809299399955
 31
0.0
  0
LINE
  5
85
330
17
100
AcDbEntity
  8
WB_OUTLINE
100
AcDbLine
 10
118.2999927953361
 20
135.1099405313169
 30
0.0
 11
118.2999927953361
 21
136.4341876147126
 31
0.0
  0
ELLIPSE
  5
86
330
17
100
AcDbEntity
  8
WB_OUTLINE
100
AcDbEllipse
 10
187.725992795336
 20
106.1859606739316
 30
0.0
 11
-1.816642423584692e-16
 21
-0.9889340746243516
 31
0.0
 40
0.508122849534661
 41
0.0
 42
1.570796326794897
  0
ELLIPSE
  5
87
330
17
100
AcDbEntity
  8
WB_OUTLINE
100
AcDbEllipse
 10
118.2999927953361
 20
134.6252088486379
 30
0.0
 11
0.5025000000000001
 21
-1.23077003314309e-16
 31
0.0
 40
0.9646401645353792
 41
1.570796326794897
 42
3.141592653589793
  0
ELLIPSE
  5
88
330
17
100
AcDbEntity
  8
WB_OUTLINE
100
AcDbEllipse
 10
187.725992795336
 20
133.0932184572915
 30
0.0
 11
-0.5025000000000001
 21
6.15385016571545e-17
 31
0.0
 40
0.7105787397680543
 41
3.141592653589793
 42
4.71238898038469
  0
ELLIPSE
  5
89
330
17
100
AcDbEntity
  8
WB_OUTLINE
100
AcDbEllipse
 10
118.2999927953361
 20
108.5379957567287
 30
0.0
 11
0.5025000000000001
 21
-1.23077003314309e-16
 31
0.0
 40
0.7105787397680526
 41
3.141592653589793
 42
4.71238898038469
  0
ELLIPSE
  5
8A
330
17
100
AcDbEntity
  8
WB_OUTLINE
100
AcDbEllipse
 10
187.725992795336
 20
134.6252088486384
 30
0.0
 11
0.5025000000000001
 21
-1.23077003314309e-16
 31
0.0
 40
0.9646401645353794
 41
0.0
 42
1.570796326794897
  0
ELLIPSE
  5
8B
330
17
100
AcDbEntity
  8
WB_OUTLINE
100
AcDbEllipse
 10
118.2999927953361
 20
130.9040577487465
 30
0.0
 11
-1.816642423584779e-16
 21
-0.9889340746243982
 31
0.0
 40
0.5081228495346516
 41
4.71238898038469
 42
6.283185307179586
  0
ELLIPSE
  5
8C
330
17
100
AcDbEntity
  8
WB_OUTLINE
100
AcDbEllipse
 10
118.2999927953361
 20
133.093218457291
 30
0.0
 11
-0.5025000000000001
 21
6.15385016571545e-17
 31
0.0
 40
0.7105787397680543
 41
4.71238898038469
 42
6.283185307179586
  0
ELLIPSE
  5
8D
330
17
100
AcDbEntity
  8
WB_OUTLINE
100
AcDbEllipse
 10
187.725992795336
 20
108.5379957567287
 30
0.0
 11
0.5025000000000001
 21
-1.23077003314309e-16
 31
0.0
 40
0.7105787397680511
 41
4.71238898038469
 42
6.283185307179586
  0
ELLIPSE
  5
8E
330
17
100
AcDbEntity
  8
WB_OUTLINE
100
AcDbEllipse
 10
118.2999927953361
 20
134.6252088486379
 30
0.0
 11
0.5025000000000001
 21
-1.23077003314309e-16
 31
0.0
 40
0.9646401645353798
 41
1.570796326794897
 42
3.141592653589793
  0
ELLIPSE
  5
8F
330
17
100
AcDbEntity
  8
WB_OUTLINE
100
AcDbEllipse
 10
187.725992795336
 20
107.0060053653818
 30
0.0
 11
-0.5025000000000001
 21
6.15385016571545e-17
 31
0.0
 40
0.9646401645353794
 41
1.570796326794897
 42
3.141592653589793
  0
ELLIPSE
  5
90
330
17
100
AcDbEntity
  8
WB_OUTLINE
100
AcDbEllipse
 10
187.725992795336
 20
130.9040577487466
 30
0.0
 11
-1.816642423584311e-16
 21
-0.9889340746241441
 31
0.0
 40
0.5081228495346599
 41
0.0
 42
1.570796326794897
  0
ELLIPSE
  5
91
330
17
100
AcDbEntity
  8
WB_OUTLINE
100
AcDbEllipse
 10
118.2999927953361
 20
107.0060053653818
 30
0.0
 11
-0.5025000000000001
 21
6.15385016571545e-17
 31
0.0
 40
0.9646401645353802
 41
0.0
 42
1.570796326794897
  0
ELLIPSE
  5
92
330
17
100
AcDbEntity
  8
WB_OUTLINE
100
AcDbEllipse
 10
187.725992795336
 20
135.4452535400886
 30
0.0
 11
-1.816642423584686e-16
 21
-0.9889340746243481
 31
0.0
 40
0.508122849534655
 41
1.570796326794897
 42
3.141592653589793
  0
ELLIPSE
  5
93
330
17
100
AcDbEntity
  8
WB_OUTLINE
100
AcDbEllipse
 10
187.725992795336
 20
133.0932184572915
 30
0.0
 11
-0.5025000000000001
 21
6.15385016571545e-17
 31
0.0
 40
0.7105787397680543
 41
3.141592653589793
 42
4.71238898038469
  0
ELLIPSE
  5
94
330
17
100
AcDbEntity
  8
WB_OUTLINE
100
AcDbEllipse
 10
187.725992795336
 20
110.7271564652727
 30
0.0
 11
-1.816642423584726e-16
 21
-0.9889340746243699
 31
0.0
 40
0.5081228495346303
 41
1.570796326794897
 42
3.141592653589793
  0
ELLIPSE
  5
95
330
17
100
AcDbEntity
  8
WB_OUTLINE
100
AcDbEllipse
 10
187.725992795336
 20
134.6252088486384
 30
0.0
 11
0.5025000000000001
 21
-1.23077003314309e-16
 31
0.0
 40
0.9646401645353792
 41
0.0
 42
1.570796326794897
  0
ELLIPSE
  5
96
330
17
100
AcDbEntity
  8
WB_OUTLINE
100
AcDbEllipse
 10
118.2999927953361
 20
110.7271564652727
 30
0.0
 11
-1.816642423584478e-16
 21
-0.9889340746242347
 31
0.0
 40
0.508122849534649
 41
3.141592653589793
 42
4.71238898038469
  0
ELLIPSE
  5
97
330
17
100
AcDbEntity
  8
WB_OUTLINE
100
AcDbEllipse
 10
118.2999927953361
 20
108.5379957567287
 30
0.0
 11
0.5025000000000001
 21
-1.23077003314309e-16
 31
0.0
 40
0.7105787397680526
 41
3.141592653589793
 42
4.71238898038469
  0
ELLIPSE
  5
98
330
17
100
AcDbEntity
  8
WB_OUTLINE
100
AcDbEllipse
 10
118.2999927953361
 20
135.4452535400886
 30
0.0
 11
-1.816642423584455e-16
 21
-0.9889340746242222
 31
0.0
 40
0.5081228495346517
 41
3.141592653589793
 42
4.71238898038469
  0
ELLIPSE
  5
99
330
17
100
AcDbEntity
  8
WB_OUTLINE
100
AcDbEllipse
 10
187.725992795336
 20
108.5379957567287
 30
0.0
 11
0.5025000000000001
 21
-1.23077003314309e-16
 31
0.0
 40
0.7105787397680526
 41
4.71238898038469
 42
6.283185307179586
  0
ELLIPSE
  5
9A
330
17
100
AcDbEntity
  8
WB_OUTLINE
100
AcDbEllipse
 10
118.2999927953358
 20
106.1859606739316
 30
0.0
 11
-1.816642423584325e-16
 21
-0.9889340746241514
 31
0.0
 40
0.508122849534667
 41
4.71238898038469
 42
6.283185307179586
  0
ELLIPSE
  5
9B
330
17
100
AcDbEntity
  8
WB_OUTLINE
100
AcDbEllipse
 10
118.2999927953361
 20
133.093218457291
 30
0.0
 11
-0.5025000000000001
 21
6.15385016571545e-17
 31
0.0
 40
0.7105787397680543
 41
4.71238898038469
 42
6.283185307179586
  0
ELLIPSE
  5
9C
330
17
100
AcDbEntity
  8
WB_OUTLINE
100
AcDbEllipse
 10
187.725992795336
 20
107.0060053653818
 30
0.0
 11
-0.5025000000000001
 21
6.15385016571545e-17
 31
0.0
 40
0.9646401645353802
 41
1.570796326794897
 42
3.141592653589793
  0
ELLIPSE
  5
9D
330
17
100
AcDbEntity
  8
WB_OUTLINE
100
AcDbEllipse
 10
118.2999927953361
 20
107.0060053653818
 30
0.0
 11
-0.5025000000000001
 21
6.15385016571545e-17
 31
0.0
 40
0.9646401645353794
 41
0.0
 42
1.570796326794897
  0
LINE
  5
9E
330
17
100
AcDbEntity
  8
WB_OUTLINE
100
AcDbLine
 10
207.7979927953355
 20
129.4155492325661
 30
0.0
 11
207.7979927953355
 21
128.3338199307135
 31
0.0
  0
LINE
  5
9F
330
17
100
AcDbEntity
  8
WB_OUTLINE
100
AcDbLine
 10
207.7979927953355
 20
136.9337620562695
 30
0.0
 11
207.7979927953355
 21
129.4155492325661
 31
0.0
  0
LINE
  5
A0
330
17
100
AcDbEntity
  8
WB_OUTLINE
100
AcDbLine
 10
207.7979927953355
 20
136.9337620562695
 30
0.0
 11
207.7979927953355
 21
136.9458571070103
 31
0.0
  0
LINE
  5
A1
330
17
100
AcDbEntity
  8
WB_OUTLINE
 62
7
100
AcDbLine
 10
95.79799279533543
 20
109.0656071070099
 30
0.0
 11
97.79799279533543
 21
109.0656071070099
 31
0.0
  0
LINE
  5
A2
330
17
100
AcDbEntity
  8
WB_OUTLINE
 62
7
100
AcDbLine
 10
95.79799279533543
 20
132.5656071071228
 30
0.0
 11
97.79799279533543
 21
132.5656071071228
 31
0.0
  0
LINE
  5
A3
330
17
100
AcDbEntity
  8
WB_OUTLINE
100
AcDbLine
 10
78.79799279533542
 20
108.0656071070099
 30
0.0
 11
77.79799279533542
 21
109.0656071070099
 31
0.0
  0
LINE
  5
A4
330
17
100
AcDbEntity
  8
WB_OUTLINE
100
AcDbLine
 10
78.79799279533542
 20
133.5656071070098
 30
0.0
 11
77.79799279533542
 21
132.5656071070098
 31
0.0
  0
LINE
  5
A5
330
17
100
AcDbEntity
  8
WB_OUTLINE
100
AcDbLine
 10
78.79799279533542
 20
108.0656071070099
 30
0.0
 11
78.79799279533542
 21
133.5656071070098
 31
0.0
  0
LINE
  5
A6
330
17
100
AcDbEntity
  8
WB_OUTLINE
 62
7
100
AcDbLine
 10
77.79799279533542
 20
132.5656071070098
 30
0.0
 11
77.79799279533542
 21
109.0656071070099
 31
0.0
  0
LINE
  5
A7
330
17
100
AcDbEntity
  8
WB_OUTLINE
100
AcDbLine
 10
94.7979927954485
 20
133.5656071070098
 30
0.0
 11
95.79799279533543
 21
132.5656071071229
 31
0.0
  0
LINE
  5
A8
330
17
100
AcDbEntity
  8
WB_OUTLINE
100
AcDbLine
 10
94.79799279533543
 20
108.0656071070099
 30
0.0
 11
95.79799279533543
 21
109.0656071070099
 31
0.0
  0
LINE
  5
A9
330
17
100
AcDbEntity
  8
WB_OUTLINE
100
AcDbLine
 10
94.7979927954485
 20
133.5656071070098
 30
0.0
 11
94.79799279533543
 21
108.0656071070099
 31
0.0
  0
LINE
  5
AA
330
17
100
AcDbEntity
  8
WB_OUTLINE
 62
7
100
AcDbLine
 10
78.79799279533542
 20
133.5656071070098
 30
0.0
 11
94.7979927954485
 21
133.5656071070098
 31
0.0
  0
LINE
  5
AB
330
17
100
AcDbEntity
  8
WB_OUTLINE
 62
7
100
AcDbLine
 10
78.79799279533542
 20
108.0656071070099
 30
0.0
 11
94.79799279533543
 21
108.0656071070099
 31
0.0
  0
LINE
  5
AC
330
17
100
AcDbEntity
  8
WB_OUTLINE
 62
7
100
AcDbLine
 10
95.79799279533543
 20
132.5656071071229
 30
0.0
 11
95.79799279533543
 21
109.0656071070099
 31
0.0
  0
LINE
  5
AD
330
17
100
AcDbEntity
  8
WB_OUTLINE
100
AcDbLine
 10
95.54799279533543
 20
108.8156071070099
 30
0.0
 11
78.04799279533542
 21
108.8156071070099
 31
0.0
  0
LINE
  5
AE
330
17
100
AcDbEntity
  8
WB_OUTLINE
100
AcDbLine
 10
95.54799279533543
 20
132.8156071070098
 30
0.0
 11
78.04799279533542
 21
132.8156071070098
 31
0.0
  0
LINE
  5
AF
330
17
100
AcDbEntity
  8
WB_OUTLINE
 62
7
100
AcDbLine
 10
209.7979927953355
 20
109.0656071070099
 30
0.0
 11
207.7979927953355
 21
109.0656071070099
 31
0.0
  0
LINE
  5
B0
330
17
100
AcDbEntity
  8
WB_OUTLINE
 62
7
100
AcDbLine
 10
209.7979927953355
 20
132.5656071071229
 30
0.0
 11
207.7979927953355
 21
132.5656071071229
 31
0.0
  0
LINE
  5
B1
330
17
100
AcDbEntity
  8
WB_OUTLINE
100
AcDbLine
 10
224.7979927953355
 20
108.0656071070099
 30
0.0
 11
225.7979927953355
 21
109.0656071070099
 31
0.0
  0
LINE
  5
B2
330
17
100
AcDbEntity
  8
WB_OUTLINE
100
AcDbLine
 10
224.7979927953355
 20
133.5656071070099
 30
0.0
 11
225.7979927953355
 21
132.5656071070099
 31
0.0
  0
LINE
  5
B3
330
17
100
AcDbEntity
  8
WB_OUTLINE
100
AcDbLine
 10
224.7979927953355
 20
108.0656071070099
 30
0.0
 11
224.7979927953355
 21
133.5656071070099
 31
0.0
  0
LINE
  5
B4
330
17
100
AcDbEntity
  8
WB_OUTLINE
 62
7
100
AcDbLine
 10
225.7979927953355
 20
132.5656071070099
 30
0.0
 11
225.7979927953355
 21
109.0656071070099
 31
0.0
  0
LINE
  5
B5
330
17
100
AcDbEntity
  8
WB_OUTLINE
100
AcDbLine
 10
210.7979927952224
 20
133.5656071070099
 30
0.0
 11
209.7979927953355
 21
132.565607107123
 31
0.0
  0
LINE
  5
B6
330
17
100
AcDbEntity
  8
WB_OUTLINE
100
AcDbLine
 10
210.7979927953355
 20
108.0656071070099
 30
0.0
 11
209.7979927953355
 21
109.0656071070099
 31
0.0
  0
LINE
  5
B7
330
17
100
AcDbEntity
  8
WB_OUTLINE
100
AcDbLine
 10
210.7979927952224
 20
133.5656071070099
 30
0.0
 11
210.7979927953355
 21
108.0656071070099
 31
0.0
  0
LINE
  5
B8
330
17
100
AcDbEntity
  8
WB_OUTLINE
 62
7
100
AcDbLine
 10
224.7979927953355
 20
133.5656071070099
 30
0.0
 11
210.7979927952224
 21
133.5656071070099
 31
0.0
  0
LINE
  5
B9
330
17
100
AcDbEntity
  8
WB_OUTLINE
 62
7
100
AcDbLine
 10
224.7979927953355
 20
108.0656071070099
 30
0.0
 11
210.7979927953355
 21
108.0656071070099
 31
0.0
  0
LINE
  5
BA
330
17
100
AcDbEntity
  8
WB_OUTLINE
 62
7
100
AcDbLine
 10
209.7979927953355
 20
132.565607107123
 30
0.0
 11
209.7979927953355
 21
109.0656071070099
 31
0.0
  0
LINE
  5
BB
330
17
100
AcDbEntity
  8
WB_OUTLINE
100
AcDbLine
 10
210.0479927953355
 20
108.8156071070099
 30
0.0
 11
225.5479927953355
 21
108.8156071070099
 31
0.0
  0
LINE
  5
BC
330
17
100
AcDbEntity
  8
WB_OUTLINE
100
AcDbLine
 10
210.0479927953355
 20
132.8156071070099
 30
0.0
 11
225.5479927953355
 21
132.8156071070099
 31
0.0
  0
LINE
  5
BD
330
17
100
AcDbEntity
  8
WB_OUTLINE
 62
7
100
AcDbLine
 10
225.7979927953355
 20
110.8156071070099
 30
0.0
 11
248.7979927953355
 21
110.8156071070099
 31
0.0
  0
LINE
  5
BE
330
17
100
AcDbEntity
  8
WB_OUTLINE
 62
7
100
AcDbLine
 10
225.7979927953355
 20
130.8156071070099
 30
0.0
 11
248.7979927953355
 21
130.8156071070099
 31
0.0
  0
LINE
  5
BF
330
17
100
AcDbEntity
  8
WB_OUTLINE
100
AcDbLine
 10
230.0479927953355
 20
118.0656071070099
 30
0.0
 11
248.7979927953355
 21
118.0656071070099
 31
0.0
  0
LINE
  5
C0
330
17
100
AcDbEntity
  8
WB_OUTLINE
100
AcDbLine
 10
230.0479927953355
 20
123.5656071070099
 30
0.0
 11
248.7979927953355
 21
123.5656071070099
 31
0.0
  0
LINE
  5
C1
330
17
100
AcDbEntity
  8
WB_OUTLINE
 62
7
100
AcDbLine
 10
248.7979927953355
 20
130.8156071070047
 30
0.0
 11
248.7979927953355
 21
123.5656071070099
 31
0.0
  0
LINE
  5
C2
330
17
100
AcDbEntity
  8
WB_OUTLINE
 62
7
100
AcDbLine
 10
248.7979927953355
 20
118.0656071070099
 30
0.0
 11
248.7979927953355
 21
110.8156071070099
 31
0.0
  0
ARC
  5
C3
330
17
100
AcDbEntity
  8
WB_OUTLINE
100
AcDbCircle
 10
230.0479927953363
 20
120.8156071070099
 30
0.0
 40
2.750000000000043
100
AcDbArc
 50
89.99998835039915
 51
-90.00000000568086
  0
ARC
  5
C4
330
17
100
AcDbEntity
  8
WB_OUTLINE
100
AcDbCircle
 10
238.1059563295246
 20
120.6909373707723
 30
0.0
 40
5.427879854202709
100
AcDbArc
 50
-28.92570416730491
 51
31.97923589734295
  0
LINE
  5
C5
330
17
100
AcDbEntity
  8
WB_OUTLINE
100
AcDbLine
 10
60.7979927953354
 20
129.3156071066167
 30
0.0
 11
60.7979927953354
 21
112.3156071068987
 31
0.0
  0
LINE
  5
C6
330
17
100
AcDbEntity
  8
WB_OUTLINE
100
AcDbLine
 10
75.79799279533542
 20
111.3156071068753
 30
0.0
 11
61.7979927953896
 21
111.3156071068753
 31
0.0
  0
LINE
  5
C7
330
17
100
AcDbEntity
  8
WB_OUTLINE
100
AcDbLine
 10
75.79799279533542
 20
130.3156071068753
 30
0.0
 11
61.79799279528211
 21
130.3156071068753
 31
0.0
  0
ARC
  5
C8
330
17
100
AcDbEntity
  8
WB_OUTLINE
100
AcDbCircle
 10
61.7979927954276
 20
112.3156071069675
 30
0.0
 40
1.000000000092122
100
AcDbArc
 50
180.0
 51
-90.0000000061229
  0
ARC
  5
C9
330
17
100
AcDbEntity
  8
WB_OUTLINE
100
AcDbCircle
 10
61.79799279559413
 20
129.3156071066167
 30
0.0
 40
1.000000000258769
100
AcDbArc
 50
90.00000001787868
 51
179.9999999999992
  0
LINE
  5
CA
330
17
100
AcDbEntity
  8
WB_OUTLINE
100
AcDbLine
 10
75.79799279533542
 20
110.8156071068697
 30
0.0
 11
75.79799279533542
 21
111.3156071068753
 31
0.0
  0
LINE
  5
CB
330
17
100
AcDbEntity
  8
WB_OUTLINE
100
AcDbLine
 10
75.79799279533542
 20
130.3156071068753
 30
0.0
 11
75.79799279533542
 21
130.8156071068695
 31
0.0
  0
ARC
  5
CC
330
17
100
AcDbEntity
  8
WB_OUTLINE
100
AcDbCircle
 10
76.29799279532962
 20
110.8156071068697
 30
0.0
 40
0.4999999999942126
100
AcDbArc
 50
-179.9999999999984
 51
-89.9999999907488
  0
ARC
  5
CD
330
17
100
AcDbEntity
  8
WB_OUTLINE
100
AcDbCircle
 10
76.29799279534122
 20
130.8156071068695
 30
0.0
 40
0.5000000000058424
100
AcDbArc
 50
89.99999999929166
 51
-179.9999999999984
  0
LINE
  5
CE
330
17
100
AcDbEntity
  8
WB_OUTLINE
 62
7
100
AcDbLine
 10
77.79799279533542
 20
110.3156071068754
 30
0.0
 11
76.29799279541042
 21
110.3156071068754
 31
0.0
  0
LINE
  5
CF
330
17
100
AcDbEntity
  8
WB_OUTLINE
 62
7
100
AcDbLine
 10
77.79799279533542
 20
110.3156071070889
 30
0.0
 11
77.79799279533542
 21
131.3156071069308
 31
0.0
  0
LINE
  5
D0
330
17
100
AcDbEntity
  8
WB_OUTLINE
 62
7
100
AcDbLine
 10
76.29799279534741
 20
131.3156071068754
 30
0.0
 11
77.79799279533542
 21
131.3156071068753
 31
0.0
  0
LINE
  5
D1
330
17
100
AcDbEntity
  8
WB_OUTLINE
100
AcDbLine
 10
61.79799279559413
 20
130.3156071068755
 30
0.0
 11
61.79799279559413
 21
111.3156071068753
 31
0.0
  0
LINE
  5
D2
330
17
100
AcDbEntity
  8
WB_OUTLINE
100
AcDbLine
 10
75.79799279533542
 20
111.3156071068753
 30
0.0
 11
75.79799279533542
 21
130.3156071068753
 31
0.0
  0
LINE
  5
D3
330
17
100
AcDbEntity
  8
WB_OUTLINE
100
AcDbLine
 10
54.86498005253532
 20
112.0656071067577
 30
0.0
 11
55.2979941737353
 21
111.3156071153576
 31
0.0
  0
LINE
  5
D4
330
17
100
AcDbEntity
  8
WB_OUTLINE
100
AcDbLine
 10
45.79799279513531
 20
113.3156071067577
 30
0.0
 11
46.29799279513531
 21
112.8156071067577
 31
0.0
  0
LINE
  5
D5
330
17
100
AcDbEntity
  8
WB_OUTLINE
100
AcDbLine
 10
59.73100553753522
 20
129.5656071065576
 30
0.0
 11
59.29799139453522
 21
130.3156070983576
 31
0.0
  0
LINE
  5
D6
330
17
100
AcDbEntity
  8
WB_OUTLINE
100
AcDbLine
 10
59.29799136133531
 20
111.3156071067577
 30
0.0
 11
55.2979941737353
 21
111.3156071067577
 31
0.0
  0
LINE
  5
D7
330
17
100
AcDbEntity
  8
WB_OUTLINE
100
AcDbLine
 10
55.29799279533532
 20
111.3982030057578
 30
0.0
 11
59.29799279533532
 21
111.3982030057578
 31
0.0
  0
LINE
  5
D8
330
17
100
AcDbEntity
  8
WB_OUTLINE
100
AcDbLine
 10
60.39799279533531
 20
112.0656071067577
 30
0.0
 11
59.7310054925353
 21
112.0656071067577
 31
0.0
  0
LINE
  5
D9
330
17
100
AcDbEntity
  8
WB_OUTLINE
100
AcDbLine
 10
54.86498005253532
 20
112.0656071067577
 30
0.0
 11
54.19799279533532
 21
112.0656071067577
 31
0.0
  0
LINE
  5
DA
330
17
100
AcDbEntity
  8
WB_OUTLINE
100
AcDbLine
 10
54.86498013513531
 20
112.3012606687576
 30
0.0
 11
59.73100525673533
 21
112.3012606687576
 31
0.0
  0
LINE
  5
DB
330
17
100
AcDbEntity
  8
WB_OUTLINE
100
AcDbLine
 10
53.79799279533532
 20
112.8156071067577
 30
0.0
 11
46.29799279533532
 21
112.8156071067577
 31
0.0
  0
LINE
  5
DC
330
17
100
AcDbEntity
  8
WB_OUTLINE
100
AcDbLine
 10
53.79799279533532
 20
112.8156071067577
 30
0.0
 11
46.29799279533532
 21
112.8156071067577
 31
0.0
  0
LINE
  5
DD
330
17
100
AcDbEntity
  8
WB_OUTLINE
100
AcDbLine
 10
59.29799279533532
 20
113.2726133291577
 30
0.0
 11
55.29799279533532
 21
113.2726133291577
 31
0.0
  0
LINE
  5
DE
330
17
100
AcDbEntity
  8
WB_OUTLINE
100
AcDbLine
 10
55.29799279533532
 20
115.0403802821577
 30
0.0
 11
59.29799279533532
 21
115.0403802821577
 31
0.0
  0
LINE
  5
DF
330
17
100
AcDbEntity
  8
WB_OUTLINE
100
AcDbLine
 10
54.86499507873532
 20
116.2213096675576
 30
0.0
 11
59.73100564153532
 21
116.2213096675576
 31
0.0
  0
LINE
  5
E0
330
17
100
AcDbEntity
  8
WB_OUTLINE
100
AcDbLine
 10
59.73100509433533
 20
118.7985784167577
 30
0.0
 11
54.86497985733533
 21
118.7985784167577
 31
0.0
  0
LINE
  5
E1
330
17
100
AcDbEntity
  8
WB_OUTLINE
100
AcDbLine
 10
59.29799279533532
 20
119.5656071067577
 30
0.0
 11
55.29799279533532
 21
119.5656071067577
 31
0.0
  0
LINE
  5
E2
330
17
100
AcDbEntity
  8
WB_OUTLINE
100
AcDbLine
 10
55.2979927953352
 20
122.0656071067577
 30
0.0
 11
59.2979927953352
 21
122.0656071067577
 31
0.0
  0
LINE
  5
E3
330
17
100
AcDbEntity
  8
WB_OUTLINE
100
AcDbLine
 10
54.86498054013532
 20
122.8326357965578
 30
0.0
 11
59.73100573353531
 21
122.8326357965578
 31
0.0
  0
LINE
  5
E4
330
17
100
AcDbEntity
  8
WB_OUTLINE
100
AcDbLine
 10
59.73098989813531
 20
125.4099045457577
 30
0.0
 11
54.8649799403353
 21
125.4099045457577
 31
0.0
  0
LINE
  5
E5
330
17
100
AcDbEntity
  8
WB_OUTLINE
100
AcDbLine
 10
59.2979927953352
 20
126.5908339311578
 30
0.0
 11
55.2979927953352
 21
126.5908339311578
 31
0.0
  0
LINE
  5
E6
330
17
100
AcDbEntity
  8
WB_OUTLINE
100
AcDbLine
 10
55.2979927953352
 20
128.3586008841576
 30
0.0
 11
59.2979927953352
 21
128.3586008841576
 31
0.0
  0
LINE
  5
E7
330
17
100
AcDbEntity
  8
WB_OUTLINE
100
AcDbLine
 10
53.7979927953352
 20
128.8156071067577
 30
0.0
 11
46.2979927953352
 21
128.8156071067577
 31
0.0
  0
LINE
  5
E8
330
17
100
AcDbEntity
  8
WB_OUTLINE
100
AcDbLine
 10
53.7979927953352
 20
128.8156071067577
 30
0.0
 11
46.2979927953352
 21
128.8156071067577
 31
0.0
  0
LINE
  5
E9
330
17
100
AcDbEntity
  8
WB_OUTLINE
100
AcDbLine
 10
59.73100545453522
 20
129.3299535445577
 30
0.0
 11
54.86498032133522
 21
129.3299535445577
 31
0.0
  0
LINE
  5
EA
330
17
100
AcDbEntity
  8
WB_OUTLINE
100
AcDbLine
 10
60.39799279533523
 20
129.5656071067577
 30
0.0
 11
59.73100553753522
 21
129.5656071067577
 31
0.0
  0
LINE
  5
EB
330
17
100
AcDbEntity
  8
WB_OUTLINE
100
AcDbLine
 10
54.86498009693523
 20
129.5656071067577
 30
0.0
 11
54.19799279533532
 21
129.5656071067577
 31
0.0
  0
LINE
  5
EC
330
17
100
AcDbEntity
  8
WB_OUTLINE
100
AcDbLine
 10
59.2979927953352
 20
130.2330112075577
 30
0.0
 11
55.2979927953352
 21
130.2330112075577
 31
0.0
  0
LINE
  5
ED
330
17
100
AcDbEntity
  8
WB_OUTLINE
100
AcDbLine
 10
59.29799139453522
 20
130.3156071067577
 30
0.0
 11
55.29799424953521
 21
130.3156071067577
 31
0.0
  0
LINE
  5
EE
330
17
100
AcDbEntity
  8
WB_OUTLINE
100
AcDbLine
 10
59.7310054925353
 20
112.0656071065576
 30
0.0
 11
59.29799136133531
 21
111.3156070979576
 31
0.0
  0
LINE
  5
EF
330
17
100
AcDbEntity
  8
WB_OUTLINE
100
AcDbLine
 10
45.79799279513523
 20
128.3156071065576
 30
0.0
 11
46.29799279513523
 21
128.8156071065576
 31
0.0
  0
LINE
  5
F0
330
17
100
AcDbEntity
  8
WB_OUTLINE
100
AcDbLine
 10
60.39799279533531
 20
112.0656071067577
 30
0.0
 11
60.39799279533523
 21
129.5656071067577
 31
0.0
  0
LINE
  5
F1
330
17
100
AcDbEntity
  8
WB_OUTLINE
100
AcDbLine
 10
59.73100553753522
 20
129.5656071067577
 30
0.0
 11
59.73100545453522
 21
129.3299535445577
 31
0.0
  0
LINE
  5
F2
330
17
100
AcDbEntity
  8
WB_OUTLINE
100
AcDbLine
 10
59.73100509433533
 20
118.7985784167577
 30
0.0
 11
59.73100573353531
 21
122.8326357965578
 31
0.0
  0
LINE
  5
F3
330
17
100
AcDbEntity
  8
WB_OUTLINE
100
AcDbLine
 10
59.73100525673533
 20
112.3012606687576
 30
0.0
 11
59.7310054925353
 21
112.0656071067577
 31
0.0
  0
LINE
  5
F4
330
17
100
AcDbEntity
  8
WB_OUTLINE
100
AcDbLine
 10
59.73100564153532
 20
116.2213096675576
 30
0.0
 11
59.73102052513531
 21
113.3688003385576
 31
0.0
  0
LINE
  5
F5
330
17
100
AcDbEntity
  8
WB_OUTLINE
100
AcDbLine
 10
59.73100528093522
 20
128.2624138747577
 30
0.0
 11
59.73098989813531
 21
125.4099045457577
 31
0.0
  0
LINE
  5
F6
330
17
100
AcDbEntity
  8
WB_OUTLINE
100
AcDbLine
 10
59.29799994093531
 20
119.5656071067577
 30
0.0
 11
59.29800030573523
 21
122.0656071067577
 31
0.0
  0
LINE
  5
F7
330
17
100
AcDbEntity
  8
WB_OUTLINE
100
AcDbLine
 10
59.29799130913523
 20
130.2330112075577
 30
0.0
 11
59.29799138973522
 21
130.3156071067577
 31
0.0
  0
LINE
  5
F8
330
17
100
AcDbEntity
  8
WB_OUTLINE
100
AcDbLine
 10
59.29799136633531
 20
111.3156071067577
 30
0.0
 11
59.29799126653532
 21
111.3982030057578
 31
0.0
  0
LINE
  5
F9
330
17
100
AcDbEntity
  8
WB_OUTLINE
100
AcDbLine
 10
59.29799930993531
 20
113.2726133291577
 30
0.0
 11
59.29799081453532
 21
115.0403802821577
 31
0.0
  0
LINE
  5
FA
330
17
100
AcDbEntity
  8
WB_OUTLINE
100
AcDbLine
 10
59.29798425273532
 20
126.5908339311578
 30
0.0
 11
59.29799303313521
 21
128.3586008841576
 31
0.0
  0
LINE
  5
FB
330
17
100
AcDbEntity
  8
WB_OUTLINE
100
AcDbLine
 10
54.86498009693523
 20
129.5656071067577
 30
0.0
 11
55.29799424953521
 21
130.3156071151578
 31
0.0
  0
LINE
  5
FC
330
17
100
AcDbEntity
  8
WB_OUTLINE
100
AcDbLine
 10
55.29800108533533
 20
115.0403802821577
 30
0.0
 11
55.29799265173531
 21
113.2726133291577
 31
0.0
  0
LINE
  5
FD
330
17
100
AcDbEntity
  8
WB_OUTLINE
100
AcDbLine
 10
55.29798593233522
 20
128.3586008841576
 30
0.0
 11
55.29799476793531
 21
126.5908339311578
 31
0.0
  0
LINE
  5
FE
330
17
100
AcDbEntity
  8
WB_OUTLINE
100
AcDbLine
 10
55.29799424473521
 20
130.3156071067577
 30
0.0
 11
55.29799433913522
 21
130.2330112075577
 31
0.0
  0
LINE
  5
FF
330
17
100
AcDbEntity
  8
WB_OUTLINE
100
AcDbLine
 10
55.29799426033532
 20
111.3982030057578
 30
0.0
 11
55.29799417873531
 21
111.3156071067577
 31
0.0
  0
LINE
  5
100
330
17
100
AcDbEntity
  8
WB_OUTLINE
100
AcDbLine
 10
55.29798567133531
 20
122.0656071067577
 30
0.0
 11
55.29798528153532
 21
119.5656071067577
 31
0.0
  0
LINE
  5
101
330
17
100
AcDbEntity
  8
WB_OUTLINE
100
AcDbLine
 10
54.86498030373531
 20
113.3688003385576
 30
0.0
 11
54.86499507873532
 21
116.2213096675576
 31
0.0
  0
LINE
  5
102
330
17
100
AcDbEntity
  8
WB_OUTLINE
100
AcDbLine
 10
54.8649799403353
 20
125.4099045457577
 30
0.0
 11
54.86496446113523
 21
128.2624138747577
 31
0.0
  0
LINE
  5
103
330
17
100
AcDbEntity
  8
WB_OUTLINE
100
AcDbLine
 10
54.86498032133522
 20
129.3299535445577
 30
0.0
 11
54.86498009693523
 21
129.5656071067577
 31
0.0
  0
LINE
  5
104
330
17
100
AcDbEntity
  8
WB_OUTLINE
100
AcDbLine
 10
54.86498005253532
 20
112.0656071067577
 30
0.0
 11
54.86498013513531
 21
112.3012606687576
 31
0.0
  0
LINE
  5
105
330
17
100
AcDbEntity
  8
WB_OUTLINE
100
AcDbLine
 10
54.86497985733533
 20
118.7985784167577
 30
0.0
 11
54.86498054013532
 21
122.8326357965578
 31
0.0
  0
LINE
  5
106
330
17
100
AcDbEntity
  8
WB_OUTLINE
100
AcDbLine
 10
54.19799279533532
 20
129.5656071067577
 30
0.0
 11
54.19799279533532
 21
112.0656071067577
 31
0.0
  0
LINE
  5
107
330
17
100
AcDbEntity
  8
WB_OUTLINE
100
AcDbLine
 10
53.7979927953352
 20
129.1655088265578
 30
0.0
 11
53.79799279533532
 21
112.4657053871577
 31
0.0
  0
LINE
  5
108
330
17
100
AcDbEntity
  8
WB_OUTLINE
100
AcDbLine
 10
46.29799279533532
 20
112.8156071067577
 30
0.0
 11
46.2979927953352
 21
128.8156071067577
 31
0.0
  0
LINE
  5
109
330
17
100
AcDbEntity
  8
WB_OUTLINE
100
AcDbLine
 10
45.79799279533532
 20
113.3156071067577
 30
0.0
 11
45.7979927953352
 21
128.3156071065576
 31
0.0
  0
ARC
  5
10A
330
17
100
AcDbEntity
  8
WB_OUTLINE
100
AcDbCircle
 10
84.73655563073531
 20
115.1267078987577
 30
0.0
 40
31.59201113420002
100
AcDbArc
 50
158.7227944653004
 51
161.0041356285004
  0
ARC
  5
10B
330
17
100
AcDbEntity
  8
WB_OUTLINE
100
AcDbCircle
 10
29.85949406013521
 20
126.5044825935577
 30
0.0
 40
31.59194279540004
100
AcDbArc
 50
-21.27720763259995
 51
-18.9958615392
  0
ARC
  5
10C
330
17
100
AcDbEntity
  8
WB_OUTLINE
100
AcDbCircle
 10
84.73276233373532
 20
126.5027325457578
 30
0.0
 40
31.58783273980001
100
AcDbArc
 50
-161.0049292406999
 51
-158.7232957196998
  0
ARC
  5
10D
330
17
100
AcDbEntity
  8
WB_OUTLINE
100
AcDbCircle
 10
29.86331080273533
 20
115.1285292837577
 30
0.0
 40
31.58773388240001
100
AcDbArc
 50
18.99504114140025
 51
21.27668142080025
  0
ARC
  5
10E
330
17
100
AcDbEntity
  8
WB_OUTLINE
100
AcDbCircle
 10
54.19799279533532
 20
112.4656071067578
 30
0.0
 40
0.4000000000000057
100
AcDbArc
 50
180.0
 51
-90.00000000000001
  0
ARC
  5
10F
330
17
100
AcDbEntity
  8
WB_OUTLINE
100
AcDbCircle
 10
54.19799279533532
 20
129.1656071067576
 30
0.0
 40
0.4000000000000909
100
AcDbArc
 50
90.0
 51
179.999999999998
  0
ARC
  5
110
330
17
100
AcDbEntity
  8
WB_OUTLINE
100
AcDbCircle
 10
60.39799279533531
 20
112.4656071067578
 30
0.0
 40
0.4000000000000909
100
AcDbArc
 50
-90.00000000000001
 51
2.0356e-12
  0
ARC
  5
111
330
17
100
AcDbEntity
  8
WB_OUTLINE
100
AcDbCircle
 10
60.39799279533523
 20
129.1656071067576
 30
0.0
 40
0.4000000000000057
100
AcDbArc
 50
0.0
 51
90.0
  0
SPLINE
  5
112
330
17
100
AcDbEntity
  8
WB_OUTLINE
100
AcDbSpline
 70
12
 71
3
 72
9
 73
5
 74
0
 42
1e-09
 43
1e-07
 40
0.0
 40
0.0
 40
0.0
 40
0.0
 40
282.6810204084977
 40
1089.758275198948
 40
1089.758275198948
 40
1089.758275198948
 40
1089.758275198948
 41
1.0
 41
1.0
 41
1.0
 41
1.0
 41
1.0
 10
59.29799279533532
 20
113.2726133291577
 30
0.0
 10
59.33553126213531
 20
113.2804869205577
 30
0.0
 10
59.48016693473531
 20
113.3112076341577
 30
0.0
 10
59.62447288913532
 20
113.3435120031577
 30
0.0
 10
59.73102052513531
 20
113.3688003385576
 30
0.0
  0
SPLINE
  5
113
330
17
100
AcDbEntity
  8
WB_OUTLINE
100
AcDbSpline
 70
12
 71
3
 72
9
 73
5
 74
0
 42
1e-09
 43
1e-07
 40
0.0
 40
0.0
 40
0.0
 40
0.0
 40
267.9975905520081
 40
1116.076134246122
 40
1116.076134246122
 40
1116.076134246122
 40
1116.076134246122
 41
1.0
 41
1.0
 41
1.0
 41
1.0
 41
1.0
 10
54.86498030373531
 20
113.3688003385576
 30
0.0
 10
54.89952502693532
 20
113.3606011431578
 30
0.0
 10
55.04353238373531
 20
113.3270699647576
 30
0.0
 10
55.18803183013532
 20
113.2956776317577
 30
0.0
 10
55.29799279533532
 20
113.2726133291577
 30
0.0
  0
SPLINE
  5
114
330
17
100
AcDbEntity
  8
WB_OUTLINE
100
AcDbSpline
 70
12
 71
3
 72
9
 73
5
 74
0
 42
1e-09
 43
1e-07
 40
0.0
 40
0.0
 40
0.0
 40
0.0
 40
307.9971251058756
 40
1187.35342086252
 40
1187.35342086252
 40
1187.35342086252
 40
1187.35342086252
 41
1.0
 41
1.0
 41
1.0
 41
1.0
 41
1.0
 10
55.2979927953352
 20
128.3586008841576
 30
0.0
 10
55.26045426213523
 20
128.3507272819577
 30
0.0
 10
55.11581838153521
 20
128.3200066025577
 30
0.0
 10
54.97151222813523
 20
128.2877022203577
 30
0.0
 10
54.86496446113523
 20
128.2624138747577
 30
0.0
  0
SPLINE
  5
115
330
17
100
AcDbEntity
  8
WB_OUTLINE
100
AcDbSpline
 70
12
 71
3
 72
9
 73
5
 74
0
 42
1e-09
 43
1e-07
 40
0.0
 40
0.0
 40
0.0
 40
0.0
 40
278.9132511165223
 40
1161.534880186533
 40
1161.534880186533
 40
1161.534880186533
 40
1161.534880186533
 41
1.0
 41
1.0
 41
1.0
 41
1.0
 41
1.0
 10
59.73100528093522
 20
128.2624138747577
 30
0.0
 10
59.69646057293522
 20
128.2706130697578
 30
0.0
 10
59.55245322473522
 20
128.3041442771576
 30
0.0
 10
59.40795377253522
 20
128.3355365761577
 30
0.0
 10
59.2979927953352
 20
128.3586008841576
 30
0.0
  0
SPLINE
  5
116
330
17
100
AcDbEntity
  8
WB_OUTLINE
100
AcDbSpline
 70
12
 71
3
 72
9
 73
5
 74
0
 42
1e-09
 43
1e-07
 40
0.0
 40
0.0
 40
0.0
 40
0.0
 40
293.5615835701976
 40
1170.542501356912
 40
1170.542501356912
 40
1170.542501356912
 40
1170.542501356912
 41
1.0
 41
1.0
 41
1.0
 41
1.0
 41
1.0
 10
59.2979927953352
 20
130.2330112075577
 30
0.0
 10
59.33590231993523
 20
130.1583579771578
 30
0.0
 10
59.48553182293523
 20
129.8599160829577
 30
0.0
 10
59.62859817453523
 20
129.5581537035576
 30
0.0
 10
59.73100545453522
 20
129.3299535445577
 30
0.0
  0
SPLINE
  5
117
330
17
100
AcDbEntity
  8
WB_OUTLINE
100
AcDbSpline
 70
12
 71
3
 72
9
 73
5
 74
0
 42
1e-09
 43
1e-07
 40
0.0
 40
0.0
 40
0.0
 40
0.0
 40
297.6661623207713
 40
1194.503122954537
 40
1194.503122954537
 40
1194.503122954537
 40
1194.503122954537
 41
1.0
 41
1.0
 41
1.0
 41
1.0
 41
1.0
 10
54.86498032133522
 20
129.3299535445577
 30
0.0
 10
54.89904248313522
 20
129.4058562971578
 30
0.0
 10
55.0378589255352
 20
129.7094899039576
 30
0.0
 10
55.18450091573521
 20
130.0095175931577
 30
0.0
 10
55.2979927953352
 20
130.2330112075577
 30
0.0
  0
SPLINE
  5
118
330
17
100
AcDbEntity
  8
WB_OUTLINE
100
AcDbSpline
 70
12
 71
3
 72
9
 73
5
 74
0
 42
1e-09
 43
1e-07
 40
0.0
 40
0.0
 40
0.0
 40
0.0
 40
277.9118386806402
 40
1108.140827026812
 40
1108.140827026812
 40
1108.140827026812
 40
1108.140827026812
 41
1.0
 41
1.0
 41
1.0
 41
1.0
 41
1.0
 10
55.29799279533532
 20
111.3982030057578
 30
0.0
 10
55.26008326713531
 20
111.4728562467577
 30
0.0
 10
55.11045371493532
 20
111.7712981165576
 30
0.0
 10
54.96738740713531
 20
112.0730605179577
 30
0.0
 10
54.86498013513531
 20
112.3012606687576
 30
0.0
  0
SPLINE
  5
119
330
17
100
AcDbEntity
  8
WB_OUTLINE
100
AcDbSpline
 70
12
 71
3
 72
9
 73
5
 74
0
 42
1e-09
 43
1e-07
 40
0.0
 40
0.0
 40
0.0
 40
0.0
 40
270.0109997190109
 40
1083.525816337033
 40
1083.525816337033
 40
1083.525816337033
 40
1083.525816337033
 41
1.0
 41
1.0
 41
1.0
 41
1.0
 41
1.0
 10
59.73100525673533
 20
112.3012606687576
 30
0.0
 10
59.69694309573532
 20
112.2253579129577
 30
0.0
 10
59.55812668693531
 20
111.9217242927578
 30
0.0
 10
59.41148466733532
 20
111.6216966193577
 30
0.0
 10
59.29799279533532
 20
111.3982030057578
 30
0.0
  0
SPLINE
  5
11A
330
17
100
AcDbEntity
  8
WB_OUTLINE
100
AcDbSpline
 70
12
 71
3
 72
9
 73
5
 74
0
 42
1e-09
 43
1e-07
 40
0.0
 40
0.0
 40
0.0
 40
0.0
 40
281.253097222916
 40
1118.690480598326
 40
1118.690480598326
 40
1118.690480598326
 40
1118.690480598326
 41
1.0
 41
1.0
 41
1.0
 41
1.0
 41
1.0
 10
59.29799279533532
 20
119.5656071067577
 30
0.0
 10
59.33587305313532
 20
119.5022466167578
 30
0.0
 10
59.48513474673533
 20
119.2493942085576
 30
0.0
 10
59.6283257851353
 20
118.9929233583576
 30
0.0
 10
59.73100509433533
 20
118.7985784167577
 30
0.0
  0
SPLINE
  5
11B
330
17
100
AcDbEntity
  8
WB_OUTLINE
100
AcDbSpline
 70
12
 71
3
 72
9
 73
5
 74
0
 42
1e-09
 43
1e-07
 40
0.0
 40
0.0
 40
0.0
 40
0.0
 40
284.1681279238421
 40
1143.280251737905
 40
1143.280251737905
 40
1143.280251737905
 40
1143.280251737905
 41
1.0
 41
1.0
 41
1.0
 41
1.0
 41
1.0
 10
54.86497985733533
 20
118.7985784167577
 30
0.0
 10
54.89907296273532
 20
118.8631076577577
 30
0.0
 10
55.03824357353531
 20
119.1216646921576
 30
0.0
 10
55.18477205433533
 20
119.3762283071576
 30
0.0
 10
55.29799279533532
 20
119.5656071067577
 30
0.0
  0
SPLINE
  5
11C
330
17
100
AcDbEntity
  8
WB_OUTLINE
100
AcDbSpline
 70
12
 71
3
 72
9
 73
5
 74
0
 42
1e-09
 43
1e-07
 40
0.0
 40
0.0
 40
0.0
 40
0.0
 40
291.2347050755824
 40
1158.392212124483
 40
1158.392212124483
 40
1158.392212124483
 40
1158.392212124483
 41
1.0
 41
1.0
 41
1.0
 41
1.0
 41
1.0
 10
55.2979927953352
 20
122.0656071067577
 30
0.0
 10
55.26011252833533
 20
122.1289676139577
 30
0.0
 10
55.11085084793532
 20
122.3818200217577
 30
0.0
 10
54.96765983113531
 20
122.6382908759577
 30
0.0
 10
54.86498054013532
 20
122.8326357965578
 30
0.0
  0
SPLINE
  5
11D
330
17
100
AcDbEntity
  8
WB_OUTLINE
100
AcDbSpline
 70
12
 71
3
 72
9
 73
5
 74
0
 42
1e-09
 43
1e-07
 40
0.0
 40
0.0
 40
0.0
 40
0.0
 40
281.8414470649697
 40
1133.919411569373
 40
1133.919411569373
 40
1133.919411569373
 40
1133.919411569373
 41
1.0
 41
1.0
 41
1.0
 41
1.0
 41
1.0
 10
59.73100573353531
 20
122.8326357965578
 30
0.0
 10
59.69691262733531
 20
122.7681065549578
 30
0.0
 10
59.55774202373533
 20
122.5095495167578
 30
0.0
 10
59.41121353573533
 20
122.2549859055576
 30
0.0
 10
59.2979927953352
 20
122.0656071067577
 30
0.0
  0
LINE
  5
11E
330
17
100
AcDbEntity
  8
WB_OUTLINE
 62
7
100
AcDbLine
 10
51.24362731440092
 20
112.8156071067215
 30
0.0
 11
49.24362731440092
 21
112.8156071067215
 31
0.0
  0
LINE
  5
11F
330
17
100
AcDbEntity
  8
WB_OUTLINE
 62
7
100
AcDbLine
 10
51.24362731440081
 20
128.8156071067215
 30
0.0
 11
49.24362731440081
 21
128.8156071067215
 31
0.0
  0
LINE
  5
120
330
17
100
AcDbEntity
  8
WB_OUTLINE
100
AcDbLine
 10
60.7979927953354
 20
112.4656071067578
 30
0.0
 11
60.7979927953354
 21
129.1656071067576
 31
0.0
  0
DIMENSION
  5
121
330
17
100
AcDbEntity
  8
WB_DIMENSION
100
AcDbDimension
280
0
  2
*X10
  3
标准
 10
97.79799279533543
 20
86.59271516735058
 30
0.0
 11
152.7979927953355
 21
86.59271516735058
 31
0.0
 70
32
 71
5
 42
-1.0
 73
0
 74
0
 75
0
  1
<> (REF)
100
AcDbAlignedDimension
 13
207.7979927953355
 23
104.6974521577507
 33
0.0
 14
97.79799279533543
 24
104.6974521577502
 34
0.0
 50
0.0
100
AcDbRotatedDimension
1001
CAXA_DRAFT_DIMARROWREVERSE
1070
0
1001
ACAD
1000
DSTYLE
1002
{
1070
69
1070
1
1070
284
1070
8
1070
173
1070
1
1070
146
1040
1.0
1002
}
1001
CAXA_DRAFT_DIMARCLENSTYLE
1070
1
1001
CAXA_DRAFT_DDTSTY_2011R3
1070
0
1001
ACAD_DSTYLE_DIMTEXT_FILL
1070
376
1070
1
  0
DIMENSION
  5
12B
330
17
100
AcDbEntity
  8
WB_DIMENSION
100
AcDbDimension
280
0
  2
*X11
  3
标准
 10
97.79799279533543
 20
86.5927151673514
 30
0.0
 11
87.79799279533542
 21
86.5927151673514
 31
0.0
 70
32
 71
5
 42
-1.0
 73
0
 74
0
 75
0
100
AcDbAlignedDimension
 13
77.79799279533542
 23
110.3156071070889
 33
0.0
 14
97.79799279533543
 24
104.6853571070099
 34
0.0
 50
180.0
100
AcDbRotatedDimension
1001
CAXA_DRAFT_DIMARROWREVERSE
1070
0
1001
ACAD
1000
DSTYLE
1002
{
1070
69
1070
1
1070
284
1070
8
1070
173
1070
1
1002
}
1001
CAXA_DRAFT_DIMARCLENSTYLE
1070
1
1001
CAXA_DRAFT_DDTSTY_2011R3
1070
0
1001
ACAD_DSTYLE_DIMTEXT_FILL
1070
376
1070
1
  0
DIMENSION
  5
135
330
17
100
AcDbEntity
  8
WB_DIMENSION
100
AcDbDimension
280
0
  2
*X12
  3
标准
 10
60.7979927953354
 20
86.59271516735114
 30
0.0
 11
69.29799279533542
 21
86.59271516735114
 31
0.0
 70
32
 71
5
 42
-1.0
 73
0
 74
0
 75
0
100
AcDbAlignedDimension
 13
77.79799279533542
 23
110.3156071070889
 33
0.0
 14
60.7979927953354
 24
112.4656071067578
 34
0.0
 50
180.0
100
AcDbRotatedDimension
1001
CAXA_DRAFT_DIMARROWREVERSE
1070
0
1001
ACAD
1000
DSTYLE
1002
{
1070
69
1070
1
1070
284
1070
8
1070
173
1070
1
1002
}
1001
CAXA_DRAFT_DIMARCLENSTYLE
1070
1
1001
CAXA_DRAFT_DDTSTY_2011R3
1070
0
1001
ACAD_DSTYLE_DIMTEXT_FILL
1070
376
1070
1
  0
DIMENSION
  5
13F
330
17
100
AcDbEntity
  8
WB_DIMENSION
100
AcDbDimension
280
0
  2
*X13
  3
标准
 10
45.79799279513531
 20
86.59271516735123
 30
0.0
 11
53.2979927952353
 21
86.5927151673512
 31
0.0
 70
32
 71
5
 42
-1.0
 73
0
 74
0
 75
0
100
AcDbAlignedDimension
 13
60.7979927953354
 23
112.4656071067578
 33
0.0
 14
45.79799279513531
 24
113.3156071067577
 34
0.0
 50
180.0
100
AcDbRotatedDimension
1001
CAXA_DRAFT_DIMARROWREVERSE
1070
0
1001
ACAD
1000
DSTYLE
1002
{
1070
69
1070
1
1070
284
1070
8
1070
173
1070
1
1002
}
1001
CAXA_DRAFT_DIMARCLENSTYLE
1070
1
1001
CAXA_DRAFT_DDTSTY_2011R3
1070
0
1001
ACAD_DSTYLE_DIMTEXT_FILL
1070
376
1070
1
  0
DIMENSION
  5
149
330
17
100
AcDbEntity
  8
WB_DIMENSION
100
AcDbDimension
280
0
  2
*X14
  3
标准
 10
84.16658603087592
 20
133.5656071070098
 30
0.0
 11
84.16658603087592
 21
152.7171098326491
 31
0.0
 70
160
 71
5
 42
-1.0
 73
0
 74
0
 75
0
  1
NPT3/4
100
AcDbAlignedDimension
 13
83.48441548824032
 23
108.0656071070099
 33
0.0
 14
84.62136639263302
 24
133.5656071070098
 34
0.0
 50
90.0
100
AcDbRotatedDimension
1001
CAXA_DRAFT_DIMARROWREVERSE
1070
0
1001
ACAD
1000
DSTYLE
1002
{
1070
69
1070
1
1070
173
1070
1
1070
146
1040
1.0
1002
}
1001
CAXA_DRAFT_DIMARCLENSTYLE
1070
1
1001
CAXA_DRAFT_DDTSTY_2011R3
1070
0
1001
ACAD_DSTYLE_DIMTEXT_FILL
1070
376
1070
1
  0
DIMENSION
  5
153
330
17
100
AcDbEntity
  8
WB_DIMENSION
100
AcDbDimension
280
0
  2
*X15
  3
标准
 10
207.7979927953355
 20
86.59271516735132
 30
0.0
 11
216.7979927953355
 21
86.59271516735132
 31
0.0
 70
32
 71
5
 42
-1.0
 73
0
 74
0
 75
0
100
AcDbAlignedDimension
 13
225.7979927953355
 23
109.0656071070099
 33
0.0
 14
207.7979927953355
 24
104.6974521577507
 34
0.0
 50
-1.4e-14
100
AcDbRotatedDimension
1001
CAXA_DRAFT_DIMARROWREVERSE
1070
0
1001
ACAD
1000
DSTYLE
1002
{
1070
69
1070
1
1070
284
1070
8
1070
173
1070
1
1002
}
1001
CAXA_DRAFT_DIMARCLENSTYLE
1070
1
1001
CAXA_DRAFT_DDTSTY_2011R3
1070
0
1001
ACAD_DSTYLE_DIMTEXT_FILL
1070
376
1070
1
  0
DIMENSION
  5
15D
330
17
100
AcDbEntity
  8
WB_DIMENSION
100
AcDbDimension
280
0
  2
*X16
  3
标准
 10
216.7979927953355
 20
133.5656071070099
 30
0.0
 11
216.7979927953355
 21
152.7171098326494
 31
0.0
 70
160
 71
5
 42
-1.0
 73
0
 74
0
 75
0
  1
NPT3/4
100
AcDbAlignedDimension
 13
215.9369401317462
 23
108.0656071070099
 33
0.0
 14
217.1496877630986
 24
133.5656071070099
 34
0.0
 50
-90.00000000000001
100
AcDbRotatedDimension
1001
CAXA_DRAFT_DIMARROWREVERSE
1070
0
1001
ACAD
1000
DSTYLE
1002
{
1070
69
1070
1
1070
173
1070
1
1070
146
1040
1.0
1002
}
1001
CAXA_DRAFT_DIMARCLENSTYLE
1070
1
1001
CAXA_DRAFT_DDTSTY_2011R3
1070
0
1001
ACAD_DSTYLE_DIMTEXT_FILL
1070
376
1070
1
  0
DIMENSION
  5
167
330
17
100
AcDbEntity
  8
WB_DIMENSION
100
AcDbDimension
280
0
  2
*X17
  3
标准
 10
225.7979927953355
 20
86.59271516735123
 30
0.0
 11
237.2979927953355
 21
86.59271516735123
 31
0.0
 70
32
 71
5
 42
-1.0
 73
0
 74
0
 75
0
100
AcDbAlignedDimension
 13
248.7979927953355
 23
110.8156071070099
 33
0.0
 14
225.7979927953355
 24
110.8156071070099
 34
0.0
 50
0.0
100
AcDbRotatedDimension
1001
CAXA_DRAFT_DIMARROWREVERSE
1070
0
1001
ACAD
1000
DSTYLE
1002
{
1070
69
1070
1
1070
284
1070
8
1070
173
1070
1
1002
}
1001
CAXA_DRAFT_DIMARCLENSTYLE
1070
1
1001
CAXA_DRAFT_DDTSTY_2011R3
1070
0
1001
ACAD_DSTYLE_DIMTEXT_FILL
1070
376
1070
1
  0
DIMENSION
  5
171
330
17
100
AcDbEntity
  8
WB_DIMENSION
100
AcDbDimension
280
0
  2
*X18
  3
标准
 10
264.2020072048647
 20
130.8156071070099
 30
0.0
 11
264.2020072048647
 21
140.9726945231342
 31
0.0
 70
160
 71
5
 42
-1.0
 73
0
 74
0
 75
0
100
AcDbAlignedDimension
 13
248.7979927953355
 23
110.8156071070099
 33
0.0
 14
248.7979927953355
 24
130.8156071070099
 34
0.0
 50
90.0
100
AcDbRotatedDimension
1001
CAXA_DRAFT_DIMARROWREVERSE
1070
0
1001
ACAD
1000
DSTYLE
1002
{
1070
69
1070
1
1070
3
1000
%%C<>
1070
284
1070
8
1070
173
1070
1
1002
}
1001
CAXA_DRAFT_DIMARCLENSTYLE
1070
1
1001
CAXA_DRAFT_DDTSTY_2011R3
1070
0
1001
ACAD_DSTYLE_DIMTEXT_FILL
1070
376
1070
1
  0
VIEWPORT
  5
1D5
330
1B
100
AcDbEntity
 67
1
  8
VIEWPORTS
100
AcDbViewport
 10
148.5
 20
105.0
 30
0.0
 40
326.70000000000005
 41
231.00000000000003
 68
1
 69
1
 12
148.5
 22
105.0
 13
0.0
 23
0.0
 14
10.0
 24
10.0
 15
10.0
 25
10.0
 16
0.0
 26
0.0
 36
1.0
 17
0.0
 27
0.0
 37
0.0
 42
50.0
 43
0.0
 44
0.0
 45
231.00000000000003
 50
0.0
 51
0.0
 72
100
 90
557088
  1

281
0
 71
0
 74
0
110
0.0
120
0.0
130
0.0
111
1.0
121
0.0
131
0.0
112
0.0
122
1.0
132
0.0
 79
0
146
0.0
282
0
  0
LWPOLYLINE
  5
1D6
330
1B
100
AcDbEntity
 67
1
  8
0
100
AcDbPolyline
 90
4
 70
1
 10
10.0
 20
10.0
 10
287.0
 20
10.0
 10
287.0
 20
200.0
 10
10.0
 20
200.0
  0
LINE
  5
1D7
330
1B
100
AcDbEntity
 67
1
  8
0
100
AcDbLine
 10
10.0
 20
25.0
 30
0.0
 11
287.0
 21
25.0
 31
0.0
  0
LINE
  5
1D8
330
1B
100
AcDbEntity
 67
1
  8
0
100
AcDbLine
 10
10.0
 20
40.0
 30
0.0
 11
287.0
 21
40.0
 31
0.0
  0
LINE
  5
1D9
330
1B
100
AcDbEntity
 67
1
  8
0
100
AcDbLine
 10
68.0
 20
10.0
 30
0.0
 11
68.0
 21
40.0
 31
0.0
  0
LINE
  5
1DA
330
1B
100
AcDbEntity
 67
1
  8
0
100
AcDbLine
 10
206.0
 20
10.0
 30
0.0
 11
206.0
 21
40.0
 31
0.0
  0
LINE
  5
1DB
330
1B
100
AcDbEntity
 67
1
  8
0
100
AcDbLine
 10
247.0
 20
10.0
 30
0.0
 11
247.0
 21
40.0
 31
0.0
  0
TEXT
  5
1DC
330
1B
100
AcDbEntity
 67
1
  8
0
100
AcDbText
 10
14.0
 20
32.0
 30
0.0
 40
4.0
  1
WATERBEE
100
AcDbText
  0
TEXT
  5
1DD
330
1B
100
AcDbEntity
 67
1
  8
0
100
AcDbText
 10
14.0
 20
16.0
 30
0.0
 40
2.4
  1
waterbee.co.kr
100
AcDbText
  0
TEXT
  5
1DE
330
1B
100
AcDbEntity
 67
1
  8
0
100
AcDbText
 10
72.0
 20
33.0
 30
0.0
 40
3.0
  1
pH SENSOR
100
AcDbText
  0
TEXT
  5
1DF
330
1B
100
AcDbEntity
 67
1
  8
0
100
AcDbText
 10
72.0
 20
28.0
 30
0.0
 40
2.4
  1
External dimensions
100
AcDbText
  0
TEXT
  5
1E0
330
1B
100
AcDbEntity
 67
1
  8
0
100
AcDbText
 10
72.0
 20
16.0
 30
0.0
 40
3.0
  1
WBPH10-OUTLINE
100
AcDbText
  0
TEXT
  5
1E1
330
1B
100
AcDbEntity
 67
1
  8
0
100
AcDbText
 10
210.0
 20
33.0
 30
0.0
 40
2.4
  1
UNITS: mm
100
AcDbText
  0
TEXT
  5
1E2
330
1B
100
AcDbEntity
 67
1
  8
0
100
AcDbText
 10
210.0
 20
28.0
 30
0.0
 40
2.4
  1
MODEL: 1:1
100
AcDbText
  0
TEXT
  5
1E3
330
1B
100
AcDbEntity
 67
1
  8
0
100
AcDbText
 10
210.0
 20
16.0
 30
0.0
 40
2.4
  1
REV: R2
100
AcDbText
  0
TEXT
  5
1E4
330
1B
100
AcDbEntity
 67
1
  8
0
100
AcDbText
 10
251.0
 20
33.0
 30
0.0
 40
2.4
  1
2026-09-17
100
AcDbText
  0
TEXT
  5
1E5
330
1B
100
AcDbEntity
 67
1
  8
0
100
AcDbText
 10
251.0
 20
16.0
 30
0.0
 40
2.4
  1
SHEET 1/1
100
AcDbText
  0
TEXT
  5
1E6
330
1B
100
AcDbEntity
 67
1
  8
0
100
AcDbText
 10
14.0
 20
45.0
 30
0.0
 40
2.2
  1
110 mm body segment: CAD reference only. Confirm supplied sensor dimensions before installation.
100
AcDbText
  0
VIEWPORT
  5
1E7
330
1B
100
AcDbEntity
 67
1
  8
VIEWPORTS
100
AcDbViewport
 10
148.5
 20
124.0
 30
0.0
 40
267.0
 41
140.0
 68
2
 69
3
 12
153.5
 22
124.49478735869468
 13
0.0
 23
0.0
 14
10.0
 24
10.0
 15
10.0
 25
10.0
 16
0.0
 26
0.0
 36
1.0
 17
0.0
 27
0.0
 37
0.0
 42
50.0
 43
0.0
 44
0.0
 45
124.00758238972507
 50
0.0
 51
0.0
 72
100
 90
16384
  1

281
0
 71
0
 74
0
110
0.0
120
0.0
130
0.0
111
1.0
121
0.0
131
0.0
112
0.0
122
1.0
132
0.0
 79
0
146
0.0
282
0
  0
ENDSEC
  0
SECTION
  2
OBJECTS
  0
DICTIONARY
  5
A
330
0
100
AcDbDictionary
281
1
  3
ACAD_COLOR
350
B
  3
ACAD_GROUP
350
C
  3
ACAD_LAYOUT
350
D
  3
ACAD_MATERIAL
350
E
  3
ACAD_MLEADERSTYLE
350
F
  3
ACAD_MLINESTYLE
350
10
  3
ACAD_PLOTSETTINGS
350
11
  3
ACAD_PLOTSTYLENAME
350
12
  3
ACAD_SCALELIST
350
14
  3
ACAD_TABLESTYLE
350
15
  3
ACAD_VISUALSTYLE
350
16
  3
EZDXF_META
350
2D
  0
DICTIONARY
  5
B
330
A
100
AcDbDictionary
281
1
  0
DICTIONARY
  5
C
330
A
100
AcDbDictionary
281
1
  0
DICTIONARY
  5
D
330
A
100
AcDbDictionary
281
1
  3
Model
350
1A
  3
SHEET-1
350
1E
  0
DICTIONARY
  5
E
330
A
100
AcDbDictionary
281
1
  3
ByBlock
350
1F
  3
ByLayer
350
20
  3
Global
350
21
  0
DICTIONARY
  5
F
330
A
100
AcDbDictionary
281
1
  3
Standard
350
2C
  0
DICTIONARY
  5
10
330
A
100
AcDbDictionary
281
1
  3
Standard
350
22
  0
DICTIONARY
  5
11
330
A
100
AcDbDictionary
281
1
  0
ACDBDICTIONARYWDFLT
  5
12
330
A
100
AcDbDictionary
281
1
  3
Normal
350
13
100
AcDbDictionaryWithDefault
340
13
  0
ACDBPLACEHOLDER
  5
13
330
12
  0
DICTIONARY
  5
14
330
A
100
AcDbDictionary
281
1
  0
DICTIONARY
  5
15
330
A
100
AcDbDictionary
281
1
  0
DICTIONARY
  5
16
330
A
100
AcDbDictionary
281
1
  0
LAYOUT
  5
1A
330
D
100
AcDbPlotSettings
  1

  4
A3
  6

 40
7.5
 41
20.0
 42
7.5
 43
20.0
 44
420.0
 45
297.0
 46
0.0
 47
0.0
 48
0.0
 49
0.0
140
0.0
141
0.0
142
1.0
143
1.0
 70
1024
 72
1
 73
0
 74
5
  7

 75
16
 76
0
 77
2
 78
300
147
1.0
148
0.0
149
0.0
100
AcDbLayout
  1
Model
 70
1
 71
0
 10
0.0
 20
0.0
 11
420.0
 21
297.0
 12
0.0
 22
0.0
 32
0.0
 14
1e+20
 24
1e+20
 34
1e+20
 15
-1e+20
 25
-1e+20
 35
-1e+20
146
0.0
 13
0.0
 23
0.0
 33
0.0
 16
1.0
 26
0.0
 36
0.0
 17
0.0
 27
1.0
 37
0.0
 76
1
330
17
  0
LAYOUT
  5
1E
330
D
100
AcDbPlotSettings
  1

  2
DWG to PDF.pc3
  4
ezdxf_(297.00_x_210.00_MM)
  6

 40
0.0
 41
0.0
 42
0.0
 43
0.0
 44
297.0
 45
210.0
 46
0.0
 47
0.0
 48
0.0
 49
0.0
140
0.0
141
0.0
142
1.0
143
1.0
 70
672
 72
1
 73
0
 74
5
  7

 75
16
 76
0
 77
2
 78
300
147
1.0
148
0.0
149
0.0
100
AcDbLayout
  1
SHEET-1
 70
1
 71
1
 10
-0.0
 20
-0.0
 11
297.0
 21
210.0
 12
0.0
 22
0.0
 32
0.0
 14
1e+20
 24
1e+20
 34
1e+20
 15
-1e+20
 25
-1e+20
 35
-1e+20
146
0.0
 13
0.0
 23
0.0
 33
0.0
 16
1.0
 26
0.0
 36
0.0
 17
0.0
 27
1.0
 37
0.0
 76
1
330
1B
331
1D5
  0
MATERIAL
  5
1F
102
{ACAD_REACTORS
330
E
102
}
330
E
100
AcDbMaterial
  1
ByBlock
  2

 70
0
 40
1.0
 71
1
 41
1.0
 91
-1023410177
 42
1.0
 72
1
  3

 73
1
 74
1
 75
1
 44
0.5
 73
0
 45
1.0
 46
1.0
 77
1
  4

 78
1
 79
1
170
1
 48
1.0
171
1
  6

172
1
173
1
174
1
140
1.0
141
1.0
175
1
  7

176
1
177
1
178
1
143
1.0
179
1
  8

270
1
271
1
272
1
145
1.0
146
1.0
273
1
  9

274
1
275
1
276
1
 42
1.0
 72
1
  3

 73
1
 74
1
 75
1
 94
63
  0
MATERIAL
  5
20
102
{ACAD_REACTORS
330
E
102
}
330
E
100
AcDbMaterial
  1
ByLayer
  2

 70
0
 40
1.0
 71
1
 41
1.0
 91
-1023410177
 42
1.0
 72
1
  3

 73
1
 74
1
 75
1
 44
0.5
 73
0
 45
1.0
 46
1.0
 77
1
  4

 78
1
 79
1
170
1
 48
1.0
171
1
  6

172
1
173
1
174
1
140
1.0
141
1.0
175
1
  7

176
1
177
1
178
1
143
1.0
179
1
  8

270
1
271
1
272
1
145
1.0
146
1.0
273
1
  9

274
1
275
1
276
1
 42
1.0
 72
1
  3

 73
1
 74
1
 75
1
 94
63
  0
MATERIAL
  5
21
102
{ACAD_REACTORS
330
E
102
}
330
E
100
AcDbMaterial
  1
Global
  2

 70
0
 40
1.0
 71
1
 41
1.0
 91
-1023410177
 42
1.0
 72
1
  3

 73
1
 74
1
 75
1
 44
0.5
 73
0
 45
1.0
 46
1.0
 77
1
  4

 78
1
 79
1
170
1
 48
1.0
171
1
  6

172
1
173
1
174
1
140
1.0
141
1.0
175
1
  7

176
1
177
1
178
1
143
1.0
179
1
  8

270
1
271
1
272
1
145
1.0
146
1.0
273
1
  9

274
1
275
1
276
1
 42
1.0
 72
1
  3

 73
1
 74
1
 75
1
 94
63
  0
MLINESTYLE
  5
22
102
{ACAD_REACTORS
330
10
102
}
330
10
100
AcDbMlineStyle
  2
Standard
 70
0
  3

 62
256
 51
90.0
 52
90.0
 71
2
 49
0.5
 62
256
  6
BYLAYER
 49
-0.5
 62
256
  6
BYLAYER
  0
MLEADERSTYLE
  5
2C
102
{ACAD_REACTORS
330
F
102
}
330
F
100
AcDbMLeaderStyle
179
2
170
2
171
1
172
0
 90
2
 40
0.0
 41
0.0
173
1
 91
-1056964608
 92
-2
290
1
 42
2.0
291
1
 43
8.0
  3
Standard
 44
4.0
300

342
29
174
1
175
1
176
0
178
1
 93
-1056964608
 45
4.0
292
0
297
0
 46
4.0
 94
-1056964608
 47
1.0
 49
1.0
140
1.0
294
1
141
0.0
177
0
142
1.0
295
0
296
0
143
3.75
271
0
272
9
273
9
  0
DICTIONARY
  5
2D
330
A
100
AcDbDictionary
280
1
281
1
  3
CREATED_BY_EZDXF
350
2E
  3
AUTHOR
350
1D3
  3
TITLE
350
1D4
  3
WRITTEN_BY_EZDXF
350
1EA
  0
DICTIONARYVAR
  5
2E
330
2D
100
DictionaryVariables
280
0
  1
1.4.4 @ 2026-09-17T02:56:12.262681+00:00
  0
DICTIONARYVAR
  5
1D3
330
2D
100
DictionaryVariables
280
0
  1
WATERBEE
  0
DICTIONARYVAR
  5
1D4
330
2D
100
DictionaryVariables
280
0
  1
WBPH10 outline and mounting dimensions
  0
DICTIONARYVAR
  5
1EA
330
2D
100
DictionaryVariables
280
0
  1
1.4.4 @ 2026-09-17T02:56:12.291698+00:00
  0
ENDSEC
  0
EOF
