  0
SECTION
  2
HEADER
  9
$ACADVER
  1
AC1032
  9
$ACADMAINTVER
 90
4
  9
$DWGCODEPAGE
  3
ANSI_1252
  9
$REQUIREDVERSIONS
160
0
  9
$INSBASE
 10
0.0
 20
0.0
 30
0.0
  9
$EXTMIN
 10
1e+20
 20
1e+20
 30
1e+20
  9
$EXTMAX
 10
-1e+20
 20
-1e+20
 30
-1e+20
  9
$LIMMIN
 10
0.0
 20
0.0
  9
$LIMMAX
 10
420.0
 20
297.0
  9
$ORTHOMODE
 70
0
  9
$REGENMODE
 70
1
  9
$FILLMODE
 70
1
  9
$QTEXTMODE
 70
0
  9
$MIRRTEXT
 70
1
  9
$LTSCALE
 40
1.0
  9
$ATTMODE
 70
1
  9
$TEXTSIZE
 40
2.5
  9
$TRACEWID
 40
1.0
  9
$TEXTSTYLE
  7
Standard
  9
$CLAYER
  8
0
  9
$CELTYPE
  6
ByLayer
  9
$CECOLOR
 62
256
  9
$CELTSCALE
 40
1.0
  9
$DISPSILH
 70
0
  9
$DIMSCALE
 40
1.0
  9
$DIMASZ
 40
2.5
  9
$DIMEXO
 40
0.625
  9
$DIMDLI
 40
3.75
  9
$DIMRND
 40
0.0
  9
$DIMDLE
 40
0.0
  9
$DIMEXE
 40
1.25
  9
$DIMTP
 40
0.0
  9
$DIMTM
 40
0.0
  9
$DIMTXT
 40
2.5
  9
$DIMCEN
 40
2.5
  9
$DIMTSZ
 40
0.0
  9
$DIMTOL
 70
0
  9
$DIMLIM
 70
0
  9
$DIMTIH
 70
0
  9
$DIMTOH
 70
0
  9
$DIMSE1
 70
0
  9
$DIMSE2
 70
0
  9
$DIMTAD
 70
1
  9
$DIMZIN
 70
8
  9
$DIMBLK
  1

  9
$DIMASO
 70
1
  9
$DIMSHO
 70
1
  9
$DIMPOST
  1

  9
$DIMAPOST
  1

  9
$DIMALT
 70
0
  9
$DIMALTD
 70
3
  9
$DIMALTF
 40
0.03937007874
  9
$DIMLFAC
 40
1.0
  9
$DIMTOFL
 70
1
  9
$DIMTVP
 40
0.0
  9
$DIMTIX
 70
0
  9
$DIMSOXD
 70
0
  9
$DIMSAH
 70
0
  9
$DIMBLK1
  1

  9
$DIMBLK2
  1

  9
$DIMSTYLE
  2
ISO-25
  9
$DIMCLRD
 70
0
  9
$DIMCLRE
 70
0
  9
$DIMCLRT
 70
0
  9
$DIMTFAC
 40
1.0
  9
$DIMGAP
 40
0.625
  9
$DIMJUST
 70
0
  9
$DIMSD1
 70
0
  9
$DIMSD2
 70
0
  9
$DIMTOLJ
 70
0
  9
$DIMTZIN
 70
8
  9
$DIMALTZ
 70
0
  9
$DIMALTTZ
 70
0
  9
$DIMUPT
 70
0
  9
$DIMDEC
 70
2
  9
$DIMTDEC
 70
2
  9
$DIMALTU
 70
2
  9
$DIMALTTD
 70
3
  9
$DIMTXSTY
  7
Standard
  9
$DIMAUNIT
 70
0
  9
$DIMADEC
 70
0
  9
$DIMALTRND
 40
0.0
  9
$DIMAZIN
 70
0
  9
$DIMDSEP
 70
44
  9
$DIMATFIT
 70
3
  9
$DIMFRAC
 70
0
  9
$DIMLDRBLK
  1

  9
$DIMLUNIT
 70
2
  9
$DIMLWD
 70
-2
  9
$DIMLWE
 70
-2
  9
$DIMTMOVE
 70
0
  9
$DIMFXL
 40
1.0
  9
$DIMFXLON
 70
0
  9
$DIMJOGANG
 40
0.785398163397
  9
$DIMTFILL
 70
0
  9
$DIMTFILLCLR
 70
0
  9
$DIMARCSYM
 70
0
  9
$DIMLTYPE
  6

  9
$DIMLTEX1
  6

  9
$DIMLTEX2
  6

  9
$DIMTXTDIRECTION
 70
0
  9
$LUNITS
 70
2
  9
$LUPREC
 70
4
  9
$SKETCHINC
 40
1.0
  9
$FILLETRAD
 40
10.0
  9
$AUNITS
 70
0
  9
$AUPREC
 70
2
  9
$MENU
  1
.
  9
$ELEVATION
 40
0.0
  9
$PELEVATION
 40
0.0
  9
$THICKNESS
 40
0.0
  9
$LIMCHECK
 70
0
  9
$CHAMFERA
 40
0.0
  9
$CHAMFERB
 40
0.0
  9
$CHAMFERC
 40
0.0
  9
$CHAMFERD
 40
0.0
  9
$SKPOLY
 70
0
  9
$TDCREATE
 40
2461301.497337963
  9
$TDUCREATE
 40
2458532.153996898
  9
$TDUPDATE
 40
2461301.497337963
  9
$TDUUPDATE
 40
2458532.1544311
  9
$TDINDWG
 40
0.0
  9
$TDUSRTIMER
 40
0.0
  9
$USRTIMER
 70
1
  9
$ANGBASE
 50
0.0
  9
$ANGDIR
 70
0
  9
$PDMODE
 70
0
  9
$PDSIZE
 40
0.0
  9
$PLINEWID
 40
0.0
  9
$SPLFRAME
 70
0
  9
$SPLINETYPE
 70
6
  9
$SPLINESEGS
 70
8
  9
$HANDSEED
  5
362
  9
$SURFTAB1
 70
6
  9
$SURFTAB2
 70
6
  9
$SURFTYPE
 70
6
  9
$SURFU
 70
6
  9
$SURFV
 70
6
  9
$UCSBASE
  2

  9
$UCSNAME
  2

  9
$UCSORG
 10
0.0
 20
0.0
 30
0.0
  9
$UCSXDIR
 10
1.0
 20
0.0
 30
0.0
  9
$UCSYDIR
 10
0.0
 20
1.0
 30
0.0
  9
$UCSORTHOREF
  2

  9
$UCSORTHOVIEW
 70
0
  9
$UCSORGTOP
 10
0.0
 20
0.0
 30
0.0
  9
$UCSORGBOTTOM
 10
0.0
 20
0.0
 30
0.0
  9
$UCSORGLEFT
 10
0.0
 20
0.0
 30
0.0
  9
$UCSORGRIGHT
 10
0.0
 20
0.0
 30
0.0
  9
$UCSORGFRONT
 10
0.0
 20
0.0
 30
0.0
  9
$UCSORGBACK
 10
0.0
 20
0.0
 30
0.0
  9
$PUCSBASE
  2

  9
$PUCSNAME
  2

  9
$PUCSORG
 10
0.0
 20
0.0
 30
0.0
  9
$PUCSXDIR
 10
1.0
 20
0.0
 30
0.0
  9
$PUCSYDIR
 10
0.0
 20
1.0
 30
0.0
  9
$PUCSORTHOREF
  2

  9
$PUCSORTHOVIEW
 70
0
  9
$PUCSORGTOP
 10
0.0
 20
0.0
 30
0.0
  9
$PUCSORGBOTTOM
 10
0.0
 20
0.0
 30
0.0
  9
$PUCSORGLEFT
 10
0.0
 20
0.0
 30
0.0
  9
$PUCSORGRIGHT
 10
0.0
 20
0.0
 30
0.0
  9
$PUCSORGFRONT
 10
0.0
 20
0.0
 30
0.0
  9
$PUCSORGBACK
 10
0.0
 20
0.0
 30
0.0
  9
$USERI1
 70
0
  9
$USERI2
 70
0
  9
$USERI3
 70
0
  9
$USERI4
 70
0
  9
$USERI5
 70
0
  9
$USERR1
 40
0.0
  9
$USERR2
 40
0.0
  9
$USERR3
 40
0.0
  9
$USERR4
 40
0.0
  9
$USERR5
 40
0.0
  9
$WORLDVIEW
 70
1
  9
$SHADEDGE
 70
3
  9
$SHADEDIF
 70
70
  9
$TILEMODE
 70
1
  9
$MAXACTVP
 70
64
  9
$PINSBASE
 10
0.0
 20
0.0
 30
0.0
  9
$PLIMCHECK
 70
0
  9
$PEXTMIN
 10
1e+20
 20
1e+20
 30
1e+20
  9
$PEXTMAX
 10
-1e+20
 20
-1e+20
 30
-1e+20
  9
$PLIMMIN
 10
-0.0
 20
-0.0
  9
$PLIMMAX
 10
297.0
 20
210.0
  9
$UNITMODE
 70
0
  9
$VISRETAIN
 70
1
  9
$PLINEGEN
 70
0
  9
$PSLTSCALE
 70
1
  9
$TREEDEPTH
 70
3020
  9
$CMLSTYLE
  2
Standard
  9
$CMLJUST
 70
0
  9
$CMLSCALE
 40
20.0
  9
$PROXYGRAPHICS
 70
1
  9
$MEASUREMENT
 70
1
  9
$CELWEIGHT
370
-1
  9
$ENDCAPS
280
0
  9
$JOINSTYLE
280
0
  9
$LWDISPLAY
290
0
  9
$INSUNITS
 70
4
  9
$HYPERLINKBASE
  1

  9
$STYLESHEET
  1

  9
$XEDIT
290
1
  9
$CEPSNTYPE
380
0
  9
$PSTYLEMODE
290
1
  9
$VERSIONGUID
  2
{74723C53-98ED-4BA9-A995-950C2AD57687}
  9
$EXTNAMES
290
1
  9
$PSVPSCALE
 40
0.0
  9
$OLESTARTUP
290
0
  9
$SORTENTS
280
127
  9
$INDEXCTL
280
0
  9
$HIDETEXT
280
1
  9
$XCLIPFRAME
280
1
  9
$HALOGAP
280
0
  9
$OBSCOLOR
 70
257
  9
$OBSLTYPE
280
0
  9
$INTERSECTIONDISPLAY
280
0
  9
$INTERSECTIONCOLOR
 70
257
  9
$DIMASSOC
280
2
  9
$CAMERADISPLAY
290
0
  9
$LENSLENGTH
 40
50.0
  9
$CAMERAHEIGHT
 40
0.0
  9
$STEPSPERSEC
 40
24.0
  9
$STEPSIZE
 40
100.0
  9
$3DDWFPREC
 40
2.0
  9
$PSOLWIDTH
 40
0.005
  9
$PSOLHEIGHT
 40
0.08
  9
$LOFTANG1
 40
1.570796326795
  9
$LOFTANG2
 40
1.570796326795
  9
$LOFTMAG1
 40
0.0
  9
$LOFTMAG2
 40
0.0
  9
$LOFTPARAM
 70
7
  9
$LOFTNORMALS
280
1
  9
$LATITUDE
 40
37.795
  9
$LONGITUDE
 40
-122.394
  9
$NORTHDIRECTION
 40
0.0
  9
$TIMEZONE
 70
-8000
  9
$LIGHTGLYPHDISPLAY
280
1
  9
$TILEMODELIGHTSYNCH
280
1
  9
$CMATERIAL
347
20
  9
$SOLIDHIST
280
0
  9
$SHOWHIST
280
1
  9
$DWFFRAME
280
2
  9
$DGNFRAME
280
2
  9
$REALWORLDSCALE
290
1
  9
$INTERFERECOLOR
 62
256
  9
$CSHADOW
280
0
  9
$SHADOWPLANELOCATION
 40
0.0
  0
ENDSEC
  0
SECTION
  2
CLASSES
  0
CLASS
  1
ACDBDICTIONARYWDFLT
  2
AcDbDictionaryWithDefault
  3
ObjectDBX Classes
 90
0
 91
0
280
0
281
0
  0
CLASS
  1
SUN
  2
AcDbSun
  3
SCENEOE
 90
1153
 91
0
280
0
281
0
  0
CLASS
  1
VISUALSTYLE
  2
AcDbVisualStyle
  3
ObjectDBX Classes
 90
4095
 91
0
280
0
281
0
  0
CLASS
  1
MATERIAL
  2
AcDbMaterial
  3
ObjectDBX Classes
 90
1153
 91
0
280
0
281
0
  0
CLASS
  1
SCALE
  2
AcDbScale
  3
ObjectDBX Classes
 90
1153
 91
0
280
0
281
0
  0
CLASS
  1
TABLESTYLE
  2
AcDbTableStyle
  3
ObjectDBX Classes
 90
4095
 91
0
280
0
281
0
  0
CLASS
  1
MLEADERSTYLE
  2
AcDbMLeaderStyle
  3
ACDB_MLEADERSTYLE_CLASS
 90
4095
 91
0
280
0
281
0
  0
CLASS
  1
DICTIONARYVAR
  2
AcDbDictionaryVar
  3
ObjectDBX Classes
 90
0
 91
0
280
0
281
0
  0
CLASS
  1
CELLSTYLEMAP
  2
AcDbCellStyleMap
  3
ObjectDBX Classes
 90
1152
 91
0
280
0
281
0
  0
CLASS
  1
MENTALRAYRENDERSETTINGS
  2
AcDbMentalRayRenderSettings
  3
SCENEOE
 90
1024
 91
0
280
0
281
0
  0
CLASS
  1
ACDBDETAILVIEWSTYLE
  2
AcDbDetailViewStyle
  3
ObjectDBX Classes
 90
1025
 91
0
280
0
281
0
  0
CLASS
  1
ACDBSECTIONVIEWSTYLE
  2
AcDbSectionViewStyle
  3
ObjectDBX Classes
 90
1025
 91
0
280
0
281
0
  0
CLASS
  1
RASTERVARIABLES
  2
AcDbRasterVariables
  3
ISM
 90
0
 91
0
280
0
281
0
  0
CLASS
  1
LAYOUT
  2
AcDbLayout
  3
ObjectDBX Classes
 90
0
 91
0
280
0
281
0
  0
CLASS
  1
ACDBPLACEHOLDER
  2
AcDbPlaceHolder
  3
ObjectDBX Classes
 90
0
 91
0
280
0
281
0
  0
ENDSEC
  0
SECTION
  2
TABLES
  0
TABLE
  2
VPORT
  5
8
330
0
100
AcDbSymbolTable
 70
1
  0
VPORT
  5
23
330
8
100
AcDbSymbolTableRecord
100
AcDbViewportTableRecord
  2
*Active
 70
0
 10
0.0
 20
0.0
 11
1.0
 21
1.0
 12
0.0
 22
0.0
 13
0.0
 23
0.0
 14
0.5
 24
0.5
 15
0.5
 25
0.5
 16
0.0
 26
0.0
 36
1.0
 17
0.0
 27
0.0
 37
0.0
 40
1000.0
 41
1.34
 42
50.0
 43
0.0
 44
0.0
 50
0.0
 51
0.0
 71
0
 72
1000
 73
1
 74
3
 75
0
 76
0
 77
0
 78
0
281
0
 65
0
146
0.0
  0
ENDTAB
  0
TABLE
  2
LTYPE
  5
2
330
0
100
AcDbSymbolTable
 70
5
  0
LTYPE
  5
24
330
2
100
AcDbSymbolTableRecord
100
AcDbLinetypeTableRecord
  2
ByBlock
 70
0
  3

 72
65
 73
0
 40
0.0
  0
LTYPE
  5
25
330
2
100
AcDbSymbolTableRecord
100
AcDbLinetypeTableRecord
  2
ByLayer
 70
0
  3

 72
65
 73
0
 40
0.0
  0
LTYPE
  5
26
330
2
100
AcDbSymbolTableRecord
100
AcDbLinetypeTableRecord
  2
Continuous
 70
0
  3

 72
65
 73
0
 40
0.0
  0
LTYPE
  5
32
330
2
100
AcDbSymbolTableRecord
100
AcDbLinetypeTableRecord
  2
WB_HIDDEN
 70
0
  3

 72
65
 73
2
 40
4.0
 49
2.5
 74
0
 49
-1.5
 74
0
  0
LTYPE
  5
34
330
2
100
AcDbSymbolTableRecord
100
AcDbLinetypeTableRecord
  2
WB_CENTER
 70
0
  3

 72
65
 73
4
 40
10.0
 49
6.0
 74
0
 49
-1.5
 74
0
 49
1.0
 74
0
 49
-1.5
 74
0
  0
ENDTAB
  0
TABLE
  2
LAYER
  5
1
330
0
100
AcDbSymbolTable
 70
11
  0
LAYER
  5
27
330
1
100
AcDbSymbolTableRecord
100
AcDbLayerTableRecord
  2
0
 70
0
 62
7
  6
Continuous
370
-3
390
13
347
21
  0
LAYER
  5
28
330
1
100
AcDbSymbolTableRecord
100
AcDbLayerTableRecord
  2
Defpoints
 70
0
 62
7
  6
Continuous
290
0
370
-3
390
13
347
21
  0
LAYER
  5
2F
330
1
100
AcDbSymbolTableRecord
100
AcDbLayerTableRecord
  2
DETAIL
 70
0
 62
7
  6
Continuous
370
25
390
13
347
21
  0
LAYER
  5
31
330
1
100
AcDbSymbolTableRecord
100
AcDbLayerTableRecord
  2
HIDDEN
 70
0
 62
7
  6
WB_HIDDEN
370
18
390
13
347
21
  0
LAYER
  5
33
330
1
100
AcDbSymbolTableRecord
100
AcDbLayerTableRecord
  2
CENTER
 70
0
 62
7
  6
WB_CENTER
370
18
390
13
347
21
  0
LAYER
  5
35
330
1
100
AcDbSymbolTableRecord
100
AcDbLayerTableRecord
  2
DIM
 70
0
 62
7
  6
Continuous
370
18
390
13
347
21
  0
LAYER
  5
3F
330
1
100
AcDbSymbolTableRecord
100
AcDbLayerTableRecord
  2
TEXT
 70
0
 62
7
  6
Continuous
370
0
390
13
347
21
  0
LAYER
  5
41
330
1
100
AcDbSymbolTableRecord
100
AcDbLayerTableRecord
  2
OUTLINE
 70
0
 62
7
  6
Continuous
370
25
390
13
347
21
  0
LAYER
  5
46
330
1
100
AcDbSymbolTableRecord
100
AcDbLayerTableRecord
  2
ISO
 70
0
 62
7
  6
Continuous
370
25
390
13
347
21
  0
LAYER
  5
47
330
1
100
AcDbSymbolTableRecord
100
AcDbLayerTableRecord
  2
WALL_HOLES
 70
0
 62
7
  6
Continuous
370
25
390
13
347
21
  0
LAYER
  5
48
330
1
100
AcDbSymbolTableRecord
100
AcDbLayerTableRecord
  2
LID_HOLES
 70
0
 62
7
  6
Continuous
370
25
390
13
347
21
  0
ENDTAB
  0
TABLE
  2
STYLE
  5
5
330
0
100
AcDbSymbolTable
 70
4
  0
STYLE
  5
29
330
5
100
AcDbSymbolTableRecord
100
AcDbTextStyleTableRecord
  2
Standard
 70
0
 40
0.0
 41
1.0
 50
0.0
 71
0
 42
2.5
  3
arial.ttf
  4

  0
STYLE
  5
37
330
5
100
AcDbSymbolTableRecord
100
AcDbTextStyleTableRecord
  2
SLDTEXTSTYLE1
 70
0
 40
0.0
 41
1.0
 50
0.0
 71
0
 42
3.5
  3
arial.ttf
  4

  0
STYLE
  5
3A
330
5
100
AcDbSymbolTableRecord
100
AcDbTextStyleTableRecord
  2
WB_CENTURY
 70
0
 40
0.0
 41
1.0
 50
0.0
 71
0
 42
2.5
  3
arial.ttf
  4

  0
STYLE
  5
40
330
5
100
AcDbSymbolTableRecord
100
AcDbTextStyleTableRecord
  2
WB_ARIAL_UNICODE
 70
0
 40
0.0
 41
1.0
 50
0.0
 71
0
 42
2.5
  3
arial.ttf
  4

  0
ENDTAB
  0
TABLE
  2
VIEW
  5
7
330
0
100
AcDbSymbolTable
 70
0
  0
ENDTAB
  0
TABLE
  2
UCS
  5
6
330
0
100
AcDbSymbolTable
 70
0
  0
ENDTAB
  0
TABLE
  2
APPID
  5
3
330
0
100
AcDbSymbolTable
 70
3
  0
APPID
  5
2A
330
3
100
AcDbSymbolTableRecord
100
AcDbRegAppTableRecord
  2
ACAD
 70
0
  0
APPID
  5
35F
330
3
100
AcDbSymbolTableRecord
100
AcDbRegAppTableRecord
  2
HATCHBACKGROUNDCOLOR
 70
0
  0
APPID
  5
360
330
3
100
AcDbSymbolTableRecord
100
AcDbRegAppTableRecord
  2
EZDXF
 70
0
  0
ENDTAB
  0
TABLE
  2
DIMSTYLE
  5
4
330
0
100
AcDbSymbolTable
 70
2
100
AcDbDimStyleTable
  0
DIMSTYLE
105
2B
330
4
100
AcDbSymbolTableRecord
100
AcDbDimStyleTableRecord
  2
Standard
 70
0
 40
1.0
 41
2.5
 42
0.625
 43
3.75
 44
1.25
 45
0.0
 46
0.0
 47
0.0
 48
0.0
 49
2.5
140
2.5
141
2.5
142
0.0
143
0.03937007874
144
1.0
145
0.0
146
1.0
147
0.625
148
0.0
 69
0
 70
0
 71
0
 72
0
 73
0
 74
0
 75
0
 76
0
 77
1
 78
8
 79
3
170
0
171
3
172
1
173
0
174
0
175
0
176
0
177
0
178
0
179
2
271
2
272
2
273
2
274
3
275
0
276
0
277
2
278
44
279
0
280
0
281
0
282
0
283
0
284
8
285
0
286
0
288
0
289
3
290
0
371
-2
372
-2
  0
DIMSTYLE
105
36
330
4
100
AcDbSymbolTableRecord
100
AcDbDimStyleTableRecord
  2
SLDDIMSTYLE0
 70
0
 40
1.0
 41
3.302
 42
0.625
 43
3.75
 44
0.0
 45
1e-09
 46
0.0
 47
0.0
 48
0.0
 49
2.5
140
3.5
141
2.5
142
0.0
143
0.03937007874
144
2.5
145
0.0
146
1.0
147
0.875
148
0.0
 69
0
 70
0
 71
0
 72
0
 73
0
 74
0
 75
0
 76
0
 77
1
 78
4
 79
1
170
0
171
3
172
1
173
1
174
0
175
0
176
0
177
0
178
0
179
2
271
2
272
2
273
2
274
3
275
0
276
2
277
2
278
44
279
0
280
0
281
0
282
0
283
0
284
12
285
0
286
0
288
0
289
3
290
0
340
37
371
-2
372
-2
  0
ENDTAB
  0
TABLE
  2
BLOCK_RECORD
  5
9
330
0
100
AcDbSymbolTable
 70
32
  0
BLOCK_RECORD
  5
17
330
9
100
AcDbSymbolTableRecord
100
AcDbBlockTableRecord
  2
*Model_Space
340
1A
 70
0
280
1
281
0
  0
BLOCK_RECORD
  5
1B
330
9
100
AcDbSymbolTableRecord
100
AcDbBlockTableRecord
  2
*Paper_Space
340
1E
 70
0
280
1
281
0
  0
BLOCK_RECORD
  5
90
330
9
100
AcDbSymbolTableRecord
100
AcDbBlockTableRecord
  2
*D1
340
0
 70
0
280
1
281
0
  0
BLOCK_RECORD
  5
9F
330
9
100
AcDbSymbolTableRecord
100
AcDbBlockTableRecord
  2
*D2
340
0
 70
0
280
1
281
0
  0
BLOCK_RECORD
  5
AE
330
9
100
AcDbSymbolTableRecord
100
AcDbBlockTableRecord
  2
*D3
340
0
 70
0
280
1
281
0
  0
BLOCK_RECORD
  5
BD
330
9
100
AcDbSymbolTableRecord
100
AcDbBlockTableRecord
  2
*D4
340
0
 70
0
280
1
281
0
  0
BLOCK_RECORD
  5
E2
330
9
100
AcDbSymbolTableRecord
100
AcDbBlockTableRecord
  2
*D5
340
0
 70
0
280
1
281
0
  0
BLOCK_RECORD
  5
118
330
9
100
AcDbSymbolTableRecord
100
AcDbBlockTableRecord
  2
*D6
340
0
 70
0
280
1
281
0
  0
BLOCK_RECORD
  5
127
330
9
100
AcDbSymbolTableRecord
100
AcDbBlockTableRecord
  2
*D7
340
0
 70
0
280
1
281
0
  0
BLOCK_RECORD
  5
136
330
9
100
AcDbSymbolTableRecord
100
AcDbBlockTableRecord
  2
*D8
340
0
 70
0
280
1
281
0
  0
BLOCK_RECORD
  5
1AB
330
9
100
AcDbSymbolTableRecord
100
AcDbBlockTableRecord
  2
*D9
340
0
 70
0
280
1
281
0
  0
BLOCK_RECORD
  5
1BA
330
9
100
AcDbSymbolTableRecord
100
AcDbBlockTableRecord
  2
*D10
340
0
 70
0
280
1
281
0
  0
BLOCK_RECORD
  5
1C9
330
9
100
AcDbSymbolTableRecord
100
AcDbBlockTableRecord
  2
*D11
340
0
 70
0
280
1
281
0
  0
BLOCK_RECORD
  5
1D8
330
9
100
AcDbSymbolTableRecord
100
AcDbBlockTableRecord
  2
*D12
340
0
 70
0
280
1
281
0
  0
BLOCK_RECORD
  5
1E7
330
9
100
AcDbSymbolTableRecord
100
AcDbBlockTableRecord
  2
*D13
340
0
 70
0
280
1
281
0
  0
BLOCK_RECORD
  5
1F6
330
9
100
AcDbSymbolTableRecord
100
AcDbBlockTableRecord
  2
*D14
340
0
 70
0
280
1
281
0
  0
BLOCK_RECORD
  5
38
330
9
100
AcDbSymbolTableRecord
100
AcDbBlockTableRecord
  2
*D15
340
0
 70
0
280
1
281
0
  0
BLOCK_RECORD
  5
39
330
9
100
AcDbSymbolTableRecord
100
AcDbBlockTableRecord
  2
_CLOSEDFILLED
340
0
 70
0
280
1
281
0
  0
BLOCK_RECORD
  5
3C
330
9
100
AcDbSymbolTableRecord
100
AcDbBlockTableRecord
  2
*D16
340
0
 70
0
280
1
281
0
  0
BLOCK_RECORD
  5
3D
330
9
100
AcDbSymbolTableRecord
100
AcDbBlockTableRecord
  2
*D17
340
0
 70
0
280
1
281
0
  0
BLOCK_RECORD
  5
3E
330
9
100
AcDbSymbolTableRecord
100
AcDbBlockTableRecord
  2
*D18
340
0
 70
0
280
1
281
0
  0
BLOCK_RECORD
  5
42
330
9
100
AcDbSymbolTableRecord
100
AcDbBlockTableRecord
  2
*D19
340
0
 70
0
280
1
281
0
  0
BLOCK_RECORD
  5
43
330
9
100
AcDbSymbolTableRecord
100
AcDbBlockTableRecord
  2
*D20
340
0
 70
0
280
1
281
0
  0
BLOCK_RECORD
  5
44
330
9
100
AcDbSymbolTableRecord
100
AcDbBlockTableRecord
  2
*D21
340
0
 70
0
280
1
281
0
  0
BLOCK_RECORD
  5
45
330
9
100
AcDbSymbolTableRecord
100
AcDbBlockTableRecord
  2
*D22
340
0
 70
0
280
1
281
0
  0
BLOCK_RECORD
  5
49
330
9
100
AcDbSymbolTableRecord
100
AcDbBlockTableRecord
  2
*D23
340
0
 70
0
280
1
281
0
  0
BLOCK_RECORD
  5
4A
330
9
100
AcDbSymbolTableRecord
100
AcDbBlockTableRecord
  2
*D24
340
0
 70
0
280
1
281
0
  0
BLOCK_RECORD
  5
4B
330
9
100
AcDbSymbolTableRecord
100
AcDbBlockTableRecord
  2
*D25
340
0
 70
0
280
1
281
0
  0
BLOCK_RECORD
  5
4C
330
9
100
AcDbSymbolTableRecord
100
AcDbBlockTableRecord
  2
*D26
340
0
 70
0
280
1
281
0
  0
BLOCK_RECORD
  5
4D
330
9
100
AcDbSymbolTableRecord
100
AcDbBlockTableRecord
  2
*D27
340
0
 70
0
280
1
281
0
  0
BLOCK_RECORD
  5
4E
330
9
100
AcDbSymbolTableRecord
100
AcDbBlockTableRecord
  2
*D28
340
0
 70
0
280
1
281
0
  0
BLOCK_RECORD
  5
348
330
9
100
AcDbSymbolTableRecord
100
AcDbBlockTableRecord
  2
*Paper_Space0
340
34B
 70
0
280
1
281
0
  0
ENDTAB
  0
ENDSEC
  0
SECTION
  2
BLOCKS
  0
BLOCK
  5
18
330
17
100
AcDbEntity
  8
0
100
AcDbBlockBegin
  2
*Model_Space
 70
0
 10
0.0
 20
0.0
 30
0.0
  3
*Model_Space
  1

  0
ENDBLK
  5
19
330
17
100
AcDbEntity
  8
0
100
AcDbBlockEnd
  0
BLOCK
  5
1C
330
1B
100
AcDbEntity
  8
0
100
AcDbBlockBegin
  2
*Paper_Space
 70
0
 10
0.0
 20
0.0
 30
0.0
  3
*Paper_Space
  1

  0
ENDBLK
  5
1D
330
1B
100
AcDbEntity
  8
0
100
AcDbBlockEnd
  0
BLOCK
  5
91
330
90
100
AcDbEntity
  8
0
100
AcDbBlockBegin
  2
*D1
 70
1
 10
0.0
 20
0.0
 30
0.0
  3
*D1
  1

  0
LINE
  5
93
330
90
100
AcDbEntity
  8
0
 62
7
100
AcDbLine
 10
124.0
 20
496.5
 30
0.0
 11
124.0
 21
544.0
 31
0.0
  0
LINE
  5
94
330
90
100
AcDbEntity
  8
0
 62
7
100
AcDbLine
 10
314.0
 20
496.5
 30
0.0
 11
314.0
 21
544.0
 31
0.0
  0
INSERT
  5
95
330
90
100
AcDbEntity
  8
DIM
 62
7
100
AcDbBlockReference
  2
_CLOSEDFILLED
 10
124.0
 20
544.0
 30
0.0
 41
6.604
 42
6.604
 50
180.0
  0
INSERT
  5
97
330
90
100
AcDbEntity
  8
DIM
 62
7
100
AcDbBlockReference
  2
_CLOSEDFILLED
 10
314.0
 20
544.0
 30
0.0
 41
6.604
 42
6.604
  0
LINE
  5
99
330
90
100
AcDbEntity
  8
0
 62
7
100
AcDbLine
 10
130.604
 20
544.0
 30
0.0
 11
307.396
 21
544.0
 31
0.0
  0
MTEXT
  5
9A
330
90
100
AcDbEntity
  8
DIM
 62
7
100
AcDbMText
 10
219.0
 20
549.25
 30
0.0
 40
7.0
 71
5
  1
190.00
  7
WB_CENTURY
  0
POINT
  5
9B
330
90
100
AcDbEntity
  8
Defpoints
100
AcDbPoint
 10
124.0
 20
544.0
 30
0.0
  0
POINT
  5
9C
330
90
100
AcDbEntity
  8
Defpoints
100
AcDbPoint
 10
124.0
 20
494.0
 30
0.0
  0
POINT
  5
9D
330
90
100
AcDbEntity
  8
Defpoints
100
AcDbPoint
 10
314.0
 20
494.0
 30
0.0
  0
ENDBLK
  5
92
330
90
100
AcDbEntity
  8
0
100
AcDbBlockEnd
  0
BLOCK
  5
A0
330
9F
100
AcDbEntity
  8
0
100
AcDbBlockBegin
  2
*D2
 70
1
 10
0.0
 20
0.0
 30
0.0
  3
*D2
  1

  0
LINE
  5
A2
330
9F
100
AcDbEntity
  8
0
 62
7
100
AcDbLine
 10
145.0
 20
489.5
 30
0.0
 11
145.0
 21
520.0
 31
0.0
  0
LINE
  5
A3
330
9F
100
AcDbEntity
  8
0
 62
7
100
AcDbLine
 10
293.0
 20
489.5
 30
0.0
 11
293.0
 21
520.0
 31
0.0
  0
INSERT
  5
A4
330
9F
100
AcDbEntity
  8
DIM
 62
7
100
AcDbBlockReference
  2
_CLOSEDFILLED
 10
145.0
 20
520.0
 30
0.0
 41
6.604
 42
6.604
 50
180.0
  0
INSERT
  5
A6
330
9F
100
AcDbEntity
  8
DIM
 62
7
100
AcDbBlockReference
  2
_CLOSEDFILLED
 10
293.0
 20
520.0
 30
0.0
 41
6.604
 42
6.604
  0
LINE
  5
A8
330
9F
100
AcDbEntity
  8
0
 62
7
100
AcDbLine
 10
151.604
 20
520.0
 30
0.0
 11
286.396
 21
520.0
 31
0.0
  0
MTEXT
  5
A9
330
9F
100
AcDbEntity
  8
DIM
 62
7
100
AcDbMText
 10
219.0
 20
525.25
 30
0.0
 40
7.0
 71
5
  1
148.00
  7
WB_CENTURY
  0
POINT
  5
AA
330
9F
100
AcDbEntity
  8
Defpoints
100
AcDbPoint
 10
145.0
 20
520.0
 30
0.0
  0
POINT
  5
AB
330
9F
100
AcDbEntity
  8
Defpoints
100
AcDbPoint
 10
145.0
 20
487.0
 30
0.0
  0
POINT
  5
AC
330
9F
100
AcDbEntity
  8
Defpoints
100
AcDbPoint
 10
293.0
 20
487.0
 30
0.0
  0
ENDBLK
  5
A1
330
9F
100
AcDbEntity
  8
0
100
AcDbBlockEnd
  0
BLOCK
  5
AF
330
AE
100
AcDbEntity
  8
0
100
AcDbBlockBegin
  2
*D3
 70
1
 10
0.0
 20
0.0
 30
0.0
  3
*D3
  1

  0
LINE
  5
B1
330
AE
100
AcDbEntity
  8
0
 62
7
100
AcDbLine
 10
121.5
 20
314.0
 30
0.0
 11
76.0
 21
314.0
 31
0.0
  0
LINE
  5
B2
330
AE
100
AcDbEntity
  8
0
 62
7
100
AcDbLine
 10
121.5
 20
494.0
 30
0.0
 11
76.0
 21
494.0
 31
0.0
  0
INSERT
  5
B3
330
AE
100
AcDbEntity
  8
DIM
 62
7
100
AcDbBlockReference
  2
_CLOSEDFILLED
 10
76.0
 20
314.0
 30
0.0
 41
6.604
 42
6.604
 50
270.0
  0
INSERT
  5
B5
330
AE
100
AcDbEntity
  8
DIM
 62
7
100
AcDbBlockReference
  2
_CLOSEDFILLED
 10
76.0
 20
494.0
 30
0.0
 41
6.604
 42
6.604
 50
90.0
  0
LINE
  5
B7
330
AE
100
AcDbEntity
  8
0
 62
7
100
AcDbLine
 10
76.0
 20
320.604
 30
0.0
 11
76.0
 21
487.396
 31
0.0
  0
MTEXT
  5
B8
330
AE
100
AcDbEntity
  8
DIM
 62
7
100
AcDbMText
 10
70.75
 20
404.0
 30
0.0
 40
7.0
 71
5
  1
180.00
  7
WB_CENTURY
 50
90.0
  0
POINT
  5
B9
330
AE
100
AcDbEntity
  8
Defpoints
100
AcDbPoint
 10
76.0
 20
314.0
 30
0.0
  0
POINT
  5
BA
330
AE
100
AcDbEntity
  8
Defpoints
100
AcDbPoint
 10
124.0
 20
314.0
 30
0.0
  0
POINT
  5
BB
330
AE
100
AcDbEntity
  8
Defpoints
100
AcDbPoint
 10
124.0
 20
494.0
 30
0.0
  0
ENDBLK
  5
B0
330
AE
100
AcDbEntity
  8
0
100
AcDbBlockEnd
  0
BLOCK
  5
BE
330
BD
100
AcDbEntity
  8
0
100
AcDbBlockBegin
  2
*D4
 70
1
 10
0.0
 20
0.0
 30
0.0
  3
*D4
  1

  0
LINE
  5
C0
330
BD
100
AcDbEntity
  8
0
 62
7
100
AcDbLine
 10
142.5
 20
321.0
 30
0.0
 11
101.0
 21
321.0
 31
0.0
  0
LINE
  5
C1
330
BD
100
AcDbEntity
  8
0
 62
7
100
AcDbLine
 10
142.5
 20
487.0
 30
0.0
 11
101.0
 21
487.0
 31
0.0
  0
INSERT
  5
C2
330
BD
100
AcDbEntity
  8
DIM
 62
7
100
AcDbBlockReference
  2
_CLOSEDFILLED
 10
101.0
 20
321.0
 30
0.0
 41
6.604
 42
6.604
 50
270.0
  0
INSERT
  5
C4
330
BD
100
AcDbEntity
  8
DIM
 62
7
100
AcDbBlockReference
  2
_CLOSEDFILLED
 10
101.0
 20
487.0
 30
0.0
 41
6.604
 42
6.604
 50
90.0
  0
LINE
  5
C6
330
BD
100
AcDbEntity
  8
0
 62
7
100
AcDbLine
 10
101.0
 20
327.604
 30
0.0
 11
101.0
 21
480.396
 31
0.0
  0
MTEXT
  5
C7
330
BD
100
AcDbEntity
  8
DIM
 62
7
100
AcDbMText
 10
95.75
 20
404.0
 30
0.0
 40
7.0
 71
5
  1
166.00
  7
WB_CENTURY
 50
90.0
  0
POINT
  5
C8
330
BD
100
AcDbEntity
  8
Defpoints
100
AcDbPoint
 10
101.0
 20
321.0
 30
0.0
  0
POINT
  5
C9
330
BD
100
AcDbEntity
  8
Defpoints
100
AcDbPoint
 10
145.0
 20
321.0
 30
0.0
  0
POINT
  5
CA
330
BD
100
AcDbEntity
  8
Defpoints
100
AcDbPoint
 10
145.0
 20
487.0
 30
0.0
  0
ENDBLK
  5
BF
330
BD
100
AcDbEntity
  8
0
100
AcDbBlockEnd
  0
BLOCK
  5
E3
330
E2
100
AcDbEntity
  8
0
100
AcDbBlockBegin
  2
*D5
 70
1
 10
0.0
 20
0.0
 30
0.0
  3
*D5
  1

  0
LINE
  5
E5
330
E2
100
AcDbEntity
  8
0
 62
7
100
AcDbLine
 10
384.0
 20
496.5
 30
0.0
 11
384.0
 21
534.0
 31
0.0
  0
LINE
  5
E6
330
E2
100
AcDbEntity
  8
0
 62
7
100
AcDbLine
 10
470.5
 20
496.5
 30
0.0
 11
470.5
 21
534.0
 31
0.0
  0
INSERT
  5
E7
330
E2
100
AcDbEntity
  8
DIM
 62
7
100
AcDbBlockReference
  2
_CLOSEDFILLED
 10
384.0
 20
534.0
 30
0.0
 41
6.604
 42
6.604
 50
180.0
  0
INSERT
  5
E9
330
E2
100
AcDbEntity
  8
DIM
 62
7
100
AcDbBlockReference
  2
_CLOSEDFILLED
 10
470.5
 20
534.0
 30
0.0
 41
6.604
 42
6.604
  0
LINE
  5
EB
330
E2
100
AcDbEntity
  8
0
 62
7
100
AcDbLine
 10
390.604
 20
534.0
 30
0.0
 11
463.896
 21
534.0
 31
0.0
  0
MTEXT
  5
EC
330
E2
100
AcDbEntity
  8
DIM
 62
7
100
AcDbMText
 10
427.25
 20
539.25
 30
0.0
 40
7.0
 71
5
  1
(86.50) REF
  7
WB_CENTURY
  0
POINT
  5
ED
330
E2
100
AcDbEntity
  8
Defpoints
100
AcDbPoint
 10
384.0
 20
534.0
 30
0.0
  0
POINT
  5
EE
330
E2
100
AcDbEntity
  8
Defpoints
100
AcDbPoint
 10
384.0
 20
494.0
 30
0.0
  0
POINT
  5
EF
330
E2
100
AcDbEntity
  8
Defpoints
100
AcDbPoint
 10
470.5
 20
494.0
 30
0.0
  0
ENDBLK
  5
E4
330
E2
100
AcDbEntity
  8
0
100
AcDbBlockEnd
  0
BLOCK
  5
119
330
118
100
AcDbEntity
  8
0
100
AcDbBlockBegin
  2
*D6
 70
1
 10
0.0
 20
0.0
 30
0.0
  3
*D6
  1

  0
LINE
  5
11B
330
118
100
AcDbEntity
  8
0
 62
7
100
AcDbLine
 10
171.0
 20
222.5
 30
0.0
 11
171.0
 21
156.0
 31
0.0
  0
LINE
  5
11C
330
118
100
AcDbEntity
  8
0
 62
7
100
AcDbLine
 10
203.0
 20
222.5
 30
0.0
 11
203.0
 21
156.0
 31
0.0
  0
INSERT
  5
11D
330
118
100
AcDbEntity
  8
DIM
 62
7
100
AcDbBlockReference
  2
_CLOSEDFILLED
 10
171.0
 20
156.0
 30
0.0
 41
6.604
 42
6.604
 50
180.0
  0
INSERT
  5
11F
330
118
100
AcDbEntity
  8
DIM
 62
7
100
AcDbBlockReference
  2
_CLOSEDFILLED
 10
203.0
 20
156.0
 30
0.0
 41
6.604
 42
6.604
  0
LINE
  5
121
330
118
100
AcDbEntity
  8
0
 62
7
100
AcDbLine
 10
177.604
 20
156.0
 30
0.0
 11
196.396
 21
156.0
 31
0.0
  0
MTEXT
  5
122
330
118
100
AcDbEntity
  8
DIM
 62
7
100
AcDbMText
 10
187.0
 20
161.25
 30
0.0
 40
7.0
 71
5
  1
32.00
  7
WB_CENTURY
  0
POINT
  5
123
330
118
100
AcDbEntity
  8
Defpoints
100
AcDbPoint
 10
171.0
 20
156.0
 30
0.0
  0
POINT
  5
124
330
118
100
AcDbEntity
  8
Defpoints
100
AcDbPoint
 10
171.0
 20
225.0
 30
0.0
  0
POINT
  5
125
330
118
100
AcDbEntity
  8
Defpoints
100
AcDbPoint
 10
203.0
 20
225.0
 30
0.0
  0
ENDBLK
  5
11A
330
118
100
AcDbEntity
  8
0
100
AcDbBlockEnd
  0
BLOCK
  5
128
330
127
100
AcDbEntity
  8
0
100
AcDbBlockBegin
  2
*D7
 70
1
 10
0.0
 20
0.0
 30
0.0
  3
*D7
  1

  0
LINE
  5
12A
330
127
100
AcDbEntity
  8
0
 62
7
100
AcDbLine
 10
203.0
 20
222.5
 30
0.0
 11
203.0
 21
156.0
 31
0.0
  0
LINE
  5
12B
330
127
100
AcDbEntity
  8
0
 62
7
100
AcDbLine
 10
235.0
 20
222.5
 30
0.0
 11
235.0
 21
156.0
 31
0.0
  0
INSERT
  5
12C
330
127
100
AcDbEntity
  8
DIM
 62
7
100
AcDbBlockReference
  2
_CLOSEDFILLED
 10
203.0
 20
156.0
 30
0.0
 41
6.604
 42
6.604
 50
180.0
  0
INSERT
  5
12E
330
127
100
AcDbEntity
  8
DIM
 62
7
100
AcDbBlockReference
  2
_CLOSEDFILLED
 10
235.0
 20
156.0
 30
0.0
 41
6.604
 42
6.604
  0
LINE
  5
130
330
127
100
AcDbEntity
  8
0
 62
7
100
AcDbLine
 10
209.604
 20
156.0
 30
0.0
 11
228.396
 21
156.0
 31
0.0
  0
MTEXT
  5
131
330
127
100
AcDbEntity
  8
DIM
 62
7
100
AcDbMText
 10
219.0
 20
161.25
 30
0.0
 40
7.0
 71
5
  1
32.00
  7
WB_CENTURY
  0
POINT
  5
132
330
127
100
AcDbEntity
  8
Defpoints
100
AcDbPoint
 10
203.0
 20
156.0
 30
0.0
  0
POINT
  5
133
330
127
100
AcDbEntity
  8
Defpoints
100
AcDbPoint
 10
203.0
 20
225.0
 30
0.0
  0
POINT
  5
134
330
127
100
AcDbEntity
  8
Defpoints
100
AcDbPoint
 10
235.0
 20
225.0
 30
0.0
  0
ENDBLK
  5
129
330
127
100
AcDbEntity
  8
0
100
AcDbBlockEnd
  0
BLOCK
  5
137
330
136
100
AcDbEntity
  8
0
100
AcDbBlockBegin
  2
*D8
 70
1
 10
0.0
 20
0.0
 30
0.0
  3
*D8
  1

  0
LINE
  5
139
330
136
100
AcDbEntity
  8
0
 62
7
100
AcDbLine
 10
235.0
 20
222.5
 30
0.0
 11
235.0
 21
156.0
 31
0.0
  0
LINE
  5
13A
330
136
100
AcDbEntity
  8
0
 62
7
100
AcDbLine
 10
267.0
 20
222.5
 30
0.0
 11
267.0
 21
156.0
 31
0.0
  0
INSERT
  5
13B
330
136
100
AcDbEntity
  8
DIM
 62
7
100
AcDbBlockReference
  2
_CLOSEDFILLED
 10
235.0
 20
156.0
 30
0.0
 41
6.604
 42
6.604
 50
180.0
  0
INSERT
  5
13D
330
136
100
AcDbEntity
  8
DIM
 62
7
100
AcDbBlockReference
  2
_CLOSEDFILLED
 10
267.0
 20
156.0
 30
0.0
 41
6.604
 42
6.604
  0
LINE
  5
13F
330
136
100
AcDbEntity
  8
0
 62
7
100
AcDbLine
 10
241.604
 20
156.0
 30
0.0
 11
260.396
 21
156.0
 31
0.0
  0
MTEXT
  5
140
330
136
100
AcDbEntity
  8
DIM
 62
7
100
AcDbMText
 10
251.0
 20
161.25
 30
0.0
 40
7.0
 71
5
  1
32.00
  7
WB_CENTURY
  0
POINT
  5
141
330
136
100
AcDbEntity
  8
Defpoints
100
AcDbPoint
 10
235.0
 20
156.0
 30
0.0
  0
POINT
  5
142
330
136
100
AcDbEntity
  8
Defpoints
100
AcDbPoint
 10
235.0
 20
225.0
 30
0.0
  0
POINT
  5
143
330
136
100
AcDbEntity
  8
Defpoints
100
AcDbPoint
 10
267.0
 20
225.0
 30
0.0
  0
ENDBLK
  5
138
330
136
100
AcDbEntity
  8
0
100
AcDbBlockEnd
  0
BLOCK
  5
1AC
330
1AB
100
AcDbEntity
  8
0
100
AcDbBlockBegin
  2
*D9
 70
1
 10
0.0
 20
0.0
 30
0.0
  3
*D9
  1

  0
LINE
  5
1AE
330
1AB
100
AcDbEntity
  8
0
 62
7
100
AcDbLine
 10
1024.0
 20
482.5
 30
0.0
 11
1024.0
 21
540.0
 31
0.0
  0
LINE
  5
1AF
330
1AB
100
AcDbEntity
  8
0
 62
7
100
AcDbLine
 10
1214.0
 20
482.5
 30
0.0
 11
1214.0
 21
540.0
 31
0.0
  0
INSERT
  5
1B0
330
1AB
100
AcDbEntity
  8
DIM
 62
7
100
AcDbBlockReference
  2
_CLOSEDFILLED
 10
1024.0
 20
540.0
 30
0.0
 41
6.604
 42
6.604
 50
180.0
  0
INSERT
  5
1B2
330
1AB
100
AcDbEntity
  8
DIM
 62
7
100
AcDbBlockReference
  2
_CLOSEDFILLED
 10
1214.0
 20
540.0
 30
0.0
 41
6.604
 42
6.604
  0
LINE
  5
1B4
330
1AB
100
AcDbEntity
  8
0
 62
7
100
AcDbLine
 10
1030.604
 20
540.0
 30
0.0
 11
1207.396
 21
540.0
 31
0.0
  0
MTEXT
  5
1B5
330
1AB
100
AcDbEntity
  8
DIM
 62
7
100
AcDbMText
 10
1119.0
 20
545.25
 30
0.0
 40
7.0
 71
5
  1
190.00
  7
WB_CENTURY
  0
POINT
  5
1B6
330
1AB
100
AcDbEntity
  8
Defpoints
100
AcDbPoint
 10
1024.0
 20
540.0
 30
0.0
  0
POINT
  5
1B7
330
1AB
100
AcDbEntity
  8
Defpoints
100
AcDbPoint
 10
1024.0
 20
480.0
 30
0.0
  0
POINT
  5
1B8
330
1AB
100
AcDbEntity
  8
Defpoints
100
AcDbPoint
 10
1214.0
 20
480.0
 30
0.0
  0
ENDBLK
  5
1AD
330
1AB
100
AcDbEntity
  8
0
100
AcDbBlockEnd
  0
BLOCK
  5
1BB
330
1BA
100
AcDbEntity
  8
0
100
AcDbBlockBegin
  2
*D10
 70
1
 10
0.0
 20
0.0
 30
0.0
  3
*D10
  1

  0
LINE
  5
1BD
330
1BA
100
AcDbEntity
  8
0
 62
7
100
AcDbLine
 10
1045.0
 20
475.5
 30
0.0
 11
1045.0
 21
514.0
 31
0.0
  0
LINE
  5
1BE
330
1BA
100
AcDbEntity
  8
0
 62
7
100
AcDbLine
 10
1193.0
 20
475.5
 30
0.0
 11
1193.0
 21
514.0
 31
0.0
  0
INSERT
  5
1BF
330
1BA
100
AcDbEntity
  8
DIM
 62
7
100
AcDbBlockReference
  2
_CLOSEDFILLED
 10
1045.0
 20
514.0
 30
0.0
 41
6.604
 42
6.604
 50
180.0
  0
INSERT
  5
1C1
330
1BA
100
AcDbEntity
  8
DIM
 62
7
100
AcDbBlockReference
  2
_CLOSEDFILLED
 10
1193.0
 20
514.0
 30
0.0
 41
6.604
 42
6.604
  0
LINE
  5
1C3
330
1BA
100
AcDbEntity
  8
0
 62
7
100
AcDbLine
 10
1051.604
 20
514.0
 30
0.0
 11
1186.396
 21
514.0
 31
0.0
  0
MTEXT
  5
1C4
330
1BA
100
AcDbEntity
  8
DIM
 62
7
100
AcDbMText
 10
1119.0
 20
519.25
 30
0.0
 40
7.0
 71
5
  1
148.00
  7
WB_CENTURY
  0
POINT
  5
1C5
330
1BA
100
AcDbEntity
  8
Defpoints
100
AcDbPoint
 10
1045.0
 20
514.0
 30
0.0
  0
POINT
  5
1C6
330
1BA
100
AcDbEntity
  8
Defpoints
100
AcDbPoint
 10
1045.0
 20
473.0
 30
0.0
  0
POINT
  5
1C7
330
1BA
100
AcDbEntity
  8
Defpoints
100
AcDbPoint
 10
1193.0
 20
473.0
 30
0.0
  0
ENDBLK
  5
1BC
330
1BA
100
AcDbEntity
  8
0
100
AcDbBlockEnd
  0
BLOCK
  5
1CA
330
1C9
100
AcDbEntity
  8
0
100
AcDbBlockBegin
  2
*D11
 70
1
 10
0.0
 20
0.0
 30
0.0
  3
*D11
  1

  0
LINE
  5
1CC
330
1C9
100
AcDbEntity
  8
0
 62
7
100
AcDbLine
 10
1021.5
 20
300.0
 30
0.0
 11
976.0
 21
300.0
 31
0.0
  0
LINE
  5
1CD
330
1C9
100
AcDbEntity
  8
0
 62
7
100
AcDbLine
 10
1021.5
 20
480.0
 30
0.0
 11
976.0
 21
480.0
 31
0.0
  0
INSERT
  5
1CE
330
1C9
100
AcDbEntity
  8
DIM
 62
7
100
AcDbBlockReference
  2
_CLOSEDFILLED
 10
976.0
 20
300.0
 30
0.0
 41
6.604
 42
6.604
 50
270.0
  0
INSERT
  5
1D0
330
1C9
100
AcDbEntity
  8
DIM
 62
7
100
AcDbBlockReference
  2
_CLOSEDFILLED
 10
976.0
 20
480.0
 30
0.0
 41
6.604
 42
6.604
 50
90.0
  0
LINE
  5
1D2
330
1C9
100
AcDbEntity
  8
0
 62
7
100
AcDbLine
 10
976.0
 20
306.604
 30
0.0
 11
976.0
 21
473.396
 31
0.0
  0
MTEXT
  5
1D3
330
1C9
100
AcDbEntity
  8
DIM
 62
7
100
AcDbMText
 10
970.75
 20
390.0
 30
0.0
 40
7.0
 71
5
  1
180.00
  7
WB_CENTURY
 50
90.0
  0
POINT
  5
1D4
330
1C9
100
AcDbEntity
  8
Defpoints
100
AcDbPoint
 10
976.0
 20
300.0
 30
0.0
  0
POINT
  5
1D5
330
1C9
100
AcDbEntity
  8
Defpoints
100
AcDbPoint
 10
1024.0
 20
300.0
 30
0.0
  0
POINT
  5
1D6
330
1C9
100
AcDbEntity
  8
Defpoints
100
AcDbPoint
 10
1024.0
 20
480.0
 30
0.0
  0
ENDBLK
  5
1CB
330
1C9
100
AcDbEntity
  8
0
100
AcDbBlockEnd
  0
BLOCK
  5
1D9
330
1D8
100
AcDbEntity
  8
0
100
AcDbBlockBegin
  2
*D12
 70
1
 10
0.0
 20
0.0
 30
0.0
  3
*D12
  1

  0
LINE
  5
1DB
330
1D8
100
AcDbEntity
  8
0
 62
7
100
AcDbLine
 10
1042.5
 20
307.0
 30
0.0
 11
1001.0
 21
307.0
 31
0.0
  0
LINE
  5
1DC
330
1D8
100
AcDbEntity
  8
0
 62
7
100
AcDbLine
 10
1042.5
 20
473.0
 30
0.0
 11
1001.0
 21
473.0
 31
0.0
  0
INSERT
  5
1DD
330
1D8
100
AcDbEntity
  8
DIM
 62
7
100
AcDbBlockReference
  2
_CLOSEDFILLED
 10
1001.0
 20
307.0
 30
0.0
 41
6.604
 42
6.604
 50
270.0
  0
INSERT
  5
1DF
330
1D8
100
AcDbEntity
  8
DIM
 62
7
100
AcDbBlockReference
  2
_CLOSEDFILLED
 10
1001.0
 20
473.0
 30
0.0
 41
6.604
 42
6.604
 50
90.0
  0
LINE
  5
1E1
330
1D8
100
AcDbEntity
  8
0
 62
7
100
AcDbLine
 10
1001.0
 20
313.604
 30
0.0
 11
1001.0
 21
466.396
 31
0.0
  0
MTEXT
  5
1E2
330
1D8
100
AcDbEntity
  8
DIM
 62
7
100
AcDbMText
 10
995.75
 20
390.0
 30
0.0
 40
7.0
 71
5
  1
166.00
  7
WB_CENTURY
 50
90.0
  0
POINT
  5
1E3
330
1D8
100
AcDbEntity
  8
Defpoints
100
AcDbPoint
 10
1001.0
 20
307.0
 30
0.0
  0
POINT
  5
1E4
330
1D8
100
AcDbEntity
  8
Defpoints
100
AcDbPoint
 10
1045.0
 20
307.0
 30
0.0
  0
POINT
  5
1E5
330
1D8
100
AcDbEntity
  8
Defpoints
100
AcDbPoint
 10
1045.0
 20
473.0
 30
0.0
  0
ENDBLK
  5
1DA
330
1D8
100
AcDbEntity
  8
0
100
AcDbBlockEnd
  0
BLOCK
  5
1E8
330
1E7
100
AcDbEntity
  8
0
100
AcDbBlockBegin
  2
*D13
 70
1
 10
0.0
 20
0.0
 30
0.0
  3
*D13
  1

  0
LINE
  5
1EA
330
1E7
100
AcDbEntity
  8
0
 62
7
100
AcDbLine
 10
1024.0
 20
297.5
 30
0.0
 11
1024.0
 21
278.0
 31
0.0
  0
LINE
  5
1EB
330
1E7
100
AcDbEntity
  8
0
 62
7
100
AcDbLine
 10
1045.0
 20
304.5
 30
0.0
 11
1045.0
 21
278.0
 31
0.0
  0
INSERT
  5
1EC
330
1E7
100
AcDbEntity
  8
DIM
 62
7
100
AcDbBlockReference
  2
_CLOSEDFILLED
 10
1024.0
 20
278.0
 30
0.0
 41
6.604
 42
6.604
 50
180.0
  0
INSERT
  5
1EE
330
1E7
100
AcDbEntity
  8
DIM
 62
7
100
AcDbBlockReference
  2
_CLOSEDFILLED
 10
1045.0
 20
278.0
 30
0.0
 41
6.604
 42
6.604
  0
LINE
  5
1F0
330
1E7
100
AcDbEntity
  8
0
 62
7
100
AcDbLine
 10
1030.604
 20
278.0
 30
0.0
 11
1038.396
 21
278.0
 31
0.0
  0
MTEXT
  5
1F1
330
1E7
100
AcDbEntity
  8
DIM
 62
7
100
AcDbMText
 10
1034.5
 20
283.25
 30
0.0
 40
7.0
 71
5
  1
21.00
  7
WB_CENTURY
  0
POINT
  5
1F2
330
1E7
100
AcDbEntity
  8
Defpoints
100
AcDbPoint
 10
1024.0
 20
278.0
 30
0.0
  0
POINT
  5
1F3
330
1E7
100
AcDbEntity
  8
Defpoints
100
AcDbPoint
 10
1024.0
 20
300.0
 30
0.0
  0
POINT
  5
1F4
330
1E7
100
AcDbEntity
  8
Defpoints
100
AcDbPoint
 10
1045.0
 20
307.0
 30
0.0
  0
ENDBLK
  5
1E9
330
1E7
100
AcDbEntity
  8
0
100
AcDbBlockEnd
  0
BLOCK
  5
1F7
330
1F6
100
AcDbEntity
  8
0
100
AcDbBlockBegin
  2
*D14
 70
1
 10
0.0
 20
0.0
 30
0.0
  3
*D14
  1

  0
LINE
  5
1F9
330
1F6
100
AcDbEntity
  8
0
 62
7
100
AcDbLine
 10
1193.0
 20
304.5
 30
0.0
 11
1193.0
 21
278.0
 31
0.0
  0
LINE
  5
1FA
330
1F6
100
AcDbEntity
  8
0
 62
7
100
AcDbLine
 10
1214.0
 20
297.5
 30
0.0
 11
1214.0
 21
278.0
 31
0.0
  0
INSERT
  5
1FB
330
1F6
100
AcDbEntity
  8
DIM
 62
7
100
AcDbBlockReference
  2
_CLOSEDFILLED
 10
1193.0
 20
278.0
 30
0.0
 41
6.604
 42
6.604
 50
180.0
  0
INSERT
  5
1FD
330
1F6
100
AcDbEntity
  8
DIM
 62
7
100
AcDbBlockReference
  2
_CLOSEDFILLED
 10
1214.0
 20
278.0
 30
0.0
 41
6.604
 42
6.604
  0
LINE
  5
1FF
330
1F6
100
AcDbEntity
  8
0
 62
7
100
AcDbLine
 10
1199.604
 20
278.0
 30
0.0
 11
1207.396
 21
278.0
 31
0.0
  0
MTEXT
  5
200
330
1F6
100
AcDbEntity
  8
DIM
 62
7
100
AcDbMText
 10
1203.5
 20
283.25
 30
0.0
 40
7.0
 71
5
  1
21.00
  7
WB_CENTURY
  0
POINT
  5
201
330
1F6
100
AcDbEntity
  8
Defpoints
100
AcDbPoint
 10
1193.0
 20
278.0
 30
0.0
  0
POINT
  5
202
330
1F6
100
AcDbEntity
  8
Defpoints
100
AcDbPoint
 10
1193.0
 20
307.0
 30
0.0
  0
POINT
  5
203
330
1F6
100
AcDbEntity
  8
Defpoints
100
AcDbPoint
 10
1214.0
 20
300.0
 30
0.0
  0
ENDBLK
  5
1F8
330
1F6
100
AcDbEntity
  8
0
100
AcDbBlockEnd
  0
BLOCK
  5
27A
330
38
100
AcDbEntity
  8
0
100
AcDbBlockBegin
  2
*D15
 70
1
 10
0.0
 20
0.0
 30
0.0
  3
*D15
  1

  0
LINE
  5
27C
330
38
100
AcDbEntity
  8
0
 62
7
100
AcDbLine
 10
124.0
 20
496.5
 30
0.0
 11
124.0
 21
544.0
 31
0.0
  0
LINE
  5
27D
330
38
100
AcDbEntity
  8
0
 62
7
100
AcDbLine
 10
314.0
 20
496.5
 30
0.0
 11
314.0
 21
544.0
 31
0.0
  0
INSERT
  5
27E
330
38
100
AcDbEntity
  8
DIM
 62
7
100
AcDbBlockReference
  2
_CLOSEDFILLED
 10
124.0
 20
544.0
 30
0.0
 41
6.604
 42
6.604
 50
180.0
  0
INSERT
  5
280
330
38
100
AcDbEntity
  8
DIM
 62
7
100
AcDbBlockReference
  2
_CLOSEDFILLED
 10
314.0
 20
544.0
 30
0.0
 41
6.604
 42
6.604
  0
LINE
  5
282
330
38
100
AcDbEntity
  8
0
 62
7
100
AcDbLine
 10
130.604
 20
544.0
 30
0.0
 11
307.396
 21
544.0
 31
0.0
  0
MTEXT
  5
283
330
38
100
AcDbEntity
  8
DIM
 62
7
100
AcDbMText
 10
219.0
 20
549.25
 30
0.0
 40
7.0
 71
5
  1
190.00
  7
WB_CENTURY
  0
POINT
  5
284
330
38
100
AcDbEntity
  8
Defpoints
100
AcDbPoint
 10
124.0
 20
544.0
 30
0.0
  0
POINT
  5
285
330
38
100
AcDbEntity
  8
Defpoints
100
AcDbPoint
 10
124.0
 20
494.0
 30
0.0
  0
POINT
  5
286
330
38
100
AcDbEntity
  8
Defpoints
100
AcDbPoint
 10
314.0
 20
494.0
 30
0.0
  0
ENDBLK
  5
27B
330
38
100
AcDbEntity
  8
0
100
AcDbBlockEnd
  0
BLOCK
  5
287
330
39
100
AcDbEntity
  8
0
100
AcDbBlockBegin
  2
_CLOSEDFILLED
 70
0
 10
0.0
 20
0.0
 30
0.0
  3
_CLOSEDFILLED
  1

  0
SOLID
  5
289
330
39
100
AcDbEntity
  8
0
  6
BYBLOCK
 62
0
100
AcDbTrace
 10
-1.0
 20
0.16439898372402537
 30
0.0
 11
0.0
 21
0.0
 31
0.0
 12
-1.0
 22
-0.16439898372402537
 32
0.0
 13
-1.0
 23
-0.16439898372402537
 33
0.0
  0
ENDBLK
  5
288
330
39
100
AcDbEntity
  8
0
100
AcDbBlockEnd
  0
BLOCK
  5
28A
330
3C
100
AcDbEntity
  8
0
100
AcDbBlockBegin
  2
*D16
 70
1
 10
0.0
 20
0.0
 30
0.0
  3
*D16
  1

  0
LINE
  5
28C
330
3C
100
AcDbEntity
  8
0
 62
7
100
AcDbLine
 10
145.0
 20
489.5
 30
0.0
 11
145.0
 21
520.0
 31
0.0
  0
LINE
  5
28D
330
3C
100
AcDbEntity
  8
0
 62
7
100
AcDbLine
 10
293.0
 20
489.5
 30
0.0
 11
293.0
 21
520.0
 31
0.0
  0
INSERT
  5
28E
330
3C
100
AcDbEntity
  8
DIM
 62
7
100
AcDbBlockReference
  2
_CLOSEDFILLED
 10
145.0
 20
520.0
 30
0.0
 41
6.604
 42
6.604
 50
180.0
  0
INSERT
  5
290
330
3C
100
AcDbEntity
  8
DIM
 62
7
100
AcDbBlockReference
  2
_CLOSEDFILLED
 10
293.0
 20
520.0
 30
0.0
 41
6.604
 42
6.604
  0
LINE
  5
292
330
3C
100
AcDbEntity
  8
0
 62
7
100
AcDbLine
 10
151.604
 20
520.0
 30
0.0
 11
286.396
 21
520.0
 31
0.0
  0
MTEXT
  5
293
330
3C
100
AcDbEntity
  8
DIM
 62
7
100
AcDbMText
 10
219.0
 20
525.25
 30
0.0
 40
7.0
 71
5
  1
148.00
  7
WB_CENTURY
  0
POINT
  5
294
330
3C
100
AcDbEntity
  8
Defpoints
100
AcDbPoint
 10
145.0
 20
520.0
 30
0.0
  0
POINT
  5
295
330
3C
100
AcDbEntity
  8
Defpoints
100
AcDbPoint
 10
145.0
 20
487.0
 30
0.0
  0
POINT
  5
296
330
3C
100
AcDbEntity
  8
Defpoints
100
AcDbPoint
 10
293.0
 20
487.0
 30
0.0
  0
ENDBLK
  5
28B
330
3C
100
AcDbEntity
  8
0
100
AcDbBlockEnd
  0
BLOCK
  5
297
330
3D
100
AcDbEntity
  8
0
100
AcDbBlockBegin
  2
*D17
 70
1
 10
0.0
 20
0.0
 30
0.0
  3
*D17
  1

  0
LINE
  5
299
330
3D
100
AcDbEntity
  8
0
 62
7
100
AcDbLine
 10
121.5
 20
314.0
 30
0.0
 11
76.0
 21
314.0
 31
0.0
  0
LINE
  5
29A
330
3D
100
AcDbEntity
  8
0
 62
7
100
AcDbLine
 10
121.5
 20
494.0
 30
0.0
 11
76.0
 21
494.0
 31
0.0
  0
INSERT
  5
29B
330
3D
100
AcDbEntity
  8
DIM
 62
7
100
AcDbBlockReference
  2
_CLOSEDFILLED
 10
76.0
 20
314.0
 30
0.0
 41
6.604
 42
6.604
 50
270.0
  0
INSERT
  5
29D
330
3D
100
AcDbEntity
  8
DIM
 62
7
100
AcDbBlockReference
  2
_CLOSEDFILLED
 10
76.0
 20
494.0
 30
0.0
 41
6.604
 42
6.604
 50
90.0
  0
LINE
  5
29F
330
3D
100
AcDbEntity
  8
0
 62
7
100
AcDbLine
 10
76.0
 20
320.604
 30
0.0
 11
76.0
 21
487.396
 31
0.0
  0
MTEXT
  5
2A0
330
3D
100
AcDbEntity
  8
DIM
 62
7
100
AcDbMText
 10
70.75
 20
404.0
 30
0.0
 40
7.0
 71
5
  1
180.00
  7
WB_CENTURY
 50
90.0
  0
POINT
  5
2A1
330
3D
100
AcDbEntity
  8
Defpoints
100
AcDbPoint
 10
76.0
 20
314.0
 30
0.0
  0
POINT
  5
2A2
330
3D
100
AcDbEntity
  8
Defpoints
100
AcDbPoint
 10
124.0
 20
314.0
 30
0.0
  0
POINT
  5
2A3
330
3D
100
AcDbEntity
  8
Defpoints
100
AcDbPoint
 10
124.0
 20
494.0
 30
0.0
  0
ENDBLK
  5
298
330
3D
100
AcDbEntity
  8
0
100
AcDbBlockEnd
  0
BLOCK
  5
2A4
330
3E
100
AcDbEntity
  8
0
100
AcDbBlockBegin
  2
*D18
 70
1
 10
0.0
 20
0.0
 30
0.0
  3
*D18
  1

  0
LINE
  5
2A6
330
3E
100
AcDbEntity
  8
0
 62
7
100
AcDbLine
 10
142.5
 20
321.0
 30
0.0
 11
101.0
 21
321.0
 31
0.0
  0
LINE
  5
2A7
330
3E
100
AcDbEntity
  8
0
 62
7
100
AcDbLine
 10
142.5
 20
487.0
 30
0.0
 11
101.0
 21
487.0
 31
0.0
  0
INSERT
  5
2A8
330
3E
100
AcDbEntity
  8
DIM
 62
7
100
AcDbBlockReference
  2
_CLOSEDFILLED
 10
101.0
 20
321.0
 30
0.0
 41
6.604
 42
6.604
 50
270.0
  0
INSERT
  5
2AA
330
3E
100
AcDbEntity
  8
DIM
 62
7
100
AcDbBlockReference
  2
_CLOSEDFILLED
 10
101.0
 20
487.0
 30
0.0
 41
6.604
 42
6.604
 50
90.0
  0
LINE
  5
2AC
330
3E
100
AcDbEntity
  8
0
 62
7
100
AcDbLine
 10
101.0
 20
327.604
 30
0.0
 11
101.0
 21
480.396
 31
0.0
  0
MTEXT
  5
2AD
330
3E
100
AcDbEntity
  8
DIM
 62
7
100
AcDbMText
 10
95.75
 20
404.0
 30
0.0
 40
7.0
 71
5
  1
166.00
  7
WB_CENTURY
 50
90.0
  0
POINT
  5
2AE
330
3E
100
AcDbEntity
  8
Defpoints
100
AcDbPoint
 10
101.0
 20
321.0
 30
0.0
  0
POINT
  5
2AF
330
3E
100
AcDbEntity
  8
Defpoints
100
AcDbPoint
 10
145.0
 20
321.0
 30
0.0
  0
POINT
  5
2B0
330
3E
100
AcDbEntity
  8
Defpoints
100
AcDbPoint
 10
145.0
 20
487.0
 30
0.0
  0
ENDBLK
  5
2A5
330
3E
100
AcDbEntity
  8
0
100
AcDbBlockEnd
  0
BLOCK
  5
2B1
330
42
100
AcDbEntity
  8
0
100
AcDbBlockBegin
  2
*D19
 70
1
 10
0.0
 20
0.0
 30
0.0
  3
*D19
  1

  0
LINE
  5
2B3
330
42
100
AcDbEntity
  8
0
 62
7
100
AcDbLine
 10
384.0
 20
496.5
 30
0.0
 11
384.0
 21
534.0
 31
0.0
  0
LINE
  5
2B4
330
42
100
AcDbEntity
  8
0
 62
7
100
AcDbLine
 10
470.5
 20
496.5
 30
0.0
 11
470.5
 21
534.0
 31
0.0
  0
INSERT
  5
2B5
330
42
100
AcDbEntity
  8
DIM
 62
7
100
AcDbBlockReference
  2
_CLOSEDFILLED
 10
384.0
 20
534.0
 30
0.0
 41
6.604
 42
6.604
 50
180.0
  0
INSERT
  5
2B7
330
42
100
AcDbEntity
  8
DIM
 62
7
100
AcDbBlockReference
  2
_CLOSEDFILLED
 10
470.5
 20
534.0
 30
0.0
 41
6.604
 42
6.604
  0
LINE
  5
2B9
330
42
100
AcDbEntity
  8
0
 62
7
100
AcDbLine
 10
390.604
 20
534.0
 30
0.0
 11
463.896
 21
534.0
 31
0.0
  0
MTEXT
  5
2BA
330
42
100
AcDbEntity
  8
DIM
 62
7
100
AcDbMText
 10
427.25
 20
539.25
 30
0.0
 40
7.0
 71
5
  1
(86.50) REF
  7
WB_CENTURY
  0
POINT
  5
2BB
330
42
100
AcDbEntity
  8
Defpoints
100
AcDbPoint
 10
384.0
 20
534.0
 30
0.0
  0
POINT
  5
2BC
330
42
100
AcDbEntity
  8
Defpoints
100
AcDbPoint
 10
384.0
 20
494.0
 30
0.0
  0
POINT
  5
2BD
330
42
100
AcDbEntity
  8
Defpoints
100
AcDbPoint
 10
470.5
 20
494.0
 30
0.0
  0
ENDBLK
  5
2B2
330
42
100
AcDbEntity
  8
0
100
AcDbBlockEnd
  0
BLOCK
  5
2BE
330
43
100
AcDbEntity
  8
0
100
AcDbBlockBegin
  2
*D20
 70
1
 10
0.0
 20
0.0
 30
0.0
  3
*D20
  1

  0
LINE
  5
2C0
330
43
100
AcDbEntity
  8
0
 62
7
100
AcDbLine
 10
171.0
 20
222.5
 30
0.0
 11
171.0
 21
156.0
 31
0.0
  0
LINE
  5
2C1
330
43
100
AcDbEntity
  8
0
 62
7
100
AcDbLine
 10
203.0
 20
222.5
 30
0.0
 11
203.0
 21
156.0
 31
0.0
  0
INSERT
  5
2C2
330
43
100
AcDbEntity
  8
DIM
 62
7
100
AcDbBlockReference
  2
_CLOSEDFILLED
 10
171.0
 20
156.0
 30
0.0
 41
6.604
 42
6.604
 50
180.0
  0
INSERT
  5
2C4
330
43
100
AcDbEntity
  8
DIM
 62
7
100
AcDbBlockReference
  2
_CLOSEDFILLED
 10
203.0
 20
156.0
 30
0.0
 41
6.604
 42
6.604
  0
LINE
  5
2C6
330
43
100
AcDbEntity
  8
0
 62
7
100
AcDbLine
 10
177.604
 20
156.0
 30
0.0
 11
196.396
 21
156.0
 31
0.0
  0
MTEXT
  5
2C7
330
43
100
AcDbEntity
  8
DIM
 62
7
100
AcDbMText
 10
187.0
 20
161.25
 30
0.0
 40
7.0
 71
5
  1
32.00
  7
WB_CENTURY
  0
POINT
  5
2C8
330
43
100
AcDbEntity
  8
Defpoints
100
AcDbPoint
 10
171.0
 20
156.0
 30
0.0
  0
POINT
  5
2C9
330
43
100
AcDbEntity
  8
Defpoints
100
AcDbPoint
 10
171.0
 20
225.0
 30
0.0
  0
POINT
  5
2CA
330
43
100
AcDbEntity
  8
Defpoints
100
AcDbPoint
 10
203.0
 20
225.0
 30
0.0
  0
ENDBLK
  5
2BF
330
43
100
AcDbEntity
  8
0
100
AcDbBlockEnd
  0
BLOCK
  5
2CB
330
44
100
AcDbEntity
  8
0
100
AcDbBlockBegin
  2
*D21
 70
1
 10
0.0
 20
0.0
 30
0.0
  3
*D21
  1

  0
LINE
  5
2CD
330
44
100
AcDbEntity
  8
0
 62
7
100
AcDbLine
 10
203.0
 20
222.5
 30
0.0
 11
203.0
 21
156.0
 31
0.0
  0
LINE
  5
2CE
330
44
100
AcDbEntity
  8
0
 62
7
100
AcDbLine
 10
235.0
 20
222.5
 30
0.0
 11
235.0
 21
156.0
 31
0.0
  0
INSERT
  5
2CF
330
44
100
AcDbEntity
  8
DIM
 62
7
100
AcDbBlockReference
  2
_CLOSEDFILLED
 10
203.0
 20
156.0
 30
0.0
 41
6.604
 42
6.604
 50
180.0
  0
INSERT
  5
2D1
330
44
100
AcDbEntity
  8
DIM
 62
7
100
AcDbBlockReference
  2
_CLOSEDFILLED
 10
235.0
 20
156.0
 30
0.0
 41
6.604
 42
6.604
  0
LINE
  5
2D3
330
44
100
AcDbEntity
  8
0
 62
7
100
AcDbLine
 10
209.604
 20
156.0
 30
0.0
 11
228.396
 21
156.0
 31
0.0
  0
MTEXT
  5
2D4
330
44
100
AcDbEntity
  8
DIM
 62
7
100
AcDbMText
 10
219.0
 20
161.25
 30
0.0
 40
7.0
 71
5
  1
32.00
  7
WB_CENTURY
  0
POINT
  5
2D5
330
44
100
AcDbEntity
  8
Defpoints
100
AcDbPoint
 10
203.0
 20
156.0
 30
0.0
  0
POINT
  5
2D6
330
44
100
AcDbEntity
  8
Defpoints
100
AcDbPoint
 10
203.0
 20
225.0
 30
0.0
  0
POINT
  5
2D7
330
44
100
AcDbEntity
  8
Defpoints
100
AcDbPoint
 10
235.0
 20
225.0
 30
0.0
  0
ENDBLK
  5
2CC
330
44
100
AcDbEntity
  8
0
100
AcDbBlockEnd
  0
BLOCK
  5
2D8
330
45
100
AcDbEntity
  8
0
100
AcDbBlockBegin
  2
*D22
 70
1
 10
0.0
 20
0.0
 30
0.0
  3
*D22
  1

  0
LINE
  5
2DA
330
45
100
AcDbEntity
  8
0
 62
7
100
AcDbLine
 10
235.0
 20
222.5
 30
0.0
 11
235.0
 21
156.0
 31
0.0
  0
LINE
  5
2DB
330
45
100
AcDbEntity
  8
0
 62
7
100
AcDbLine
 10
267.0
 20
222.5
 30
0.0
 11
267.0
 21
156.0
 31
0.0
  0
INSERT
  5
2DC
330
45
100
AcDbEntity
  8
DIM
 62
7
100
AcDbBlockReference
  2
_CLOSEDFILLED
 10
235.0
 20
156.0
 30
0.0
 41
6.604
 42
6.604
 50
180.0
  0
INSERT
  5
2DE
330
45
100
AcDbEntity
  8
DIM
 62
7
100
AcDbBlockReference
  2
_CLOSEDFILLED
 10
267.0
 20
156.0
 30
0.0
 41
6.604
 42
6.604
  0
LINE
  5
2E0
330
45
100
AcDbEntity
  8
0
 62
7
100
AcDbLine
 10
241.604
 20
156.0
 30
0.0
 11
260.396
 21
156.0
 31
0.0
  0
MTEXT
  5
2E1
330
45
100
AcDbEntity
  8
DIM
 62
7
100
AcDbMText
 10
251.0
 20
161.25
 30
0.0
 40
7.0
 71
5
  1
32.00
  7
WB_CENTURY
  0
POINT
  5
2E2
330
45
100
AcDbEntity
  8
Defpoints
100
AcDbPoint
 10
235.0
 20
156.0
 30
0.0
  0
POINT
  5
2E3
330
45
100
AcDbEntity
  8
Defpoints
100
AcDbPoint
 10
235.0
 20
225.0
 30
0.0
  0
POINT
  5
2E4
330
45
100
AcDbEntity
  8
Defpoints
100
AcDbPoint
 10
267.0
 20
225.0
 30
0.0
  0
ENDBLK
  5
2D9
330
45
100
AcDbEntity
  8
0
100
AcDbBlockEnd
  0
BLOCK
  5
2E5
330
49
100
AcDbEntity
  8
0
100
AcDbBlockBegin
  2
*D23
 70
1
 10
0.0
 20
0.0
 30
0.0
  3
*D23
  1

  0
LINE
  5
2E7
330
49
100
AcDbEntity
  8
0
 62
7
100
AcDbLine
 10
1024.0
 20
482.5
 30
0.0
 11
1024.0
 21
540.0
 31
0.0
  0
LINE
  5
2E8
330
49
100
AcDbEntity
  8
0
 62
7
100
AcDbLine
 10
1214.0
 20
482.5
 30
0.0
 11
1214.0
 21
540.0
 31
0.0
  0
INSERT
  5
2E9
330
49
100
AcDbEntity
  8
DIM
 62
7
100
AcDbBlockReference
  2
_CLOSEDFILLED
 10
1024.0
 20
540.0
 30
0.0
 41
6.604
 42
6.604
 50
180.0
  0
INSERT
  5
2EB
330
49
100
AcDbEntity
  8
DIM
 62
7
100
AcDbBlockReference
  2
_CLOSEDFILLED
 10
1214.0
 20
540.0
 30
0.0
 41
6.604
 42
6.604
  0
LINE
  5
2ED
330
49
100
AcDbEntity
  8
0
 62
7
100
AcDbLine
 10
1030.604
 20
540.0
 30
0.0
 11
1207.396
 21
540.0
 31
0.0
  0
MTEXT
  5
2EE
330
49
100
AcDbEntity
  8
DIM
 62
7
100
AcDbMText
 10
1119.0
 20
545.25
 30
0.0
 40
7.0
 71
5
  1
190.00
  7
WB_CENTURY
  0
POINT
  5
2EF
330
49
100
AcDbEntity
  8
Defpoints
100
AcDbPoint
 10
1024.0
 20
540.0
 30
0.0
  0
POINT
  5
2F0
330
49
100
AcDbEntity
  8
Defpoints
100
AcDbPoint
 10
1024.0
 20
480.0
 30
0.0
  0
POINT
  5
2F1
330
49
100
AcDbEntity
  8
Defpoints
100
AcDbPoint
 10
1214.0
 20
480.0
 30
0.0
  0
ENDBLK
  5
2E6
330
49
100
AcDbEntity
  8
0
100
AcDbBlockEnd
  0
BLOCK
  5
2F2
330
4A
100
AcDbEntity
  8
0
100
AcDbBlockBegin
  2
*D24
 70
1
 10
0.0
 20
0.0
 30
0.0
  3
*D24
  1

  0
LINE
  5
2F4
330
4A
100
AcDbEntity
  8
0
 62
7
100
AcDbLine
 10
1045.0
 20
475.5
 30
0.0
 11
1045.0
 21
514.0
 31
0.0
  0
LINE
  5
2F5
330
4A
100
AcDbEntity
  8
0
 62
7
100
AcDbLine
 10
1193.0
 20
475.5
 30
0.0
 11
1193.0
 21
514.0
 31
0.0
  0
INSERT
  5
2F6
330
4A
100
AcDbEntity
  8
DIM
 62
7
100
AcDbBlockReference
  2
_CLOSEDFILLED
 10
1045.0
 20
514.0
 30
0.0
 41
6.604
 42
6.604
 50
180.0
  0
INSERT
  5
2F8
330
4A
100
AcDbEntity
  8
DIM
 62
7
100
AcDbBlockReference
  2
_CLOSEDFILLED
 10
1193.0
 20
514.0
 30
0.0
 41
6.604
 42
6.604
  0
LINE
  5
2FA
330
4A
100
AcDbEntity
  8
0
 62
7
100
AcDbLine
 10
1051.604
 20
514.0
 30
0.0
 11
1186.396
 21
514.0
 31
0.0
  0
MTEXT
  5
2FB
330
4A
100
AcDbEntity
  8
DIM
 62
7
100
AcDbMText
 10
1119.0
 20
519.25
 30
0.0
 40
7.0
 71
5
  1
148.00
  7
WB_CENTURY
  0
POINT
  5
2FC
330
4A
100
AcDbEntity
  8
Defpoints
100
AcDbPoint
 10
1045.0
 20
514.0
 30
0.0
  0
POINT
  5
2FD
330
4A
100
AcDbEntity
  8
Defpoints
100
AcDbPoint
 10
1045.0
 20
473.0
 30
0.0
  0
POINT
  5
2FE
330
4A
100
AcDbEntity
  8
Defpoints
100
AcDbPoint
 10
1193.0
 20
473.0
 30
0.0
  0
ENDBLK
  5
2F3
330
4A
100
AcDbEntity
  8
0
100
AcDbBlockEnd
  0
BLOCK
  5
2FF
330
4B
100
AcDbEntity
  8
0
100
AcDbBlockBegin
  2
*D25
 70
1
 10
0.0
 20
0.0
 30
0.0
  3
*D25
  1

  0
LINE
  5
301
330
4B
100
AcDbEntity
  8
0
 62
7
100
AcDbLine
 10
1021.5
 20
300.0
 30
0.0
 11
976.0
 21
300.0
 31
0.0
  0
LINE
  5
302
330
4B
100
AcDbEntity
  8
0
 62
7
100
AcDbLine
 10
1021.5
 20
480.0
 30
0.0
 11
976.0
 21
480.0
 31
0.0
  0
INSERT
  5
303
330
4B
100
AcDbEntity
  8
DIM
 62
7
100
AcDbBlockReference
  2
_CLOSEDFILLED
 10
976.0
 20
300.0
 30
0.0
 41
6.604
 42
6.604
 50
270.0
  0
INSERT
  5
305
330
4B
100
AcDbEntity
  8
DIM
 62
7
100
AcDbBlockReference
  2
_CLOSEDFILLED
 10
976.0
 20
480.0
 30
0.0
 41
6.604
 42
6.604
 50
90.0
  0
LINE
  5
307
330
4B
100
AcDbEntity
  8
0
 62
7
100
AcDbLine
 10
976.0
 20
306.604
 30
0.0
 11
976.0
 21
473.396
 31
0.0
  0
MTEXT
  5
308
330
4B
100
AcDbEntity
  8
DIM
 62
7
100
AcDbMText
 10
970.75
 20
390.0
 30
0.0
 40
7.0
 71
5
  1
180.00
  7
WB_CENTURY
 50
90.0
  0
POINT
  5
309
330
4B
100
AcDbEntity
  8
Defpoints
100
AcDbPoint
 10
976.0
 20
300.0
 30
0.0
  0
POINT
  5
30A
330
4B
100
AcDbEntity
  8
Defpoints
100
AcDbPoint
 10
1024.0
 20
300.0
 30
0.0
  0
POINT
  5
30B
330
4B
100
AcDbEntity
  8
Defpoints
100
AcDbPoint
 10
1024.0
 20
480.0
 30
0.0
  0
ENDBLK
  5
300
330
4B
100
AcDbEntity
  8
0
100
AcDbBlockEnd
  0
BLOCK
  5
30C
330
4C
100
AcDbEntity
  8
0
100
AcDbBlockBegin
  2
*D26
 70
1
 10
0.0
 20
0.0
 30
0.0
  3
*D26
  1

  0
LINE
  5
30E
330
4C
100
AcDbEntity
  8
0
 62
7
100
AcDbLine
 10
1042.5
 20
307.0
 30
0.0
 11
1001.0
 21
307.0
 31
0.0
  0
LINE
  5
30F
330
4C
100
AcDbEntity
  8
0
 62
7
100
AcDbLine
 10
1042.5
 20
473.0
 30
0.0
 11
1001.0
 21
473.0
 31
0.0
  0
INSERT
  5
310
330
4C
100
AcDbEntity
  8
DIM
 62
7
100
AcDbBlockReference
  2
_CLOSEDFILLED
 10
1001.0
 20
307.0
 30
0.0
 41
6.604
 42
6.604
 50
270.0
  0
INSERT
  5
312
330
4C
100
AcDbEntity
  8
DIM
 62
7
100
AcDbBlockReference
  2
_CLOSEDFILLED
 10
1001.0
 20
473.0
 30
0.0
 41
6.604
 42
6.604
 50
90.0
  0
LINE
  5
314
330
4C
100
AcDbEntity
  8
0
 62
7
100
AcDbLine
 10
1001.0
 20
313.604
 30
0.0
 11
1001.0
 21
466.396
 31
0.0
  0
MTEXT
  5
315
330
4C
100
AcDbEntity
  8
DIM
 62
7
100
AcDbMText
 10
995.75
 20
390.0
 30
0.0
 40
7.0
 71
5
  1
166.00
  7
WB_CENTURY
 50
90.0
  0
POINT
  5
316
330
4C
100
AcDbEntity
  8
Defpoints
100
AcDbPoint
 10
1001.0
 20
307.0
 30
0.0
  0
POINT
  5
317
330
4C
100
AcDbEntity
  8
Defpoints
100
AcDbPoint
 10
1045.0
 20
307.0
 30
0.0
  0
POINT
  5
318
330
4C
100
AcDbEntity
  8
Defpoints
100
AcDbPoint
 10
1045.0
 20
473.0
 30
0.0
  0
ENDBLK
  5
30D
330
4C
100
AcDbEntity
  8
0
100
AcDbBlockEnd
  0
BLOCK
  5
319
330
4D
100
AcDbEntity
  8
0
100
AcDbBlockBegin
  2
*D27
 70
1
 10
0.0
 20
0.0
 30
0.0
  3
*D27
  1

  0
LINE
  5
31B
330
4D
100
AcDbEntity
  8
0
 62
7
100
AcDbLine
 10
1024.0
 20
297.5
 30
0.0
 11
1024.0
 21
278.0
 31
0.0
  0
LINE
  5
31C
330
4D
100
AcDbEntity
  8
0
 62
7
100
AcDbLine
 10
1045.0
 20
304.5
 30
0.0
 11
1045.0
 21
278.0
 31
0.0
  0
INSERT
  5
31D
330
4D
100
AcDbEntity
  8
DIM
 62
7
100
AcDbBlockReference
  2
_CLOSEDFILLED
 10
1024.0
 20
278.0
 30
0.0
 41
6.604
 42
6.604
 50
180.0
  0
INSERT
  5
31F
330
4D
100
AcDbEntity
  8
DIM
 62
7
100
AcDbBlockReference
  2
_CLOSEDFILLED
 10
1045.0
 20
278.0
 30
0.0
 41
6.604
 42
6.604
  0
LINE
  5
321
330
4D
100
AcDbEntity
  8
0
 62
7
100
AcDbLine
 10
1030.604
 20
278.0
 30
0.0
 11
1038.396
 21
278.0
 31
0.0
  0
MTEXT
  5
322
330
4D
100
AcDbEntity
  8
DIM
 62
7
100
AcDbMText
 10
1034.5
 20
283.25
 30
0.0
 40
7.0
 71
5
  1
21.00
  7
WB_CENTURY
  0
POINT
  5
323
330
4D
100
AcDbEntity
  8
Defpoints
100
AcDbPoint
 10
1024.0
 20
278.0
 30
0.0
  0
POINT
  5
324
330
4D
100
AcDbEntity
  8
Defpoints
100
AcDbPoint
 10
1024.0
 20
300.0
 30
0.0
  0
POINT
  5
325
330
4D
100
AcDbEntity
  8
Defpoints
100
AcDbPoint
 10
1045.0
 20
307.0
 30
0.0
  0
ENDBLK
  5
31A
330
4D
100
AcDbEntity
  8
0
100
AcDbBlockEnd
  0
BLOCK
  5
326
330
4E
100
AcDbEntity
  8
0
100
AcDbBlockBegin
  2
*D28
 70
1
 10
0.0
 20
0.0
 30
0.0
  3
*D28
  1

  0
LINE
  5
328
330
4E
100
AcDbEntity
  8
0
 62
7
100
AcDbLine
 10
1193.0
 20
304.5
 30
0.0
 11
1193.0
 21
278.0
 31
0.0
  0
LINE
  5
329
330
4E
100
AcDbEntity
  8
0
 62
7
100
AcDbLine
 10
1214.0
 20
297.5
 30
0.0
 11
1214.0
 21
278.0
 31
0.0
  0
INSERT
  5
32A
330
4E
100
AcDbEntity
  8
DIM
 62
7
100
AcDbBlockReference
  2
_CLOSEDFILLED
 10
1193.0
 20
278.0
 30
0.0
 41
6.604
 42
6.604
 50
180.0
  0
INSERT
  5
32C
330
4E
100
AcDbEntity
  8
DIM
 62
7
100
AcDbBlockReference
  2
_CLOSEDFILLED
 10
1214.0
 20
278.0
 30
0.0
 41
6.604
 42
6.604
  0
LINE
  5
32E
330
4E
100
AcDbEntity
  8
0
 62
7
100
AcDbLine
 10
1199.604
 20
278.0
 30
0.0
 11
1207.396
 21
278.0
 31
0.0
  0
MTEXT
  5
32F
330
4E
100
AcDbEntity
  8
DIM
 62
7
100
AcDbMText
 10
1203.5
 20
283.25
 30
0.0
 40
7.0
 71
5
  1
21.00
  7
WB_CENTURY
  0
POINT
  5
330
330
4E
100
AcDbEntity
  8
Defpoints
100
AcDbPoint
 10
1193.0
 20
278.0
 30
0.0
  0
POINT
  5
331
330
4E
100
AcDbEntity
  8
Defpoints
100
AcDbPoint
 10
1193.0
 20
307.0
 30
0.0
  0
POINT
  5
332
330
4E
100
AcDbEntity
  8
Defpoints
100
AcDbPoint
 10
1214.0
 20
300.0
 30
0.0
  0
ENDBLK
  5
327
330
4E
100
AcDbEntity
  8
0
100
AcDbBlockEnd
  0
BLOCK
  5
349
330
348
100
AcDbEntity
  8
0
100
AcDbBlockBegin
  2
*Paper_Space0
 70
0
 10
0.0
 20
0.0
 30
0.0
  3
*Paper_Space0
  1

  0
VIEWPORT
  5
34C
330
348
100
AcDbEntity
 67
1
  8
VIEWPORTS
100
AcDbViewport
 10
148.5
 20
105.0
 30
0.0
 40
326.70000000000005
 41
231.00000000000003
 68
1
 69
1
 12
148.5
 22
105.0
 13
0.0
 23
0.0
 14
10.0
 24
10.0
 15
10.0
 25
10.0
 16
0.0
 26
0.0
 36
1.0
 17
0.0
 27
0.0
 37
0.0
 42
50.0
 43
0.0
 44
0.0
 45
231.00000000000003
 50
0.0
 51
0.0
 72
100
 90
557088
  1

281
0
 71
0
 74
0
110
0.0
120
0.0
130
0.0
111
1.0
121
0.0
131
0.0
112
0.0
122
1.0
132
0.0
 79
0
146
0.0
282
0
  0
LWPOLYLINE
  5
34D
330
348
100
AcDbEntity
 67
1
  8
0
100
AcDbPolyline
 90
4
 70
1
 10
10.0
 20
10.0
 10
287.0
 20
10.0
 10
287.0
 20
200.0
 10
10.0
 20
200.0
  0
LINE
  5
34E
330
348
100
AcDbEntity
 67
1
  8
0
100
AcDbLine
 10
10.0
 20
25.0
 30
0.0
 11
287.0
 21
25.0
 31
0.0
  0
LINE
  5
34F
330
348
100
AcDbEntity
 67
1
  8
0
100
AcDbLine
 10
10.0
 20
40.0
 30
0.0
 11
287.0
 21
40.0
 31
0.0
  0
LINE
  5
350
330
348
100
AcDbEntity
 67
1
  8
0
100
AcDbLine
 10
68.0
 20
10.0
 30
0.0
 11
68.0
 21
40.0
 31
0.0
  0
LINE
  5
351
330
348
100
AcDbEntity
 67
1
  8
0
100
AcDbLine
 10
206.0
 20
10.0
 30
0.0
 11
206.0
 21
40.0
 31
0.0
  0
LINE
  5
352
330
348
100
AcDbEntity
 67
1
  8
0
100
AcDbLine
 10
247.0
 20
10.0
 30
0.0
 11
247.0
 21
40.0
 31
0.0
  0
TEXT
  5
353
330
348
100
AcDbEntity
 67
1
  8
0
100
AcDbText
 10
14.0
 20
32.0
 30
0.0
 40
4.0
  1
WATERBEE
100
AcDbText
  0
TEXT
  5
354
330
348
100
AcDbEntity
 67
1
  8
0
100
AcDbText
 10
14.0
 20
16.0
 30
0.0
 40
2.4
  1
waterbee.co.kr
100
AcDbText
  0
TEXT
  5
355
330
348
100
AcDbEntity
 67
1
  8
0
100
AcDbText
 10
72.0
 20
33.0
 30
0.0
 40
3.0
  1
SMART CONTROLLER
100
AcDbText
  0
TEXT
  5
356
330
348
100
AcDbEntity
 67
1
  8
0
100
AcDbText
 10
72.0
 20
28.0
 30
0.0
 40
2.4
  1
Mounting-hole layout
100
AcDbText
  0
TEXT
  5
357
330
348
100
AcDbEntity
 67
1
  8
0
100
AcDbText
 10
72.0
 20
16.0
 30
0.0
 40
3.0
  1
WBSC10-OUTLINE
100
AcDbText
  0
TEXT
  5
358
330
348
100
AcDbEntity
 67
1
  8
0
100
AcDbText
 10
210.0
 20
33.0
 30
0.0
 40
2.4
  1
UNITS: mm
100
AcDbText
  0
TEXT
  5
359
330
348
100
AcDbEntity
 67
1
  8
0
100
AcDbText
 10
210.0
 20
28.0
 30
0.0
 40
2.4
  1
MODEL: 1:1
100
AcDbText
  0
TEXT
  5
35A
330
348
100
AcDbEntity
 67
1
  8
0
100
AcDbText
 10
210.0
 20
16.0
 30
0.0
 40
2.4
  1
REV: R2
100
AcDbText
  0
TEXT
  5
35B
330
348
100
AcDbEntity
 67
1
  8
0
100
AcDbText
 10
251.0
 20
33.0
 30
0.0
 40
2.4
  1
2026-09-17
100
AcDbText
  0
TEXT
  5
35C
330
348
100
AcDbEntity
 67
1
  8
0
100
AcDbText
 10
251.0
 20
16.0
 30
0.0
 40
2.4
  1
SHEET 2/2
100
AcDbText
  0
TEXT
  5
35D
330
348
100
AcDbEntity
 67
1
  8
0
100
AcDbText
 10
14.0
 20
45.0
 30
0.0
 40
2.2
  1
Depth 86.50 and secondary views: REF. Glands and button caps are not included.
100
AcDbText
  0
VIEWPORT
  5
35E
330
348
100
AcDbEntity
 67
1
  8
VIEWPORTS
100
AcDbViewport
 10
148.5
 20
124.0
 30
0.0
 40
267.0
 41
140.0
 68
2
 69
3
 12
1332.1391541609823
 22
326.1945429740791
 13
0.0
 23
0.0
 14
10.0
 24
10.0
 15
10.0
 25
10.0
 16
0.0
 26
0.0
 36
1.0
 17
0.0
 27
0.0
 37
0.0
 42
50.0
 43
0.0
 44
0.0
 45
464.9364693042292
 50
0.0
 51
0.0
 72
100
 90
16384
  1

281
0
 71
0
 74
0
110
0.0
120
0.0
130
0.0
111
1.0
121
0.0
131
0.0
112
0.0
122
1.0
132
0.0
 79
0
146
0.0
282
0
  0
ENDBLK
  5
34A
330
348
100
AcDbEntity
  8
0
100
AcDbBlockEnd
  0
ENDSEC
  0
SECTION
  2
ENTITIES
  0
LINE
  5
4F
330
17
100
AcDbEntity
  8
DETAIL
100
AcDbLine
 10
123.9999999999963
 20
484.0000000018988
 30
0.0
 11
123.9999999999963
 21
324.0
 31
0.0
  0
LINE
  5
50
330
17
100
AcDbEntity
  8
DETAIL
100
AcDbLine
 10
125.00000000151704
 20
484.0000000018988
 30
0.0
 11
125.00000000151704
 21
324.0
 31
0.0
  0
LINE
  5
51
330
17
100
AcDbEntity
  8
DETAIL
100
AcDbLine
 10
133.99999999996004
 20
314.0000000000398
 30
0.0
 11
304.00000000181535
 21
314.0000000000398
 31
0.0
  0
LINE
  5
52
330
17
100
AcDbEntity
  8
DETAIL
100
AcDbLine
 10
133.99999999996004
 20
315.0000000015568
 30
0.0
 11
304.00000000181535
 21
315.0000000015568
 31
0.0
  0
LINE
  5
53
330
17
100
AcDbEntity
  8
DETAIL
100
AcDbLine
 10
133.99999999996004
 20
315.0000000015568
 30
0.0
 11
133.99999999996004
 21
314.0000000000398
 31
0.0
  0
LINE
  5
54
330
17
100
AcDbEntity
  8
DETAIL
100
AcDbLine
 10
133.99999999996004
 20
493.0000000003388
 30
0.0
 11
133.99999999996004
 21
494.0000000018588
 31
0.0
  0
LINE
  5
55
330
17
100
AcDbEntity
  8
DETAIL
100
AcDbLine
 10
139.0000000024774
 20
474.0000000019388
 30
0.0
 11
139.0000000024774
 21
333.99999999996
 31
0.0
  0
LINE
  5
56
330
17
100
AcDbEntity
  8
DETAIL
100
AcDbLine
 10
125.00000000151704
 20
324.0
 30
0.0
 11
123.9999999999963
 21
324.0
 31
0.0
  0
LINE
  5
57
330
17
100
AcDbEntity
  8
DETAIL
100
AcDbLine
 10
149.00000000244114
 20
324.0
 30
0.0
 11
289.00000000188084
 21
324.0
 31
0.0
  0
LINE
  5
58
330
17
100
AcDbEntity
  8
DETAIL
100
AcDbLine
 10
313.0000000002583
 20
324.0
 30
0.0
 11
314.0000000017789
 21
324.0
 31
0.0
  0
LINE
  5
59
330
17
100
AcDbEntity
  8
DETAIL
100
AcDbLine
 10
167.75000000045475
 20
468.1500000001579
 30
0.0
 11
167.75000000045475
 21
403.65000000117993
 31
0.0
  0
LINE
  5
5A
330
17
100
AcDbEntity
  8
DETAIL
100
AcDbLine
 10
167.75000000045475
 20
403.65000000117993
 30
0.0
 11
270.25000000132064
 21
403.65000000117993
 31
0.0
  0
LINE
  5
5B
330
17
100
AcDbEntity
  8
DETAIL
100
AcDbLine
 10
270.25000000132064
 20
403.65000000117993
 30
0.0
 11
270.25000000132064
 21
468.1500000001579
 31
0.0
  0
LINE
  5
5C
330
17
100
AcDbEntity
  8
DETAIL
100
AcDbLine
 10
270.25000000132064
 20
468.1500000001579
 30
0.0
 11
167.75000000045475
 21
468.1500000001579
 31
0.0
  0
LINE
  5
5D
330
17
100
AcDbEntity
  8
DETAIL
100
AcDbLine
 10
299.0000000018444
 20
333.99999999996
 30
0.0
 11
299.0000000018444
 21
474.0000000019388
 31
0.0
  0
LINE
  5
5E
330
17
100
AcDbEntity
  8
DETAIL
100
AcDbLine
 10
304.00000000181535
 20
315.0000000015568
 30
0.0
 11
304.00000000181535
 21
314.0000000000398
 31
0.0
  0
LINE
  5
5F
330
17
100
AcDbEntity
  8
DETAIL
100
AcDbLine
 10
304.00000000181535
 20
493.0000000003388
 30
0.0
 11
304.00000000181535
 21
494.0000000018588
 31
0.0
  0
LINE
  5
60
330
17
100
AcDbEntity
  8
DETAIL
100
AcDbLine
 10
289.00000000188084
 20
484.0000000018988
 30
0.0
 11
149.00000000244114
 21
484.0000000018988
 31
0.0
  0
LINE
  5
61
330
17
100
AcDbEntity
  8
DETAIL
100
AcDbLine
 10
125.00000000151704
 20
484.0000000018988
 30
0.0
 11
123.9999999999963
 21
484.0000000018988
 31
0.0
  0
LINE
  5
62
330
17
100
AcDbEntity
  8
DETAIL
100
AcDbLine
 10
313.0000000002583
 20
484.0000000018988
 30
0.0
 11
314.0000000017789
 21
484.0000000018988
 31
0.0
  0
LINE
  5
63
330
17
100
AcDbEntity
  8
DETAIL
100
AcDbLine
 10
313.0000000002583
 20
324.0
 30
0.0
 11
313.0000000002583
 21
484.0000000018988
 31
0.0
  0
LINE
  5
64
330
17
100
AcDbEntity
  8
DETAIL
100
AcDbLine
 10
314.0000000017789
 20
324.0
 30
0.0
 11
314.0000000017789
 21
484.0000000018988
 31
0.0
  0
LINE
  5
65
330
17
100
AcDbEntity
  8
DETAIL
100
AcDbLine
 10
304.00000000181535
 20
493.0000000003388
 30
0.0
 11
133.99999999996004
 21
493.0000000003388
 31
0.0
  0
LINE
  5
66
330
17
100
AcDbEntity
  8
DETAIL
100
AcDbLine
 10
304.00000000181535
 20
494.0000000018588
 30
0.0
 11
133.99999999996004
 21
494.0000000018588
 31
0.0
  0
ARC
  5
67
330
17
100
AcDbEntity
  8
DETAIL
100
AcDbCircle
 10
289.00000000188084
 20
474.0000000019388
 30
0.0
 40
9.99999999996
100
AcDbArc
 50
0.0
 51
90.0
  0
ARC
  5
68
330
17
100
AcDbEntity
  8
DETAIL
100
AcDbCircle
 10
289.00000000188084
 20
333.99999999996
 30
0.0
 40
9.99999999996
100
AcDbArc
 50
270.0
 51
0.0
  0
ARC
  5
69
330
17
100
AcDbEntity
  8
DETAIL
100
AcDbCircle
 10
149.00000000244114
 20
333.99999999996
 30
0.0
 40
9.99999999996
100
AcDbArc
 50
180.0
 51
270.0
  0
ARC
  5
6A
330
17
100
AcDbEntity
  8
DETAIL
100
AcDbCircle
 10
149.00000000244114
 20
474.0000000019388
 30
0.0
 40
9.99999999996
100
AcDbArc
 50
90.0
 51
180.0
  0
ARC
  5
6B
330
17
100
AcDbEntity
  8
DETAIL
100
AcDbCircle
 10
133.99999999996004
 20
324.0
 30
0.0
 40
9.99999999996
100
AcDbArc
 50
180.0
 51
270.0
  0
ARC
  5
6C
330
17
100
AcDbEntity
  8
DETAIL
100
AcDbCircle
 10
304.00000000181535
 20
324.0
 30
0.0
 40
9.99999999996
100
AcDbArc
 50
270.0
 51
0.0
  0
ARC
  5
6D
330
17
100
AcDbEntity
  8
DETAIL
100
AcDbCircle
 10
133.99999999996004
 20
484.0000000018988
 30
0.0
 40
9.99999999996
100
AcDbArc
 50
90.0
 51
180.0
  0
ARC
  5
6E
330
17
100
AcDbEntity
  8
DETAIL
100
AcDbCircle
 10
304.00000000181535
 20
484.0000000018988
 30
0.0
 40
9.99999999996
100
AcDbArc
 50
0.0
 51
90.0
  0
ARC
  5
6F
330
17
100
AcDbEntity
  8
DETAIL
100
AcDbCircle
 10
133.99999999996004
 20
324.0
 30
0.0
 40
9.00000000098
100
AcDbArc
 50
180.0
 51
270.0
  0
ARC
  5
70
330
17
100
AcDbEntity
  8
DETAIL
100
AcDbCircle
 10
304.00000000181535
 20
324.0
 30
0.0
 40
9.00000000098
100
AcDbArc
 50
270.0
 51
0.0
  0
ARC
  5
71
330
17
100
AcDbEntity
  8
DETAIL
100
AcDbCircle
 10
304.00000000181535
 20
484.0000000018988
 30
0.0
 40
9.00000000098
100
AcDbArc
 50
0.0
 51
90.0
  0
ARC
  5
72
330
17
100
AcDbEntity
  8
DETAIL
100
AcDbCircle
 10
133.99999999996004
 20
484.0000000018988
 30
0.0
 40
9.00000000098
100
AcDbArc
 50
90.0
 51
180.0
  0
CIRCLE
  5
73
330
17
100
AcDbEntity
  8
DETAIL
100
AcDbCircle
 10
181.50000000103682
 20
352.00000000192085
 30
0.0
 40
4.15000000072
  0
CIRCLE
  5
74
330
17
100
AcDbEntity
  8
DETAIL
100
AcDbCircle
 10
181.50000000103682
 20
387.5
 30
0.0
 40
4.15000000072
  0
CIRCLE
  5
75
330
17
100
AcDbEntity
  8
DETAIL
100
AcDbCircle
 10
200.00000000121872
 20
369.7500000009568
 30
0.0
 40
4.15000000072
  0
CIRCLE
  5
76
330
17
100
AcDbEntity
  8
DETAIL
100
AcDbCircle
 10
256.5000000007385
 20
352.00000000192085
 30
0.0
 40
4.15000000072
  0
CIRCLE
  5
77
330
17
100
AcDbEntity
  8
DETAIL
100
AcDbCircle
 10
219.00000000215732
 20
360.74999999997794
 30
0.0
 40
4.15000000072
  0
CIRCLE
  5
78
330
17
100
AcDbEntity
  8
DETAIL
100
AcDbCircle
 10
256.5000000007385
 20
387.5
 30
0.0
 40
4.15000000072
  0
CIRCLE
  5
79
330
17
100
AcDbEntity
  8
DETAIL
100
AcDbCircle
 10
238.00000000056394
 20
369.7500000009568
 30
0.0
 40
4.15000000072
  0
CIRCLE
  5
7A
330
17
100
AcDbEntity
  8
DETAIL
100
AcDbCircle
 10
219.00000000215732
 20
378.7500000019388
 30
0.0
 40
4.15000000072
  0
CIRCLE
  5
7B
330
17
100
AcDbEntity
  8
DETAIL
100
AcDbCircle
 10
307.0000000012987
 20
321.00000000052
 30
0.0
 40
4.000000001
  0
CIRCLE
  5
7C
330
17
100
AcDbEntity
  8
DETAIL
100
AcDbCircle
 10
307.0000000012987
 20
487.0000000013829
 30
0.0
 40
4.000000001
  0
CIRCLE
  5
7D
330
17
100
AcDbEntity
  8
DETAIL
100
AcDbCircle
 10
307.0000000012987
 20
321.00000000052
 30
0.0
 40
1.85000000078
  0
CIRCLE
  5
7E
330
17
100
AcDbEntity
  8
DETAIL
100
AcDbCircle
 10
307.0000000012987
 20
487.0000000013829
 30
0.0
 40
1.85000000078
  0
CIRCLE
  5
7F
330
17
100
AcDbEntity
  8
HIDDEN
100
AcDbCircle
 10
145.0
 20
321.0
 30
0.0
 40
2.1
  0
LINE
  5
80
330
17
100
AcDbEntity
  8
CENTER
100
AcDbLine
 10
139.0
 20
321.0
 30
0.0
 11
151.0
 21
321.0
 31
0.0
  0
LINE
  5
81
330
17
100
AcDbEntity
  8
CENTER
100
AcDbLine
 10
145.0
 20
315.0
 30
0.0
 11
145.0
 21
327.0
 31
0.0
  0
CIRCLE
  5
82
330
17
100
AcDbEntity
  8
HIDDEN
100
AcDbCircle
 10
293.0
 20
321.0
 30
0.0
 40
2.1
  0
LINE
  5
83
330
17
100
AcDbEntity
  8
CENTER
100
AcDbLine
 10
287.0
 20
321.0
 30
0.0
 11
299.0
 21
321.0
 31
0.0
  0
LINE
  5
84
330
17
100
AcDbEntity
  8
CENTER
100
AcDbLine
 10
293.0
 20
315.0
 30
0.0
 11
293.0
 21
327.0
 31
0.0
  0
CIRCLE
  5
85
330
17
100
AcDbEntity
  8
HIDDEN
100
AcDbCircle
 10
145.0
 20
487.0
 30
0.0
 40
2.1
  0
LINE
  5
86
330
17
100
AcDbEntity
  8
CENTER
100
AcDbLine
 10
139.0
 20
487.0
 30
0.0
 11
151.0
 21
487.0
 31
0.0
  0
LINE
  5
87
330
17
100
AcDbEntity
  8
CENTER
100
AcDbLine
 10
145.0
 20
481.0
 30
0.0
 11
145.0
 21
493.0
 31
0.0
  0
CIRCLE
  5
88
330
17
100
AcDbEntity
  8
HIDDEN
100
AcDbCircle
 10
293.0
 20
487.0
 30
0.0
 40
2.1
  0
LINE
  5
89
330
17
100
AcDbEntity
  8
CENTER
100
AcDbLine
 10
287.0
 20
487.0
 30
0.0
 11
299.0
 21
487.0
 31
0.0
  0
LINE
  5
8A
330
17
100
AcDbEntity
  8
CENTER
100
AcDbLine
 10
293.0
 20
481.0
 30
0.0
 11
293.0
 21
493.0
 31
0.0
  0
LINE
  5
8B
330
17
100
AcDbEntity
  8
CENTER
100
AcDbLine
 10
301.0
 20
321.0
 30
0.0
 11
313.0
 21
321.0
 31
0.0
  0
LINE
  5
8C
330
17
100
AcDbEntity
  8
CENTER
100
AcDbLine
 10
307.0
 20
315.0
 30
0.0
 11
307.0
 21
327.0
 31
0.0
  0
LINE
  5
8D
330
17
100
AcDbEntity
  8
CENTER
100
AcDbLine
 10
301.0
 20
487.0
 30
0.0
 11
313.0
 21
487.0
 31
0.0
  0
LINE
  5
8E
330
17
100
AcDbEntity
  8
CENTER
100
AcDbLine
 10
307.0
 20
481.0
 30
0.0
 11
307.0
 21
493.0
 31
0.0
  0
DIMENSION
  5
8F
330
17
100
AcDbEntity
  8
DIM
100
AcDbDimension
280
0
  2
*D15
  3
SLDDIMSTYLE0
 10
124.0
 20
544.0
 30
0.0
 11
219.0
 21
549.25
 31
0.0
 70
32
 71
5
  1
<>
100
AcDbAlignedDimension
 13
124.0
 23
494.0
 33
0.0
 14
314.0
 24
494.0
 34
0.0
 50
0.0
100
AcDbRotatedDimension
1001
ACAD
1000
DSTYLE
1002
{
1070
144
1040
1.0
1070
142
1040
0.0
1070
41
1040
6.604
1070
140
1040
7.0
1070
42
1040
2.5
1070
44
1040
0.0
1070
147
1040
1.75
1070
77
1070
1
1070
271
1070
2
1070
78
1070
0
1070
278
1070
46
1070
173
1070
0
1070
176
1070
7
1070
177
1070
7
1070
178
1070
7
1070
342
1005
0
1070
340
1005
3A
1002
}
  0
DIMENSION
  5
9E
330
17
100
AcDbEntity
  8
DIM
100
AcDbDimension
280
0
  2
*D16
  3
SLDDIMSTYLE0
 10
145.0
 20
520.0
 30
0.0
 11
219.0
 21
525.25
 31
0.0
 70
32
 71
5
  1
<>
100
AcDbAlignedDimension
 13
145.0
 23
487.0
 33
0.0
 14
293.0
 24
487.0
 34
0.0
 50
0.0
100
AcDbRotatedDimension
1001
ACAD
1000
DSTYLE
1002
{
1070
144
1040
1.0
1070
142
1040
0.0
1070
41
1040
6.604
1070
140
1040
7.0
1070
42
1040
2.5
1070
44
1040
0.0
1070
147
1040
1.75
1070
77
1070
1
1070
271
1070
2
1070
78
1070
0
1070
278
1070
46
1070
173
1070
0
1070
176
1070
7
1070
177
1070
7
1070
178
1070
7
1070
342
1005
0
1070
340
1005
3A
1002
}
  0
DIMENSION
  5
AD
330
17
100
AcDbEntity
  8
DIM
100
AcDbDimension
280
0
  2
*D17
  3
SLDDIMSTYLE0
 10
76.0
 20
314.0
 30
0.0
 11
70.75
 21
404.0
 31
0.0
 70
32
 71
5
  1
<>
100
AcDbAlignedDimension
 13
124.0
 23
314.0
 33
0.0
 14
124.0
 24
494.0
 34
0.0
 50
90.0
100
AcDbRotatedDimension
1001
ACAD
1000
DSTYLE
1002
{
1070
144
1040
1.0
1070
142
1040
0.0
1070
41
1040
6.604
1070
140
1040
7.0
1070
42
1040
2.5
1070
44
1040
0.0
1070
147
1040
1.75
1070
77
1070
1
1070
271
1070
2
1070
78
1070
0
1070
278
1070
46
1070
173
1070
0
1070
176
1070
7
1070
177
1070
7
1070
178
1070
7
1070
342
1005
0
1070
340
1005
3A
1002
}
  0
DIMENSION
  5
BC
330
17
100
AcDbEntity
  8
DIM
100
AcDbDimension
280
0
  2
*D18
  3
SLDDIMSTYLE0
 10
101.0
 20
321.0
 30
0.0
 11
95.75
 21
404.0
 31
0.0
 70
32
 71
5
  1
<>
100
AcDbAlignedDimension
 13
145.0
 23
321.0
 33
0.0
 14
145.0
 24
487.0
 34
0.0
 50
90.0
100
AcDbRotatedDimension
1001
ACAD
1000
DSTYLE
1002
{
1070
144
1040
1.0
1070
142
1040
0.0
1070
41
1040
6.604
1070
140
1040
7.0
1070
42
1040
2.5
1070
44
1040
0.0
1070
147
1040
1.75
1070
77
1070
1
1070
271
1070
2
1070
78
1070
0
1070
278
1070
46
1070
173
1070
0
1070
176
1070
7
1070
177
1070
7
1070
178
1070
7
1070
342
1005
0
1070
340
1005
3A
1002
}
  0
TEXT
  5
CB
330
17
100
AcDbEntity
  8
TEXT
100
AcDbText
 10
219.0
 20
298.0
 30
0.0
 40
4.8
  1
FRONT
 72
1
 11
219.0
 21
298.0
 31
0.0
100
AcDbText
  0
LINE
  5
CC
330
17
100
AcDbEntity
  8
DIM
100
AcDbLine
 10
293.0
 20
487.0
 30
0.0
 11
329.0
 21
503.0
 31
0.0
  0
LINE
  5
CD
330
17
100
AcDbEntity
  8
DIM
100
AcDbLine
 10
329.0
 20
503.0
 30
0.0
 11
344.0
 21
503.0
 31
0.0
  0
SOLID
  5
CE
330
17
100
AcDbEntity
  8
DIM
100
AcDbTrace
 10
293.0
 20
487.0
 30
0.0
 11
298.70177792492433
 21
490.4314638996856
 31
0.0
 12
299.367845009252
 22
488.93281295994836
 32
0.0
 13
299.367845009252
 23
488.93281295994836
 33
0.0
  0
TEXT
  5
CF
330
17
100
AcDbEntity
  8
TEXT
100
AcDbText
 10
347.0
 20
501.0
 30
0.0
 40
5.0
  1
A
 11
347.0
 21
501.0
 31
0.0
100
AcDbText
  0
LINE
  5
D0
330
17
100
AcDbEntity
  8
DIM
100
AcDbLine
 10
307.0
 20
321.0
 30
0.0
 11
329.0
 21
335.0
 31
0.0
  0
LINE
  5
D1
330
17
100
AcDbEntity
  8
DIM
100
AcDbLine
 10
329.0
 20
335.0
 30
0.0
 11
344.0
 21
335.0
 31
0.0
  0
SOLID
  5
D2
330
17
100
AcDbEntity
  8
DIM
100
AcDbTrace
 10
307.0
 20
321.0
 30
0.0
 11
312.1313025613844
 21
325.23732817038393
 31
0.0
 12
313.01177836858125
 22
323.8537233305033
 32
0.0
 13
313.01177836858125
 23
323.8537233305033
 33
0.0
  0
TEXT
  5
D3
330
17
100
AcDbEntity
  8
TEXT
100
AcDbText
 10
347.0
 20
333.0
 30
0.0
 40
5.0
  1
B
 11
347.0
 21
333.0
 31
0.0
100
AcDbText
  0
LINE
  5
D4
330
17
100
AcDbEntity
  8
DETAIL
100
AcDbLine
 10
401.0999999986234
 20
314.0000000000003
 30
0.0
 11
469.4999999979409
 21
314.0000000000003
 31
0.0
  0
LINE
  5
D5
330
17
100
AcDbEntity
  8
DETAIL
100
AcDbLine
 10
400.49999999974534
 20
493.4000000003982
 30
0.0
 11
401.0999999986234
 21
493.9999999992799
 31
0.0
  0
LINE
  5
D6
330
17
100
AcDbEntity
  8
DETAIL
100
AcDbLine
 10
400.49999999974534
 20
314.6000000014176
 30
0.0
 11
401.0999999986234
 21
314.0000000000003
 31
0.0
  0
LINE
  5
D7
330
17
100
AcDbEntity
  8
DETAIL
100
AcDbLine
 10
400.49999999974534
 20
314.6000000014176
 30
0.0
 11
400.49999999974534
 21
493.4000000003982
 31
0.0
  0
LINE
  5
D8
330
17
100
AcDbEntity
  8
DETAIL
100
AcDbLine
 10
401.0999999986234
 20
314.0000000000003
 30
0.0
 11
401.0999999986234
 21
493.9999999992799
 31
0.0
  0
LINE
  5
D9
330
17
100
AcDbEntity
  8
DETAIL
100
AcDbLine
 10
469.4999999979409
 20
493.9999999992799
 30
0.0
 11
469.4999999979409
 21
314.0000000000003
 31
0.0
  0
LINE
  5
DA
330
17
100
AcDbEntity
  8
DETAIL
100
AcDbLine
 10
470.49999999946886
 20
493.00000000029854
 30
0.0
 11
470.49999999946886
 21
315.00000000151726
 31
0.0
  0
LINE
  5
DB
330
17
100
AcDbEntity
  8
DETAIL
100
AcDbLine
 10
401.0999999986234
 20
493.9999999992799
 30
0.0
 11
469.4999999979409
 21
493.9999999992799
 31
0.0
  0
ARC
  5
DC
330
17
100
AcDbEntity
  8
DETAIL
100
AcDbCircle
 10
469.4999999979409
 20
315.00000000151726
 30
0.0
 40
0.9999999989799999
100
AcDbArc
 50
270.0
 51
0.0
  0
ARC
  5
DD
330
17
100
AcDbEntity
  8
DETAIL
100
AcDbCircle
 10
469.4999999979409
 20
493.00000000029854
 30
0.0
 40
0.9999999989799999
100
AcDbArc
 50
0.0
 51
90.0
  0
LWPOLYLINE
  5
DE
330
17
100
AcDbEntity
  8
OUTLINE
100
AcDbPolyline
 90
8
 70
1
 10
385.0
 20
314.0
 10
399.5
 20
314.0
 42
0.41421356237309503
 10
400.5
 20
315.0
 10
400.5
 20
493.0
 42
0.41421356237309503
 10
399.5
 20
494.0
 10
385.0
 20
494.0
 42
0.41421356237309503
 10
384.0
 20
493.0
 10
384.0
 20
315.0
 42
0.41421356237309503
  0
LINE
  5
DF
330
17
100
AcDbEntity
  8
DETAIL
100
AcDbLine
 10
385.0
 20
324.0
 30
0.0
 11
400.5
 21
324.0
 31
0.0
  0
LINE
  5
E0
330
17
100
AcDbEntity
  8
DETAIL
100
AcDbLine
 10
385.0
 20
484.0
 30
0.0
 11
400.5
 21
484.0
 31
0.0
  0
DIMENSION
  5
E1
330
17
100
AcDbEntity
  8
DIM
100
AcDbDimension
280
0
  2
*D19
  3
SLDDIMSTYLE0
 10
384.0
 20
534.0
 30
0.0
 11
427.25
 21
539.25
 31
0.0
 70
32
 71
5
  1
(86.50) REF
100
AcDbAlignedDimension
 13
384.0
 23
494.0
 33
0.0
 14
470.5
 24
494.0
 34
0.0
 50
0.0
100
AcDbRotatedDimension
1001
ACAD
1000
DSTYLE
1002
{
1070
144
1040
1.0
1070
142
1040
0.0
1070
41
1040
6.604
1070
140
1040
7.0
1070
42
1040
2.5
1070
44
1040
0.0
1070
147
1040
1.75
1070
77
1070
1
1070
271
1070
2
1070
78
1070
0
1070
278
1070
46
1070
173
1070
0
1070
176
1070
7
1070
177
1070
7
1070
178
1070
7
1070
342
1005
0
1070
340
1005
3A
1002
}
  0
TEXT
  5
F0
330
17
100
AcDbEntity
  8
TEXT
100
AcDbText
 10
427.2
 20
298.0
 30
0.0
 40
4.8
  1
RIGHT
 72
1
 11
427.2
 21
298.0
 31
0.0
100
AcDbText
  0
LINE
  5
F1
330
17
100
AcDbEntity
  8
DETAIL
100
AcDbLine
 10
123.99999999999267
 20
239.9999999997526
 30
0.0
 11
123.99999999999267
 21
175.9999999989959
 31
0.0
  0
LINE
  5
F2
330
17
100
AcDbEntity
  8
DETAIL
100
AcDbLine
 10
128.9999998526473
 20
245.0000000124273
 30
0.0
 11
128.6808509075126
 21
244.40000001355648
 31
0.0
  0
LINE
  5
F3
330
17
100
AcDbEntity
  8
DETAIL
100
AcDbLine
 10
133.99999999994895
 20
244.99999999973798
 30
0.0
 11
133.99999999994895
 21
175.0
 31
0.0
  0
LINE
  5
F4
330
17
100
AcDbEntity
  8
DETAIL
100
AcDbLine
 10
313.0000000002546
 20
175.0
 30
0.0
 11
124.99999999897409
 21
175.0
 31
0.0
  0
LINE
  5
F5
330
17
100
AcDbEntity
  8
DETAIL
100
AcDbLine
 10
313.9999999992287
 20
175.9999999989959
 30
0.0
 11
123.99999999999267
 21
175.9999999989959
 31
0.0
  0
LINE
  5
F6
330
17
100
AcDbEntity
  8
DETAIL
100
AcDbLine
 10
128.68085106245405
 20
244.3999999983061
 30
0.0
 11
313.9999999992287
 21
244.3999999983061
 31
0.0
  0
LINE
  5
F7
330
17
100
AcDbEntity
  8
DETAIL
100
AcDbLine
 10
128.9999999999709
 20
244.99999999973798
 30
0.0
 11
313.4000000003507
 21
244.99999999973798
 31
0.0
  0
LINE
  5
F8
330
17
100
AcDbEntity
  8
DETAIL
100
AcDbLine
 10
303.9999999992724
 20
244.99999999973798
 30
0.0
 11
303.9999999992724
 21
175.0
 31
0.0
  0
LINE
  5
F9
330
17
100
AcDbEntity
  8
DETAIL
100
AcDbLine
 10
313.9999999992287
 20
244.3999999983061
 30
0.0
 11
313.9999999992287
 21
175.9999999989959
 31
0.0
  0
LINE
  5
FA
330
17
100
AcDbEntity
  8
DETAIL
100
AcDbLine
 10
313.4000000003507
 20
244.99999999973798
 30
0.0
 11
313.9999999992287
 21
244.3999999983061
 31
0.0
  0
CIRCLE
  5
FB
330
17
100
AcDbEntity
  8
DETAIL
100
AcDbCircle
 10
171.0000000003128
 20
224.9999999998108
 30
0.0
 40
10.50000000072
  0
CIRCLE
  5
FC
330
17
100
AcDbEntity
  8
DETAIL
100
AcDbCircle
 10
202.9999999981519
 20
224.9999999998108
 30
0.0
 40
10.50000000072
  0
CIRCLE
  5
FD
330
17
100
AcDbEntity
  8
DETAIL
100
AcDbCircle
 10
234.9999999985302
 20
224.9999999998108
 30
0.0
 40
10.50000000072
  0
CIRCLE
  5
FE
330
17
100
AcDbEntity
  8
DETAIL
100
AcDbCircle
 10
266.9999999989086
 20
224.9999999998108
 30
0.0
 40
10.50000000072
  0
CIRCLE
  5
FF
330
17
100
AcDbEntity
  8
DETAIL
100
AcDbCircle
 10
171.0000000003128
 20
224.9999999998108
 30
0.0
 40
7.99999999946
  0
CIRCLE
  5
100
330
17
100
AcDbEntity
  8
DETAIL
100
AcDbCircle
 10
202.9999999981519
 20
224.9999999998108
 30
0.0
 40
7.99999999946
  0
CIRCLE
  5
101
330
17
100
AcDbEntity
  8
DETAIL
100
AcDbCircle
 10
266.9999999989086
 20
224.9999999998108
 30
0.0
 40
7.99999999946
  0
CIRCLE
  5
102
330
17
100
AcDbEntity
  8
DETAIL
100
AcDbCircle
 10
234.9999999985302
 20
224.9999999998108
 30
0.0
 40
7.99999999946
  0
ARC
  5
103
330
17
100
AcDbEntity
  8
DETAIL
100
AcDbCircle
 10
128.9999999999709
 20
239.9999999997526
 30
0.0
 40
4.99999999998
100
AcDbArc
 50
90.0
 51
180.0
  0
CIRCLE
  5
104
330
17
100
AcDbEntity
  8
DETAIL
100
AcDbCircle
 10
128.9999999999709
 20
239.9999999997526
 30
0.0
 40
2.70000000004
  0
CIRCLE
  5
105
330
17
100
AcDbEntity
  8
DETAIL
100
AcDbCircle
 10
128.9999999999709
 20
239.9999999997526
 30
0.0
 40
1.5499999988
  0
ARC
  5
106
330
17
100
AcDbEntity
  8
DETAIL
100
AcDbCircle
 10
124.99999999897409
 20
175.9999999989959
 30
0.0
 40
0.9999999989799999
100
AcDbArc
 50
180.0
 51
270.0
  0
ARC
  5
107
330
17
100
AcDbEntity
  8
DETAIL
100
AcDbCircle
 10
313.0000000002546
 20
175.9999999989959
 30
0.0
 40
0.9999999989799999
100
AcDbArc
 50
270.0
 51
0.0
  0
CIRCLE
  5
108
330
17
100
AcDbEntity
  8
DETAIL
100
AcDbCircle
 10
250.99999999999267
 20
203.99999999837019
 30
0.0
 40
0.9999999989799999
  0
CIRCLE
  5
109
330
17
100
AcDbEntity
  8
DETAIL
100
AcDbCircle
 10
218.9999999996071
 20
203.99999999837019
 30
0.0
 40
0.9999999989799999
  0
CIRCLE
  5
10A
330
17
100
AcDbEntity
  8
DETAIL
100
AcDbCircle
 10
186.9999999992287
 20
203.99999999837019
 30
0.0
 40
0.9999999989799999
  0
SPLINE
  5
10B
330
17
100
AcDbEntity
  8
DETAIL
100
AcDbSpline
 70
8
 71
3
 72
12
 73
8
 74
0
 42
1e-07
 40
0.0
 40
0.0
 40
0.0
 40
0.0
 40
0.1398618987
 40
0.2729369856
 40
0.5244545005
 40
0.7662511167
 40
1.0
 40
1.0
 40
1.0
 40
1.0
 10
123.99999999999267
 20
239.9999999997526
 30
0.0
 10
124.00043847256887
 20
240.33097885773168
 30
0.0
 10
124.07854376720928
 20
240.9797520229767
 30
0.0
 10
124.51058602225379
 20
242.1524344883655
 30
0.0
 10
125.46280290369026
 20
243.3474539118906
 30
0.0
 10
126.99359447252925
 20
244.20794643271068
 30
0.0
 10
128.1276910740271
 20
244.3999999983061
 30
0.0
 10
128.68085106245405
 20
244.3999999983061
 30
0.0
  0
LWPOLYLINE
  5
10C
330
17
100
AcDbEntity
  8
OUTLINE
100
AcDbPolyline
 90
4
 70
1
 10
124.0
 20
245.0
 10
314.0
 20
245.0
 10
314.0
 20
261.5
 10
124.0
 20
261.5
  0
LINE
  5
10D
330
17
100
AcDbEntity
  8
DETAIL
100
AcDbLine
 10
134.0
 20
245.0
 30
0.0
 11
134.0
 21
261.5
 31
0.0
  0
LINE
  5
10E
330
17
100
AcDbEntity
  8
DETAIL
100
AcDbLine
 10
304.0
 20
245.0
 30
0.0
 11
304.0
 21
261.5
 31
0.0
  0
LINE
  5
10F
330
17
100
AcDbEntity
  8
CENTER
100
AcDbLine
 10
158.0
 20
225.0
 30
0.0
 11
184.0
 21
225.0
 31
0.0
  0
LINE
  5
110
330
17
100
AcDbEntity
  8
CENTER
100
AcDbLine
 10
171.0
 20
212.0
 30
0.0
 11
171.0
 21
238.0
 31
0.0
  0
LINE
  5
111
330
17
100
AcDbEntity
  8
CENTER
100
AcDbLine
 10
190.0
 20
225.0
 30
0.0
 11
216.0
 21
225.0
 31
0.0
  0
LINE
  5
112
330
17
100
AcDbEntity
  8
CENTER
100
AcDbLine
 10
203.0
 20
212.0
 30
0.0
 11
203.0
 21
238.0
 31
0.0
  0
LINE
  5
113
330
17
100
AcDbEntity
  8
CENTER
100
AcDbLine
 10
222.0
 20
225.0
 30
0.0
 11
248.0
 21
225.0
 31
0.0
  0
LINE
  5
114
330
17
100
AcDbEntity
  8
CENTER
100
AcDbLine
 10
235.0
 20
212.0
 30
0.0
 11
235.0
 21
238.0
 31
0.0
  0
LINE
  5
115
330
17
100
AcDbEntity
  8
CENTER
100
AcDbLine
 10
254.0
 20
225.0
 30
0.0
 11
280.0
 21
225.0
 31
0.0
  0
LINE
  5
116
330
17
100
AcDbEntity
  8
CENTER
100
AcDbLine
 10
267.0
 20
212.0
 30
0.0
 11
267.0
 21
238.0
 31
0.0
  0
DIMENSION
  5
117
330
17
100
AcDbEntity
  8
DIM
100
AcDbDimension
280
0
  2
*D20
  3
SLDDIMSTYLE0
 10
171.0
 20
156.0
 30
0.0
 11
187.0
 21
161.25
 31
0.0
 70
32
 71
5
  1
<>
100
AcDbAlignedDimension
 13
171.0
 23
225.0
 33
0.0
 14
203.0
 24
225.0
 34
0.0
 50
0.0
100
AcDbRotatedDimension
1001
ACAD
1000
DSTYLE
1002
{
1070
144
1040
1.0
1070
142
1040
0.0
1070
41
1040
6.604
1070
140
1040
7.0
1070
42
1040
2.5
1070
44
1040
0.0
1070
147
1040
1.75
1070
77
1070
1
1070
271
1070
2
1070
78
1070
0
1070
278
1070
46
1070
173
1070
0
1070
176
1070
7
1070
177
1070
7
1070
178
1070
7
1070
342
1005
0
1070
340
1005
3A
1002
}
  0
DIMENSION
  5
126
330
17
100
AcDbEntity
  8
DIM
100
AcDbDimension
280
0
  2
*D21
  3
SLDDIMSTYLE0
 10
203.0
 20
156.0
 30
0.0
 11
219.0
 21
161.25
 31
0.0
 70
32
 71
5
  1
<>
100
AcDbAlignedDimension
 13
203.0
 23
225.0
 33
0.0
 14
235.0
 24
225.0
 34
0.0
 50
0.0
100
AcDbRotatedDimension
1001
ACAD
1000
DSTYLE
1002
{
1070
144
1040
1.0
1070
142
1040
0.0
1070
41
1040
6.604
1070
140
1040
7.0
1070
42
1040
2.5
1070
44
1040
0.0
1070
147
1040
1.75
1070
77
1070
1
1070
271
1070
2
1070
78
1070
0
1070
278
1070
46
1070
173
1070
0
1070
176
1070
7
1070
177
1070
7
1070
178
1070
7
1070
342
1005
0
1070
340
1005
3A
1002
}
  0
DIMENSION
  5
135
330
17
100
AcDbEntity
  8
DIM
100
AcDbDimension
280
0
  2
*D22
  3
SLDDIMSTYLE0
 10
235.0
 20
156.0
 30
0.0
 11
251.0
 21
161.25
 31
0.0
 70
32
 71
5
  1
<>
100
AcDbAlignedDimension
 13
235.0
 23
225.0
 33
0.0
 14
267.0
 24
225.0
 34
0.0
 50
0.0
100
AcDbRotatedDimension
1001
ACAD
1000
DSTYLE
1002
{
1070
144
1040
1.0
1070
142
1040
0.0
1070
41
1040
6.604
1070
140
1040
7.0
1070
42
1040
2.5
1070
44
1040
0.0
1070
147
1040
1.75
1070
77
1070
1
1070
271
1070
2
1070
78
1070
0
1070
278
1070
46
1070
173
1070
0
1070
176
1070
7
1070
177
1070
7
1070
178
1070
7
1070
342
1005
0
1070
340
1005
3A
1002
}
  0
TEXT
  5
144
330
17
100
AcDbEntity
  8
TEXT
100
AcDbText
 10
219.0
 20
134.0
 30
0.0
 40
4.8
  1
BOTTOM
 72
1
 11
219.0
 21
134.0
 31
0.0
100
AcDbText
  0
LINE
  5
145
330
17
100
AcDbEntity
  8
DIM
100
AcDbLine
 10
267.0
 20
233.0
 30
0.0
 11
343.0
 21
248.0
 31
0.0
  0
LINE
  5
146
330
17
100
AcDbEntity
  8
DIM
100
AcDbLine
 10
343.0
 20
248.0
 30
0.0
 11
365.0
 21
248.0
 31
0.0
  0
SOLID
  5
147
330
17
100
AcDbEntity
  8
DIM
100
AcDbTrace
 10
267.0
 20
233.0
 30
0.0
 11
273.32023379658216
 21
235.08323324583222
 31
0.0
 12
273.6377919688927
 22
233.47427183945888
 32
0.0
 13
273.6377919688927
 23
233.47427183945888
 33
0.0
  0
TEXT
  5
148
330
17
100
AcDbEntity
  8
TEXT
100
AcDbText
 10
348.0
 20
258.0
 30
0.0
 40
5.0
  1
4-Ø16.00
 11
348.0
 21
258.0
 31
0.0
100
AcDbText
  0
LWPOLYLINE
  5
149
330
17
100
AcDbEntity
  8
ISO
100
AcDbPolyline
 90
22
 70
0
 10
586.6547058802589
 20
512.925
 10
719.156592659278
 20
436.425
 10
719.156592659278
 20
436.425
 10
719.8359044450245
 20
435.99855144046126
 10
720.5100462579019
 20
435.5068529776087
 10
721.1738874716561
 20
434.95364673364026
 10
721.8223758538122
 20
434.34314294210765
 10
722.450576016214
 20
433.6799879054967
 10
723.0537069763079
 20
432.96922863405996
 10
723.6271785433073
 20
432.2162744350212
 10
724.1666262523157
 20
431.4268557444814
 10
724.66794458054
 20
430.6069805153395
 10
725.1273181927984
 20
429.76288849314346
 10
725.541250978524
 20
428.90100372785895
 10
725.906592659278
 20
428.02788568297
 10
726.2205627642705
 20
427.1501793140014
 10
726.4807717914223
 20
426.2745644963944
 10
726.6852393929182
 20
425.4077051876219
 10
726.83240944685
 20
424.55619871044746
 10
726.9211619002433
 20
423.7265255433161
 10
726.9508212933379
 20
422.925
 10
726.9508212933379
 20
278.925
  0
LWPOLYLINE
  5
14A
330
17
100
AcDbEntity
  8
ISO
100
AcDbPolyline
 90
22
 70
0
 10
641.2143063186785
 20
544.425
 10
773.7161930976977
 20
467.925
 10
773.7161930976977
 20
467.925
 10
774.3955048834441
 20
467.49855144046126
 10
775.0696466963216
 20
467.0068529776087
 10
775.7334879100757
 20
466.45364673364026
 10
776.3819762922318
 20
465.84314294210765
 10
777.0101764546337
 20
465.1799879054967
 10
777.6133074147276
 20
464.46922863405996
 10
778.186778981727
 20
463.7162744350212
 10
778.7262266907353
 20
462.9268557444814
 10
779.2275450189597
 20
462.1069805153395
 10
779.6869186312181
 20
461.26288849314346
 10
780.1008514169436
 20
460.40100372785895
 10
780.4661930976977
 20
459.52788568297
 10
780.7801632026901
 20
458.6501793140014
 10
781.040372229842
 20
457.7745644963944
 10
781.2448398313379
 20
456.9077051876219
 10
781.3920098852695
 20
456.05619871044746
 10
781.480762338663
 20
455.2265255433161
 10
781.5104217317576
 20
454.425
 10
781.5104217317576
 20
310.425
  0
LWPOLYLINE
  5
14B
330
17
100
AcDbEntity
  8
ISO
100
AcDbPolyline
 90
2
 70
0
 10
573.7942286340599
 20
505.5
 10
641.2143063186785
 20
544.425
  0
LWPOLYLINE
  5
14C
330
17
100
AcDbEntity
  8
ISO
100
AcDbPolyline
 90
2
 70
0
 10
714.0903440471391
 20
415.5
 10
781.5104217317576
 20
454.425
  0
LWPOLYLINE
  5
14D
330
17
100
AcDbEntity
  8
ISO
100
AcDbPolyline
 90
2
 70
0
 10
714.0903440471391
 20
271.5
 10
781.5104217317576
 20
310.425
  0
LWPOLYLINE
  5
14E
330
17
100
AcDbEntity
  8
ISO
100
AcDbPolyline
 90
2
 70
0
 10
565.9999999999972
 20
501.0000000017106
 10
565.9999999999972
 20
357.00000000000165
  0
LWPOLYLINE
  5
14F
330
17
100
AcDbEntity
  8
ISO
100
AcDbPolyline
 90
2
 70
0
 10
566.7794228645884
 20
500.55000000102626
 10
566.7794228645884
 20
356.5499999993173
  0
LWPOLYLINE
  5
150
330
17
100
AcDbEntity
  8
ISO
100
AcDbPolyline
 90
2
 70
0
 10
573.7942286340289
 20
343.5000000000538
 10
706.296115414494
 20
266.9999999992189
  0
LWPOLYLINE
  5
151
330
17
100
AcDbEntity
  8
ISO
100
AcDbPolyline
 90
2
 70
0
 10
573.7942286340289
 20
344.40000000141913
 10
706.296115414494
 20
267.9000000005842
  0
LWPOLYLINE
  5
152
330
17
100
AcDbEntity
  8
ISO
100
AcDbPolyline
 90
2
 70
0
 10
573.7942286340289
 20
344.40000000141913
 10
573.7942286340289
 20
343.5000000000538
  0
LWPOLYLINE
  5
153
330
17
100
AcDbEntity
  8
ISO
100
AcDbPolyline
 90
2
 70
0
 10
573.7942286340289
 20
504.6000000003229
 10
573.7942286340289
 20
505.50000000169086
  0
LWPOLYLINE
  5
154
330
17
100
AcDbEntity
  8
ISO
100
AcDbPolyline
 90
2
 70
0
 10
577.6913429530209
 20
485.2500000006301
 10
577.6913429530209
 20
359.24999999884915
  0
LWPOLYLINE
  5
155
330
17
100
AcDbEntity
  8
ISO
100
AcDbPolyline
 90
2
 70
0
 10
566.7794228645884
 20
356.5499999993173
 10
565.9999999999972
 20
357.00000000000165
  0
LWPOLYLINE
  5
156
330
17
100
AcDbEntity
  8
ISO
100
AcDbPolyline
 90
2
 70
0
 10
585.4855715870525
 20
345.7499999989015
 10
694.6047724634551
 20
282.7499999991536
  0
LWPOLYLINE
  5
157
330
17
100
AcDbEntity
  8
ISO
100
AcDbPolyline
 90
2
 70
0
 10
713.3109211839344
 20
271.94999999988374
 10
714.0903440485256
 20
271.4999999991995
  0
LWPOLYLINE
  5
158
330
17
100
AcDbEntity
  8
ISO
100
AcDbPolyline
 90
2
 70
0
 10
600.0997502743667
 20
467.0474999999375
 10
600.0997502743667
 20
408.9975000008573
  0
LWPOLYLINE
  5
159
330
17
100
AcDbEntity
  8
ISO
100
AcDbPolyline
 90
2
 70
0
 10
600.0997502743667
 20
408.9975000008573
 10
679.9905937741561
 20
362.87250000046765
  0
LWPOLYLINE
  5
15A
330
17
100
AcDbEntity
  8
ISO
100
AcDbPolyline
 90
2
 70
0
 10
679.9905937741561
 20
362.87250000046765
 10
679.9905937741561
 20
420.9224999995478
  0
LWPOLYLINE
  5
15B
330
17
100
AcDbEntity
  8
ISO
100
AcDbPolyline
 90
2
 70
0
 10
679.9905937741561
 20
420.9224999995478
 10
600.0997502743667
 20
467.0474999999375
  0
LWPOLYLINE
  5
15C
330
17
100
AcDbEntity
  8
ISO
100
AcDbPolyline
 90
2
 70
0
 10
702.3990010974867
 20
287.249999999134
 10
702.3990010974867
 20
413.25000000091495
  0
LWPOLYLINE
  5
15D
330
17
100
AcDbEntity
  8
ISO
100
AcDbPolyline
 90
2
 70
0
 10
706.296115414494
 20
267.9000000005842
 10
706.296115414494
 20
266.9999999992189
  0
LWPOLYLINE
  5
15E
330
17
100
AcDbEntity
  8
ISO
100
AcDbPolyline
 90
2
 70
0
 10
706.296115414494
 20
428.099999999488
 10
706.296115414494
 20
429.000000000856
  0
LWPOLYLINE
  5
15F
330
17
100
AcDbEntity
  8
ISO
100
AcDbPolyline
 90
2
 70
0
 10
694.6047724634551
 20
426.75000000086254
 10
585.4855715870525
 20
489.7500000006104
  0
LWPOLYLINE
  5
160
330
17
100
AcDbEntity
  8
ISO
100
AcDbPolyline
 90
2
 70
0
 10
566.7794228645884
 20
500.55000000102626
 10
565.9999999999972
 20
501.0000000017106
  0
LWPOLYLINE
  5
161
330
17
100
AcDbEntity
  8
ISO
100
AcDbPolyline
 90
2
 70
0
 10
713.3109211839344
 20
415.9500000015927
 10
714.0903440485256
 20
415.5000000009084
  0
LWPOLYLINE
  5
162
330
17
100
AcDbEntity
  8
ISO
100
AcDbPolyline
 90
2
 70
0
 10
713.3109211839344
 20
271.94999999988374
 10
713.3109211839344
 20
415.9500000015927
  0
LWPOLYLINE
  5
163
330
17
100
AcDbEntity
  8
ISO
100
AcDbPolyline
 90
2
 70
0
 10
714.0903440485256
 20
271.4999999991995
 10
714.0903440485256
 20
415.5000000009084
  0
LWPOLYLINE
  5
164
330
17
100
AcDbEntity
  8
ISO
100
AcDbPolyline
 90
2
 70
0
 10
706.296115414494
 20
428.099999999488
 10
573.7942286340289
 20
504.6000000003229
  0
LWPOLYLINE
  5
165
330
17
100
AcDbEntity
  8
ISO
100
AcDbPolyline
 90
2
 70
0
 10
706.296115414494
 20
429.000000000856
 10
573.7942286340289
 20
505.50000000169086
  0
LWPOLYLINE
  5
166
330
17
100
AcDbEntity
  8
ISO
100
AcDbPolyline
 90
17
 70
0
 10
702.3990010974838
 20
413.25000000091654
 10
702.3587603736903
 20
414.1934307121875
 10
702.2406500738276
 20
415.1552379211573
 10
702.0485880051724
 20
416.12863578656817
 10
701.7864919750015
 20
417.10683846716273
 10
701.4582797905916
 20
418.0830601216833
 10
701.0678692592194
 20
419.0505149088721
 10
700.6191781881616
 20
420.0024169874722
 10
700.1161243846952
 20
420.93198051622545
 10
699.5626256560967
 20
421.8324196538743
 10
698.9625998096428
 20
422.6969485591615
 10
698.3199646526103
 20
423.51878139082936
 10
697.638637992276
 20
424.2911323076201
 10
696.9225376359166
 20
425.00721546827646
 10
696.1755813908088
 20
425.6602450315407
 10
695.4016870642295
 20
426.2434351561553
 10
694.6047724634551
 20
426.75000000086254
  0
LWPOLYLINE
  5
167
330
17
100
AcDbEntity
  8
ISO
100
AcDbPolyline
 90
17
 70
0
 10
694.6047724634551
 20
282.7499999991536
 10
695.4016870642295
 20
282.3363671253045
 10
696.1755813908088
 20
282.0259410543692
 10
696.9225376359166
 20
281.8164598392617
 10
697.638637992276
 20
281.7056615328963
 10
698.3199646526103
 20
281.6912841881869
 10
698.9625998096428
 20
281.7710658580479
 10
699.5626256560967
 20
281.9427445953934
 10
700.1161243846952
 20
282.20405845313746
 10
700.6191781881616
 20
282.552745484194
 10
701.0678692592194
 20
282.9865437414778
 10
701.4582797905916
 20
283.5031912779022
 10
701.7864919750015
 20
284.10042614638206
 10
702.0485880051724
 20
284.77598639983114
 10
702.2406500738276
 20
285.52761009116364
 10
702.3587603736903
 20
286.3530352732938
 10
702.3990010974838
 20
287.24999999913564
  0
LWPOLYLINE
  5
168
330
17
100
AcDbEntity
  8
ISO
100
AcDbPolyline
 90
17
 70
0
 10
577.6913429530238
 20
359.24999999884744
 10
577.7315836768173
 20
358.30656928757656
 10
577.84969397668
 20
357.3447620786067
 10
578.0417560453352
 20
356.3713642131959
 10
578.3038520755061
 20
355.39316153260154
 10
578.6320642599161
 20
354.41693987808094
 10
579.0224747912882
 20
353.4494850908919
 10
579.471165862346
 20
352.49758301229207
 10
579.9742196658125
 20
351.5680194835388
 10
580.527718394411
 20
350.66758034588975
 10
581.1277442408649
 20
349.8030514406027
 10
581.7703793978974
 20
348.9812186089349
 10
582.4517060582316
 20
348.2088676921439
 10
583.167806414591
 20
347.4927845314876
 10
583.9147626596988
 20
346.83975496822336
 10
584.6886569862783
 20
346.25656484360877
 10
585.4855715870525
 20
345.7499999989015
  0
LWPOLYLINE
  5
169
330
17
100
AcDbEntity
  8
ISO
100
AcDbPolyline
 90
17
 70
0
 10
585.4855715870525
 20
489.7500000006104
 10
584.6886569862783
 20
490.1636328744595
 10
583.9147626596988
 20
490.47405894539486
 10
583.167806414591
 20
490.6835401605023
 10
582.4517060582316
 20
490.79433846686777
 10
581.7703793978974
 20
490.80871581157714
 10
581.1277442408649
 20
490.72893414171614
 10
580.527718394411
 20
490.5572554043706
 10
579.9742196658125
 20
490.29594154662675
 10
579.471165862346
 20
489.94725451556997
 10
579.0224747912882
 20
489.5134562582863
 10
578.6320642599161
 20
488.99680872186184
 10
578.3038520755061
 20
488.399573853382
 10
578.0417560453352
 20
487.72401359993285
 10
577.84969397668
 20
486.97238990860035
 10
577.7315836768173
 20
486.1469647264702
 10
577.6913429530238
 20
485.2500000006284
  0
LWPOLYLINE
  5
16A
330
17
100
AcDbEntity
  8
ISO
100
AcDbPolyline
 90
17
 70
0
 10
566.0
 20
357.0
 10
566.0402407237935
 20
356.05656928872907
 10
566.1583510236562
 20
355.0947620797592
 10
566.3504130923114
 20
354.1213642143484
 10
566.6125091224824
 20
353.14316153375404
 10
566.9407213068923
 20
352.16693987923344
 10
567.3311318382645
 20
351.1994850920444
 10
567.7798229093222
 20
350.24758301344457
 10
568.2828767127887
 20
349.3180194846913
 10
568.8363754413873
 20
348.41758034704225
 10
569.4364012878411
 20
347.5530514417552
 10
570.0790364448736
 20
346.7312186100874
 10
570.760363105208
 20
345.95886769329644
 10
571.4764634615673
 20
345.2427845326401
 10
572.223419706675
 20
344.58975496937586
 10
572.9973140332545
 20
344.0065648447613
 10
573.7942286340289
 20
343.500000000054
  0
LWPOLYLINE
  5
16B
330
17
100
AcDbEntity
  8
ISO
100
AcDbPolyline
 90
17
 70
0
 10
706.296115414494
 20
266.9999999992191
 10
707.0930300152684
 20
266.58636712537
 10
707.8669243418477
 20
266.27594105443467
 10
708.6138805869555
 20
266.0664598393272
 10
709.3299809433149
 20
265.95566153296176
 10
710.0113076036491
 20
265.9412841882524
 10
710.6539427606817
 20
266.0210658581134
 10
711.2539686071356
 20
266.19274459545886
 10
711.807467335734
 20
266.45405845320295
 10
712.3105211392005
 20
266.8027454842595
 10
712.7592122102583
 20
267.2365437415433
 10
713.1496227416304
 20
267.7531912779677
 10
713.4778349260404
 20
268.35042614644755
 10
713.7399309562113
 20
269.0259863998966
 10
713.9319930248665
 20
269.7776100912291
 10
714.0501033247292
 20
270.6030352733593
 10
714.0903440485228
 20
271.4999999992011
  0
LWPOLYLINE
  5
16C
330
17
100
AcDbEntity
  8
ISO
100
AcDbPolyline
 90
17
 70
0
 10
573.7942286340289
 20
505.50000000169086
 10
572.9973140332545
 20
505.91363287554
 10
572.223419706675
 20
506.22405894647534
 10
571.4764634615673
 20
506.43354016158275
 10
570.760363105208
 20
506.54433846794825
 10
570.0790364448736
 20
506.5587158126576
 10
569.4364012878411
 20
506.4789341427966
 10
568.8363754413873
 20
506.3072554054511
 10
568.2828767127887
 20
506.04594154770723
 10
567.7798229093222
 20
505.69725451665045
 10
567.3311318382645
 20
505.26345625936676
 10
566.9407213068923
 20
504.7468087229423
 10
566.6125091224824
 20
504.14957385446246
 10
566.3504130923114
 20
503.4740136010133
 10
566.1583510236562
 20
502.7223899096808
 10
566.0402407237935
 20
501.89696472755065
 10
566.0
 20
501.0000000017089
  0
LWPOLYLINE
  5
16D
330
17
100
AcDbEntity
  8
ISO
100
AcDbPolyline
 90
17
 70
0
 10
714.0903440485228
 20
415.50000000091
 10
714.0501033247292
 20
416.44343071218094
 10
713.9319930248665
 20
417.40523792115073
 10
713.7399309562113
 20
418.37863578656163
 10
713.4778349260404
 20
419.3568384671562
 10
713.1496227416304
 20
420.33306012167674
 10
712.7592122102583
 20
421.3005149088656
 10
712.3105211392005
 20
422.2524169874656
 10
711.807467335734
 20
423.1819805162189
 10
711.2539686071356
 20
424.08241965386776
 10
710.6539427606817
 20
424.946948559155
 10
710.0113076036491
 20
425.7687813908228
 10
709.3299809433149
 20
426.54113230761357
 10
708.6138805869555
 20
427.2572154682699
 10
707.8669243418477
 20
427.91024503153415
 10
707.0930300152684
 20
428.49343515614873
 10
706.296115414494
 20
429.000000000856
  0
LWPOLYLINE
  5
16E
330
17
100
AcDbEntity
  8
ISO
100
AcDbPolyline
 90
17
 70
0
 10
566.779422862611
 20
356.55000000045897
 10
566.8156395140293
 20
355.7009123602192
 10
566.9219387839178
 20
354.8352858720487
 10
567.0947946457269
 20
353.9592277930801
 10
567.3306810729074
 20
353.0788453804457
 10
567.6260720389097
 20
352.2002458912779
 10
567.9774415171843
 20
351.32953658270964
 10
568.3812634811818
 20
350.47282471187305
 10
568.8340119043528
 20
349.63621753590064
 10
569.3321607601476
 20
348.82582231192504
 10
569.8721840220171
 20
348.04774629707873
 10
570.4505556634117
 20
347.3080967484943
 10
571.0637496577817
 20
346.61298092330395
 10
571.7082399785779
 20
345.96850607864053
 10
572.3805005992508
 20
345.3807794716365
 10
573.0770054932509
 20
344.8559083594241
 10
573.7942286340289
 20
344.399999999136
  0
LWPOLYLINE
  5
16F
330
17
100
AcDbEntity
  8
ISO
100
AcDbPolyline
 90
17
 70
0
 10
706.296115414494
 20
267.8999999983011
 10
707.0133385552718
 20
267.527730411795
 10
707.709843449272
 20
267.2483469479217
 10
708.3821040699448
 20
267.05981385430357
 10
709.026594390741
 20
266.9600953785633
 10
709.6397883851112
 20
266.9471557683236
 10
710.2181600265056
 20
267.01895927120654
 10
710.7581832883751
 20
267.1734701348348
 10
711.2563321441701
 20
267.408652606831
 10
711.709080567341
 20
267.7224709348176
 10
712.1129025313385
 20
268.1128893664169
 10
712.4642720096131
 20
268.5778721492514
 10
712.7596629756154
 20
269.11538353094403
 10
712.9955494027959
 20
269.7233877591168
 10
713.1684052646051
 20
270.3998490813923
 10
713.2747045344935
 20
271.14273174539323
 10
713.3109211859118
 20
271.9499999987421
  0
LWPOLYLINE
  5
170
330
17
100
AcDbEntity
  8
ISO
100
AcDbPolyline
 90
17
 70
0
 10
713.3109211859118
 20
415.95000000045104
 10
713.2747045344935
 20
416.7990876406908
 10
713.1684052646051
 20
417.6647141288613
 10
712.9955494027959
 20
418.5407722078299
 10
712.7596629756154
 20
419.4211546204643
 10
712.4642720096131
 20
420.2997541096321
 10
712.1129025313385
 20
421.17046341820037
 10
711.709080567341
 20
422.02717528903696
 10
711.2563321441701
 20
422.86378246500936
 10
710.7581832883751
 20
423.674177688985
 10
710.2181600265056
 20
424.4522537038313
 10
709.6397883851112
 20
425.19190325241567
 10
709.026594390741
 20
425.88701907760606
 10
708.3821040699448
 20
426.5314939222695
 10
707.709843449272
 20
427.1192205292735
 10
707.0133385552718
 20
427.64409164148583
 10
706.296115414494
 20
428.100000001774
  0
LWPOLYLINE
  5
171
330
17
100
AcDbEntity
  8
ISO
100
AcDbPolyline
 90
17
 70
0
 10
573.7942286340289
 20
504.6000000026089
 10
573.0770054932509
 20
504.972269589115
 10
572.3805005992508
 20
505.25165305298833
 10
571.7082399785779
 20
505.44018614660644
 10
571.0637496577817
 20
505.5399046223466
 10
570.4505556634117
 20
505.5528442325864
 10
569.8721840220171
 20
505.48104072970347
 10
569.3321607601476
 20
505.32652986607513
 10
568.8340119043528
 20
505.091347394079
 10
568.3812634811818
 20
504.7775290660924
 10
567.9774415171843
 20
504.3871106344931
 10
567.6260720389097
 20
503.9221278516586
 10
567.3306810729074
 20
503.384616469966
 10
567.0947946457269
 20
502.7766122417932
 10
566.9219387839178
 20
502.10015091951766
 10
566.8156395140293
 20
501.3572682555167
 10
566.779422862611
 20
500.5500000021679
  0
LWPOLYLINE
  5
172
330
17
100
AcDbEntity
  8
ISO
100
AcDbPolyline
 90
33
 70
0
 10
614.0514195303489
 20
354.4575000009382
 10
613.9857038555199
 20
353.742708189003
 10
613.7972282444737
 20
353.15042685181345
 10
613.4989998173711
 20
352.6881656536961
 10
613.1040256943734
 20
352.36343425897735
 10
612.6253129956417
 20
352.1837423319833
 10
612.075868841337
 20
352.15659953704056
 10
611.4687003516203
 20
352.2895155384753
 10
610.8168146466528
 20
352.5900000006142
 10
610.1649289416853
 20
353.042248312963
 10
609.5577604519686
 20
353.610430093491
 10
609.0083162976639
 20
354.27201634921875
 10
608.5296035989322
 20
355.0044780871673
 10
608.1346294759346
 20
355.78528631435734
 10
607.836401048832
 20
356.59191203780995
 10
607.6479254377857
 20
357.401826264546
 10
607.5822097629567
 20
358.1925000015862
 10
607.6479254377857
 20
358.9072918135214
 10
607.836401048832
 20
359.49957315071094
 10
608.1346294759346
 20
359.9618343488283
 10
608.5296035989322
 20
360.28656574354704
 10
609.0083162976639
 20
360.4662576705411
 10
609.5577604519686
 20
360.49340046548383
 10
610.1649289416853
 20
360.3604844640491
 10
610.8168146466528
 20
360.06000000191017
 10
611.4687003516203
 20
359.6077516895614
 10
612.075868841337
 20
359.0395699090334
 10
612.6253129956417
 20
358.37798365330565
 10
613.1040256943734
 20
357.6455219153571
 10
613.4989998173711
 20
356.86471368816706
 10
613.7972282444737
 20
356.05808796471445
 10
613.9857038555199
 20
355.2481737379784
 10
614.0514195303489
 20
354.4575000009382
  0
LWPOLYLINE
  5
173
330
17
100
AcDbEntity
  8
ISO
100
AcDbPolyline
 90
33
 70
0
 10
614.0514195303489
 20
386.40749999920945
 10
613.9857038555199
 20
385.6927081872742
 10
613.7972282444737
 20
385.10042685008466
 10
613.4989998173711
 20
384.6381656519673
 10
613.1040256943734
 20
384.31343425724856
 10
612.6253129956417
 20
384.13374233025456
 10
612.075868841337
 20
384.1065995353118
 10
611.4687003516203
 20
384.2395155367465
 10
610.8168146466528
 20
384.5399999988855
 10
610.1649289416853
 20
384.9922483112342
 10
609.5577604519686
 20
385.56043009176227
 10
609.0083162976639
 20
386.22201634748996
 10
608.5296035989322
 20
386.9544780854385
 10
608.1346294759346
 20
387.73528631262855
 10
607.836401048832
 20
388.54191203608116
 10
607.6479254377857
 20
389.3518262628172
 10
607.5822097629567
 20
390.1424999998574
 10
607.6479254377857
 20
390.85729181179266
 10
607.836401048832
 20
391.4495731489822
 10
608.1346294759346
 20
391.91183434709956
 10
608.5296035989322
 20
392.2365657418183
 10
609.0083162976639
 20
392.4162576688123
 10
609.5577604519686
 20
392.4434004637551
 10
610.1649289416853
 20
392.31048446232035
 10
610.8168146466528
 20
392.0100000001814
 10
611.4687003516203
 20
391.55775168783265
 10
612.075868841337
 20
390.9895699073046
 10
612.6253129956417
 20
390.3279836515769
 10
613.1040256943734
 20
389.5955219136284
 10
613.4989998173711
 20
388.8147136864383
 10
613.7972282444737
 20
388.0080879629857
 10
613.9857038555199
 20
387.19817373624966
 10
614.0514195303489
 20
386.40749999920945
  0
LWPOLYLINE
  5
174
330
17
100
AcDbEntity
  8
ISO
100
AcDbPolyline
 90
33
 70
0
 10
628.4707425035016
 20
362.1074999999887
 10
628.4050268286726
 20
361.39270818805346
 10
628.2165512176263
 20
360.8004268508639
 10
627.9183227905238
 20
360.33816565274657
 10
627.5233486675261
 20
360.0134342580278
 10
627.0446359687944
 20
359.83374233103376
 10
626.4951918144897
 20
359.806599536091
 10
625.888023324773
 20
359.9395155375258
 10
625.2361376198055
 20
360.23999999966475
 10
624.584251914838
 20
360.6922483120135
 10
623.9770834251214
 20
361.2604300925415
 10
623.4276392708166
 20
361.9220163482692
 10
622.9489265720849
 20
362.65447808621775
 10
622.5539524490872
 20
363.4352863134078
 10
622.2557240219847
 20
364.2419120368604
 10
622.0672484109384
 20
365.05182626359647
 10
622.0015327361094
 20
365.8425000006367
 10
622.0672484109384
 20
366.5572918125719
 10
622.2557240219847
 20
367.14957314976147
 10
622.5539524490872
 20
367.6118343478788
 10
622.9489265720849
 20
367.93656574259757
 10
623.4276392708166
 20
368.11625766959156
 10
623.9770834251214
 20
368.14340046453435
 10
624.584251914838
 20
368.0104844630996
 10
625.2361376198055
 20
367.71000000096063
 10
625.888023324773
 20
367.2577516886119
 10
626.4951918144897
 20
366.68956990808385
 10
627.0446359687944
 20
366.0279836523561
 10
627.5233486675261
 20
365.29552191440763
 10
627.9183227905238
 20
364.5147136872176
 10
628.2165512176263
 20
363.70808796376497
 10
628.4050268286726
 20
362.8981737370289
 10
628.4707425035016
 20
362.1074999999887
  0
LWPOLYLINE
  5
175
330
17
100
AcDbEntity
  8
ISO
100
AcDbPolyline
 90
33
 70
0
 10
672.508134285566
 20
320.70750000107245
 10
672.4424186107369
 20
319.9927081891372
 10
672.2539429996907
 20
319.40042685194766
 10
671.9557145725881
 20
318.9381656538303
 10
671.5607404495905
 20
318.61343425911156
 10
671.0820277508587
 20
318.43374233211756
 10
670.5325835965541
 20
318.40659953717477
 10
669.9254151068374
 20
318.5395155386095
 10
669.27352940187
 20
318.8400000007485
 10
668.6216436969024
 20
319.2922483130972
 10
668.0144752071858
 20
319.86043009362527
 10
667.465031052881
 20
320.522016349353
 10
666.9863183541493
 20
321.2544780873015
 10
666.5913442311517
 20
322.03528631449154
 10
666.2931158040491
 20
322.84191203794416
 10
666.1046401930029
 20
323.6518262646802
 10
666.0389245181739
 20
324.4425000017204
 10
666.1046401930029
 20
325.15729181365566
 10
666.2931158040491
 20
325.7495731508452
 10
666.5913442311517
 20
326.21183434896255
 10
666.9863183541493
 20
326.5365657436813
 10
667.465031052881
 20
326.71625767067536
 10
668.0144752071858
 20
326.7434004656181
 10
668.6216436969024
 20
326.61048446418334
 10
669.27352940187
 20
326.3100000020444
 10
669.9254151068374
 20
325.85775168969565
 10
670.5325835965541
 20
325.2895699091676
 10
671.0820277508587
 20
324.6279836534399
 10
671.5607404495905
 20
323.8955219154914
 10
671.9557145725881
 20
323.1147136883013
 10
672.2539429996907
 20
322.3080879648487
 10
672.4424186107369
 20
321.49817373811265
 10
672.508134285566
 20
320.70750000107245
  0
LWPOLYLINE
  5
176
330
17
100
AcDbEntity
  8
ISO
100
AcDbPolyline
 90
33
 70
0
 10
643.279776908947
 20
345.45749999868536
 10
643.214061234118
 20
344.7427081867501
 10
643.0255856230717
 20
344.1504268495606
 10
642.7273571959693
 20
343.6881656514432
 10
642.3323830729715
 20
343.3634342567245
 10
641.8536703742399
 20
343.1837423297305
 10
641.3042262199351
 20
343.1565995347877
 10
640.6970577302185
 20
343.28951553622244
 10
640.045172025251
 20
343.5899999983614
 10
639.3932863202834
 20
344.04224831071014
 10
638.7861178305668
 20
344.6104300912382
 10
638.2366736762621
 20
345.2720163469659
 10
637.7579609775304
 20
346.0044780849144
 10
637.3629868545327
 20
346.78528631210446
 10
637.0647584274302
 20
347.5919120355571
 10
636.8762828163839
 20
348.4018262622931
 10
636.8105671415549
 20
349.19249999933334
 10
636.8762828163839
 20
349.9072918112686
 10
637.0647584274302
 20
350.4995731484581
 10
637.3629868545327
 20
350.9618343465755
 10
637.7579609775304
 20
351.2865657412942
 10
638.2366736762621
 20
351.4662576682883
 10
638.7861178305668
 20
351.493400463231
 10
639.3932863202834
 20
351.36048446179626
 10
640.045172025251
 20
351.0599999996573
 10
640.6970577302185
 20
350.60775168730856
 10
641.3042262199351
 20
350.0395699067805
 10
641.8536703742399
 20
349.37798365105283
 10
642.3323830729715
 20
348.6455219131043
 10
642.7273571959693
 20
347.86471368591424
 10
643.0255856230717
 20
347.0580879624616
 10
643.214061234118
 20
346.2481737357256
 10
643.279776908947
 20
345.45749999868536
  0
LWPOLYLINE
  5
177
330
17
100
AcDbEntity
  8
ISO
100
AcDbPolyline
 90
33
 70
0
 10
672.508134285566
 20
352.65749999934366
 10
672.4424186107369
 20
351.94270818740847
 10
672.2539429996907
 20
351.3504268502189
 10
671.9557145725881
 20
350.8881656521016
 10
671.5607404495905
 20
350.5634342573828
 10
671.0820277508587
 20
350.38374233038877
 10
670.5325835965541
 20
350.35659953544604
 10
669.9254151068374
 20
350.4895155368808
 10
669.27352940187
 20
350.7899999990197
 10
668.6216436969024
 20
351.2422483113685
 10
668.0144752071858
 20
351.8104300918965
 10
667.465031052881
 20
352.4720163476242
 10
666.9863183541493
 20
353.20447808557276
 10
666.5913442311517
 20
353.9852863127628
 10
666.2931158040491
 20
354.7919120362154
 10
666.1046401930029
 20
355.6018262629515
 10
666.0389245181739
 20
356.3924999999917
 10
666.1046401930029
 20
357.10729181192687
 10
666.2931158040491
 20
357.6995731491164
 10
666.5913442311517
 20
358.16183434723376
 10
666.9863183541493
 20
358.4865657419525
 10
667.465031052881
 20
358.66625766894657
 10
668.0144752071858
 20
358.6934004638893
 10
668.6216436969024
 20
358.56048446245455
 10
669.27352940187
 20
358.26000000031564
 10
669.9254151068374
 20
357.80775168796686
 10
670.5325835965541
 20
357.23956990743886
 10
671.0820277508587
 20
356.5779836517111
 10
671.5607404495905
 20
355.8455219137626
 10
671.9557145725881
 20
355.06471368657253
 10
672.2539429996907
 20
354.2580879631199
 10
672.4424186107369
 20
353.44817373638386
 10
672.508134285566
 20
352.65749999934366
  0
LWPOLYLINE
  5
178
330
17
100
AcDbEntity
  8
ISO
100
AcDbPolyline
 90
33
 70
0
 10
658.088811312419
 20
345.00750000028336
 10
658.02309563759
 20
344.2927081883481
 10
657.8346200265437
 20
343.70042685115857
 10
657.5363915994412
 20
343.2381656530412
 10
657.1414174764435
 20
342.91343425832247
 10
656.6627047777118
 20
342.7337423313284
 10
656.1132606234071
 20
342.7065995363857
 10
655.5060921336905
 20
342.83951553782043
 10
654.8542064287229
 20
343.1399999999594
 10
654.2023207237554
 20
343.59224831230813
 10
653.5951522340388
 20
344.1604300928362
 10
653.0457080797341
 20
344.82201634856386
 10
652.5669953810024
 20
345.5544780865124
 10
652.1720212580046
 20
346.33528631370245
 10
651.8737928309022
 20
347.14191203715507
 10
651.6853172198558
 20
347.9518262638911
 10
651.6196015450269
 20
348.74250000093133
 10
651.6853172198558
 20
349.4572918128665
 10
651.8737928309022
 20
350.0495731500561
 10
652.1720212580046
 20
350.51183434817347
 10
652.5669953810024
 20
350.8365657428922
 10
653.0457080797341
 20
351.0162576698862
 10
653.5951522340388
 20
351.043400464829
 10
654.2023207237554
 20
350.91048446339425
 10
654.8542064287229
 20
350.6100000012553
 10
655.5060921336905
 20
350.15775168890656
 10
656.1132606234071
 20
349.5895699083785
 10
656.6627047777118
 20
348.92798365265077
 10
657.1414174764435
 20
348.1955219147022
 10
657.5363915994412
 20
347.41471368751223
 10
657.8346200265437
 20
346.6080879640596
 10
658.02309563759
 20
345.79817373732357
 10
658.088811312419
 20
345.00750000028336
  0
LWPOLYLINE
  5
179
330
17
100
AcDbEntity
  8
ISO
100
AcDbPolyline
 90
33
 70
0
 10
643.279776908947
 20
361.6575000004501
 10
643.214061234118
 20
360.9427081885149
 10
643.0255856230717
 20
360.3504268513254
 10
642.7273571959693
 20
359.88816565320803
 10
642.3323830729715
 20
359.5634342584893
 10
641.8536703742399
 20
359.3837423314952
 10
641.3042262199351
 20
359.3565995365525
 10
640.6970577302185
 20
359.48951553798724
 10
640.045172025251
 20
359.79000000012616
 10
639.3932863202834
 20
360.24224831247494
 10
638.7861178305668
 20
360.810430093003
 10
638.2366736762621
 20
361.4720163487307
 10
637.7579609775304
 20
362.2044780866792
 10
637.3629868545327
 20
362.98528631386927
 10
637.0647584274302
 20
363.7919120373219
 10
636.8762828163839
 20
364.60182626405793
 10
636.8105671415549
 20
365.39250000109814
 10
636.8762828163839
 20
366.1072918130333
 10
637.0647584274302
 20
366.69957315022293
 10
637.3629868545327
 20
367.1618343483402
 10
637.7579609775304
 20
367.486565743059
 10
638.2366736762621
 20
367.666257670053
 10
638.7861178305668
 20
367.69340046499576
 10
639.3932863202834
 20
367.56048446356107
 10
640.045172025251
 20
367.2600000014221
 10
640.6970577302185
 20
366.8077516890733
 10
641.3042262199351
 20
366.2395699085453
 10
641.8536703742399
 20
365.5779836528176
 10
642.3323830729715
 20
364.84552191486904
 10
642.7273571959693
 20
364.06471368767905
 10
643.0255856230717
 20
363.25808796422643
 10
643.214061234118
 20
362.4481737374903
 10
643.279776908947
 20
361.6575000004501
  0
LWPOLYLINE
  5
17A
330
17
100
AcDbEntity
  8
ISO
100
AcDbPolyline
 90
33
 70
0
 10
711.7520754587126
 20
270.1499999994336
 10
711.6887350492341
 20
269.4610440360699
 10
711.5070718096574
 20
268.8901704580121
 10
711.2196227232716
 20
268.4446174959373
 10
710.8389247733653
 20
268.1316233805216
 10
710.3775149432271
 20
267.95842634244184
 10
709.8479302161459
 20
267.93226461237447
 10
709.2627075754103
 20
268.06037642099625
 10
708.6343840043093
 20
268.3499999989836
 10
708.0060604332082
 20
268.7859019868231
 10
707.4208377924726
 20
269.3335470765303
 10
706.8912530653914
 20
269.9712205760758
 10
706.4298432352533
 20
270.67720779342955
 10
706.0491452853469
 20
271.42979403656204
 10
705.7616961989611
 20
272.2072646134432
 10
705.5800329593844
 20
272.9879048320438
 10
705.5166925499059
 20
273.75000000033356
 10
705.5800329593844
 20
274.4389559636973
 10
705.7616961989611
 20
275.00982954175504
 10
706.0491452853469
 20
275.4553825038299
 10
706.4298432352533
 20
275.7683766192456
 10
706.8912530653914
 20
275.9415736573253
 10
707.4208377924726
 20
275.9677353873927
 10
708.0060604332082
 20
275.8396235787709
 10
708.6343840043093
 20
275.5500000007836
 10
709.2627075754103
 20
275.1140980129441
 10
709.8479302161459
 20
274.56645292323685
 10
710.3775149432271
 20
273.92877942369137
 10
710.8389247733653
 20
273.2227922063376
 10
711.2196227232716
 20
272.47020596320516
 10
711.5070718096574
 20
271.692735386324
 10
711.6887350492341
 20
270.91209516772335
 10
711.7520754587126
 20
270.1499999994336
  0
LWPOLYLINE
  5
17B
330
17
100
AcDbEntity
  8
ISO
100
AcDbPolyline
 90
33
 70
0
 10
711.7520754587126
 20
419.55000000021016
 10
711.6887350492341
 20
418.86104403684647
 10
711.5070718096574
 20
418.2901704587887
 10
711.2196227232716
 20
417.84461749671385
 10
710.8389247733653
 20
417.5316233812982
 10
710.3775149432271
 20
417.35842634321847
 10
709.8479302161459
 20
417.3322646131511
 10
709.2627075754103
 20
417.4603764217729
 10
708.6343840043093
 20
417.7499999997602
 10
708.0060604332082
 20
418.18590198759966
 10
707.4208377924726
 20
418.7335470773069
 10
706.8912530653914
 20
419.3712205768524
 10
706.4298432352533
 20
420.0772077942062
 10
706.0491452853469
 20
420.8297940373386
 10
705.7616961989611
 20
421.6072646142198
 10
705.5800329593844
 20
422.38790483282037
 10
705.5166925499059
 20
423.1500000011102
 10
705.5800329593844
 20
423.8389559644739
 10
705.7616961989611
 20
424.40982954253167
 10
706.0491452853469
 20
424.8553825046065
 10
706.4298432352533
 20
425.1683766200222
 10
706.8912530653914
 20
425.3415736581019
 10
707.4208377924726
 20
425.3677353881693
 10
708.0060604332082
 20
425.2396235795475
 10
708.6343840043093
 20
424.95000000156017
 10
709.2627075754103
 20
424.51409801372074
 10
709.8479302161459
 20
423.9664529240134
 10
710.3775149432271
 20
423.32877942446794
 10
710.8389247733653
 20
422.62279220711423
 10
711.2196227232716
 20
421.87020596398173
 10
711.5070718096574
 20
421.09273538710056
 10
711.6887350492341
 20
420.3120951685
 10
711.7520754587126
 20
419.55000000021016
  0
LWPOLYLINE
  5
17C
330
17
100
AcDbEntity
  8
ISO
100
AcDbPolyline
 90
25
 70
0
 10
710.0763163022184
 20
271.1174999995326
 10
710.0470213628295
 20
270.7988578664221
 10
709.9630021145108
 20
270.5348288365251
 10
709.6539841101726
 20
270.18400081312546
 10
709.1956491273801
 20
270.0917973828418
 10
708.9249836559934
 20
270.1510490943395
 10
708.6343840043093
 20
270.28499999918154
 10
708.3437843526251
 20
270.486604668592
 10
708.0731188812385
 20
270.73989052262505
 10
707.6147838984459
 20
271.36133360429744
 10
707.3057658941077
 20
272.06898488367534
 10
707.2217466457892
 20
272.43003098484
 10
707.1924517064002
 20
272.78250000023456
 10
707.2217466457892
 20
273.10114213334504
 10
707.3057658941077
 20
273.36517116324205
 10
707.6147838984459
 20
273.7159991866417
 10
708.0731188812385
 20
273.8082026169254
 10
708.3437843526251
 20
273.74895090542765
 10
708.6343840043093
 20
273.6150000005856
 10
708.9249836559934
 20
273.4133953311752
 10
709.1956491273801
 20
273.1601094771421
 10
709.6539841101727
 20
272.5386663954697
 10
709.9630021145109
 20
271.83101511609186
 10
710.0470213628295
 20
271.4699690149272
 10
710.0763163022184
 20
271.1174999995326
  0
LWPOLYLINE
  5
17D
330
17
100
AcDbEntity
  8
ISO
100
AcDbPolyline
 90
25
 70
0
 10
710.0763163022184
 20
420.51750000030916
 10
710.0470213628295
 20
420.19885786719874
 10
709.9630021145108
 20
419.9348288373017
 10
709.6539841101726
 20
419.58400081390226
 10
709.1956491273801
 20
419.49179738361835
 10
708.9249836559934
 20
419.5510490951161
 10
708.6343840043093
 20
419.68499999995817
 10
708.3437843526251
 20
419.8866046693686
 10
708.0731188812385
 20
420.1398905234017
 10
707.6147838984459
 20
420.76133360507424
 10
707.3057658941077
 20
421.4689848844519
 10
707.2217466457892
 20
421.8300309856166
 10
707.1924517064002
 20
422.1825000010112
 10
707.2217466457892
 20
422.50114213412166
 10
707.3057658941077
 20
422.7651711640186
 10
707.6147838984459
 20
423.1159991874181
 10
708.0731188812385
 20
423.208202617702
 10
708.3437843526251
 20
423.1489509062043
 10
708.6343840043093
 20
423.0150000013622
 10
708.9249836559934
 20
422.81339533195177
 10
709.1956491273801
 20
422.5601094779187
 10
709.6539841101727
 20
421.9386663962461
 10
709.9630021145109
 20
421.23101511686843
 10
710.0470213628295
 20
420.86996901570376
 10
710.0763163022184
 20
420.51750000030916
  0
TEXT
  5
17E
330
17
100
AcDbEntity
  8
TEXT
100
AcDbText
 10
680.0
 20
246.0
 30
0.0
 40
4.8
  1
ISOMETRIC (REFERENCE)
 72
1
 11
680.0
 21
246.0
 31
0.0
100
AcDbText
  0
TEXT
  5
17F
330
17
100
AcDbEntity
  8
TEXT
100
AcDbText
 10
488.0
 20
224.0
 30
0.0
 40
4.4
  1
A  WALL MOUNT: 4-DIA 4.20 / SCREW DIA 4
 11
488.0
 21
224.0
 31
0.0
100
AcDbText
  0
TEXT
  5
180
330
17
100
AcDbEntity
  8
TEXT
100
AcDbText
 10
488.0
 20
212.0
 30
0.0
 40
4.4
  1
    HOLE CENTRES 148.00 x 166.00
 11
488.0
 21
212.0
 31
0.0
100
AcDbText
  0
TEXT
  5
181
330
17
100
AcDbEntity
  8
TEXT
100
AcDbText
 10
488.0
 20
200.0
 30
0.0
 40
4.4
  1
B  LID FASTENING: 2-DIA 3.70 / SEAT DIA 8.00
 11
488.0
 21
200.0
 31
0.0
100
AcDbText
  0
TEXT
  5
182
330
17
100
AcDbEntity
  8
TEXT
100
AcDbText
 10
488.0
 20
188.0
 30
0.0
 40
4.4
  1
DEPTH 86.50 = BODY 70.00 + COVER 16.50 (REF)
 11
488.0
 21
188.0
 31
0.0
100
AcDbText
  0
TEXT
  5
183
330
17
100
AcDbEntity
  8
TEXT
100
AcDbText
 10
488.0
 20
176.0
 30
0.0
 40
4.4
  1
SIDE, BOTTOM AND ISOMETRIC VIEWS: REFERENCE.
 11
488.0
 21
176.0
 31
0.0
100
AcDbText
  0
TEXT
  5
184
330
17
100
AcDbEntity
  8
TEXT
100
AcDbText
 10
488.0
 20
164.0
 30
0.0
 40
4.4
  1
CABLE GLANDS AND BUTTON CAPS NOT SHOWN.
 11
488.0
 21
164.0
 31
0.0
100
AcDbText
  0
LWPOLYLINE
  5
185
330
17
100
AcDbEntity
  8
OUTLINE
100
AcDbPolyline
 90
8
 70
1
 10
1034.0
 20
300.0
 10
1204.0
 20
300.0
 42
0.41421356237309503
 10
1214.0
 20
310.0
 10
1214.0
 20
470.0
 42
0.41421356237309503
 10
1204.0
 20
480.0
 10
1034.0
 20
480.0
 42
0.41421356237309503
 10
1024.0
 20
470.0
 10
1024.0
 20
310.0
 42
0.41421356237309503
  0
CIRCLE
  5
186
330
17
100
AcDbEntity
  8
DETAIL
100
AcDbCircle
 10
1045.0
 20
307.0
 30
0.0
 40
3.9
  0
CIRCLE
  5
187
330
17
100
AcDbEntity
  8
WALL_HOLES
100
AcDbCircle
 10
1045.0
 20
307.0
 30
0.0
 40
2.1
  0
LINE
  5
188
330
17
100
AcDbEntity
  8
CENTER
100
AcDbLine
 10
1039.0
 20
307.0
 30
0.0
 11
1051.0
 21
307.0
 31
0.0
  0
LINE
  5
189
330
17
100
AcDbEntity
  8
CENTER
100
AcDbLine
 10
1045.0
 20
301.0
 30
0.0
 11
1045.0
 21
313.0
 31
0.0
  0
TEXT
  5
18A
330
17
100
AcDbEntity
  8
TEXT
100
AcDbText
 10
1055.0
 20
321.0
 30
0.0
 40
5.0
  1
A1
 11
1055.0
 21
321.0
 31
0.0
100
AcDbText
  0
CIRCLE
  5
18B
330
17
100
AcDbEntity
  8
DETAIL
100
AcDbCircle
 10
1193.0
 20
307.0
 30
0.0
 40
3.9
  0
CIRCLE
  5
18C
330
17
100
AcDbEntity
  8
WALL_HOLES
100
AcDbCircle
 10
1193.0
 20
307.0
 30
0.0
 40
2.1
  0
LINE
  5
18D
330
17
100
AcDbEntity
  8
CENTER
100
AcDbLine
 10
1187.0
 20
307.0
 30
0.0
 11
1199.0
 21
307.0
 31
0.0
  0
LINE
  5
18E
330
17
100
AcDbEntity
  8
CENTER
100
AcDbLine
 10
1193.0
 20
301.0
 30
0.0
 11
1193.0
 21
313.0
 31
0.0
  0
TEXT
  5
18F
330
17
100
AcDbEntity
  8
TEXT
100
AcDbText
 10
1173.0
 20
321.0
 30
0.0
 40
5.0
  1
A2
 11
1173.0
 21
321.0
 31
0.0
100
AcDbText
  0
CIRCLE
  5
190
330
17
100
AcDbEntity
  8
DETAIL
100
AcDbCircle
 10
1045.0
 20
473.0
 30
0.0
 40
3.9
  0
CIRCLE
  5
191
330
17
100
AcDbEntity
  8
WALL_HOLES
100
AcDbCircle
 10
1045.0
 20
473.0
 30
0.0
 40
2.1
  0
LINE
  5
192
330
17
100
AcDbEntity
  8
CENTER
100
AcDbLine
 10
1039.0
 20
473.0
 30
0.0
 11
1051.0
 21
473.0
 31
0.0
  0
LINE
  5
193
330
17
100
AcDbEntity
  8
CENTER
100
AcDbLine
 10
1045.0
 20
467.0
 30
0.0
 11
1045.0
 21
479.0
 31
0.0
  0
TEXT
  5
194
330
17
100
AcDbEntity
  8
TEXT
100
AcDbText
 10
1055.0
 20
453.0
 30
0.0
 40
5.0
  1
A3
 11
1055.0
 21
453.0
 31
0.0
100
AcDbText
  0
CIRCLE
  5
195
330
17
100
AcDbEntity
  8
DETAIL
100
AcDbCircle
 10
1193.0
 20
473.0
 30
0.0
 40
3.9
  0
CIRCLE
  5
196
330
17
100
AcDbEntity
  8
WALL_HOLES
100
AcDbCircle
 10
1193.0
 20
473.0
 30
0.0
 40
2.1
  0
LINE
  5
197
330
17
100
AcDbEntity
  8
CENTER
100
AcDbLine
 10
1187.0
 20
473.0
 30
0.0
 11
1199.0
 21
473.0
 31
0.0
  0
LINE
  5
198
330
17
100
AcDbEntity
  8
CENTER
100
AcDbLine
 10
1193.0
 20
467.0
 30
0.0
 11
1193.0
 21
479.0
 31
0.0
  0
TEXT
  5
199
330
17
100
AcDbEntity
  8
TEXT
100
AcDbText
 10
1173.0
 20
453.0
 30
0.0
 40
5.0
  1
A4
 11
1173.0
 21
453.0
 31
0.0
100
AcDbText
  0
CIRCLE
  5
19A
330
17
100
AcDbEntity
  8
DETAIL
100
AcDbCircle
 10
1207.0
 20
307.0
 30
0.0
 40
2.85
  0
CIRCLE
  5
19B
330
17
100
AcDbEntity
  8
LID_HOLES
100
AcDbCircle
 10
1207.0
 20
307.0
 30
0.0
 40
1.85
  0
LINE
  5
19C
330
17
100
AcDbEntity
  8
CENTER
100
AcDbLine
 10
1201.0
 20
307.0
 30
0.0
 11
1213.0
 21
307.0
 31
0.0
  0
LINE
  5
19D
330
17
100
AcDbEntity
  8
CENTER
100
AcDbLine
 10
1207.0
 20
301.0
 30
0.0
 11
1207.0
 21
313.0
 31
0.0
  0
LINE
  5
19E
330
17
100
AcDbEntity
  8
DIM
100
AcDbLine
 10
1207.0
 20
307.0
 30
0.0
 11
1240.0
 21
297.0
 31
0.0
  0
LINE
  5
19F
330
17
100
AcDbEntity
  8
DIM
100
AcDbLine
 10
1240.0
 20
297.0
 30
0.0
 11
1260.0
 21
297.0
 31
0.0
  0
SOLID
  5
1A0
330
17
100
AcDbEntity
  8
DIM
100
AcDbTrace
 10
1207.0
 20
307.0
 30
0.0
 11
1213.5579952310106
 21
305.8695511731874
 31
0.0
 12
1213.0823831027467
 22
304.3000311499165
 32
0.0
 13
1213.0823831027467
 23
304.3000311499165
 33
0.0
  0
TEXT
  5
1A1
330
17
100
AcDbEntity
  8
TEXT
100
AcDbText
 10
1265.0
 20
295.0
 30
0.0
 40
5.0
  1
B1
 11
1265.0
 21
295.0
 31
0.0
100
AcDbText
  0
CIRCLE
  5
1A2
330
17
100
AcDbEntity
  8
DETAIL
100
AcDbCircle
 10
1207.0
 20
473.0
 30
0.0
 40
2.85
  0
CIRCLE
  5
1A3
330
17
100
AcDbEntity
  8
LID_HOLES
100
AcDbCircle
 10
1207.0
 20
473.0
 30
0.0
 40
1.85
  0
LINE
  5
1A4
330
17
100
AcDbEntity
  8
CENTER
100
AcDbLine
 10
1201.0
 20
473.0
 30
0.0
 11
1213.0
 21
473.0
 31
0.0
  0
LINE
  5
1A5
330
17
100
AcDbEntity
  8
CENTER
100
AcDbLine
 10
1207.0
 20
467.0
 30
0.0
 11
1207.0
 21
479.0
 31
0.0
  0
LINE
  5
1A6
330
17
100
AcDbEntity
  8
DIM
100
AcDbLine
 10
1207.0
 20
473.0
 30
0.0
 11
1240.0
 21
483.0
 31
0.0
  0
LINE
  5
1A7
330
17
100
AcDbEntity
  8
DIM
100
AcDbLine
 10
1240.0
 20
483.0
 30
0.0
 11
1260.0
 21
483.0
 31
0.0
  0
SOLID
  5
1A8
330
17
100
AcDbEntity
  8
DIM
100
AcDbTrace
 10
1207.0
 20
473.0
 30
0.0
 11
1213.0823831027467
 21
475.6999688500835
 31
0.0
 12
1213.5579952310106
 22
474.1304488268126
 32
0.0
 13
1213.5579952310106
 23
474.1304488268126
 33
0.0
  0
TEXT
  5
1A9
330
17
100
AcDbEntity
  8
TEXT
100
AcDbText
 10
1265.0
 20
481.0
 30
0.0
 40
5.0
  1
B2
 11
1265.0
 21
481.0
 31
0.0
100
AcDbText
  0
DIMENSION
  5
1AA
330
17
100
AcDbEntity
  8
DIM
100
AcDbDimension
280
0
  2
*D23
  3
SLDDIMSTYLE0
 10
1024.0
 20
540.0
 30
0.0
 11
1119.0
 21
545.25
 31
0.0
 70
32
 71
5
  1
<>
100
AcDbAlignedDimension
 13
1024.0
 23
480.0
 33
0.0
 14
1214.0
 24
480.0
 34
0.0
 50
0.0
100
AcDbRotatedDimension
1001
ACAD
1000
DSTYLE
1002
{
1070
144
1040
1.0
1070
142
1040
0.0
1070
41
1040
6.604
1070
140
1040
7.0
1070
42
1040
2.5
1070
44
1040
0.0
1070
147
1040
1.75
1070
77
1070
1
1070
271
1070
2
1070
78
1070
0
1070
278
1070
46
1070
173
1070
0
1070
176
1070
7
1070
177
1070
7
1070
178
1070
7
1070
342
1005
0
1070
340
1005
3A
1002
}
  0
DIMENSION
  5
1B9
330
17
100
AcDbEntity
  8
DIM
100
AcDbDimension
280
0
  2
*D24
  3
SLDDIMSTYLE0
 10
1045.0
 20
514.0
 30
0.0
 11
1119.0
 21
519.25
 31
0.0
 70
32
 71
5
  1
<>
100
AcDbAlignedDimension
 13
1045.0
 23
473.0
 33
0.0
 14
1193.0
 24
473.0
 34
0.0
 50
0.0
100
AcDbRotatedDimension
1001
ACAD
1000
DSTYLE
1002
{
1070
144
1040
1.0
1070
142
1040
0.0
1070
41
1040
6.604
1070
140
1040
7.0
1070
42
1040
2.5
1070
44
1040
0.0
1070
147
1040
1.75
1070
77
1070
1
1070
271
1070
2
1070
78
1070
0
1070
278
1070
46
1070
173
1070
0
1070
176
1070
7
1070
177
1070
7
1070
178
1070
7
1070
342
1005
0
1070
340
1005
3A
1002
}
  0
DIMENSION
  5
1C8
330
17
100
AcDbEntity
  8
DIM
100
AcDbDimension
280
0
  2
*D25
  3
SLDDIMSTYLE0
 10
976.0
 20
300.0
 30
0.0
 11
970.75
 21
390.0
 31
0.0
 70
32
 71
5
  1
<>
100
AcDbAlignedDimension
 13
1024.0
 23
300.0
 33
0.0
 14
1024.0
 24
480.0
 34
0.0
 50
90.0
100
AcDbRotatedDimension
1001
ACAD
1000
DSTYLE
1002
{
1070
144
1040
1.0
1070
142
1040
0.0
1070
41
1040
6.604
1070
140
1040
7.0
1070
42
1040
2.5
1070
44
1040
0.0
1070
147
1040
1.75
1070
77
1070
1
1070
271
1070
2
1070
78
1070
0
1070
278
1070
46
1070
173
1070
0
1070
176
1070
7
1070
177
1070
7
1070
178
1070
7
1070
342
1005
0
1070
340
1005
3A
1002
}
  0
DIMENSION
  5
1D7
330
17
100
AcDbEntity
  8
DIM
100
AcDbDimension
280
0
  2
*D26
  3
SLDDIMSTYLE0
 10
1001.0
 20
307.0
 30
0.0
 11
995.75
 21
390.0
 31
0.0
 70
32
 71
5
  1
<>
100
AcDbAlignedDimension
 13
1045.0
 23
307.0
 33
0.0
 14
1045.0
 24
473.0
 34
0.0
 50
90.0
100
AcDbRotatedDimension
1001
ACAD
1000
DSTYLE
1002
{
1070
144
1040
1.0
1070
142
1040
0.0
1070
41
1040
6.604
1070
140
1040
7.0
1070
42
1040
2.5
1070
44
1040
0.0
1070
147
1040
1.75
1070
77
1070
1
1070
271
1070
2
1070
78
1070
0
1070
278
1070
46
1070
173
1070
0
1070
176
1070
7
1070
177
1070
7
1070
178
1070
7
1070
342
1005
0
1070
340
1005
3A
1002
}
  0
DIMENSION
  5
1E6
330
17
100
AcDbEntity
  8
DIM
100
AcDbDimension
280
0
  2
*D27
  3
SLDDIMSTYLE0
 10
1024.0
 20
278.0
 30
0.0
 11
1034.5
 21
283.25
 31
0.0
 70
32
 71
5
  1
<>
100
AcDbAlignedDimension
 13
1024.0
 23
300.0
 33
0.0
 14
1045.0
 24
307.0
 34
0.0
 50
0.0
100
AcDbRotatedDimension
1001
ACAD
1000
DSTYLE
1002
{
1070
144
1040
1.0
1070
142
1040
0.0
1070
41
1040
6.604
1070
140
1040
7.0
1070
42
1040
2.5
1070
44
1040
0.0
1070
147
1040
1.75
1070
77
1070
1
1070
271
1070
2
1070
78
1070
0
1070
278
1070
46
1070
173
1070
0
1070
176
1070
7
1070
177
1070
7
1070
178
1070
7
1070
342
1005
0
1070
340
1005
3A
1002
}
  0
DIMENSION
  5
1F5
330
17
100
AcDbEntity
  8
DIM
100
AcDbDimension
280
0
  2
*D28
  3
SLDDIMSTYLE0
 10
1193.0
 20
278.0
 30
0.0
 11
1203.5
 21
283.25
 31
0.0
 70
32
 71
5
  1
<>
100
AcDbAlignedDimension
 13
1193.0
 23
307.0
 33
0.0
 14
1214.0
 24
300.0
 34
0.0
 50
0.0
100
AcDbRotatedDimension
1001
ACAD
1000
DSTYLE
1002
{
1070
144
1040
1.0
1070
142
1040
0.0
1070
41
1040
6.604
1070
140
1040
7.0
1070
42
1040
2.5
1070
44
1040
0.0
1070
147
1040
1.75
1070
77
1070
1
1070
271
1070
2
1070
78
1070
0
1070
278
1070
46
1070
173
1070
0
1070
176
1070
7
1070
177
1070
7
1070
178
1070
7
1070
342
1005
0
1070
340
1005
3A
1002
}
  0
TEXT
  5
204
330
17
100
AcDbEntity
  8
TEXT
100
AcDbText
 10
1119.0
 20
256.0
 30
0.0
 40
4.8
  1
WALL MOUNTING HOLES
 72
1
 11
1119.0
 21
256.0
 31
0.0
100
AcDbText
  0
TEXT
  5
205
330
17
100
AcDbEntity
  8
TEXT
100
AcDbText
 10
1119.0
 20
242.0
 30
0.0
 40
4.4
  1
COVER OPEN / FRONT VIEW
 72
1
 11
1119.0
 21
242.0
 31
0.0
100
AcDbText
  0
TEXT
  5
206
330
17
100
AcDbEntity
  8
TEXT
100
AcDbText
 10
1370.0
 20
542.0
 30
0.0
 40
4.8
  1
HOLE CENTRE COORDINATES (mm)
 11
1370.0
 21
542.0
 31
0.0
100
AcDbText
  0
LWPOLYLINE
  5
207
330
17
100
AcDbEntity
  8
DETAIL
100
AcDbPolyline
 90
4
 70
1
 10
1370.0
 20
412.0
 10
1698.0
 20
412.0
 10
1698.0
 20
524.0
 10
1370.0
 20
524.0
  0
LINE
  5
208
330
17
100
AcDbEntity
  8
DETAIL
100
AcDbLine
 10
1370.0
 20
508.0
 30
0.0
 11
1698.0
 21
508.0
 31
0.0
  0
LINE
  5
209
330
17
100
AcDbEntity
  8
DETAIL
100
AcDbLine
 10
1370.0
 20
492.0
 30
0.0
 11
1698.0
 21
492.0
 31
0.0
  0
LINE
  5
20A
330
17
100
AcDbEntity
  8
DETAIL
100
AcDbLine
 10
1370.0
 20
476.0
 30
0.0
 11
1698.0
 21
476.0
 31
0.0
  0
LINE
  5
20B
330
17
100
AcDbEntity
  8
DETAIL
100
AcDbLine
 10
1370.0
 20
460.0
 30
0.0
 11
1698.0
 21
460.0
 31
0.0
  0
LINE
  5
20C
330
17
100
AcDbEntity
  8
DETAIL
100
AcDbLine
 10
1370.0
 20
444.0
 30
0.0
 11
1698.0
 21
444.0
 31
0.0
  0
LINE
  5
20D
330
17
100
AcDbEntity
  8
DETAIL
100
AcDbLine
 10
1370.0
 20
428.0
 30
0.0
 11
1698.0
 21
428.0
 31
0.0
  0
LINE
  5
20E
330
17
100
AcDbEntity
  8
DETAIL
100
AcDbLine
 10
1410.0
 20
524.0
 30
0.0
 11
1410.0
 21
412.0
 31
0.0
  0
LINE
  5
20F
330
17
100
AcDbEntity
  8
DETAIL
100
AcDbLine
 10
1454.0
 20
524.0
 30
0.0
 11
1454.0
 21
412.0
 31
0.0
  0
LINE
  5
210
330
17
100
AcDbEntity
  8
DETAIL
100
AcDbLine
 10
1498.0
 20
524.0
 30
0.0
 11
1498.0
 21
412.0
 31
0.0
  0
LINE
  5
211
330
17
100
AcDbEntity
  8
DETAIL
100
AcDbLine
 10
1553.0
 20
524.0
 30
0.0
 11
1553.0
 21
412.0
 31
0.0
  0
TEXT
  5
212
330
17
100
AcDbEntity
  8
TEXT
100
AcDbText
 10
1374.0
 20
513.5
 30
0.0
 40
4.2
  1
ID
 11
1374.0
 21
513.5
 31
0.0
100
AcDbText
  0
TEXT
  5
213
330
17
100
AcDbEntity
  8
TEXT
100
AcDbText
 10
1414.0
 20
513.5
 30
0.0
 40
4.2
  1
X
 11
1414.0
 21
513.5
 31
0.0
100
AcDbText
  0
TEXT
  5
214
330
17
100
AcDbEntity
  8
TEXT
100
AcDbText
 10
1458.0
 20
513.5
 30
0.0
 40
4.2
  1
Y
 11
1458.0
 21
513.5
 31
0.0
100
AcDbText
  0
TEXT
  5
215
330
17
100
AcDbEntity
  8
TEXT
100
AcDbText
 10
1502.0
 20
513.5
 30
0.0
 40
4.2
  1
DIA
 11
1502.0
 21
513.5
 31
0.0
100
AcDbText
  0
TEXT
  5
216
330
17
100
AcDbEntity
  8
TEXT
100
AcDbText
 10
1557.0
 20
513.5
 30
0.0
 40
4.2
  1
FUNCTION
 11
1557.0
 21
513.5
 31
0.0
100
AcDbText
  0
TEXT
  5
217
330
17
100
AcDbEntity
  8
TEXT
100
AcDbText
 10
1374.0
 20
497.5
 30
0.0
 40
4.2
  1
A1
 11
1374.0
 21
497.5
 31
0.0
100
AcDbText
  0
TEXT
  5
218
330
17
100
AcDbEntity
  8
TEXT
100
AcDbText
 10
1414.0
 20
497.5
 30
0.0
 40
4.2
  1
21.00
 11
1414.0
 21
497.5
 31
0.0
100
AcDbText
  0
TEXT
  5
219
330
17
100
AcDbEntity
  8
TEXT
100
AcDbText
 10
1458.0
 20
497.5
 30
0.0
 40
4.2
  1
7.00
 11
1458.0
 21
497.5
 31
0.0
100
AcDbText
  0
TEXT
  5
21A
330
17
100
AcDbEntity
  8
TEXT
100
AcDbText
 10
1502.0
 20
497.5
 30
0.0
 40
4.2
  1
Ø4.20
 11
1502.0
 21
497.5
 31
0.0
100
AcDbText
  0
TEXT
  5
21B
330
17
100
AcDbEntity
  8
TEXT
100
AcDbText
 10
1557.0
 20
497.5
 30
0.0
 40
4.2
  1
WALL MOUNT
 11
1557.0
 21
497.5
 31
0.0
100
AcDbText
  0
TEXT
  5
21C
330
17
100
AcDbEntity
  8
TEXT
100
AcDbText
 10
1374.0
 20
481.5
 30
0.0
 40
4.2
  1
A2
 11
1374.0
 21
481.5
 31
0.0
100
AcDbText
  0
TEXT
  5
21D
330
17
100
AcDbEntity
  8
TEXT
100
AcDbText
 10
1414.0
 20
481.5
 30
0.0
 40
4.2
  1
169.00
 11
1414.0
 21
481.5
 31
0.0
100
AcDbText
  0
TEXT
  5
21E
330
17
100
AcDbEntity
  8
TEXT
100
AcDbText
 10
1458.0
 20
481.5
 30
0.0
 40
4.2
  1
7.00
 11
1458.0
 21
481.5
 31
0.0
100
AcDbText
  0
TEXT
  5
21F
330
17
100
AcDbEntity
  8
TEXT
100
AcDbText
 10
1502.0
 20
481.5
 30
0.0
 40
4.2
  1
Ø4.20
 11
1502.0
 21
481.5
 31
0.0
100
AcDbText
  0
TEXT
  5
220
330
17
100
AcDbEntity
  8
TEXT
100
AcDbText
 10
1557.0
 20
481.5
 30
0.0
 40
4.2
  1
WALL MOUNT
 11
1557.0
 21
481.5
 31
0.0
100
AcDbText
  0
TEXT
  5
221
330
17
100
AcDbEntity
  8
TEXT
100
AcDbText
 10
1374.0
 20
465.5
 30
0.0
 40
4.2
  1
A3
 11
1374.0
 21
465.5
 31
0.0
100
AcDbText
  0
TEXT
  5
222
330
17
100
AcDbEntity
  8
TEXT
100
AcDbText
 10
1414.0
 20
465.5
 30
0.0
 40
4.2
  1
21.00
 11
1414.0
 21
465.5
 31
0.0
100
AcDbText
  0
TEXT
  5
223
330
17
100
AcDbEntity
  8
TEXT
100
AcDbText
 10
1458.0
 20
465.5
 30
0.0
 40
4.2
  1
173.00
 11
1458.0
 21
465.5
 31
0.0
100
AcDbText
  0
TEXT
  5
224
330
17
100
AcDbEntity
  8
TEXT
100
AcDbText
 10
1502.0
 20
465.5
 30
0.0
 40
4.2
  1
Ø4.20
 11
1502.0
 21
465.5
 31
0.0
100
AcDbText
  0
TEXT
  5
225
330
17
100
AcDbEntity
  8
TEXT
100
AcDbText
 10
1557.0
 20
465.5
 30
0.0
 40
4.2
  1
WALL MOUNT
 11
1557.0
 21
465.5
 31
0.0
100
AcDbText
  0
TEXT
  5
226
330
17
100
AcDbEntity
  8
TEXT
100
AcDbText
 10
1374.0
 20
449.5
 30
0.0
 40
4.2
  1
A4
 11
1374.0
 21
449.5
 31
0.0
100
AcDbText
  0
TEXT
  5
227
330
17
100
AcDbEntity
  8
TEXT
100
AcDbText
 10
1414.0
 20
449.5
 30
0.0
 40
4.2
  1
169.00
 11
1414.0
 21
449.5
 31
0.0
100
AcDbText
  0
TEXT
  5
228
330
17
100
AcDbEntity
  8
TEXT
100
AcDbText
 10
1458.0
 20
449.5
 30
0.0
 40
4.2
  1
173.00
 11
1458.0
 21
449.5
 31
0.0
100
AcDbText
  0
TEXT
  5
229
330
17
100
AcDbEntity
  8
TEXT
100
AcDbText
 10
1502.0
 20
449.5
 30
0.0
 40
4.2
  1
Ø4.20
 11
1502.0
 21
449.5
 31
0.0
100
AcDbText
  0
TEXT
  5
22A
330
17
100
AcDbEntity
  8
TEXT
100
AcDbText
 10
1557.0
 20
449.5
 30
0.0
 40
4.2
  1
WALL MOUNT
 11
1557.0
 21
449.5
 31
0.0
100
AcDbText
  0
TEXT
  5
22B
330
17
100
AcDbEntity
  8
TEXT
100
AcDbText
 10
1374.0
 20
433.5
 30
0.0
 40
4.2
  1
B1
 11
1374.0
 21
433.5
 31
0.0
100
AcDbText
  0
TEXT
  5
22C
330
17
100
AcDbEntity
  8
TEXT
100
AcDbText
 10
1414.0
 20
433.5
 30
0.0
 40
4.2
  1
183.00
 11
1414.0
 21
433.5
 31
0.0
100
AcDbText
  0
TEXT
  5
22D
330
17
100
AcDbEntity
  8
TEXT
100
AcDbText
 10
1458.0
 20
433.5
 30
0.0
 40
4.2
  1
7.00
 11
1458.0
 21
433.5
 31
0.0
100
AcDbText
  0
TEXT
  5
22E
330
17
100
AcDbEntity
  8
TEXT
100
AcDbText
 10
1502.0
 20
433.5
 30
0.0
 40
4.2
  1
Ø3.70
 11
1502.0
 21
433.5
 31
0.0
100
AcDbText
  0
TEXT
  5
22F
330
17
100
AcDbEntity
  8
TEXT
100
AcDbText
 10
1557.0
 20
433.5
 30
0.0
 40
4.2
  1
LID / LOWER
 11
1557.0
 21
433.5
 31
0.0
100
AcDbText
  0
TEXT
  5
230
330
17
100
AcDbEntity
  8
TEXT
100
AcDbText
 10
1374.0
 20
417.5
 30
0.0
 40
4.2
  1
B2
 11
1374.0
 21
417.5
 31
0.0
100
AcDbText
  0
TEXT
  5
231
330
17
100
AcDbEntity
  8
TEXT
100
AcDbText
 10
1414.0
 20
417.5
 30
0.0
 40
4.2
  1
183.00
 11
1414.0
 21
417.5
 31
0.0
100
AcDbText
  0
TEXT
  5
232
330
17
100
AcDbEntity
  8
TEXT
100
AcDbText
 10
1458.0
 20
417.5
 30
0.0
 40
4.2
  1
173.00
 11
1458.0
 21
417.5
 31
0.0
100
AcDbText
  0
TEXT
  5
233
330
17
100
AcDbEntity
  8
TEXT
100
AcDbText
 10
1502.0
 20
417.5
 30
0.0
 40
4.2
  1
Ø3.70
 11
1502.0
 21
417.5
 31
0.0
100
AcDbText
  0
TEXT
  5
234
330
17
100
AcDbEntity
  8
TEXT
100
AcDbText
 10
1557.0
 20
417.5
 30
0.0
 40
4.2
  1
LID / UPPER
 11
1557.0
 21
417.5
 31
0.0
100
AcDbText
  0
TEXT
  5
235
330
17
100
AcDbEntity
  8
TEXT
100
AcDbText
 10
1370.0
 20
396.0
 30
0.0
 40
4.2
  1
ORIGIN: LOWER LEFT OF ENCLOSURE (X=0, Y=0)
 11
1370.0
 21
396.0
 31
0.0
100
AcDbText
  0
LINE
  5
236
330
17
100
AcDbEntity
  8
DETAIL
100
AcDbLine
 10
1429.9999999999964
 20
345.0000000018988
 30
0.0
 11
1429.9999999999964
 21
185.0
 31
0.0
  0
LINE
  5
237
330
17
100
AcDbEntity
  8
DETAIL
100
AcDbLine
 10
1431.000000001517
 20
345.0000000018988
 30
0.0
 11
1431.000000001517
 21
185.0
 31
0.0
  0
LINE
  5
238
330
17
100
AcDbEntity
  8
DETAIL
100
AcDbLine
 10
1439.99999999996
 20
175.0000000000398
 30
0.0
 11
1610.0000000018154
 21
175.0000000000398
 31
0.0
  0
LINE
  5
239
330
17
100
AcDbEntity
  8
DETAIL
100
AcDbLine
 10
1439.99999999996
 20
176.00000000155683
 30
0.0
 11
1610.0000000018154
 21
176.00000000155683
 31
0.0
  0
LINE
  5
23A
330
17
100
AcDbEntity
  8
DETAIL
100
AcDbLine
 10
1439.99999999996
 20
176.00000000155683
 30
0.0
 11
1439.99999999996
 21
175.0000000000398
 31
0.0
  0
LINE
  5
23B
330
17
100
AcDbEntity
  8
DETAIL
100
AcDbLine
 10
1439.99999999996
 20
354.0000000003388
 30
0.0
 11
1439.99999999996
 21
355.0000000018588
 31
0.0
  0
LINE
  5
23C
330
17
100
AcDbEntity
  8
DETAIL
100
AcDbLine
 10
1445.0000000024775
 20
335.0000000019388
 30
0.0
 11
1445.0000000024775
 21
194.99999999995998
 31
0.0
  0
LINE
  5
23D
330
17
100
AcDbEntity
  8
DETAIL
100
AcDbLine
 10
1431.000000001517
 20
185.0
 30
0.0
 11
1429.9999999999964
 21
185.0
 31
0.0
  0
LINE
  5
23E
330
17
100
AcDbEntity
  8
DETAIL
100
AcDbLine
 10
1455.000000002441
 20
185.0
 30
0.0
 11
1595.0000000018808
 21
185.0
 31
0.0
  0
LINE
  5
23F
330
17
100
AcDbEntity
  8
DETAIL
100
AcDbLine
 10
1619.0000000002583
 20
185.0
 30
0.0
 11
1620.000000001779
 21
185.0
 31
0.0
  0
LINE
  5
240
330
17
100
AcDbEntity
  8
DETAIL
100
AcDbLine
 10
1473.7500000004547
 20
329.1500000001579
 30
0.0
 11
1473.7500000004547
 21
264.65000000117993
 31
0.0
  0
LINE
  5
241
330
17
100
AcDbEntity
  8
DETAIL
100
AcDbLine
 10
1473.7500000004547
 20
264.65000000117993
 30
0.0
 11
1576.2500000013206
 21
264.65000000117993
 31
0.0
  0
LINE
  5
242
330
17
100
AcDbEntity
  8
DETAIL
100
AcDbLine
 10
1576.2500000013206
 20
264.65000000117993
 30
0.0
 11
1576.2500000013206
 21
329.1500000001579
 31
0.0
  0
LINE
  5
243
330
17
100
AcDbEntity
  8
DETAIL
100
AcDbLine
 10
1576.2500000013206
 20
329.1500000001579
 30
0.0
 11
1473.7500000004547
 21
329.1500000001579
 31
0.0
  0
LINE
  5
244
330
17
100
AcDbEntity
  8
DETAIL
100
AcDbLine
 10
1605.0000000018445
 20
194.99999999995998
 30
0.0
 11
1605.0000000018445
 21
335.0000000019388
 31
0.0
  0
LINE
  5
245
330
17
100
AcDbEntity
  8
DETAIL
100
AcDbLine
 10
1610.0000000018154
 20
176.00000000155683
 30
0.0
 11
1610.0000000018154
 21
175.0000000000398
 31
0.0
  0
LINE
  5
246
330
17
100
AcDbEntity
  8
DETAIL
100
AcDbLine
 10
1610.0000000018154
 20
354.0000000003388
 30
0.0
 11
1610.0000000018154
 21
355.0000000018588
 31
0.0
  0
LINE
  5
247
330
17
100
AcDbEntity
  8
DETAIL
100
AcDbLine
 10
1595.0000000018808
 20
345.0000000018988
 30
0.0
 11
1455.000000002441
 21
345.0000000018988
 31
0.0
  0
LINE
  5
248
330
17
100
AcDbEntity
  8
DETAIL
100
AcDbLine
 10
1431.000000001517
 20
345.0000000018988
 30
0.0
 11
1429.9999999999964
 21
345.0000000018988
 31
0.0
  0
LINE
  5
249
330
17
100
AcDbEntity
  8
DETAIL
100
AcDbLine
 10
1619.0000000002583
 20
345.0000000018988
 30
0.0
 11
1620.000000001779
 21
345.0000000018988
 31
0.0
  0
LINE
  5
24A
330
17
100
AcDbEntity
  8
DETAIL
100
AcDbLine
 10
1619.0000000002583
 20
185.0
 30
0.0
 11
1619.0000000002583
 21
345.0000000018988
 31
0.0
  0
LINE
  5
24B
330
17
100
AcDbEntity
  8
DETAIL
100
AcDbLine
 10
1620.000000001779
 20
185.0
 30
0.0
 11
1620.000000001779
 21
345.0000000018988
 31
0.0
  0
LINE
  5
24C
330
17
100
AcDbEntity
  8
DETAIL
100
AcDbLine
 10
1610.0000000018154
 20
354.0000000003388
 30
0.0
 11
1439.99999999996
 21
354.0000000003388
 31
0.0
  0
LINE
  5
24D
330
17
100
AcDbEntity
  8
DETAIL
100
AcDbLine
 10
1610.0000000018154
 20
355.0000000018588
 30
0.0
 11
1439.99999999996
 21
355.0000000018588
 31
0.0
  0
ARC
  5
24E
330
17
100
AcDbEntity
  8
DETAIL
100
AcDbCircle
 10
1595.0000000018808
 20
335.0000000019388
 30
0.0
 40
9.99999999996
100
AcDbArc
 50
0.0
 51
90.0
  0
ARC
  5
24F
330
17
100
AcDbEntity
  8
DETAIL
100
AcDbCircle
 10
1595.0000000018808
 20
194.99999999995998
 30
0.0
 40
9.99999999996
100
AcDbArc
 50
270.0
 51
0.0
  0
ARC
  5
250
330
17
100
AcDbEntity
  8
DETAIL
100
AcDbCircle
 10
1455.000000002441
 20
194.99999999995998
 30
0.0
 40
9.99999999996
100
AcDbArc
 50
180.0
 51
270.0
  0
ARC
  5
251
330
17
100
AcDbEntity
  8
DETAIL
100
AcDbCircle
 10
1455.000000002441
 20
335.0000000019388
 30
0.0
 40
9.99999999996
100
AcDbArc
 50
90.0
 51
180.0
  0
ARC
  5
252
330
17
100
AcDbEntity
  8
DETAIL
100
AcDbCircle
 10
1439.99999999996
 20
185.0
 30
0.0
 40
9.99999999996
100
AcDbArc
 50
180.0
 51
270.0
  0
ARC
  5
253
330
17
100
AcDbEntity
  8
DETAIL
100
AcDbCircle
 10
1610.0000000018154
 20
185.0
 30
0.0
 40
9.99999999996
100
AcDbArc
 50
270.0
 51
0.0
  0
ARC
  5
254
330
17
100
AcDbEntity
  8
DETAIL
100
AcDbCircle
 10
1439.99999999996
 20
345.0000000018988
 30
0.0
 40
9.99999999996
100
AcDbArc
 50
90.0
 51
180.0
  0
ARC
  5
255
330
17
100
AcDbEntity
  8
DETAIL
100
AcDbCircle
 10
1610.0000000018154
 20
345.0000000018988
 30
0.0
 40
9.99999999996
100
AcDbArc
 50
0.0
 51
90.0
  0
ARC
  5
256
330
17
100
AcDbEntity
  8
DETAIL
100
AcDbCircle
 10
1439.99999999996
 20
185.0
 30
0.0
 40
9.00000000098
100
AcDbArc
 50
180.0
 51
270.0
  0
ARC
  5
257
330
17
100
AcDbEntity
  8
DETAIL
100
AcDbCircle
 10
1610.0000000018154
 20
185.0
 30
0.0
 40
9.00000000098
100
AcDbArc
 50
270.0
 51
0.0
  0
ARC
  5
258
330
17
100
AcDbEntity
  8
DETAIL
100
AcDbCircle
 10
1610.0000000018154
 20
345.0000000018988
 30
0.0
 40
9.00000000098
100
AcDbArc
 50
0.0
 51
90.0
  0
ARC
  5
259
330
17
100
AcDbEntity
  8
DETAIL
100
AcDbCircle
 10
1439.99999999996
 20
345.0000000018988
 30
0.0
 40
9.00000000098
100
AcDbArc
 50
90.0
 51
180.0
  0
CIRCLE
  5
25A
330
17
100
AcDbEntity
  8
DETAIL
100
AcDbCircle
 10
1487.5000000010368
 20
213.00000000192085
 30
0.0
 40
4.15000000072
  0
CIRCLE
  5
25B
330
17
100
AcDbEntity
  8
DETAIL
100
AcDbCircle
 10
1487.5000000010368
 20
248.5
 30
0.0
 40
4.15000000072
  0
CIRCLE
  5
25C
330
17
100
AcDbEntity
  8
DETAIL
100
AcDbCircle
 10
1506.0000000012187
 20
230.7500000009568
 30
0.0
 40
4.15000000072
  0
CIRCLE
  5
25D
330
17
100
AcDbEntity
  8
DETAIL
100
AcDbCircle
 10
1562.5000000007385
 20
213.00000000192085
 30
0.0
 40
4.15000000072
  0
CIRCLE
  5
25E
330
17
100
AcDbEntity
  8
DETAIL
100
AcDbCircle
 10
1525.0000000021573
 20
221.74999999997794
 30
0.0
 40
4.15000000072
  0
CIRCLE
  5
25F
330
17
100
AcDbEntity
  8
DETAIL
100
AcDbCircle
 10
1562.5000000007385
 20
248.5
 30
0.0
 40
4.15000000072
  0
CIRCLE
  5
260
330
17
100
AcDbEntity
  8
DETAIL
100
AcDbCircle
 10
1544.000000000564
 20
230.7500000009568
 30
0.0
 40
4.15000000072
  0
CIRCLE
  5
261
330
17
100
AcDbEntity
  8
DETAIL
100
AcDbCircle
 10
1525.0000000021573
 20
239.75000000193882
 30
0.0
 40
4.15000000072
  0
CIRCLE
  5
262
330
17
100
AcDbEntity
  8
DETAIL
100
AcDbCircle
 10
1613.0000000012988
 20
182.00000000052
 30
0.0
 40
4.000000001
  0
CIRCLE
  5
263
330
17
100
AcDbEntity
  8
DETAIL
100
AcDbCircle
 10
1613.0000000012988
 20
348.0000000013829
 30
0.0
 40
4.000000001
  0
CIRCLE
  5
264
330
17
100
AcDbEntity
  8
DETAIL
100
AcDbCircle
 10
1613.0000000012988
 20
182.00000000052
 30
0.0
 40
1.85000000078
  0
CIRCLE
  5
265
330
17
100
AcDbEntity
  8
DETAIL
100
AcDbCircle
 10
1613.0000000012988
 20
348.0000000013829
 30
0.0
 40
1.85000000078
  0
LINE
  5
266
330
17
100
AcDbEntity
  8
CENTER
100
AcDbLine
 10
1607.0
 20
182.0
 30
0.0
 11
1619.0
 21
182.0
 31
0.0
  0
LINE
  5
267
330
17
100
AcDbEntity
  8
CENTER
100
AcDbLine
 10
1613.0
 20
176.0
 30
0.0
 11
1613.0
 21
188.0
 31
0.0
  0
LINE
  5
268
330
17
100
AcDbEntity
  8
DIM
100
AcDbLine
 10
1613.0
 20
182.0
 30
0.0
 11
1640.0
 21
182.0
 31
0.0
  0
LINE
  5
269
330
17
100
AcDbEntity
  8
DIM
100
AcDbLine
 10
1640.0
 20
182.0
 30
0.0
 11
1665.0
 21
182.0
 31
0.0
  0
SOLID
  5
26A
330
17
100
AcDbEntity
  8
DIM
100
AcDbTrace
 10
1613.0
 20
182.0
 30
0.0
 11
1619.604
 21
182.82
 31
0.0
 12
1619.604
 22
181.18
 32
0.0
 13
1619.604
 23
181.18
 33
0.0
  0
TEXT
  5
26B
330
17
100
AcDbEntity
  8
TEXT
100
AcDbText
 10
1670.0
 20
180.0
 30
0.0
 40
5.0
  1
B1
 11
1670.0
 21
180.0
 31
0.0
100
AcDbText
  0
LINE
  5
26C
330
17
100
AcDbEntity
  8
CENTER
100
AcDbLine
 10
1607.0
 20
348.0
 30
0.0
 11
1619.0
 21
348.0
 31
0.0
  0
LINE
  5
26D
330
17
100
AcDbEntity
  8
CENTER
100
AcDbLine
 10
1613.0
 20
342.0
 30
0.0
 11
1613.0
 21
354.0
 31
0.0
  0
LINE
  5
26E
330
17
100
AcDbEntity
  8
DIM
100
AcDbLine
 10
1613.0
 20
348.0
 30
0.0
 11
1640.0
 21
348.0
 31
0.0
  0
LINE
  5
26F
330
17
100
AcDbEntity
  8
DIM
100
AcDbLine
 10
1640.0
 20
348.0
 30
0.0
 11
1665.0
 21
348.0
 31
0.0
  0
SOLID
  5
270
330
17
100
AcDbEntity
  8
DIM
100
AcDbTrace
 10
1613.0
 20
348.0
 30
0.0
 11
1619.604
 21
348.82
 31
0.0
 12
1619.604
 22
347.18
 32
0.0
 13
1619.604
 23
347.18
 33
0.0
  0
TEXT
  5
271
330
17
100
AcDbEntity
  8
TEXT
100
AcDbText
 10
1670.0
 20
346.0
 30
0.0
 40
5.0
  1
B2
 11
1670.0
 21
346.0
 31
0.0
100
AcDbText
  0
TEXT
  5
272
330
17
100
AcDbEntity
  8
TEXT
100
AcDbText
 10
1525.0
 20
158.0
 30
0.0
 40
4.8
  1
COVER FRONT VIEW
 72
1
 11
1525.0
 21
158.0
 31
0.0
100
AcDbText
  0
TEXT
  5
273
330
17
100
AcDbEntity
  8
TEXT
100
AcDbText
 10
994.0
 20
202.0
 30
0.0
 40
4.8
  1
WALL HOLES A: 148.00 x 166.00, 4 POSITIONS
 11
994.0
 21
202.0
 31
0.0
100
AcDbText
  0
TEXT
  5
274
330
17
100
AcDbEntity
  8
TEXT
100
AcDbText
 10
994.0
 20
188.0
 30
0.0
 40
4.8
  1
21.00 FROM SIDES / 7.00 FROM TOP AND BOTTOM
 11
994.0
 21
188.0
 31
0.0
100
AcDbText
  0
TEXT
  5
275
330
17
100
AcDbEntity
  8
TEXT
100
AcDbText
 10
994.0
 20
174.0
 30
0.0
 40
4.8
  1
HOLE DIA 4.20 / SCREW DIA 4
 11
994.0
 21
174.0
 31
0.0
100
AcDbText
  0
TEXT
  5
276
330
17
100
AcDbEntity
  8
TEXT
100
AcDbText
 10
994.0
 20
146.0
 30
0.0
 40
4.8
  1
LID HOLES B: UPPER / LOWER RIGHT, 2 POSITIONS
 11
994.0
 21
146.0
 31
0.0
100
AcDbText
  0
TEXT
  5
277
330
17
100
AcDbEntity
  8
TEXT
100
AcDbText
 10
994.0
 20
132.0
 30
0.0
 40
4.8
  1
7.00 FROM RIGHT / 7.00 FROM TOP AND BOTTOM
 11
994.0
 21
132.0
 31
0.0
100
AcDbText
  0
TEXT
  5
278
330
17
100
AcDbEntity
  8
TEXT
100
AcDbText
 10
994.0
 20
118.0
 30
0.0
 40
4.8
  1
HOLE DIA 3.70 / SEAT DIA 8.00
 11
994.0
 21
118.0
 31
0.0
100
AcDbText
  0
TEXT
  5
279
330
17
100
AcDbEntity
  8
TEXT
100
AcDbText
 10
994.0
 20
104.0
 30
0.0
 40
4.8
  1
FASTENERS: REFER TO SUPPLIED ASSEMBLY.
 11
994.0
 21
104.0
 31
0.0
100
AcDbText
  0
VIEWPORT
  5
335
330
1B
100
AcDbEntity
 67
1
  8
VIEWPORTS
100
AcDbViewport
 10
148.5
 20
105.0
 30
0.0
 40
326.70000000000005
 41
231.00000000000003
 68
1
 69
1
 12
148.5
 22
105.0
 13
0.0
 23
0.0
 14
10.0
 24
10.0
 15
10.0
 25
10.0
 16
0.0
 26
0.0
 36
1.0
 17
0.0
 27
0.0
 37
0.0
 42
50.0
 43
0.0
 44
0.0
 45
231.00000000000003
 50
0.0
 51
0.0
 72
100
 90
557088
  1

281
0
 71
0
 74
0
110
0.0
120
0.0
130
0.0
111
1.0
121
0.0
131
0.0
112
0.0
122
1.0
132
0.0
 79
0
146
0.0
282
0
  0
LWPOLYLINE
  5
336
330
1B
100
AcDbEntity
 67
1
  8
0
100
AcDbPolyline
 90
4
 70
1
 10
10.0
 20
10.0
 10
287.0
 20
10.0
 10
287.0
 20
200.0
 10
10.0
 20
200.0
  0
LINE
  5
337
330
1B
100
AcDbEntity
 67
1
  8
0
100
AcDbLine
 10
10.0
 20
25.0
 30
0.0
 11
287.0
 21
25.0
 31
0.0
  0
LINE
  5
338
330
1B
100
AcDbEntity
 67
1
  8
0
100
AcDbLine
 10
10.0
 20
40.0
 30
0.0
 11
287.0
 21
40.0
 31
0.0
  0
LINE
  5
339
330
1B
100
AcDbEntity
 67
1
  8
0
100
AcDbLine
 10
68.0
 20
10.0
 30
0.0
 11
68.0
 21
40.0
 31
0.0
  0
LINE
  5
33A
330
1B
100
AcDbEntity
 67
1
  8
0
100
AcDbLine
 10
206.0
 20
10.0
 30
0.0
 11
206.0
 21
40.0
 31
0.0
  0
LINE
  5
33B
330
1B
100
AcDbEntity
 67
1
  8
0
100
AcDbLine
 10
247.0
 20
10.0
 30
0.0
 11
247.0
 21
40.0
 31
0.0
  0
TEXT
  5
33C
330
1B
100
AcDbEntity
 67
1
  8
0
100
AcDbText
 10
14.0
 20
32.0
 30
0.0
 40
4.0
  1
WATERBEE
100
AcDbText
  0
TEXT
  5
33D
330
1B
100
AcDbEntity
 67
1
  8
0
100
AcDbText
 10
14.0
 20
16.0
 30
0.0
 40
2.4
  1
waterbee.co.kr
100
AcDbText
  0
TEXT
  5
33E
330
1B
100
AcDbEntity
 67
1
  8
0
100
AcDbText
 10
72.0
 20
33.0
 30
0.0
 40
3.0
  1
SMART CONTROLLER
100
AcDbText
  0
TEXT
  5
33F
330
1B
100
AcDbEntity
 67
1
  8
0
100
AcDbText
 10
72.0
 20
28.0
 30
0.0
 40
2.4
  1
Enclosure views
100
AcDbText
  0
TEXT
  5
340
330
1B
100
AcDbEntity
 67
1
  8
0
100
AcDbText
 10
72.0
 20
16.0
 30
0.0
 40
3.0
  1
WBSC10-OUTLINE
100
AcDbText
  0
TEXT
  5
341
330
1B
100
AcDbEntity
 67
1
  8
0
100
AcDbText
 10
210.0
 20
33.0
 30
0.0
 40
2.4
  1
UNITS: mm
100
AcDbText
  0
TEXT
  5
342
330
1B
100
AcDbEntity
 67
1
  8
0
100
AcDbText
 10
210.0
 20
28.0
 30
0.0
 40
2.4
  1
MODEL: 1:1
100
AcDbText
  0
TEXT
  5
343
330
1B
100
AcDbEntity
 67
1
  8
0
100
AcDbText
 10
210.0
 20
16.0
 30
0.0
 40
2.4
  1
REV: R2
100
AcDbText
  0
TEXT
  5
344
330
1B
100
AcDbEntity
 67
1
  8
0
100
AcDbText
 10
251.0
 20
33.0
 30
0.0
 40
2.4
  1
2026-09-17
100
AcDbText
  0
TEXT
  5
345
330
1B
100
AcDbEntity
 67
1
  8
0
100
AcDbText
 10
251.0
 20
16.0
 30
0.0
 40
2.4
  1
SHEET 1/2
100
AcDbText
  0
TEXT
  5
346
330
1B
100
AcDbEntity
 67
1
  8
0
100
AcDbText
 10
14.0
 20
45.0
 30
0.0
 40
2.2
  1
Depth 86.50 and secondary views: REF. Glands and button caps are not included.
100
AcDbText
  0
VIEWPORT
  5
347
330
1B
100
AcDbEntity
 67
1
  8
VIEWPORTS
100
AcDbViewport
 10
148.5
 20
124.0
 30
0.0
 40
267.0
 41
140.0
 68
2
 69
3
 12
423.894365026861
 22
343.1945429740791
 13
0.0
 23
0.0
 14
10.0
 24
10.0
 15
10.0
 25
10.0
 16
0.0
 26
0.0
 36
1.0
 17
0.0
 27
0.0
 37
0.0
 42
50.0
 43
0.0
 44
0.0
 45
437.8964693042292
 50
0.0
 51
0.0
 72
100
 90
16384
  1

281
0
 71
0
 74
0
110
0.0
120
0.0
130
0.0
111
1.0
121
0.0
131
0.0
112
0.0
122
1.0
132
0.0
 79
0
146
0.0
282
0
  0
ENDSEC
  0
SECTION
  2
OBJECTS
  0
DICTIONARY
  5
A
330
0
100
AcDbDictionary
281
1
  3
ACAD_COLOR
350
B
  3
ACAD_GROUP
350
C
  3
ACAD_LAYOUT
350
D
  3
ACAD_MATERIAL
350
E
  3
ACAD_MLEADERSTYLE
350
F
  3
ACAD_MLINESTYLE
350
10
  3
ACAD_PLOTSETTINGS
350
11
  3
ACAD_PLOTSTYLENAME
350
12
  3
ACAD_SCALELIST
350
14
  3
ACAD_TABLESTYLE
350
15
  3
ACAD_VISUALSTYLE
350
16
  3
EZDXF_META
350
2D
  0
DICTIONARY
  5
B
330
A
100
AcDbDictionary
281
1
  0
DICTIONARY
  5
C
330
A
100
AcDbDictionary
281
1
  0
DICTIONARY
  5
D
330
A
100
AcDbDictionary
281
1
  3
Model
350
1A
  3
SHEET-1
350
1E
  3
SHEET-2
350
34B
  0
DICTIONARY
  5
E
330
A
100
AcDbDictionary
281
1
  3
ByBlock
350
1F
  3
ByLayer
350
20
  3
Global
350
21
  0
DICTIONARY
  5
F
330
A
100
AcDbDictionary
281
1
  3
Standard
350
2C
  0
DICTIONARY
  5
10
330
A
100
AcDbDictionary
281
1
  3
Standard
350
22
  0
DICTIONARY
  5
11
330
A
100
AcDbDictionary
281
1
  0
ACDBDICTIONARYWDFLT
  5
12
330
A
100
AcDbDictionary
281
1
  3
Normal
350
13
100
AcDbDictionaryWithDefault
340
13
  0
ACDBPLACEHOLDER
  5
13
330
12
  0
DICTIONARY
  5
14
330
A
100
AcDbDictionary
281
1
  0
DICTIONARY
  5
15
330
A
100
AcDbDictionary
281
1
  0
DICTIONARY
  5
16
330
A
100
AcDbDictionary
281
1
  0
LAYOUT
  5
1A
330
D
100
AcDbPlotSettings
  1

  4
A3
  6

 40
7.5
 41
20.0
 42
7.5
 43
20.0
 44
420.0
 45
297.0
 46
0.0
 47
0.0
 48
0.0
 49
0.0
140
0.0
141
0.0
142
1.0
143
1.0
 70
1024
 72
1
 73
0
 74
5
  7

 75
16
 76
0
 77
2
 78
300
147
1.0
148
0.0
149
0.0
100
AcDbLayout
  1
Model
 70
1
 71
0
 10
0.0
 20
0.0
 11
420.0
 21
297.0
 12
0.0
 22
0.0
 32
0.0
 14
1e+20
 24
1e+20
 34
1e+20
 15
-1e+20
 25
-1e+20
 35
-1e+20
146
0.0
 13
0.0
 23
0.0
 33
0.0
 16
1.0
 26
0.0
 36
0.0
 17
0.0
 27
1.0
 37
0.0
 76
1
330
17
  0
LAYOUT
  5
1E
330
D
100
AcDbPlotSettings
  1

  2
DWG to PDF.pc3
  4
ezdxf_(297.00_x_210.00_MM)
  6

 40
0.0
 41
0.0
 42
0.0
 43
0.0
 44
297.0
 45
210.0
 46
0.0
 47
0.0
 48
0.0
 49
0.0
140
0.0
141
0.0
142
1.0
143
1.0
 70
672
 72
1
 73
0
 74
5
  7

 75
16
 76
0
 77
2
 78
300
147
1.0
148
0.0
149
0.0
100
AcDbLayout
  1
SHEET-1
 70
1
 71
1
 10
-0.0
 20
-0.0
 11
297.0
 21
210.0
 12
0.0
 22
0.0
 32
0.0
 14
1e+20
 24
1e+20
 34
1e+20
 15
-1e+20
 25
-1e+20
 35
-1e+20
146
0.0
 13
0.0
 23
0.0
 33
0.0
 16
1.0
 26
0.0
 36
0.0
 17
0.0
 27
1.0
 37
0.0
 76
1
330
1B
331
335
  0
MATERIAL
  5
1F
102
{ACAD_REACTORS
330
E
102
}
330
E
100
AcDbMaterial
  1
ByBlock
  2

 70
0
 40
1.0
 71
1
 41
1.0
 91
-1023410177
 42
1.0
 72
1
  3

 73
1
 74
1
 75
1
 44
0.5
 73
0
 45
1.0
 46
1.0
 77
1
  4

 78
1
 79
1
170
1
 48
1.0
171
1
  6

172
1
173
1
174
1
140
1.0
141
1.0
175
1
  7

176
1
177
1
178
1
143
1.0
179
1
  8

270
1
271
1
272
1
145
1.0
146
1.0
273
1
  9

274
1
275
1
276
1
 42
1.0
 72
1
  3

 73
1
 74
1
 75
1
 94
63
  0
MATERIAL
  5
20
102
{ACAD_REACTORS
330
E
102
}
330
E
100
AcDbMaterial
  1
ByLayer
  2

 70
0
 40
1.0
 71
1
 41
1.0
 91
-1023410177
 42
1.0
 72
1
  3

 73
1
 74
1
 75
1
 44
0.5
 73
0
 45
1.0
 46
1.0
 77
1
  4

 78
1
 79
1
170
1
 48
1.0
171
1
  6

172
1
173
1
174
1
140
1.0
141
1.0
175
1
  7

176
1
177
1
178
1
143
1.0
179
1
  8

270
1
271
1
272
1
145
1.0
146
1.0
273
1
  9

274
1
275
1
276
1
 42
1.0
 72
1
  3

 73
1
 74
1
 75
1
 94
63
  0
MATERIAL
  5
21
102
{ACAD_REACTORS
330
E
102
}
330
E
100
AcDbMaterial
  1
Global
  2

 70
0
 40
1.0
 71
1
 41
1.0
 91
-1023410177
 42
1.0
 72
1
  3

 73
1
 74
1
 75
1
 44
0.5
 73
0
 45
1.0
 46
1.0
 77
1
  4

 78
1
 79
1
170
1
 48
1.0
171
1
  6

172
1
173
1
174
1
140
1.0
141
1.0
175
1
  7

176
1
177
1
178
1
143
1.0
179
1
  8

270
1
271
1
272
1
145
1.0
146
1.0
273
1
  9

274
1
275
1
276
1
 42
1.0
 72
1
  3

 73
1
 74
1
 75
1
 94
63
  0
MLINESTYLE
  5
22
102
{ACAD_REACTORS
330
10
102
}
330
10
100
AcDbMlineStyle
  2
Standard
 70
0
  3

 62
256
 51
90.0
 52
90.0
 71
2
 49
0.5
 62
256
  6
BYLAYER
 49
-0.5
 62
256
  6
BYLAYER
  0
MLEADERSTYLE
  5
2C
102
{ACAD_REACTORS
330
F
102
}
330
F
100
AcDbMLeaderStyle
179
2
170
2
171
1
172
0
 90
2
 40
0.0
 41
0.0
173
1
 91
-1056964608
 92
-2
290
1
 42
2.0
291
1
 43
8.0
  3
Standard
 44
4.0
300

342
29
174
1
175
1
176
0
178
1
 93
-1056964608
 45
4.0
292
0
297
0
 46
4.0
 94
-1056964608
 47
1.0
 49
1.0
140
1.0
294
1
141
0.0
177
0
142
1.0
295
0
296
0
143
3.75
271
0
272
9
273
9
  0
DICTIONARY
  5
2D
330
A
100
AcDbDictionary
280
1
281
1
  3
CREATED_BY_EZDXF
350
2E
  3
AUTHOR
350
333
  3
TITLE
350
334
  3
WRITTEN_BY_EZDXF
350
361
  0
DICTIONARYVAR
  5
2E
330
2D
100
DictionaryVariables
280
0
  1
1.4.4 @ 2026-09-17T02:56:10.291389+00:00
  0
DICTIONARYVAR
  5
333
330
2D
100
DictionaryVariables
280
0
  1
WATERBEE
  0
DICTIONARYVAR
  5
334
330
2D
100
DictionaryVariables
280
0
  1
WBSC10 outline and mounting dimensions
  0
LAYOUT
  5
34B
330
D
100
AcDbPlotSettings
  1

  2
DWG to PDF.pc3
  4
ezdxf_(297.00_x_210.00_MM)
  6

 40
0.0
 41
0.0
 42
0.0
 43
0.0
 44
297.0
 45
210.0
 46
0.0
 47
0.0
 48
0.0
 49
0.0
140
0.0
141
0.0
142
1.0
143
1.0
 70
672
 72
1
 73
0
 74
5
  7

 75
16
 76
0
 77
2
 78
300
147
1.0
148
0.0
149
0.0
100
AcDbLayout
  1
SHEET-2
 70
1
 71
3
 10
-0.0
 20
-0.0
 11
297.0
 21
210.0
 12
0.0
 22
0.0
 32
0.0
 14
1e+20
 24
1e+20
 34
1e+20
 15
-1e+20
 25
-1e+20
 35
-1e+20
146
0.0
 13
0.0
 23
0.0
 33
0.0
 16
1.0
 26
0.0
 36
0.0
 17
0.0
 27
1.0
 37
0.0
 76
1
330
348
331
34C
  0
DICTIONARYVAR
  5
361
330
2D
100
DictionaryVariables
280
0
  1
1.4.4 @ 2026-09-17T02:56:10.422521+00:00
  0
ENDSEC
  0
EOF
